<svg xmlns="http://www.w3.org/2000/svg" version="1.1" xmlns:xlink="http://www.w3.org/1999/xlink" xmlns:svgjs="http://svgjs.dev/svgjs" width="1440" height="560" preserveAspectRatio="none" viewBox="0 0 1440 560"><g mask="url(&quot;#SvgjsMask1146&quot;)" fill="none"><rect width="1440" height="560" x="0" y="0" fill="url(&quot;#SvgjsLinearGradient1147&quot;)"></rect><path d="M-49.47 394.41L-49.47 394.41" stroke="#132e65" stroke-width="1.5"></path><path d="M-49.47 394.41L-80.72 525.83" stroke="#132e65" stroke-width="1.5"></path><path d="M-49.47 394.41L92.38 374.37" stroke="#132e65" stroke-width="1.5"></path><path d="M-49.47 394.41L95.81 545.58" stroke="#132e65" stroke-width="1.5"></path><path d="M-80.72 525.83L-80.72 525.83" stroke="#132e65" stroke-width="1.5"></path><path d="M-80.72 525.83L95.81 545.58" stroke="#132e65" stroke-width="1.5"></path><path d="M-80.72 525.83L-38.23 702.37" stroke="#132e65" stroke-width="1.5"></path><path d="M-80.72 525.83L77.14 653.37" stroke="#132e65" stroke-width="1.5"></path><path d="M-80.72 525.83L92.38 374.37" stroke="#132e65" stroke-width="1.5"></path><path d="M-80.72 525.83L242.24 391.18" stroke="#132e65" stroke-width="1.5"></path><path d="M-38.23 702.37L-38.23 702.37" stroke="#132e65" stroke-width="1.5"></path><path d="M-38.23 702.37L77.14 653.37" stroke="#132e65" stroke-width="1.5"></path><path d="M-38.23 702.37L95.81 545.58" stroke="#132e65" stroke-width="1.5"></path><path d="M-38.23 702.37L-49.47 394.41" stroke="#132e65" stroke-width="1.5"></path><path d="M-38.23 702.37L92.38 374.37" stroke="#132e65" stroke-width="1.5"></path><path d="M92.38 374.37L92.38 374.37" stroke="#132e65" stroke-width="1.5"></path><path d="M92.38 374.37L242.24 391.18" stroke="#132e65" stroke-width="1.5"></path><path d="M95.81 545.58L95.81 545.58" stroke="#132e65" stroke-width="1.5"></path><path d="M95.81 545.58L77.14 653.37" stroke="#132e65" stroke-width="1.5"></path><path d="M95.81 545.58L92.38 374.37" stroke="#132e65" stroke-width="1.5"></path><path d="M95.81 545.58L242.24 391.18" stroke="#132e65" stroke-width="1.5"></path><path d="M77.14 653.37L77.14 653.37" stroke="#132e65" stroke-width="1.5"></path><path d="M77.14 653.37L92.38 374.37" stroke="#132e65" stroke-width="1.5"></path><path d="M242.24 391.18L242.24 391.18" stroke="#132e65" stroke-width="1.5"></path><path d="M242.24 391.18L359.46 348.14" stroke="#132e65" stroke-width="1.5"></path><path d="M359.46 348.14L359.46 348.14" stroke="#132e65" stroke-width="1.5"></path><path d="M359.46 348.14L539.27 346.09" stroke="#132e65" stroke-width="1.5"></path><path d="M359.46 348.14L490.33 496.89" stroke="#132e65" stroke-width="1.5"></path><path d="M359.46 348.14L373.13 558.27" stroke="#132e65" stroke-width="1.5"></path><path d="M373.13 558.27L373.13 558.27" stroke="#132e65" stroke-width="1.5"></path><path d="M373.13 558.27L380.93 689.06" stroke="#132e65" stroke-width="1.5"></path><path d="M373.13 558.27L490.33 496.89" stroke="#132e65" stroke-width="1.5"></path><path d="M373.13 558.27L492.39 680.98" stroke="#132e65" stroke-width="1.5"></path><path d="M380.93 689.06L380.93 689.06" stroke="#132e65" stroke-width="1.5"></path><path d="M380.93 689.06L492.39 680.98" stroke="#132e65" stroke-width="1.5"></path><path d="M539.27 346.09L539.27 346.09" stroke="#132e65" stroke-width="1.5"></path><path d="M539.27 346.09L648.43 393.33" stroke="#132e65" stroke-width="1.5"></path><path d="M539.27 346.09L490.33 496.89" stroke="#132e65" stroke-width="1.5"></path><path d="M539.27 346.09L694.11 250.57" stroke="#132e65" stroke-width="1.5"></path><path d="M539.27 346.09L373.13 558.27" stroke="#132e65" stroke-width="1.5"></path><path d="M539.27 346.09L242.24 391.18" stroke="#132e65" stroke-width="1.5"></path><path d="M490.33 496.89L490.33 496.89" stroke="#132e65" stroke-width="1.5"></path><path d="M490.33 496.89L492.39 680.98" stroke="#132e65" stroke-width="1.5"></path><path d="M490.33 496.89L648.43 393.33" stroke="#132e65" stroke-width="1.5"></path><path d="M490.33 496.89L380.93 689.06" stroke="#132e65" stroke-width="1.5"></path><path d="M492.39 680.98L492.39 680.98" stroke="#132e65" stroke-width="1.5"></path><path d="M492.39 680.98L648.43 393.33" stroke="#132e65" stroke-width="1.5"></path><path d="M694.11 250.57L694.11 250.57" stroke="#132e65" stroke-width="1.5"></path><path d="M694.11 250.57L826.8 218.54" stroke="#132e65" stroke-width="1.5"></path><path d="M694.11 250.57L648.43 393.33" stroke="#132e65" stroke-width="1.5"></path><path d="M648.43 393.33L648.43 393.33" stroke="#132e65" stroke-width="1.5"></path><path d="M826.8 218.54L826.8 218.54" stroke="#132e65" stroke-width="1.5"></path><path d="M826.8 218.54L852.01 362.29" stroke="#132e65" stroke-width="1.5"></path><path d="M826.8 218.54L983.25 235" stroke="#132e65" stroke-width="1.5"></path><path d="M826.8 218.54L1007.33 110.83" stroke="#132e65" stroke-width="1.5"></path><path d="M826.8 218.54L953.32 405.98" stroke="#132e65" stroke-width="1.5"></path><path d="M852.01 362.29L852.01 362.29" stroke="#132e65" stroke-width="1.5"></path><path d="M852.01 362.29L953.32 405.98" stroke="#132e65" stroke-width="1.5"></path><path d="M852.01 362.29L859.2 504.78" stroke="#132e65" stroke-width="1.5"></path><path d="M852.01 362.29L983.25 235" stroke="#132e65" stroke-width="1.5"></path><path d="M852.01 362.29L987.03 490.73" stroke="#132e65" stroke-width="1.5"></path><path d="M859.2 504.78L859.2 504.78" stroke="#132e65" stroke-width="1.5"></path><path d="M859.2 504.78L987.03 490.73" stroke="#132e65" stroke-width="1.5"></path><path d="M859.2 504.78L953.32 405.98" stroke="#132e65" stroke-width="1.5"></path><path d="M830.05 667.13L830.05 667.13" stroke="#132e65" stroke-width="1.5"></path><path d="M830.05 667.13L859.2 504.78" stroke="#132e65" stroke-width="1.5"></path><path d="M830.05 667.13L996.8 670.12" stroke="#132e65" stroke-width="1.5"></path><path d="M977.87 -67.71L977.87 -67.71" stroke="#132e65" stroke-width="1.5"></path><path d="M977.87 -67.71L1133.56 -68.83" stroke="#132e65" stroke-width="1.5"></path><path d="M977.87 -67.71L1007.33 110.83" stroke="#132e65" stroke-width="1.5"></path><path d="M977.87 -67.71L1114.28 57.78" stroke="#132e65" stroke-width="1.5"></path><path d="M977.87 -67.71L1245.34 59.71" stroke="#132e65" stroke-width="1.5"></path><path d="M977.87 -67.71L983.25 235" stroke="#132e65" stroke-width="1.5"></path><path d="M1007.33 110.83L1007.33 110.83" stroke="#132e65" stroke-width="1.5"></path><path d="M1007.33 110.83L1114.28 57.78" stroke="#132e65" stroke-width="1.5"></path><path d="M1007.33 110.83L983.25 235" stroke="#132e65" stroke-width="1.5"></path><path d="M1007.33 110.83L1122.49 221.46" stroke="#132e65" stroke-width="1.5"></path><path d="M983.25 235L983.25 235" stroke="#132e65" stroke-width="1.5"></path><path d="M983.25 235L1122.49 221.46" stroke="#132e65" stroke-width="1.5"></path><path d="M953.32 405.98L953.32 405.98" stroke="#132e65" stroke-width="1.5"></path><path d="M953.32 405.98L987.03 490.73" stroke="#132e65" stroke-width="1.5"></path><path d="M953.32 405.98L1097.3 379.89" stroke="#132e65" stroke-width="1.5"></path><path d="M953.32 405.98L983.25 235" stroke="#132e65" stroke-width="1.5"></path><path d="M987.03 490.73L987.03 490.73" stroke="#132e65" stroke-width="1.5"></path><path d="M996.8 670.12L996.8 670.12" stroke="#132e65" stroke-width="1.5"></path><path d="M996.8 670.12L1147.07 638.41" stroke="#132e65" stroke-width="1.5"></path><path d="M996.8 670.12L987.03 490.73" stroke="#132e65" stroke-width="1.5"></path><path d="M1133.56 -68.83L1133.56 -68.83" stroke="#132e65" stroke-width="1.5"></path><path d="M1133.56 -68.83L1114.28 57.78" stroke="#132e65" stroke-width="1.5"></path><path d="M1133.56 -68.83L1298.39 -102.65" stroke="#132e65" stroke-width="1.5"></path><path d="M1133.56 -68.83L1245.34 59.71" stroke="#132e65" stroke-width="1.5"></path><path d="M1114.28 57.78L1114.28 57.78" stroke="#132e65" stroke-width="1.5"></path><path d="M1114.28 57.78L1245.34 59.71" stroke="#132e65" stroke-width="1.5"></path><path d="M1114.28 57.78L1122.49 221.46" stroke="#132e65" stroke-width="1.5"></path><path d="M1122.49 221.46L1122.49 221.46" stroke="#132e65" stroke-width="1.5"></path><path d="M1122.49 221.46L1097.3 379.89" stroke="#132e65" stroke-width="1.5"></path><path d="M1122.49 221.46L1300.16 256.55" stroke="#132e65" stroke-width="1.5"></path><path d="M1097.3 379.89L1097.3 379.89" stroke="#132e65" stroke-width="1.5"></path><path d="M1097.3 379.89L1135.05 512.84" stroke="#132e65" stroke-width="1.5"></path><path d="M1097.3 379.89L987.03 490.73" stroke="#132e65" stroke-width="1.5"></path><path d="M1135.05 512.84L1135.05 512.84" stroke="#132e65" stroke-width="1.5"></path><path d="M1135.05 512.84L1147.07 638.41" stroke="#132e65" stroke-width="1.5"></path><path d="M1135.05 512.84L987.03 490.73" stroke="#132e65" stroke-width="1.5"></path><path d="M1135.05 512.84L1288.46 560.22" stroke="#132e65" stroke-width="1.5"></path><path d="M1135.05 512.84L1298.9 398.42" stroke="#132e65" stroke-width="1.5"></path><path d="M1135.05 512.84L1238.46 692.36" stroke="#132e65" stroke-width="1.5"></path><path d="M1147.07 638.41L1147.07 638.41" stroke="#132e65" stroke-width="1.5"></path><path d="M1147.07 638.41L1238.46 692.36" stroke="#132e65" stroke-width="1.5"></path><path d="M1298.39 -102.65L1298.39 -102.65" stroke="#132e65" stroke-width="1.5"></path><path d="M1298.39 -102.65L1409.56 -61.98" stroke="#132e65" stroke-width="1.5"></path><path d="M1245.34 59.71L1245.34 59.71" stroke="#132e65" stroke-width="1.5"></path><path d="M1245.34 59.71L1388.62 74.98" stroke="#132e65" stroke-width="1.5"></path><path d="M1245.34 59.71L1298.39 -102.65" stroke="#132e65" stroke-width="1.5"></path><path d="M1245.34 59.71L1122.49 221.46" stroke="#132e65" stroke-width="1.5"></path><path d="M1300.16 256.55L1300.16 256.55" stroke="#132e65" stroke-width="1.5"></path><path d="M1300.16 256.55L1298.9 398.42" stroke="#132e65" stroke-width="1.5"></path><path d="M1300.16 256.55L1451.09 219.87" stroke="#132e65" stroke-width="1.5"></path><path d="M1300.16 256.55L1413.71 404.54" stroke="#132e65" stroke-width="1.5"></path><path d="M1300.16 256.55L1388.62 74.98" stroke="#132e65" stroke-width="1.5"></path><path d="M1298.9 398.42L1298.9 398.42" stroke="#132e65" stroke-width="1.5"></path><path d="M1298.9 398.42L1413.71 404.54" stroke="#132e65" stroke-width="1.5"></path><path d="M1298.9 398.42L1288.46 560.22" stroke="#132e65" stroke-width="1.5"></path><path d="M1298.9 398.42L1432.02 509.37" stroke="#132e65" stroke-width="1.5"></path><path d="M1288.46 560.22L1288.46 560.22" stroke="#132e65" stroke-width="1.5"></path><path d="M1288.46 560.22L1238.46 692.36" stroke="#132e65" stroke-width="1.5"></path><path d="M1288.46 560.22L1432.02 509.37" stroke="#132e65" stroke-width="1.5"></path><path d="M1238.46 692.36L1238.46 692.36" stroke="#132e65" stroke-width="1.5"></path><path d="M1238.46 692.36L1460.73 694.03" stroke="#132e65" stroke-width="1.5"></path><path d="M1238.46 692.36L996.8 670.12" stroke="#132e65" stroke-width="1.5"></path><path d="M1409.56 -61.98L1409.56 -61.98" stroke="#132e65" stroke-width="1.5"></path><path d="M1409.56 -61.98L1388.62 74.98" stroke="#132e65" stroke-width="1.5"></path><path d="M1388.62 74.98L1388.62 74.98" stroke="#132e65" stroke-width="1.5"></path><path d="M1388.62 74.98L1451.09 219.87" stroke="#132e65" stroke-width="1.5"></path><path d="M1388.62 74.98L1298.39 -102.65" stroke="#132e65" stroke-width="1.5"></path><path d="M1388.62 74.98L1594 54.9" stroke="#132e65" stroke-width="1.5"></path><path d="M1451.09 219.87L1451.09 219.87" stroke="#132e65" stroke-width="1.5"></path><path d="M1451.09 219.87L1588.75 224.9" stroke="#132e65" stroke-width="1.5"></path><path d="M1451.09 219.87L1413.71 404.54" stroke="#132e65" stroke-width="1.5"></path><path d="M1413.71 404.54L1413.71 404.54" stroke="#132e65" stroke-width="1.5"></path><path d="M1413.71 404.54L1432.02 509.37" stroke="#132e65" stroke-width="1.5"></path><path d="M1432.02 509.37L1432.02 509.37" stroke="#132e65" stroke-width="1.5"></path><path d="M1460.73 694.03L1460.73 694.03" stroke="#132e65" stroke-width="1.5"></path><path d="M1460.73 694.03L1551.84 666.49" stroke="#132e65" stroke-width="1.5"></path><path d="M1460.73 694.03L1555.69 548.88" stroke="#132e65" stroke-width="1.5"></path><path d="M1572.96 -82.43L1572.96 -82.43" stroke="#132e65" stroke-width="1.5"></path><path d="M1572.96 -82.43L1594 54.9" stroke="#132e65" stroke-width="1.5"></path><path d="M1572.96 -82.43L1409.56 -61.98" stroke="#132e65" stroke-width="1.5"></path><path d="M1572.96 -82.43L1388.62 74.98" stroke="#132e65" stroke-width="1.5"></path><path d="M1572.96 -82.43L1298.39 -102.65" stroke="#132e65" stroke-width="1.5"></path><path d="M1572.96 -82.43L1588.75 224.9" stroke="#132e65" stroke-width="1.5"></path><path d="M1572.96 -82.43L1451.09 219.87" stroke="#132e65" stroke-width="1.5"></path><path d="M1594 54.9L1594 54.9" stroke="#132e65" stroke-width="1.5"></path><path d="M1594 54.9L1588.75 224.9" stroke="#132e65" stroke-width="1.5"></path><path d="M1594 54.9L1451.09 219.87" stroke="#132e65" stroke-width="1.5"></path><path d="M1588.75 224.9L1588.75 224.9" stroke="#132e65" stroke-width="1.5"></path><path d="M1608.79 400.47L1608.79 400.47" stroke="#132e65" stroke-width="1.5"></path><path d="M1608.79 400.47L1555.69 548.88" stroke="#132e65" stroke-width="1.5"></path><path d="M1608.79 400.47L1588.75 224.9" stroke="#132e65" stroke-width="1.5"></path><path d="M1608.79 400.47L1413.71 404.54" stroke="#132e65" stroke-width="1.5"></path><path d="M1608.79 400.47L1432.02 509.37" stroke="#132e65" stroke-width="1.5"></path><path d="M1555.69 548.88L1555.69 548.88" stroke="#132e65" stroke-width="1.5"></path><path d="M1555.69 548.88L1551.84 666.49" stroke="#132e65" stroke-width="1.5"></path><path d="M1555.69 548.88L1432.02 509.37" stroke="#132e65" stroke-width="1.5"></path><path d="M1555.69 548.88L1413.71 404.54" stroke="#132e65" stroke-width="1.5"></path><path d="M1555.69 548.88L1288.46 560.22" stroke="#132e65" stroke-width="1.5"></path><path d="M1551.84 666.49L1551.84 666.49" stroke="#132e65" stroke-width="1.5"></path><path d="M1551.84 666.49L1432.02 509.37" stroke="#132e65" stroke-width="1.5"></path><path d="M1551.84 666.49L1608.79 400.47" stroke="#132e65" stroke-width="1.5"></path><circle r="5" cx="-49.47" cy="394.41" fill="#132e65"></circle><circle r="5" cx="-80.72" cy="525.83" fill="#132e65"></circle><circle r="5" cx="-38.23" cy="702.37" fill="#132e65"></circle><circle r="5" cx="92.38" cy="374.37" fill="#132e65"></circle><circle r="5" cx="95.81" cy="545.58" fill="#132e65"></circle><circle r="5" cx="77.14" cy="653.37" fill="#132e65"></circle><circle r="5" cx="242.24" cy="391.18" fill="#132e65"></circle><circle r="5" cx="359.46" cy="348.14" fill="#132e65"></circle><circle r="5" cx="373.13" cy="558.27" fill="#132e65"></circle><circle r="5" cx="380.93" cy="689.06" fill="#132e65"></circle><circle r="5" cx="539.27" cy="346.09" fill="#132e65"></circle><circle r="5" cx="490.33" cy="496.89" fill="#132e65"></circle><circle r="5" cx="492.39" cy="680.98" fill="#132e65"></circle><circle r="5" cx="694.11" cy="250.57" fill="#132e65"></circle><circle r="5" cx="648.43" cy="393.33" fill="#132e65"></circle><circle r="5" cx="826.8" cy="218.54" fill="#132e65"></circle><circle r="5" cx="852.01" cy="362.29" fill="#132e65"></circle><circle r="5" cx="859.2" cy="504.78" fill="#132e65"></circle><circle r="5" cx="830.05" cy="667.13" fill="#132e65"></circle><circle r="5" cx="977.87" cy="-67.71" fill="#132e65"></circle><circle r="5" cx="1007.33" cy="110.83" fill="#132e65"></circle><circle r="5" cx="983.25" cy="235" fill="#132e65"></circle><circle r="5" cx="953.32" cy="405.98" fill="#132e65"></circle><circle r="5" cx="987.03" cy="490.73" fill="#132e65"></circle><circle r="5" cx="996.8" cy="670.12" fill="#132e65"></circle><circle r="5" cx="1133.56" cy="-68.83" fill="#132e65"></circle><circle r="5" cx="1114.28" cy="57.78" fill="#132e65"></circle><circle r="5" cx="1122.49" cy="221.46" fill="#132e65"></circle><circle r="5" cx="1097.3" cy="379.89" fill="#132e65"></circle><circle r="5" cx="1135.05" cy="512.84" fill="#132e65"></circle><circle r="5" cx="1147.07" cy="638.41" fill="#132e65"></circle><circle r="5" cx="1298.39" cy="-102.65" fill="#132e65"></circle><circle r="5" cx="1245.34" cy="59.71" fill="#132e65"></circle><circle r="5" cx="1300.16" cy="256.55" fill="#132e65"></circle><circle r="5" cx="1298.9" cy="398.42" fill="#132e65"></circle><circle r="5" cx="1288.46" cy="560.22" fill="#132e65"></circle><circle r="5" cx="1238.46" cy="692.36" fill="#132e65"></circle><circle r="5" cx="1409.56" cy="-61.98" fill="#132e65"></circle><circle r="5" cx="1388.62" cy="74.98" fill="#132e65"></circle><circle r="5" cx="1451.09" cy="219.87" fill="#132e65"></circle><circle r="5" cx="1413.71" cy="404.54" fill="#132e65"></circle><circle r="5" cx="1432.02" cy="509.37" fill="#132e65"></circle><circle r="5" cx="1460.73" cy="694.03" fill="#132e65"></circle><circle r="5" cx="1572.96" cy="-82.43" fill="#132e65"></circle><circle r="5" cx="1594" cy="54.9" fill="#132e65"></circle><circle r="5" cx="1588.75" cy="224.9" fill="#132e65"></circle><circle r="5" cx="1608.79" cy="400.47" fill="#132e65"></circle><circle r="5" cx="1555.69" cy="548.88" fill="#132e65"></circle><circle r="5" cx="1551.84" cy="666.49" fill="#132e65"></circle><path d="M213.57 662.94L213.57 662.94" stroke="hsla(227.10000000000002, 17.3%, 88.7%, 0.26)" stroke-width="1.5"></path><path d="M213.57 662.94L345.15 659.56" stroke="hsla(227.10000000000002, 17.3%, 88.7%, 0.26)" stroke-width="1.5"></path><path d="M213.57 662.94L73.07 648.07" stroke="hsla(227.10000000000002, 17.3%, 88.7%, 0.26)" stroke-width="1.5"></path><path d="M341.14 549.05L341.14 549.05" stroke="hsla(227.10000000000002, 17.3%, 88.7%, 0.26)" stroke-width="1.5"></path><path d="M341.14 549.05L345.15 659.56" stroke="hsla(227.10000000000002, 17.3%, 88.7%, 0.26)" stroke-width="1.5"></path><path d="M341.14 549.05L217.38 519.27" stroke="hsla(227.10000000000002, 17.3%, 88.7%, 0.26)" stroke-width="1.5"></path><path d="M664.34 379.36L664.34 379.36" stroke="hsla(227.10000000000002, 17.3%, 88.7%, 0.26)" stroke-width="1.5"></path><path d="M664.34 379.36L652.79 511.02" stroke="hsla(227.10000000000002, 17.3%, 88.7%, 0.26)" stroke-width="1.5"></path><path d="M664.34 379.36L798.79 365.55" stroke="hsla(227.10000000000002, 17.3%, 88.7%, 0.26)" stroke-width="1.5"></path><path d="M664.34 379.36L814.4 558.35" stroke="hsla(227.10000000000002, 17.3%, 88.7%, 0.26)" stroke-width="1.5"></path><path d="M840.8 642.78L840.8 642.78" stroke="hsla(227.10000000000002, 17.3%, 88.7%, 0.26)" stroke-width="1.5"></path><path d="M840.8 642.78L814.4 558.35" stroke="hsla(227.10000000000002, 17.3%, 88.7%, 0.26)" stroke-width="1.5"></path><path d="M840.8 642.78L999.53 659.67" stroke="hsla(227.10000000000002, 17.3%, 88.7%, 0.26)" stroke-width="1.5"></path><path d="M840.8 642.78L942.82 504.87" stroke="hsla(227.10000000000002, 17.3%, 88.7%, 0.26)" stroke-width="1.5"></path><path d="M840.8 642.78L652.79 511.02" stroke="hsla(227.10000000000002, 17.3%, 88.7%, 0.26)" stroke-width="1.5"></path><path d="M840.8 642.78L798.79 365.55" stroke="hsla(227.10000000000002, 17.3%, 88.7%, 0.26)" stroke-width="1.5"></path><path d="M840.8 642.78L1118.64 528.08" stroke="hsla(227.10000000000002, 17.3%, 88.7%, 0.26)" stroke-width="1.5"></path><path d="M1136.51 222.39L1136.51 222.39" stroke="hsla(227.10000000000002, 17.3%, 88.7%, 0.26)" stroke-width="1.5"></path><path d="M1136.51 222.39L1139.58 103.58" stroke="hsla(227.10000000000002, 17.3%, 88.7%, 0.26)" stroke-width="1.5"></path><path d="M1136.51 222.39L1105.49 360.09" stroke="hsla(227.10000000000002, 17.3%, 88.7%, 0.26)" stroke-width="1.5"></path><path d="M1149.56 646.57L1149.56 646.57" stroke="hsla(227.10000000000002, 17.3%, 88.7%, 0.26)" stroke-width="1.5"></path><path d="M1149.56 646.57L1241.84 712.45" stroke="hsla(227.10000000000002, 17.3%, 88.7%, 0.26)" stroke-width="1.5"></path><path d="M1149.56 646.57L1118.64 528.08" stroke="hsla(227.10000000000002, 17.3%, 88.7%, 0.26)" stroke-width="1.5"></path><path d="M1149.56 646.57L999.53 659.67" stroke="hsla(227.10000000000002, 17.3%, 88.7%, 0.26)" stroke-width="1.5"></path><path d="M1149.56 646.57L1295.11 528.75" stroke="hsla(227.10000000000002, 17.3%, 88.7%, 0.26)" stroke-width="1.5"></path><path d="M1149.56 646.57L942.82 504.87" stroke="hsla(227.10000000000002, 17.3%, 88.7%, 0.26)" stroke-width="1.5"></path><path d="M1149.56 646.57L1406.88 687.83" stroke="hsla(227.10000000000002, 17.3%, 88.7%, 0.26)" stroke-width="1.5"></path><path d="M1241.84 712.45L1241.84 712.45" stroke="hsla(227.10000000000002, 17.3%, 88.7%, 0.26)" stroke-width="1.5"></path><path d="M1241.84 712.45L1406.88 687.83" stroke="hsla(227.10000000000002, 17.3%, 88.7%, 0.26)" stroke-width="1.5"></path><path d="M1241.84 712.45L1295.11 528.75" stroke="hsla(227.10000000000002, 17.3%, 88.7%, 0.26)" stroke-width="1.5"></path><path d="M1450.92 92L1450.92 92" stroke="hsla(227.10000000000002, 17.3%, 88.7%, 0.26)" stroke-width="1.5"></path><path d="M1450.92 92L1456.56 190" stroke="hsla(227.10000000000002, 17.3%, 88.7%, 0.26)" stroke-width="1.5"></path><path d="M1450.92 92L1401.95 -67.29" stroke="hsla(227.10000000000002, 17.3%, 88.7%, 0.26)" stroke-width="1.5"></path><path d="M1610.81 -44.24L1610.81 -44.24" stroke="hsla(227.10000000000002, 17.3%, 88.7%, 0.26)" stroke-width="1.5"></path><path d="M1610.81 -44.24L1450.92 92" stroke="hsla(227.10000000000002, 17.3%, 88.7%, 0.26)" stroke-width="1.5"></path><path d="M1610.81 -44.24L1401.95 -67.29" stroke="hsla(227.10000000000002, 17.3%, 88.7%, 0.26)" stroke-width="1.5"></path><path d="M1610.81 -44.24L1456.56 190" stroke="hsla(227.10000000000002, 17.3%, 88.7%, 0.26)" stroke-width="1.5"></path><path d="M1610.81 -44.24L1273.15 102.61" stroke="hsla(227.10000000000002, 17.3%, 88.7%, 0.26)" stroke-width="1.5"></path><path d="M-38.98 518.21L-38.98 518.21" stroke="hsla(227.10000000000002, 17.3%, 88.7%, 0.26)" stroke-width="1.5"></path><path d="M-38.98 518.21L73.07 648.07" stroke="hsla(227.10000000000002, 17.3%, 88.7%, 0.26)" stroke-width="1.5"></path><path d="M-38.98 518.21L-92.95 712.41" stroke="hsla(227.10000000000002, 17.3%, 88.7%, 0.26)" stroke-width="1.5"></path><path d="M-38.98 518.21L217.38 519.27" stroke="hsla(227.10000000000002, 17.3%, 88.7%, 0.26)" stroke-width="1.5"></path><path d="M-38.98 518.21L213.57 662.94" stroke="hsla(227.10000000000002, 17.3%, 88.7%, 0.26)" stroke-width="1.5"></path><path d="M-92.95 712.41L-92.95 712.41" stroke="hsla(227.10000000000002, 17.3%, 88.7%, 0.26)" stroke-width="1.5"></path><path d="M-92.95 712.41L73.07 648.07" stroke="hsla(227.10000000000002, 17.3%, 88.7%, 0.26)" stroke-width="1.5"></path><path d="M73.07 648.07L73.07 648.07" stroke="hsla(227.10000000000002, 17.3%, 88.7%, 0.26)" stroke-width="1.5"></path><path d="M73.07 648.07L217.38 519.27" stroke="hsla(227.10000000000002, 17.3%, 88.7%, 0.26)" stroke-width="1.5"></path><path d="M73.07 648.07L345.15 659.56" stroke="hsla(227.10000000000002, 17.3%, 88.7%, 0.26)" stroke-width="1.5"></path><path d="M73.07 648.07L341.14 549.05" stroke="hsla(227.10000000000002, 17.3%, 88.7%, 0.26)" stroke-width="1.5"></path><path d="M217.38 519.27L217.38 519.27" stroke="hsla(227.10000000000002, 17.3%, 88.7%, 0.26)" stroke-width="1.5"></path><path d="M217.38 519.27L213.57 662.94" stroke="hsla(227.10000000000002, 17.3%, 88.7%, 0.26)" stroke-width="1.5"></path><path d="M217.38 519.27L345.15 659.56" stroke="hsla(227.10000000000002, 17.3%, 88.7%, 0.26)" stroke-width="1.5"></path><path d="M345.15 659.56L345.15 659.56" stroke="hsla(227.10000000000002, 17.3%, 88.7%, 0.26)" stroke-width="1.5"></path><path d="M489.72 704.18L489.72 704.18" stroke="hsla(227.10000000000002, 17.3%, 88.7%, 0.26)" stroke-width="1.5"></path><path d="M489.72 704.18L345.15 659.56" stroke="hsla(227.10000000000002, 17.3%, 88.7%, 0.26)" stroke-width="1.5"></path><path d="M489.72 704.18L341.14 549.05" stroke="hsla(227.10000000000002, 17.3%, 88.7%, 0.26)" stroke-width="1.5"></path><path d="M652.79 511.02L652.79 511.02" stroke="hsla(227.10000000000002, 17.3%, 88.7%, 0.26)" stroke-width="1.5"></path><path d="M652.79 511.02L814.4 558.35" stroke="hsla(227.10000000000002, 17.3%, 88.7%, 0.26)" stroke-width="1.5"></path><path d="M652.79 511.02L798.79 365.55" stroke="hsla(227.10000000000002, 17.3%, 88.7%, 0.26)" stroke-width="1.5"></path><path d="M798.79 365.55L798.79 365.55" stroke="hsla(227.10000000000002, 17.3%, 88.7%, 0.26)" stroke-width="1.5"></path><path d="M798.79 365.55L940.11 359.01" stroke="hsla(227.10000000000002, 17.3%, 88.7%, 0.26)" stroke-width="1.5"></path><path d="M798.79 365.55L814.4 558.35" stroke="hsla(227.10000000000002, 17.3%, 88.7%, 0.26)" stroke-width="1.5"></path><path d="M798.79 365.55L942.82 504.87" stroke="hsla(227.10000000000002, 17.3%, 88.7%, 0.26)" stroke-width="1.5"></path><path d="M814.4 558.35L814.4 558.35" stroke="hsla(227.10000000000002, 17.3%, 88.7%, 0.26)" stroke-width="1.5"></path><path d="M814.4 558.35L942.82 504.87" stroke="hsla(227.10000000000002, 17.3%, 88.7%, 0.26)" stroke-width="1.5"></path><path d="M940.11 359.01L940.11 359.01" stroke="hsla(227.10000000000002, 17.3%, 88.7%, 0.26)" stroke-width="1.5"></path><path d="M940.11 359.01L942.82 504.87" stroke="hsla(227.10000000000002, 17.3%, 88.7%, 0.26)" stroke-width="1.5"></path><path d="M940.11 359.01L1105.49 360.09" stroke="hsla(227.10000000000002, 17.3%, 88.7%, 0.26)" stroke-width="1.5"></path><path d="M940.11 359.01L814.4 558.35" stroke="hsla(227.10000000000002, 17.3%, 88.7%, 0.26)" stroke-width="1.5"></path><path d="M940.11 359.01L1136.51 222.39" stroke="hsla(227.10000000000002, 17.3%, 88.7%, 0.26)" stroke-width="1.5"></path><path d="M940.11 359.01L1118.64 528.08" stroke="hsla(227.10000000000002, 17.3%, 88.7%, 0.26)" stroke-width="1.5"></path><path d="M942.82 504.87L942.82 504.87" stroke="hsla(227.10000000000002, 17.3%, 88.7%, 0.26)" stroke-width="1.5"></path><path d="M942.82 504.87L999.53 659.67" stroke="hsla(227.10000000000002, 17.3%, 88.7%, 0.26)" stroke-width="1.5"></path><path d="M942.82 504.87L1118.64 528.08" stroke="hsla(227.10000000000002, 17.3%, 88.7%, 0.26)" stroke-width="1.5"></path><path d="M999.53 659.67L999.53 659.67" stroke="hsla(227.10000000000002, 17.3%, 88.7%, 0.26)" stroke-width="1.5"></path><path d="M999.53 659.67L1118.64 528.08" stroke="hsla(227.10000000000002, 17.3%, 88.7%, 0.26)" stroke-width="1.5"></path><path d="M1139.58 103.58L1139.58 103.58" stroke="hsla(227.10000000000002, 17.3%, 88.7%, 0.26)" stroke-width="1.5"></path><path d="M1139.58 103.58L1273.15 102.61" stroke="hsla(227.10000000000002, 17.3%, 88.7%, 0.26)" stroke-width="1.5"></path><path d="M1139.58 103.58L1241.26 -99.62" stroke="hsla(227.10000000000002, 17.3%, 88.7%, 0.26)" stroke-width="1.5"></path><path d="M1105.49 360.09L1105.49 360.09" stroke="hsla(227.10000000000002, 17.3%, 88.7%, 0.26)" stroke-width="1.5"></path><path d="M1105.49 360.09L1262.89 408.09" stroke="hsla(227.10000000000002, 17.3%, 88.7%, 0.26)" stroke-width="1.5"></path><path d="M1105.49 360.09L1118.64 528.08" stroke="hsla(227.10000000000002, 17.3%, 88.7%, 0.26)" stroke-width="1.5"></path><path d="M1105.49 360.09L942.82 504.87" stroke="hsla(227.10000000000002, 17.3%, 88.7%, 0.26)" stroke-width="1.5"></path><path d="M1118.64 528.08L1118.64 528.08" stroke="hsla(227.10000000000002, 17.3%, 88.7%, 0.26)" stroke-width="1.5"></path><path d="M1118.64 528.08L1295.11 528.75" stroke="hsla(227.10000000000002, 17.3%, 88.7%, 0.26)" stroke-width="1.5"></path><path d="M1118.64 528.08L1262.89 408.09" stroke="hsla(227.10000000000002, 17.3%, 88.7%, 0.26)" stroke-width="1.5"></path><path d="M1241.26 -99.62L1241.26 -99.62" stroke="hsla(227.10000000000002, 17.3%, 88.7%, 0.26)" stroke-width="1.5"></path><path d="M1241.26 -99.62L1401.95 -67.29" stroke="hsla(227.10000000000002, 17.3%, 88.7%, 0.26)" stroke-width="1.5"></path><path d="M1241.26 -99.62L1273.15 102.61" stroke="hsla(227.10000000000002, 17.3%, 88.7%, 0.26)" stroke-width="1.5"></path><path d="M1273.15 102.61L1273.15 102.61" stroke="hsla(227.10000000000002, 17.3%, 88.7%, 0.26)" stroke-width="1.5"></path><path d="M1273.15 102.61L1450.92 92" stroke="hsla(227.10000000000002, 17.3%, 88.7%, 0.26)" stroke-width="1.5"></path><path d="M1273.15 102.61L1136.51 222.39" stroke="hsla(227.10000000000002, 17.3%, 88.7%, 0.26)" stroke-width="1.5"></path><path d="M1273.15 102.61L1456.56 190" stroke="hsla(227.10000000000002, 17.3%, 88.7%, 0.26)" stroke-width="1.5"></path><path d="M1262.89 408.09L1262.89 408.09" stroke="hsla(227.10000000000002, 17.3%, 88.7%, 0.26)" stroke-width="1.5"></path><path d="M1262.89 408.09L1295.11 528.75" stroke="hsla(227.10000000000002, 17.3%, 88.7%, 0.26)" stroke-width="1.5"></path><path d="M1262.89 408.09L1433.46 405.16" stroke="hsla(227.10000000000002, 17.3%, 88.7%, 0.26)" stroke-width="1.5"></path><path d="M1262.89 408.09L1406.19 552.7" stroke="hsla(227.10000000000002, 17.3%, 88.7%, 0.26)" stroke-width="1.5"></path><path d="M1262.89 408.09L1136.51 222.39" stroke="hsla(227.10000000000002, 17.3%, 88.7%, 0.26)" stroke-width="1.5"></path><path d="M1295.11 528.75L1295.11 528.75" stroke="hsla(227.10000000000002, 17.3%, 88.7%, 0.26)" stroke-width="1.5"></path><path d="M1295.11 528.75L1406.19 552.7" stroke="hsla(227.10000000000002, 17.3%, 88.7%, 0.26)" stroke-width="1.5"></path><path d="M1295.11 528.75L1433.46 405.16" stroke="hsla(227.10000000000002, 17.3%, 88.7%, 0.26)" stroke-width="1.5"></path><path d="M1401.95 -67.29L1401.95 -67.29" stroke="hsla(227.10000000000002, 17.3%, 88.7%, 0.26)" stroke-width="1.5"></path><path d="M1401.95 -67.29L1273.15 102.61" stroke="hsla(227.10000000000002, 17.3%, 88.7%, 0.26)" stroke-width="1.5"></path><path d="M1401.95 -67.29L1456.56 190" stroke="hsla(227.10000000000002, 17.3%, 88.7%, 0.26)" stroke-width="1.5"></path><path d="M1401.95 -67.29L1139.58 103.58" stroke="hsla(227.10000000000002, 17.3%, 88.7%, 0.26)" stroke-width="1.5"></path><path d="M1456.56 190L1456.56 190" stroke="hsla(227.10000000000002, 17.3%, 88.7%, 0.26)" stroke-width="1.5"></path><path d="M1456.56 190L1433.46 405.16" stroke="hsla(227.10000000000002, 17.3%, 88.7%, 0.26)" stroke-width="1.5"></path><path d="M1433.46 405.16L1433.46 405.16" stroke="hsla(227.10000000000002, 17.3%, 88.7%, 0.26)" stroke-width="1.5"></path><path d="M1433.46 405.16L1406.19 552.7" stroke="hsla(227.10000000000002, 17.3%, 88.7%, 0.26)" stroke-width="1.5"></path><path d="M1433.46 405.16L1558.86 511.89" stroke="hsla(227.10000000000002, 17.3%, 88.7%, 0.26)" stroke-width="1.5"></path><path d="M1433.46 405.16L1572.07 640.62" stroke="hsla(227.10000000000002, 17.3%, 88.7%, 0.26)" stroke-width="1.5"></path><path d="M1406.19 552.7L1406.19 552.7" stroke="hsla(227.10000000000002, 17.3%, 88.7%, 0.26)" stroke-width="1.5"></path><path d="M1406.19 552.7L1406.88 687.83" stroke="hsla(227.10000000000002, 17.3%, 88.7%, 0.26)" stroke-width="1.5"></path><path d="M1406.88 687.83L1406.88 687.83" stroke="hsla(227.10000000000002, 17.3%, 88.7%, 0.26)" stroke-width="1.5"></path><path d="M1406.88 687.83L1572.07 640.62" stroke="hsla(227.10000000000002, 17.3%, 88.7%, 0.26)" stroke-width="1.5"></path><path d="M1558.86 511.89L1558.86 511.89" stroke="hsla(227.10000000000002, 17.3%, 88.7%, 0.26)" stroke-width="1.5"></path><path d="M1558.86 511.89L1572.07 640.62" stroke="hsla(227.10000000000002, 17.3%, 88.7%, 0.26)" stroke-width="1.5"></path><path d="M1558.86 511.89L1406.19 552.7" stroke="hsla(227.10000000000002, 17.3%, 88.7%, 0.26)" stroke-width="1.5"></path><path d="M1558.86 511.89L1406.88 687.83" stroke="hsla(227.10000000000002, 17.3%, 88.7%, 0.26)" stroke-width="1.5"></path><path d="M1558.86 511.89L1295.11 528.75" stroke="hsla(227.10000000000002, 17.3%, 88.7%, 0.26)" stroke-width="1.5"></path><path d="M1558.86 511.89L1262.89 408.09" stroke="hsla(227.10000000000002, 17.3%, 88.7%, 0.26)" stroke-width="1.5"></path><path d="M1572.07 640.62L1572.07 640.62" stroke="hsla(227.10000000000002, 17.3%, 88.7%, 0.26)" stroke-width="1.5"></path><circle r="25" cx="213.57" cy="662.94" fill="url(&quot;#SvgjsRadialGradient1148&quot;)"></circle><circle r="25" cx="341.14" cy="549.05" fill="url(&quot;#SvgjsRadialGradient1148&quot;)"></circle><circle r="25" cx="664.34" cy="379.36" fill="url(&quot;#SvgjsRadialGradient1148&quot;)"></circle><circle r="25" cx="840.8" cy="642.78" fill="url(&quot;#SvgjsRadialGradient1148&quot;)"></circle><circle r="25" cx="1136.51" cy="222.39" fill="url(&quot;#SvgjsRadialGradient1148&quot;)"></circle><circle r="25" cx="1149.56" cy="646.57" fill="url(&quot;#SvgjsRadialGradient1148&quot;)"></circle><circle r="25" cx="1241.84" cy="712.45" fill="url(&quot;#SvgjsRadialGradient1148&quot;)"></circle><circle r="25" cx="1450.92" cy="92" fill="url(&quot;#SvgjsRadialGradient1148&quot;)"></circle><circle r="25" cx="1610.81" cy="-44.24" fill="url(&quot;#SvgjsRadialGradient1148&quot;)"></circle><circle r="5" cx="-38.98" cy="518.21" fill="rgba(243, 243, 246, 0.63)"></circle><circle r="5" cx="-92.95" cy="712.41" fill="rgba(243, 243, 246, 0.63)"></circle><circle r="5" cx="73.07" cy="648.07" fill="rgba(243, 243, 246, 0.63)"></circle><circle r="5" cx="217.38" cy="519.27" fill="rgba(243, 243, 246, 0.63)"></circle><circle r="5" cx="345.15" cy="659.56" fill="rgba(243, 243, 246, 0.63)"></circle><circle r="5" cx="489.72" cy="704.18" fill="rgba(243, 243, 246, 0.63)"></circle><circle r="5" cx="652.79" cy="511.02" fill="rgba(243, 243, 246, 0.63)"></circle><circle r="5" cx="798.79" cy="365.55" fill="rgba(243, 243, 246, 0.63)"></circle><circle r="5" cx="814.4" cy="558.35" fill="rgba(243, 243, 246, 0.63)"></circle><circle r="5" cx="940.11" cy="359.01" fill="rgba(243, 243, 246, 0.63)"></circle><circle r="5" cx="942.82" cy="504.87" fill="rgba(243, 243, 246, 0.63)"></circle><circle r="5" cx="999.53" cy="659.67" fill="rgba(243, 243, 246, 0.63)"></circle><circle r="5" cx="1139.58" cy="103.58" fill="rgba(243, 243, 246, 0.63)"></circle><circle r="5" cx="1105.49" cy="360.09" fill="rgba(243, 243, 246, 0.63)"></circle><circle r="5" cx="1118.64" cy="528.08" fill="rgba(243, 243, 246, 0.63)"></circle><circle r="5" cx="1241.26" cy="-99.62" fill="rgba(243, 243, 246, 0.63)"></circle><circle r="5" cx="1273.15" cy="102.61" fill="rgba(243, 243, 246, 0.63)"></circle><circle r="5" cx="1262.89" cy="408.09" fill="rgba(243, 243, 246, 0.63)"></circle><circle r="5" cx="1295.11" cy="528.75" fill="rgba(243, 243, 246, 0.63)"></circle><circle r="5" cx="1401.95" cy="-67.29" fill="rgba(243, 243, 246, 0.63)"></circle><circle r="5" cx="1456.56" cy="190" fill="rgba(243, 243, 246, 0.63)"></circle><circle r="5" cx="1433.46" cy="405.16" fill="rgba(243, 243, 246, 0.63)"></circle><circle r="5" cx="1406.19" cy="552.7" fill="rgba(243, 243, 246, 0.63)"></circle><circle r="5" cx="1406.88" cy="687.83" fill="rgba(243, 243, 246, 0.63)"></circle><circle r="5" cx="1558.86" cy="511.89" fill="rgba(243, 243, 246, 0.63)"></circle><circle r="5" cx="1572.07" cy="640.62" fill="rgba(243, 243, 246, 0.63)"></circle></g><defs><mask id="SvgjsMask1146"><rect width="1440" height="560" fill="#ffffff"></rect></mask><linearGradient x1="0%" y1="50%" x2="100%" y2="50%" gradientUnits="userSpaceOnUse" id="SvgjsLinearGradient1147"><stop stop-color="#0e2a47" offset="0"></stop><stop stop-color="#00459e" offset="1"></stop></linearGradient><radialGradient id="SvgjsRadialGradient1148"><stop stop-color="#ffffff" offset="0.1"></stop><stop stop-color="rgba(160, 166, 188, 0.26)" offset="0.2"></stop><stop stop-color="rgba(160, 166, 188, 0)" offset="1"></stop></radialGradient></defs></svg>