<svg xmlns="http://www.w3.org/2000/svg" version="1.1" xmlns:xlink="http://www.w3.org/1999/xlink" xmlns:svgjs="http://svgjs.dev/svgjs" width="1440" height="560" preserveAspectRatio="none" viewBox="0 0 1440 560"><g mask="url(&quot;#SvgjsMask1002&quot;)" fill="none"><rect width="1440" height="560" x="0" y="0" fill="#0e2a47"></rect><path d="M-110.61 343.46L-110.61 343.46" stroke="#132e65" stroke-width="1.5"></path><path d="M-110.61 343.46L-106.17 494.44" stroke="#132e65" stroke-width="1.5"></path><path d="M-110.61 343.46L72.5 402.27" stroke="#132e65" stroke-width="1.5"></path><path d="M-106.17 494.44L-106.17 494.44" stroke="#132e65" stroke-width="1.5"></path><path d="M-106.17 494.44L-108.97 637.81" stroke="#132e65" stroke-width="1.5"></path><path d="M-106.17 494.44L40.48 528.81" stroke="#132e65" stroke-width="1.5"></path><path d="M-106.17 494.44L72.5 402.27" stroke="#132e65" stroke-width="1.5"></path><path d="M-108.97 637.81L-108.97 637.81" stroke="#132e65" stroke-width="1.5"></path><path d="M-108.97 637.81L69.26 664.75" stroke="#132e65" stroke-width="1.5"></path><path d="M72.5 402.27L72.5 402.27" stroke="#132e65" stroke-width="1.5"></path><path d="M72.5 402.27L40.48 528.81" stroke="#132e65" stroke-width="1.5"></path><path d="M72.5 402.27L253.81 396.91" stroke="#132e65" stroke-width="1.5"></path><path d="M72.5 402.27L242.51 533.67" stroke="#132e65" stroke-width="1.5"></path><path d="M40.48 528.81L40.48 528.81" stroke="#132e65" stroke-width="1.5"></path><path d="M69.26 664.75L69.26 664.75" stroke="#132e65" stroke-width="1.5"></path><path d="M69.26 664.75L204.93 662.94" stroke="#132e65" stroke-width="1.5"></path><path d="M69.26 664.75L40.48 528.81" stroke="#132e65" stroke-width="1.5"></path><path d="M69.26 664.75L242.51 533.67" stroke="#132e65" stroke-width="1.5"></path><path d="M69.26 664.75L-106.17 494.44" stroke="#132e65" stroke-width="1.5"></path><path d="M253.81 396.91L253.81 396.91" stroke="#132e65" stroke-width="1.5"></path><path d="M253.81 396.91L242.51 533.67" stroke="#132e65" stroke-width="1.5"></path><path d="M253.81 396.91L402.38 392.39" stroke="#132e65" stroke-width="1.5"></path><path d="M242.51 533.67L242.51 533.67" stroke="#132e65" stroke-width="1.5"></path><path d="M242.51 533.67L204.93 662.94" stroke="#132e65" stroke-width="1.5"></path><path d="M242.51 533.67L389.49 550.55" stroke="#132e65" stroke-width="1.5"></path><path d="M242.51 533.67L380.98 638.25" stroke="#132e65" stroke-width="1.5"></path><path d="M204.93 662.94L204.93 662.94" stroke="#132e65" stroke-width="1.5"></path><path d="M204.93 662.94L380.98 638.25" stroke="#132e65" stroke-width="1.5"></path><path d="M204.93 662.94L40.48 528.81" stroke="#132e65" stroke-width="1.5"></path><path d="M204.93 662.94L389.49 550.55" stroke="#132e65" stroke-width="1.5"></path><path d="M402.38 392.39L402.38 392.39" stroke="#132e65" stroke-width="1.5"></path><path d="M402.38 392.39L492.43 382.85" stroke="#132e65" stroke-width="1.5"></path><path d="M402.38 392.39L389.49 550.55" stroke="#132e65" stroke-width="1.5"></path><path d="M402.38 392.39L534.94 545.9" stroke="#132e65" stroke-width="1.5"></path><path d="M402.38 392.39L242.51 533.67" stroke="#132e65" stroke-width="1.5"></path><path d="M389.49 550.55L389.49 550.55" stroke="#132e65" stroke-width="1.5"></path><path d="M389.49 550.55L380.98 638.25" stroke="#132e65" stroke-width="1.5"></path><path d="M380.98 638.25L380.98 638.25" stroke="#132e65" stroke-width="1.5"></path><path d="M380.98 638.25L490.16 705.27" stroke="#132e65" stroke-width="1.5"></path><path d="M492.43 382.85L492.43 382.85" stroke="#132e65" stroke-width="1.5"></path><path d="M492.43 382.85L534.94 545.9" stroke="#132e65" stroke-width="1.5"></path><path d="M492.43 382.85L389.49 550.55" stroke="#132e65" stroke-width="1.5"></path><path d="M534.94 545.9L534.94 545.9" stroke="#132e65" stroke-width="1.5"></path><path d="M534.94 545.9L389.49 550.55" stroke="#132e65" stroke-width="1.5"></path><path d="M534.94 545.9L689.37 519.31" stroke="#132e65" stroke-width="1.5"></path><path d="M534.94 545.9L490.16 705.27" stroke="#132e65" stroke-width="1.5"></path><path d="M534.94 545.9L380.98 638.25" stroke="#132e65" stroke-width="1.5"></path><path d="M490.16 705.27L490.16 705.27" stroke="#132e65" stroke-width="1.5"></path><path d="M648.88 224.66L648.88 224.66" stroke="#132e65" stroke-width="1.5"></path><path d="M648.88 224.66L492.43 382.85" stroke="#132e65" stroke-width="1.5"></path><path d="M648.88 224.66L689.37 519.31" stroke="#132e65" stroke-width="1.5"></path><path d="M648.88 224.66L402.38 392.39" stroke="#132e65" stroke-width="1.5"></path><path d="M648.88 224.66L984.12 217.43" stroke="#132e65" stroke-width="1.5"></path><path d="M689.37 519.31L689.37 519.31" stroke="#132e65" stroke-width="1.5"></path><path d="M689.37 519.31L788.89 638.89" stroke="#132e65" stroke-width="1.5"></path><path d="M689.37 519.31L853.79 512.83" stroke="#132e65" stroke-width="1.5"></path><path d="M711.7 685.93L711.7 685.93" stroke="#132e65" stroke-width="1.5"></path><path d="M711.7 685.93L788.89 638.89" stroke="#132e65" stroke-width="1.5"></path><path d="M711.7 685.93L689.37 519.31" stroke="#132e65" stroke-width="1.5"></path><path d="M853.79 512.83L853.79 512.83" stroke="#132e65" stroke-width="1.5"></path><path d="M853.79 512.83L974.22 507.39" stroke="#132e65" stroke-width="1.5"></path><path d="M788.89 638.89L788.89 638.89" stroke="#132e65" stroke-width="1.5"></path><path d="M788.89 638.89L853.79 512.83" stroke="#132e65" stroke-width="1.5"></path><path d="M788.89 638.89L999.83 661.46" stroke="#132e65" stroke-width="1.5"></path><path d="M940.48 56.97L940.48 56.97" stroke="#132e65" stroke-width="1.5"></path><path d="M940.48 56.97L984.12 217.43" stroke="#132e65" stroke-width="1.5"></path><path d="M940.48 56.97L1090.24 223.7" stroke="#132e65" stroke-width="1.5"></path><path d="M940.48 56.97L1156.05 -110.92" stroke="#132e65" stroke-width="1.5"></path><path d="M940.48 56.97L1237.92 73.69" stroke="#132e65" stroke-width="1.5"></path><path d="M984.12 217.43L984.12 217.43" stroke="#132e65" stroke-width="1.5"></path><path d="M984.12 217.43L1090.24 223.7" stroke="#132e65" stroke-width="1.5"></path><path d="M1005.1 369.62L1005.1 369.62" stroke="#132e65" stroke-width="1.5"></path><path d="M1005.1 369.62L974.22 507.39" stroke="#132e65" stroke-width="1.5"></path><path d="M1005.1 369.62L1152.41 406.41" stroke="#132e65" stroke-width="1.5"></path><path d="M1005.1 369.62L984.12 217.43" stroke="#132e65" stroke-width="1.5"></path><path d="M1005.1 369.62L1090.24 223.7" stroke="#132e65" stroke-width="1.5"></path><path d="M1005.1 369.62L853.79 512.83" stroke="#132e65" stroke-width="1.5"></path><path d="M974.22 507.39L974.22 507.39" stroke="#132e65" stroke-width="1.5"></path><path d="M974.22 507.39L999.83 661.46" stroke="#132e65" stroke-width="1.5"></path><path d="M974.22 507.39L1138.05 547.8" stroke="#132e65" stroke-width="1.5"></path><path d="M999.83 661.46L999.83 661.46" stroke="#132e65" stroke-width="1.5"></path><path d="M999.83 661.46L1110.75 644.71" stroke="#132e65" stroke-width="1.5"></path><path d="M999.83 661.46L1138.05 547.8" stroke="#132e65" stroke-width="1.5"></path><path d="M999.83 661.46L853.79 512.83" stroke="#132e65" stroke-width="1.5"></path><path d="M1156.05 -110.92L1156.05 -110.92" stroke="#132e65" stroke-width="1.5"></path><path d="M1156.05 -110.92L1307.98 -54.48" stroke="#132e65" stroke-width="1.5"></path><path d="M1156.05 -110.92L1237.92 73.69" stroke="#132e65" stroke-width="1.5"></path><path d="M1156.05 -110.92L1423.83 -99.17" stroke="#132e65" stroke-width="1.5"></path><path d="M1090.24 223.7L1090.24 223.7" stroke="#132e65" stroke-width="1.5"></path><path d="M1090.24 223.7L1152.41 406.41" stroke="#132e65" stroke-width="1.5"></path><path d="M1152.41 406.41L1152.41 406.41" stroke="#132e65" stroke-width="1.5"></path><path d="M1152.41 406.41L1291.93 399.62" stroke="#132e65" stroke-width="1.5"></path><path d="M1152.41 406.41L1138.05 547.8" stroke="#132e65" stroke-width="1.5"></path><path d="M1138.05 547.8L1138.05 547.8" stroke="#132e65" stroke-width="1.5"></path><path d="M1138.05 547.8L1110.75 644.71" stroke="#132e65" stroke-width="1.5"></path><path d="M1138.05 547.8L1281.38 552.6" stroke="#132e65" stroke-width="1.5"></path><path d="M1138.05 547.8L1255.6 642.82" stroke="#132e65" stroke-width="1.5"></path><path d="M1110.75 644.71L1110.75 644.71" stroke="#132e65" stroke-width="1.5"></path><path d="M1110.75 644.71L1255.6 642.82" stroke="#132e65" stroke-width="1.5"></path><path d="M1110.75 644.71L974.22 507.39" stroke="#132e65" stroke-width="1.5"></path><path d="M1110.75 644.71L1281.38 552.6" stroke="#132e65" stroke-width="1.5"></path><path d="M1110.75 644.71L1152.41 406.41" stroke="#132e65" stroke-width="1.5"></path><path d="M1307.98 -54.48L1307.98 -54.48" stroke="#132e65" stroke-width="1.5"></path><path d="M1307.98 -54.48L1423.83 -99.17" stroke="#132e65" stroke-width="1.5"></path><path d="M1307.98 -54.48L1237.92 73.69" stroke="#132e65" stroke-width="1.5"></path><path d="M1237.92 73.69L1237.92 73.69" stroke="#132e65" stroke-width="1.5"></path><path d="M1237.92 73.69L1307.97 223.26" stroke="#132e65" stroke-width="1.5"></path><path d="M1237.92 73.69L1418.99 92.63" stroke="#132e65" stroke-width="1.5"></path><path d="M1237.92 73.69L1090.24 223.7" stroke="#132e65" stroke-width="1.5"></path><path d="M1237.92 73.69L1401.82 214.19" stroke="#132e65" stroke-width="1.5"></path><path d="M1307.97 223.26L1307.97 223.26" stroke="#132e65" stroke-width="1.5"></path><path d="M1307.97 223.26L1401.82 214.19" stroke="#132e65" stroke-width="1.5"></path><path d="M1307.97 223.26L1418.99 92.63" stroke="#132e65" stroke-width="1.5"></path><path d="M1307.97 223.26L1291.93 399.62" stroke="#132e65" stroke-width="1.5"></path><path d="M1291.93 399.62L1291.93 399.62" stroke="#132e65" stroke-width="1.5"></path><path d="M1291.93 399.62L1422.95 360.87" stroke="#132e65" stroke-width="1.5"></path><path d="M1291.93 399.62L1281.38 552.6" stroke="#132e65" stroke-width="1.5"></path><path d="M1291.93 399.62L1430.47 515.13" stroke="#132e65" stroke-width="1.5"></path><path d="M1281.38 552.6L1281.38 552.6" stroke="#132e65" stroke-width="1.5"></path><path d="M1281.38 552.6L1255.6 642.82" stroke="#132e65" stroke-width="1.5"></path><path d="M1281.38 552.6L1393.07 639.41" stroke="#132e65" stroke-width="1.5"></path><path d="M1255.6 642.82L1255.6 642.82" stroke="#132e65" stroke-width="1.5"></path><path d="M1255.6 642.82L1393.07 639.41" stroke="#132e65" stroke-width="1.5"></path><path d="M1423.83 -99.17L1423.83 -99.17" stroke="#132e65" stroke-width="1.5"></path><path d="M1423.83 -99.17L1573.47 -60.96" stroke="#132e65" stroke-width="1.5"></path><path d="M1423.83 -99.17L1418.99 92.63" stroke="#132e65" stroke-width="1.5"></path><path d="M1418.99 92.63L1418.99 92.63" stroke="#132e65" stroke-width="1.5"></path><path d="M1418.99 92.63L1401.82 214.19" stroke="#132e65" stroke-width="1.5"></path><path d="M1401.82 214.19L1401.82 214.19" stroke="#132e65" stroke-width="1.5"></path><path d="M1401.82 214.19L1422.95 360.87" stroke="#132e65" stroke-width="1.5"></path><path d="M1401.82 214.19L1576.9 207.11" stroke="#132e65" stroke-width="1.5"></path><path d="M1401.82 214.19L1291.93 399.62" stroke="#132e65" stroke-width="1.5"></path><path d="M1422.95 360.87L1422.95 360.87" stroke="#132e65" stroke-width="1.5"></path><path d="M1422.95 360.87L1538.56 396.66" stroke="#132e65" stroke-width="1.5"></path><path d="M1430.47 515.13L1430.47 515.13" stroke="#132e65" stroke-width="1.5"></path><path d="M1430.47 515.13L1393.07 639.41" stroke="#132e65" stroke-width="1.5"></path><path d="M1430.47 515.13L1564.44 513.53" stroke="#132e65" stroke-width="1.5"></path><path d="M1430.47 515.13L1281.38 552.6" stroke="#132e65" stroke-width="1.5"></path><path d="M1430.47 515.13L1422.95 360.87" stroke="#132e65" stroke-width="1.5"></path><path d="M1430.47 515.13L1538.56 396.66" stroke="#132e65" stroke-width="1.5"></path><path d="M1393.07 639.41L1393.07 639.41" stroke="#132e65" stroke-width="1.5"></path><path d="M1393.07 639.41L1585.02 645.35" stroke="#132e65" stroke-width="1.5"></path><path d="M1393.07 639.41L1564.44 513.53" stroke="#132e65" stroke-width="1.5"></path><path d="M1573.47 -60.96L1573.47 -60.96" stroke="#132e65" stroke-width="1.5"></path><path d="M1576.9 207.11L1576.9 207.11" stroke="#132e65" stroke-width="1.5"></path><path d="M1576.9 207.11L1538.56 396.66" stroke="#132e65" stroke-width="1.5"></path><path d="M1538.56 396.66L1538.56 396.66" stroke="#132e65" stroke-width="1.5"></path><path d="M1538.56 396.66L1564.44 513.53" stroke="#132e65" stroke-width="1.5"></path><path d="M1564.44 513.53L1564.44 513.53" stroke="#132e65" stroke-width="1.5"></path><path d="M1564.44 513.53L1585.02 645.35" stroke="#132e65" stroke-width="1.5"></path><path d="M1564.44 513.53L1422.95 360.87" stroke="#132e65" stroke-width="1.5"></path><path d="M1585.02 645.35L1585.02 645.35" stroke="#132e65" stroke-width="1.5"></path><path d="M1585.02 645.35L1430.47 515.13" stroke="#132e65" stroke-width="1.5"></path><circle r="5" cx="-110.61" cy="343.46" fill="#132e65"></circle><circle r="5" cx="-106.17" cy="494.44" fill="#132e65"></circle><circle r="5" cx="-108.97" cy="637.81" fill="#132e65"></circle><circle r="5" cx="72.5" cy="402.27" fill="#132e65"></circle><circle r="5" cx="40.48" cy="528.81" fill="#132e65"></circle><circle r="5" cx="69.26" cy="664.75" fill="#132e65"></circle><circle r="5" cx="253.81" cy="396.91" fill="#132e65"></circle><circle r="5" cx="242.51" cy="533.67" fill="#132e65"></circle><circle r="5" cx="204.93" cy="662.94" fill="#132e65"></circle><circle r="5" cx="402.38" cy="392.39" fill="#132e65"></circle><circle r="5" cx="389.49" cy="550.55" fill="#132e65"></circle><circle r="5" cx="380.98" cy="638.25" fill="#132e65"></circle><circle r="5" cx="492.43" cy="382.85" fill="#132e65"></circle><circle r="5" cx="534.94" cy="545.9" fill="#132e65"></circle><circle r="5" cx="490.16" cy="705.27" fill="#132e65"></circle><circle r="5" cx="648.88" cy="224.66" fill="#132e65"></circle><circle r="5" cx="689.37" cy="519.31" fill="#132e65"></circle><circle r="5" cx="711.7" cy="685.93" fill="#132e65"></circle><circle r="5" cx="853.79" cy="512.83" fill="#132e65"></circle><circle r="5" cx="788.89" cy="638.89" fill="#132e65"></circle><circle r="5" cx="940.48" cy="56.97" fill="#132e65"></circle><circle r="5" cx="984.12" cy="217.43" fill="#132e65"></circle><circle r="5" cx="1005.1" cy="369.62" fill="#132e65"></circle><circle r="5" cx="974.22" cy="507.39" fill="#132e65"></circle><circle r="5" cx="999.83" cy="661.46" fill="#132e65"></circle><circle r="5" cx="1156.05" cy="-110.92" fill="#132e65"></circle><circle r="5" cx="1090.24" cy="223.7" fill="#132e65"></circle><circle r="5" cx="1152.41" cy="406.41" fill="#132e65"></circle><circle r="5" cx="1138.05" cy="547.8" fill="#132e65"></circle><circle r="5" cx="1110.75" cy="644.71" fill="#132e65"></circle><circle r="5" cx="1307.98" cy="-54.48" fill="#132e65"></circle><circle r="5" cx="1237.92" cy="73.69" fill="#132e65"></circle><circle r="5" cx="1307.97" cy="223.26" fill="#132e65"></circle><circle r="5" cx="1291.93" cy="399.62" fill="#132e65"></circle><circle r="5" cx="1281.38" cy="552.6" fill="#132e65"></circle><circle r="5" cx="1255.6" cy="642.82" fill="#132e65"></circle><circle r="5" cx="1423.83" cy="-99.17" fill="#132e65"></circle><circle r="5" cx="1418.99" cy="92.63" fill="#132e65"></circle><circle r="5" cx="1401.82" cy="214.19" fill="#132e65"></circle><circle r="5" cx="1422.95" cy="360.87" fill="#132e65"></circle><circle r="5" cx="1430.47" cy="515.13" fill="#132e65"></circle><circle r="5" cx="1393.07" cy="639.41" fill="#132e65"></circle><circle r="5" cx="1573.47" cy="-60.96" fill="#132e65"></circle><circle r="5" cx="1576.9" cy="207.11" fill="#132e65"></circle><circle r="5" cx="1538.56" cy="396.66" fill="#132e65"></circle><circle r="5" cx="1564.44" cy="513.53" fill="#132e65"></circle><circle r="5" cx="1585.02" cy="645.35" fill="#132e65"></circle><path d="M661.75 687.64L661.75 687.64" stroke="hsl(173.20000000000005, 100%, 44.9%)" stroke-width="1.5"></path><path d="M661.75 687.64L542.91 702.38" stroke="hsl(173.20000000000005, 100%, 44.9%)" stroke-width="1.5"></path><path d="M661.75 687.64L667.8 540.36" stroke="hsl(173.20000000000005, 100%, 44.9%)" stroke-width="1.5"></path><path d="M661.75 687.64L830.87 681.97" stroke="hsl(173.20000000000005, 100%, 44.9%)" stroke-width="1.5"></path><path d="M661.75 687.64L546.66 535.37" stroke="hsl(173.20000000000005, 100%, 44.9%)" stroke-width="1.5"></path><path d="M855.49 514.98L855.49 514.98" stroke="hsl(173.20000000000005, 100%, 44.9%)" stroke-width="1.5"></path><path d="M855.49 514.98L959.14 547.1" stroke="hsl(173.20000000000005, 100%, 44.9%)" stroke-width="1.5"></path><path d="M855.49 514.98L857.74 396.69" stroke="hsl(173.20000000000005, 100%, 44.9%)" stroke-width="1.5"></path><path d="M855.49 514.98L830.87 681.97" stroke="hsl(173.20000000000005, 100%, 44.9%)" stroke-width="1.5"></path><path d="M855.49 514.98L938.98 671.41" stroke="hsl(173.20000000000005, 100%, 44.9%)" stroke-width="1.5"></path><path d="M1309.4 -45.68L1309.4 -45.68" stroke="hsl(173.20000000000005, 100%, 44.9%)" stroke-width="1.5"></path><path d="M1309.4 -45.68L1422.48 -68.17" stroke="hsl(173.20000000000005, 100%, 44.9%)" stroke-width="1.5"></path><path d="M1309.4 -45.68L1305.6 106.69" stroke="hsl(173.20000000000005, 100%, 44.9%)" stroke-width="1.5"></path><path d="M1309.4 -45.68L1427.2 109.37" stroke="hsl(173.20000000000005, 100%, 44.9%)" stroke-width="1.5"></path><path d="M1309.4 -45.68L1564.41 -104.14" stroke="hsl(173.20000000000005, 100%, 44.9%)" stroke-width="1.5"></path><path d="M-44.85 522.45L-44.85 522.45" stroke="hsl(173.20000000000005, 100%, 44.9%)" stroke-width="1.5"></path><path d="M-44.85 522.45L53.11 539.76" stroke="hsl(173.20000000000005, 100%, 44.9%)" stroke-width="1.5"></path><path d="M-44.85 522.45L-46.37 663.91" stroke="hsl(173.20000000000005, 100%, 44.9%)" stroke-width="1.5"></path><path d="M-44.85 522.45L110.02 645.08" stroke="hsl(173.20000000000005, 100%, 44.9%)" stroke-width="1.5"></path><path d="M-44.85 522.45L241.19 517.45" stroke="hsl(173.20000000000005, 100%, 44.9%)" stroke-width="1.5"></path><path d="M-44.85 522.45L368.14 557.18" stroke="hsl(173.20000000000005, 100%, 44.9%)" stroke-width="1.5"></path><path d="M-44.85 522.45L403.87 711.48" stroke="hsl(173.20000000000005, 100%, 44.9%)" stroke-width="1.5"></path><path d="M-46.37 663.91L-46.37 663.91" stroke="hsl(173.20000000000005, 100%, 44.9%)" stroke-width="1.5"></path><path d="M-46.37 663.91L110.02 645.08" stroke="hsl(173.20000000000005, 100%, 44.9%)" stroke-width="1.5"></path><path d="M-46.37 663.91L53.11 539.76" stroke="hsl(173.20000000000005, 100%, 44.9%)" stroke-width="1.5"></path><path d="M-46.37 663.91L241.19 517.45" stroke="hsl(173.20000000000005, 100%, 44.9%)" stroke-width="1.5"></path><path d="M-46.37 663.91L368.14 557.18" stroke="hsl(173.20000000000005, 100%, 44.9%)" stroke-width="1.5"></path><path d="M-46.37 663.91L403.87 711.48" stroke="hsl(173.20000000000005, 100%, 44.9%)" stroke-width="1.5"></path><path d="M53.11 539.76L53.11 539.76" stroke="hsl(173.20000000000005, 100%, 44.9%)" stroke-width="1.5"></path><path d="M53.11 539.76L110.02 645.08" stroke="hsl(173.20000000000005, 100%, 44.9%)" stroke-width="1.5"></path><path d="M53.11 539.76L241.19 517.45" stroke="hsl(173.20000000000005, 100%, 44.9%)" stroke-width="1.5"></path><path d="M53.11 539.76L368.14 557.18" stroke="hsl(173.20000000000005, 100%, 44.9%)" stroke-width="1.5"></path><path d="M53.11 539.76L403.87 711.48" stroke="hsl(173.20000000000005, 100%, 44.9%)" stroke-width="1.5"></path><path d="M110.02 645.08L110.02 645.08" stroke="hsl(173.20000000000005, 100%, 44.9%)" stroke-width="1.5"></path><path d="M110.02 645.08L241.19 517.45" stroke="hsl(173.20000000000005, 100%, 44.9%)" stroke-width="1.5"></path><path d="M110.02 645.08L368.14 557.18" stroke="hsl(173.20000000000005, 100%, 44.9%)" stroke-width="1.5"></path><path d="M241.19 517.45L241.19 517.45" stroke="hsl(173.20000000000005, 100%, 44.9%)" stroke-width="1.5"></path><path d="M241.19 517.45L368.14 557.18" stroke="hsl(173.20000000000005, 100%, 44.9%)" stroke-width="1.5"></path><path d="M241.19 517.45L403.87 711.48" stroke="hsl(173.20000000000005, 100%, 44.9%)" stroke-width="1.5"></path><path d="M368.14 557.18L368.14 557.18" stroke="hsl(173.20000000000005, 100%, 44.9%)" stroke-width="1.5"></path><path d="M368.14 557.18L403.87 711.48" stroke="hsl(173.20000000000005, 100%, 44.9%)" stroke-width="1.5"></path><path d="M368.14 557.18L546.66 535.37" stroke="hsl(173.20000000000005, 100%, 44.9%)" stroke-width="1.5"></path><path d="M368.14 557.18L542.91 702.38" stroke="hsl(173.20000000000005, 100%, 44.9%)" stroke-width="1.5"></path><path d="M403.87 711.48L403.87 711.48" stroke="hsl(173.20000000000005, 100%, 44.9%)" stroke-width="1.5"></path><path d="M403.87 711.48L542.91 702.38" stroke="hsl(173.20000000000005, 100%, 44.9%)" stroke-width="1.5"></path><path d="M403.87 711.48L546.66 535.37" stroke="hsl(173.20000000000005, 100%, 44.9%)" stroke-width="1.5"></path><path d="M546.66 535.37L546.66 535.37" stroke="hsl(173.20000000000005, 100%, 44.9%)" stroke-width="1.5"></path><path d="M546.66 535.37L667.8 540.36" stroke="hsl(173.20000000000005, 100%, 44.9%)" stroke-width="1.5"></path><path d="M546.66 535.37L542.91 702.38" stroke="hsl(173.20000000000005, 100%, 44.9%)" stroke-width="1.5"></path><path d="M542.91 702.38L542.91 702.38" stroke="hsl(173.20000000000005, 100%, 44.9%)" stroke-width="1.5"></path><path d="M542.91 702.38L667.8 540.36" stroke="hsl(173.20000000000005, 100%, 44.9%)" stroke-width="1.5"></path><path d="M677.64 374.53L677.64 374.53" stroke="hsl(173.20000000000005, 100%, 44.9%)" stroke-width="1.5"></path><path d="M677.64 374.53L667.8 540.36" stroke="hsl(173.20000000000005, 100%, 44.9%)" stroke-width="1.5"></path><path d="M677.64 374.53L857.74 396.69" stroke="hsl(173.20000000000005, 100%, 44.9%)" stroke-width="1.5"></path><path d="M677.64 374.53L546.66 535.37" stroke="hsl(173.20000000000005, 100%, 44.9%)" stroke-width="1.5"></path><path d="M677.64 374.53L855.49 514.98" stroke="hsl(173.20000000000005, 100%, 44.9%)" stroke-width="1.5"></path><path d="M677.64 374.53L661.75 687.64" stroke="hsl(173.20000000000005, 100%, 44.9%)" stroke-width="1.5"></path><path d="M667.8 540.36L667.8 540.36" stroke="hsl(173.20000000000005, 100%, 44.9%)" stroke-width="1.5"></path><path d="M667.8 540.36L855.49 514.98" stroke="hsl(173.20000000000005, 100%, 44.9%)" stroke-width="1.5"></path><path d="M857.74 396.69L857.74 396.69" stroke="hsl(173.20000000000005, 100%, 44.9%)" stroke-width="1.5"></path><path d="M857.74 396.69L1007.73 375.05" stroke="hsl(173.20000000000005, 100%, 44.9%)" stroke-width="1.5"></path><path d="M857.74 396.69L959.14 547.1" stroke="hsl(173.20000000000005, 100%, 44.9%)" stroke-width="1.5"></path><path d="M830.87 681.97L830.87 681.97" stroke="hsl(173.20000000000005, 100%, 44.9%)" stroke-width="1.5"></path><path d="M830.87 681.97L938.98 671.41" stroke="hsl(173.20000000000005, 100%, 44.9%)" stroke-width="1.5"></path><path d="M830.87 681.97L959.14 547.1" stroke="hsl(173.20000000000005, 100%, 44.9%)" stroke-width="1.5"></path><path d="M1007.73 375.05L1007.73 375.05" stroke="hsl(173.20000000000005, 100%, 44.9%)" stroke-width="1.5"></path><path d="M1007.73 375.05L1090.56 356.37" stroke="hsl(173.20000000000005, 100%, 44.9%)" stroke-width="1.5"></path><path d="M1007.73 375.05L959.14 547.1" stroke="hsl(173.20000000000005, 100%, 44.9%)" stroke-width="1.5"></path><path d="M1007.73 375.05L1103.2 558.27" stroke="hsl(173.20000000000005, 100%, 44.9%)" stroke-width="1.5"></path><path d="M1007.73 375.05L855.49 514.98" stroke="hsl(173.20000000000005, 100%, 44.9%)" stroke-width="1.5"></path><path d="M959.14 547.1L959.14 547.1" stroke="hsl(173.20000000000005, 100%, 44.9%)" stroke-width="1.5"></path><path d="M959.14 547.1L938.98 671.41" stroke="hsl(173.20000000000005, 100%, 44.9%)" stroke-width="1.5"></path><path d="M938.98 671.41L938.98 671.41" stroke="hsl(173.20000000000005, 100%, 44.9%)" stroke-width="1.5"></path><path d="M938.98 671.41L1102.26 688.88" stroke="hsl(173.20000000000005, 100%, 44.9%)" stroke-width="1.5"></path><path d="M1090.56 356.37L1090.56 356.37" stroke="hsl(173.20000000000005, 100%, 44.9%)" stroke-width="1.5"></path><path d="M1090.56 356.37L1103.2 558.27" stroke="hsl(173.20000000000005, 100%, 44.9%)" stroke-width="1.5"></path><path d="M1090.56 356.37L1296.68 354.83" stroke="hsl(173.20000000000005, 100%, 44.9%)" stroke-width="1.5"></path><path d="M1090.56 356.37L959.14 547.1" stroke="hsl(173.20000000000005, 100%, 44.9%)" stroke-width="1.5"></path><path d="M1090.56 356.37L857.74 396.69" stroke="hsl(173.20000000000005, 100%, 44.9%)" stroke-width="1.5"></path><path d="M1103.2 558.27L1103.2 558.27" stroke="hsl(173.20000000000005, 100%, 44.9%)" stroke-width="1.5"></path><path d="M1103.2 558.27L1102.26 688.88" stroke="hsl(173.20000000000005, 100%, 44.9%)" stroke-width="1.5"></path><path d="M1103.2 558.27L959.14 547.1" stroke="hsl(173.20000000000005, 100%, 44.9%)" stroke-width="1.5"></path><path d="M1103.2 558.27L1286.74 504.22" stroke="hsl(173.20000000000005, 100%, 44.9%)" stroke-width="1.5"></path><path d="M1103.2 558.27L938.98 671.41" stroke="hsl(173.20000000000005, 100%, 44.9%)" stroke-width="1.5"></path><path d="M1102.26 688.88L1102.26 688.88" stroke="hsl(173.20000000000005, 100%, 44.9%)" stroke-width="1.5"></path><path d="M1102.26 688.88L1284.55 665.08" stroke="hsl(173.20000000000005, 100%, 44.9%)" stroke-width="1.5"></path><path d="M1102.26 688.88L959.14 547.1" stroke="hsl(173.20000000000005, 100%, 44.9%)" stroke-width="1.5"></path><path d="M1102.26 688.88L1286.74 504.22" stroke="hsl(173.20000000000005, 100%, 44.9%)" stroke-width="1.5"></path><path d="M1305.6 106.69L1305.6 106.69" stroke="hsl(173.20000000000005, 100%, 44.9%)" stroke-width="1.5"></path><path d="M1305.6 106.69L1427.2 109.37" stroke="hsl(173.20000000000005, 100%, 44.9%)" stroke-width="1.5"></path><path d="M1305.6 106.69L1295.82 237.6" stroke="hsl(173.20000000000005, 100%, 44.9%)" stroke-width="1.5"></path><path d="M1295.82 237.6L1295.82 237.6" stroke="hsl(173.20000000000005, 100%, 44.9%)" stroke-width="1.5"></path><path d="M1295.82 237.6L1296.68 354.83" stroke="hsl(173.20000000000005, 100%, 44.9%)" stroke-width="1.5"></path><path d="M1296.68 354.83L1296.68 354.83" stroke="hsl(173.20000000000005, 100%, 44.9%)" stroke-width="1.5"></path><path d="M1296.68 354.83L1286.74 504.22" stroke="hsl(173.20000000000005, 100%, 44.9%)" stroke-width="1.5"></path><path d="M1296.68 354.83L1451.12 375.55" stroke="hsl(173.20000000000005, 100%, 44.9%)" stroke-width="1.5"></path><path d="M1286.74 504.22L1286.74 504.22" stroke="hsl(173.20000000000005, 100%, 44.9%)" stroke-width="1.5"></path><path d="M1286.74 504.22L1409.05 520.05" stroke="hsl(173.20000000000005, 100%, 44.9%)" stroke-width="1.5"></path><path d="M1286.74 504.22L1284.55 665.08" stroke="hsl(173.20000000000005, 100%, 44.9%)" stroke-width="1.5"></path><path d="M1284.55 665.08L1284.55 665.08" stroke="hsl(173.20000000000005, 100%, 44.9%)" stroke-width="1.5"></path><path d="M1422.48 -68.17L1422.48 -68.17" stroke="hsl(173.20000000000005, 100%, 44.9%)" stroke-width="1.5"></path><path d="M1422.48 -68.17L1564.41 -104.14" stroke="hsl(173.20000000000005, 100%, 44.9%)" stroke-width="1.5"></path><path d="M1422.48 -68.17L1427.2 109.37" stroke="hsl(173.20000000000005, 100%, 44.9%)" stroke-width="1.5"></path><path d="M1422.48 -68.17L1305.6 106.69" stroke="hsl(173.20000000000005, 100%, 44.9%)" stroke-width="1.5"></path><path d="M1422.48 -68.17L1601.38 90.75" stroke="hsl(173.20000000000005, 100%, 44.9%)" stroke-width="1.5"></path><path d="M1422.48 -68.17L1449.81 194.61" stroke="hsl(173.20000000000005, 100%, 44.9%)" stroke-width="1.5"></path><path d="M1427.2 109.37L1427.2 109.37" stroke="hsl(173.20000000000005, 100%, 44.9%)" stroke-width="1.5"></path><path d="M1427.2 109.37L1449.81 194.61" stroke="hsl(173.20000000000005, 100%, 44.9%)" stroke-width="1.5"></path><path d="M1449.81 194.61L1449.81 194.61" stroke="hsl(173.20000000000005, 100%, 44.9%)" stroke-width="1.5"></path><path d="M1449.81 194.61L1558.52 218.22" stroke="hsl(173.20000000000005, 100%, 44.9%)" stroke-width="1.5"></path><path d="M1449.81 194.61L1295.82 237.6" stroke="hsl(173.20000000000005, 100%, 44.9%)" stroke-width="1.5"></path><path d="M1449.81 194.61L1305.6 106.69" stroke="hsl(173.20000000000005, 100%, 44.9%)" stroke-width="1.5"></path><path d="M1449.81 194.61L1451.12 375.55" stroke="hsl(173.20000000000005, 100%, 44.9%)" stroke-width="1.5"></path><path d="M1449.81 194.61L1601.38 90.75" stroke="hsl(173.20000000000005, 100%, 44.9%)" stroke-width="1.5"></path><path d="M1451.12 375.55L1451.12 375.55" stroke="hsl(173.20000000000005, 100%, 44.9%)" stroke-width="1.5"></path><path d="M1451.12 375.55L1582.97 339.2" stroke="hsl(173.20000000000005, 100%, 44.9%)" stroke-width="1.5"></path><path d="M1451.12 375.55L1409.05 520.05" stroke="hsl(173.20000000000005, 100%, 44.9%)" stroke-width="1.5"></path><path d="M1409.05 520.05L1409.05 520.05" stroke="hsl(173.20000000000005, 100%, 44.9%)" stroke-width="1.5"></path><path d="M1409.05 520.05L1552.62 561.72" stroke="hsl(173.20000000000005, 100%, 44.9%)" stroke-width="1.5"></path><path d="M1409.05 520.05L1284.55 665.08" stroke="hsl(173.20000000000005, 100%, 44.9%)" stroke-width="1.5"></path><path d="M1409.05 520.05L1296.68 354.83" stroke="hsl(173.20000000000005, 100%, 44.9%)" stroke-width="1.5"></path><path d="M1564.41 -104.14L1564.41 -104.14" stroke="hsl(173.20000000000005, 100%, 44.9%)" stroke-width="1.5"></path><path d="M1564.41 -104.14L1601.38 90.75" stroke="hsl(173.20000000000005, 100%, 44.9%)" stroke-width="1.5"></path><path d="M1601.38 90.75L1601.38 90.75" stroke="hsl(173.20000000000005, 100%, 44.9%)" stroke-width="1.5"></path><path d="M1601.38 90.75L1558.52 218.22" stroke="hsl(173.20000000000005, 100%, 44.9%)" stroke-width="1.5"></path><path d="M1601.38 90.75L1427.2 109.37" stroke="hsl(173.20000000000005, 100%, 44.9%)" stroke-width="1.5"></path><path d="M1558.52 218.22L1558.52 218.22" stroke="hsl(173.20000000000005, 100%, 44.9%)" stroke-width="1.5"></path><path d="M1558.52 218.22L1582.97 339.2" stroke="hsl(173.20000000000005, 100%, 44.9%)" stroke-width="1.5"></path><path d="M1558.52 218.22L1427.2 109.37" stroke="hsl(173.20000000000005, 100%, 44.9%)" stroke-width="1.5"></path><path d="M1558.52 218.22L1451.12 375.55" stroke="hsl(173.20000000000005, 100%, 44.9%)" stroke-width="1.5"></path><path d="M1558.52 218.22L1295.82 237.6" stroke="hsl(173.20000000000005, 100%, 44.9%)" stroke-width="1.5"></path><path d="M1582.97 339.2L1582.97 339.2" stroke="hsl(173.20000000000005, 100%, 44.9%)" stroke-width="1.5"></path><path d="M1582.97 339.2L1449.81 194.61" stroke="hsl(173.20000000000005, 100%, 44.9%)" stroke-width="1.5"></path><path d="M1552.62 561.72L1552.62 561.72" stroke="hsl(173.20000000000005, 100%, 44.9%)" stroke-width="1.5"></path><path d="M1552.62 561.72L1451.12 375.55" stroke="hsl(173.20000000000005, 100%, 44.9%)" stroke-width="1.5"></path><path d="M1552.62 561.72L1582.97 339.2" stroke="hsl(173.20000000000005, 100%, 44.9%)" stroke-width="1.5"></path><path d="M1552.62 561.72L1286.74 504.22" stroke="hsl(173.20000000000005, 100%, 44.9%)" stroke-width="1.5"></path><path d="M1552.62 561.72L1284.55 665.08" stroke="hsl(173.20000000000005, 100%, 44.9%)" stroke-width="1.5"></path><circle r="25" cx="661.75" cy="687.64" fill="url(&quot;#SvgjsRadialGradient1003&quot;)"></circle><circle r="25" cx="855.49" cy="514.98" fill="url(&quot;#SvgjsRadialGradient1003&quot;)"></circle><circle r="25" cx="1309.4" cy="-45.68" fill="url(&quot;#SvgjsRadialGradient1003&quot;)"></circle><circle r="5" cx="-44.85" cy="522.45" fill="#80d8ce"></circle><circle r="5" cx="-46.37" cy="663.91" fill="#80d8ce"></circle><circle r="5" cx="53.11" cy="539.76" fill="#80d8ce"></circle><circle r="5" cx="110.02" cy="645.08" fill="#80d8ce"></circle><circle r="5" cx="241.19" cy="517.45" fill="#80d8ce"></circle><circle r="5" cx="368.14" cy="557.18" fill="#80d8ce"></circle><circle r="5" cx="403.87" cy="711.48" fill="#80d8ce"></circle><circle r="5" cx="546.66" cy="535.37" fill="#80d8ce"></circle><circle r="5" cx="542.91" cy="702.38" fill="#80d8ce"></circle><circle r="5" cx="677.64" cy="374.53" fill="#80d8ce"></circle><circle r="5" cx="667.8" cy="540.36" fill="#80d8ce"></circle><circle r="5" cx="857.74" cy="396.69" fill="#80d8ce"></circle><circle r="5" cx="830.87" cy="681.97" fill="#80d8ce"></circle><circle r="5" cx="1007.73" cy="375.05" fill="#80d8ce"></circle><circle r="5" cx="959.14" cy="547.1" fill="#80d8ce"></circle><circle r="5" cx="938.98" cy="671.41" fill="#80d8ce"></circle><circle r="5" cx="1090.56" cy="356.37" fill="#80d8ce"></circle><circle r="5" cx="1103.2" cy="558.27" fill="#80d8ce"></circle><circle r="5" cx="1102.26" cy="688.88" fill="#80d8ce"></circle><circle r="5" cx="1305.6" cy="106.69" fill="#80d8ce"></circle><circle r="5" cx="1295.82" cy="237.6" fill="#80d8ce"></circle><circle r="5" cx="1296.68" cy="354.83" fill="#80d8ce"></circle><circle r="5" cx="1286.74" cy="504.22" fill="#80d8ce"></circle><circle r="5" cx="1284.55" cy="665.08" fill="#80d8ce"></circle><circle r="5" cx="1422.48" cy="-68.17" fill="#80d8ce"></circle><circle r="5" cx="1427.2" cy="109.37" fill="#80d8ce"></circle><circle r="5" cx="1449.81" cy="194.61" fill="#80d8ce"></circle><circle r="5" cx="1451.12" cy="375.55" fill="#80d8ce"></circle><circle r="5" cx="1409.05" cy="520.05" fill="#80d8ce"></circle><circle r="5" cx="1564.41" cy="-104.14" fill="#80d8ce"></circle><circle r="5" cx="1601.38" cy="90.75" fill="#80d8ce"></circle><circle r="5" cx="1558.52" cy="218.22" fill="#80d8ce"></circle><circle r="5" cx="1582.97" cy="339.2" fill="#80d8ce"></circle><circle r="5" cx="1552.62" cy="561.72" fill="#80d8ce"></circle></g><defs><mask id="SvgjsMask1002"><rect width="1440" height="560" fill="#ffffff"></rect></mask><radialGradient id="SvgjsRadialGradient1003"><stop stop-color="#ffffff" offset="0.1"></stop><stop stop-color="rgba(0, 176, 156, 1)" offset="0.2"></stop><stop stop-color="rgba(0, 176, 156, 0)" offset="1"></stop></radialGradient></defs></svg>