<svg xmlns="http://www.w3.org/2000/svg" version="1.1" xmlns:xlink="http://www.w3.org/1999/xlink" xmlns:svgjs="http://svgjs.dev/svgjs" width="1440" height="560" preserveAspectRatio="none" viewBox="0 0 1440 560"><g mask="url(&quot;#SvgjsMask1003&quot;)" fill="none"><rect width="1440" height="560" x="0" y="0" fill="rgba(0, 176, 156, 1)"></rect><path d="M0,401.682C80.37,399.674,163.945,403.716,233.052,362.636C303.251,320.907,345.012,247.255,382.142,174.519C420.689,99.008,469.832,17.842,451.29,-64.886C432.946,-146.727,353.494,-197.466,287.24,-248.895C231.322,-292.301,161.692,-304.722,99.284,-338.131C16.113,-382.655,-46.274,-485.652,-140.282,-477.757C-232.562,-470.007,-302.841,-382.067,-346.973,-300.654C-387.265,-226.325,-359.664,-137.118,-370.395,-53.255C-380.904,28.868,-433.4,107.723,-409.369,186.952C-384.46,269.076,-316.658,334.61,-240.66,374.474C-167.689,412.75,-82.374,403.741,0,401.682" fill="#008d7d"></path><path d="M1440 1175.3110000000001C1555.949 1169.0520000000001 1656.72 1110.516 1761.103 1059.647 1879.616 1001.892 2038.341 978.1800000000001 2091.803 857.669 2145.303 737.072 2041.217 606.817 2019.738 476.646 1998.844 350.022 2039.373 209.27999999999997 1967.2930000000001 103.09800000000001 1892.962-6.399999999999977 1759.847-59.64499999999998 1632.132-94.34000000000003 1506.177-128.55700000000002 1373.153-130.88099999999997 1248.507-92.16499999999996 1125.049-53.817999999999984 1020.605 25.547000000000025 934.813 122.25299999999999 848.278 219.798 752.626 331.486 757.058 461.808 761.41 589.766 896.843 667.575 957.198 780.488 1012.405 883.77 1005.159 1021.424 1095.816 1095.5610000000001 1188.866 1171.655 1319.973 1181.7910000000002 1440 1175.3110000000001" fill="#00d3bb"></path></g><defs><mask id="SvgjsMask1003"><rect width="1440" height="560" fill="#ffffff"></rect></mask></defs></svg>