<?xml version="1.0" encoding="UTF-8"?>
<svg xmlns="http://www.w3.org/2000/svg" xmlns:xlink="http://www.w3.org/1999/xlink" viewBox="0 0 839.27 660.39">
  <defs>
    <style>
      .cls-1, .cls-2, .cls-3, .cls-4, .cls-5, .cls-6, .cls-7, .cls-8 {
        fill: none;
      }

      .cls-9, .cls-10, .cls-11, .cls-12, .cls-13 {
        fill-rule: evenodd;
      }

      .cls-9, .cls-14 {
        fill: url(#linear-gradient-5);
      }

      .cls-15 {
        filter: url(#drop-shadow-1);
      }

      .cls-16 {
        fill: url(#radial-gradient-2);
      }

      .cls-16, .cls-17 {
        mix-blend-mode: screen;
      }

      .cls-10, .cls-18, .cls-19, .cls-20 {
        fill: #fff;
      }

      .cls-2 {
        stroke-width: 2.51px;
      }

      .cls-2, .cls-3, .cls-6, .cls-7, .cls-8 {
        stroke-miterlimit: 10;
      }

      .cls-2, .cls-8 {
        stroke: #804b1e;
      }

      .cls-21 {
        fill: url(#linear-gradient-8);
      }

      .cls-22 {
        fill: url(#linear-gradient-7);
      }

      .cls-23 {
        fill: url(#linear-gradient-6);
      }

      .cls-24 {
        fill: url(#linear-gradient-9);
      }

      .cls-25 {
        fill: url(#linear-gradient-4);
      }

      .cls-26 {
        fill: url(#linear-gradient-2);
      }

      .cls-27, .cls-11 {
        fill: #002a39;
      }

      .cls-18, .cls-19 {
        mix-blend-mode: overlay;
      }

      .cls-18, .cls-28 {
        opacity: .4;
      }

      .cls-19 {
        opacity: .73;
      }

      .cls-29 {
        fill: url(#_ÂÁ_Ï_ÌÌ_È_ËÂÌÚ_6);
      }

      .cls-30 {
        fill: #804b1e;
      }

      .cls-31 {
        isolation: isolate;
      }

      .cls-3 {
        stroke: url(#linear-gradient-3);
      }

      .cls-3, .cls-6 {
        stroke-width: 3.65px;
      }

      .cls-32 {
        fill: #005373;
      }

      .cls-33, .cls-12 {
        fill: #00a6e5;
      }

      .cls-17 {
        fill: url(#radial-gradient);
      }

      .cls-34 {
        clip-path: url(#clippath-1);
      }

      .cls-14 {
        clip-rule: evenodd;
      }

      .cls-4 {
        stroke-dasharray: 0 5.47;
      }

      .cls-4, .cls-5 {
        stroke: #005373;
        stroke-linecap: round;
        stroke-linejoin: round;
        stroke-width: 2.74px;
      }

      .cls-35 {
        fill: url(#linear-gradient-10);
      }

      .cls-36 {
        fill: url(#linear-gradient-11);
      }

      .cls-37 {
        fill: url(#linear-gradient-12);
      }

      .cls-38 {
        fill: url(#linear-gradient-13);
      }

      .cls-39 {
        fill: url(#linear-gradient-19);
      }

      .cls-40 {
        fill: url(#linear-gradient-14);
      }

      .cls-41 {
        fill: url(#linear-gradient-21);
      }

      .cls-42 {
        fill: url(#linear-gradient-20);
      }

      .cls-43 {
        fill: url(#linear-gradient-22);
      }

      .cls-44 {
        fill: url(#linear-gradient-23);
      }

      .cls-45 {
        fill: url(#linear-gradient-28);
      }

      .cls-46 {
        fill: url(#linear-gradient-25);
      }

      .cls-47 {
        fill: url(#linear-gradient-30);
      }

      .cls-48 {
        fill: url(#linear-gradient-15);
      }

      .cls-49 {
        fill: url(#linear-gradient-16);
      }

      .cls-50 {
        fill: url(#linear-gradient-17);
      }

      .cls-51 {
        fill: url(#linear-gradient-18);
      }

      .cls-52 {
        fill: url(#linear-gradient-27);
      }

      .cls-53 {
        fill: url(#linear-gradient-24);
      }

      .cls-54 {
        fill: url(#linear-gradient-26);
      }

      .cls-55 {
        fill: url(#linear-gradient-29);
      }

      .cls-56 {
        fill: #eefdff;
      }

      .cls-57 {
        opacity: .2;
      }

      .cls-58 {
        fill: #dde6f2;
      }

      .cls-6 {
        stroke: url(#linear-gradient);
      }

      .cls-7 {
        stroke: #fff;
        stroke-width: 1.82px;
      }

      .cls-8 {
        stroke-width: 2.36px;
      }

      .cls-59 {
        fill: url(#_ÂÁ_Ï_ÌÌ_È_ËÂÌÚ_12-2);
      }

      .cls-60 {
        clip-path: url(#clippath);
      }

      .cls-61 {
        fill: #ff953c;
      }

      .cls-62 {
        fill: #40250f;
      }

      .cls-63 {
        fill: url(#_ÂÁ_Ï_ÌÌ_È_ËÂÌÚ_12);
      }

      .cls-13 {
        fill: #c0dee2;
      }
    </style>
    <linearGradient id="linear-gradient" x1="325.71" y1="378.42" x2="273.7" y2="378.42" gradientUnits="userSpaceOnUse">
      <stop offset=".07" stop-color="#be5331" stop-opacity="0"/>
      <stop offset=".11" stop-color="#b8522f" stop-opacity=".09"/>
      <stop offset=".23" stop-color="#a7502a" stop-opacity=".37"/>
      <stop offset=".35" stop-color="#994e25" stop-opacity=".6"/>
      <stop offset=".48" stop-color="#8d4c22" stop-opacity=".78"/>
      <stop offset=".63" stop-color="#864b1f" stop-opacity=".9"/>
      <stop offset=".79" stop-color="#814b1e" stop-opacity=".98"/>
      <stop offset="1" stop-color="#804b1e"/>
    </linearGradient>
    <linearGradient id="linear-gradient-2" x1="325.71" y1="378.42" x2="273.7" y2="378.42" xlink:href="#linear-gradient"/>
    <linearGradient id="linear-gradient-3" x1="325.71" y1="406.95" x2="273.7" y2="406.95" gradientUnits="userSpaceOnUse">
      <stop offset="0" stop-color="#194023"/>
      <stop offset=".28" stop-color="#174026" stop-opacity=".95"/>
      <stop offset=".49" stop-color="#144332" stop-opacity=".8"/>
      <stop offset=".68" stop-color="#0d4846" stop-opacity=".55"/>
      <stop offset=".85" stop-color="#044f63" stop-opacity=".2"/>
      <stop offset=".93" stop-color="#005373" stop-opacity="0"/>
    </linearGradient>
    <linearGradient id="linear-gradient-4" x1="325.71" y1="406.95" x2="273.7" y2="406.95" xlink:href="#linear-gradient-3"/>
    <linearGradient id="linear-gradient-5" x1="141.97" y1="630.12" x2="464.35" y2="630.12" gradientUnits="userSpaceOnUse">
      <stop offset="0" stop-color="#328045"/>
      <stop offset="1" stop-color="#00a6e5"/>
    </linearGradient>
    <clipPath id="clippath">
      <path class="cls-14" d="M464.35,630.11c0,10.71-8.68,19.39-19.39,19.39H161.36c-10.71,0-19.39-8.68-19.39-19.39h0c0-10.7,8.68-19.39,19.39-19.39h283.6c10.71,0,19.39,8.68,19.39,19.39h0Z"/>
    </clipPath>
    <linearGradient id="linear-gradient-6" x1="527.87" y1="554.81" x2="368.77" y2="279.22" gradientTransform="translate(621.87) rotate(-180) scale(1 -1)" gradientUnits="userSpaceOnUse">
      <stop offset="0" stop-color="#194023"/>
      <stop offset=".93" stop-color="#005373"/>
    </linearGradient>
    <clipPath id="clippath-1">
      <rect class="cls-1" x="101.51" y="316.52" width="144.07" height="211.21"/>
    </clipPath>
    <linearGradient id="linear-gradient-7" x1="394.75" y1="393.12" x2="451.09" y2="393.12" gradientTransform="translate(621.87) rotate(-180) scale(1 -1)" gradientUnits="userSpaceOnUse">
      <stop offset="0" stop-color="#005373"/>
      <stop offset=".93" stop-color="#002a39"/>
    </linearGradient>
    <linearGradient id="linear-gradient-8" y1="419.27" x2="501.54" y2="419.27" xlink:href="#linear-gradient-7"/>
    <linearGradient id="linear-gradient-9" x1="394.75" y1="425.61" x2="501.54" y2="425.61" gradientTransform="translate(621.87) rotate(-180) scale(1 -1)" gradientUnits="userSpaceOnUse">
      <stop offset="0" stop-color="#007dac"/>
      <stop offset=".93" stop-color="#00a6e5"/>
    </linearGradient>
    <linearGradient id="linear-gradient-10" x1="204.25" y1="572.85" x2="18.66" y2="251.41" gradientTransform="translate(621.87) rotate(-180) scale(1 -1)" gradientUnits="userSpaceOnUse">
      <stop offset="0" stop-color="#005373"/>
      <stop offset=".93" stop-color="#00a6e5"/>
    </linearGradient>
    <linearGradient id="linear-gradient-11" x1="111.45" y1="547.74" x2="111.45" y2="523.55" gradientTransform="translate(621.87) rotate(-180) scale(1 -1)" gradientUnits="userSpaceOnUse">
      <stop offset=".34" stop-color="#00a6e5"/>
      <stop offset=".78" stop-color="#005373"/>
    </linearGradient>
    <linearGradient id="linear-gradient-12" x1="111.45" y1="559.34" x2="111.45" y2="537" xlink:href="#linear-gradient-7"/>
    <linearGradient id="linear-gradient-13" x1="39.39" y1="385.86" x2="115.52" y2="385.86" gradientTransform="translate(621.87) rotate(-180) scale(1 -1)" gradientUnits="userSpaceOnUse">
      <stop offset="0" stop-color="#ff953c"/>
      <stop offset=".11" stop-color="#f08c38"/>
      <stop offset=".31" stop-color="#cb762f"/>
      <stop offset=".6" stop-color="#8f5321"/>
      <stop offset=".93" stop-color="#40250f"/>
    </linearGradient>
    <linearGradient id="linear-gradient-14" x1="39.39" y1="421.19" x2="183.7" y2="421.19" gradientTransform="translate(621.87) rotate(-180) scale(1 -1)" gradientUnits="userSpaceOnUse">
      <stop offset="0" stop-color="#ff953c"/>
      <stop offset=".59" stop-color="#40250f"/>
    </linearGradient>
    <linearGradient id="linear-gradient-15" x1="39.39" y1="429.75" x2="183.7" y2="429.75" gradientTransform="translate(621.87) rotate(-180) scale(1 -1)" gradientUnits="userSpaceOnUse">
      <stop offset="0" stop-color="#bf702d"/>
      <stop offset=".93" stop-color="#ff953c"/>
    </linearGradient>
    <linearGradient id="linear-gradient-16" x1="356.63" y1="144.28" x2="380.12" y2="144.28" gradientTransform="matrix(1,0,0,1,0,0)" xlink:href="#linear-gradient-15"/>
    <linearGradient id="linear-gradient-17" x1="274.91" y1="138.94" x2="299.53" y2="138.94" gradientTransform="matrix(1,0,0,1,0,0)" xlink:href="#linear-gradient-10"/>
    <linearGradient id="linear-gradient-18" x1="223.01" y1="184.89" x2="269.39" y2="184.89" gradientTransform="translate(56.22 -57.4) rotate(14.99)" xlink:href="#linear-gradient-9"/>
    <linearGradient id="linear-gradient-19" x1="556.43" y1="155.1" x2="575.65" y2="155.1" gradientTransform="matrix(1,0,0,1,0,0)" xlink:href="#linear-gradient-10"/>
    <linearGradient id="linear-gradient-20" x1="493.82" y1="151.46" x2="521.29" y2="151.46" gradientTransform="translate(522.55 -378) rotate(75.01)" gradientUnits="userSpaceOnUse">
      <stop offset="0" stop-color="#328045"/>
      <stop offset=".93" stop-color="#266034"/>
    </linearGradient>
    <filter id="drop-shadow-1" x="573.73" y="185.33" width="297" height="393" filterUnits="userSpaceOnUse">
      <feOffset dx="-20" dy="-10"/>
      <feGaussianBlur result="blur" stdDeviation="17"/>
      <feFlood flood-color="#000" flood-opacity=".3"/>
      <feComposite in2="blur" operator="in"/>
      <feComposite in="SourceGraphic"/>
    </filter>
    <linearGradient id="linear-gradient-21" x1="3920.81" y1="2412.08" x2="4013.6" y2="2316.89" gradientTransform="translate(2598.67 -3743.91) rotate(83.59)" gradientUnits="userSpaceOnUse">
      <stop offset=".22" stop-color="#47c7f8"/>
      <stop offset=".65" stop-color="#8dd09d"/>
    </linearGradient>
    <linearGradient id="linear-gradient-22" x1="2172.26" y1="277.48" x2="2189.54" y2="274.96" gradientTransform="translate(-1434.92)" xlink:href="#linear-gradient-6"/>
    <linearGradient id="linear-gradient-23" x1="2167.63" y1="321.62" x2="2198.72" y2="286.51" gradientTransform="translate(-1434.92)" gradientUnits="userSpaceOnUse">
      <stop offset="0" stop-color="#328045"/>
      <stop offset=".93" stop-color="#00a6e5"/>
    </linearGradient>
    <linearGradient id="linear-gradient-24" x1="2120.96" y1="442.35" x2="2247.44" y2="315.87" gradientTransform="translate(-1434.92)" gradientUnits="userSpaceOnUse">
      <stop offset=".07" stop-color="#47c7f8"/>
      <stop offset="1" stop-color="#8dd09d"/>
    </linearGradient>
    <linearGradient id="linear-gradient-25" x1="2183.68" y1="395.86" x2="2184.76" y2="347.25" gradientTransform="translate(-1434.92)" xlink:href="#linear-gradient-7"/>
    <radialGradient id="radial-gradient" cx="2156.24" cy="370.95" fx="2156.24" fy="370.95" r="91.44" gradientTransform="translate(-1434.92)" gradientUnits="userSpaceOnUse">
      <stop offset="0" stop-color="#00a6e5"/>
      <stop offset=".2" stop-color="#000"/>
    </radialGradient>
    <linearGradient id="_ÂÁ_Ï_ÌÌ_È_ËÂÌÚ_12" data-name="¡ÂÁ˚ÏˇÌÌ˚È „‡‰ËÂÌÚ 12" x1="2143.16" y1="371.19" x2="2167.78" y2="371.19" gradientTransform="translate(-1434.92)" gradientUnits="userSpaceOnUse">
      <stop offset="0" stop-color="#030d14"/>
      <stop offset="1" stop-color="#0b2f45"/>
    </linearGradient>
    <radialGradient id="radial-gradient-2" cx="2210.61" cy="371.45" fx="2210.61" fy="371.45" r="102.5" gradientTransform="translate(-1434.92)" gradientUnits="userSpaceOnUse">
      <stop offset="0" stop-color="#00a6e5"/>
      <stop offset=".19" stop-color="#000"/>
    </radialGradient>
    <linearGradient id="_ÂÁ_Ï_ÌÌ_È_ËÂÌÚ_12-2" data-name="¡ÂÁ˚ÏˇÌÌ˚È „‡‰ËÂÌÚ 12" x1="2198.31" x2="2222.92" xlink:href="#_ÂÁ_Ï_ÌÌ_È_ËÂÌÚ_12"/>
    <linearGradient id="linear-gradient-26" x1="2168.46" y1="256.61" x2="2191.33" y2="253.28" xlink:href="#linear-gradient-24"/>
    <linearGradient id="linear-gradient-27" x1="2174.97" y1="423.03" x2="2210.16" y2="387.84" xlink:href="#linear-gradient-23"/>
    <linearGradient id="linear-gradient-28" x1="2150.03" y1="521.52" x2="2243.26" y2="412.65" xlink:href="#linear-gradient-24"/>
    <linearGradient id="_ÂÁ_Ï_ÌÌ_È_ËÂÌÚ_6" data-name="¡ÂÁ˚ÏˇÌÌ˚È „‡‰ËÂÌÚ 6" x1="2145.09" y1="467.24" x2="2201.16" y2="401.77" gradientTransform="translate(-1434.92)" gradientUnits="userSpaceOnUse">
      <stop offset=".04" stop-color="#06cff1"/>
      <stop offset="1" stop-color="#defa8e"/>
    </linearGradient>
    <linearGradient id="linear-gradient-29" x1="6258.63" y1="820.14" x2="6335.32" y2="780.17" gradientTransform="translate(7141.34 636.4) rotate(-171.34) scale(1 -1)" xlink:href="#linear-gradient-21"/>
    <linearGradient id="linear-gradient-30" x1="2204.04" y1="500.31" x2="2253.51" y2="474.53" xlink:href="#linear-gradient-23"/>
  </defs>
  <g class="cls-31">
    <g id="Layer_2" data-name="Layer 2">
      <g id="Layer_2-2" data-name="Layer 2">
        <g>
          <g class="cls-57">
            <path class="cls-13" d="M665.91,209.93c-95.98-12.92-113.95-102.24-172.71-159.07-67.4-65.19-191.47-70.37-262.66-.11-71.23,70.28-7.58,173.44-67.62,246.03C110.84,357.23-7.97,336.37.42,453.67c6.2,86.67,75.37,106.25,153.66,107.34,123.32,1.72,247.89,3.93,371.25.58,189.42-5.14,81.39-93.3,175.98-135.11,108.85-48.12,99.74-224.2-35.4-216.55"/>
          </g>
          <g>
            <line class="cls-5" x1="177.96" y1="378.61" x2="177.96" y2="378.61"/>
            <path class="cls-4" d="M178.06,373.14c3.36-99.51,98.28-179.3,214.88-179.3s213.25,81.26,214.95,182.03"/>
            <line class="cls-5" x1="607.91" y1="378.61" x2="607.91" y2="378.61"/>
          </g>
          <path class="cls-27" d="M44.73,568.39h139.5c23.42,0,46.84,0,70.26,0s46.97,0,70.45,0h437.15c2.62,0,5.12-2.3,5-5s-2.2-5-5-5H44.73c-2.62,0-5.12,2.3-5,5s2.2,5,5,5h0Z"/>
          <g>
            <path class="cls-6" d="M325.71,378.42h-52.01"/>
            <polygon class="cls-26" points="280.74 372.24 274.56 378.42 280.74 384.6 275.49 384.6 269.31 378.42 275.49 372.24 280.74 372.24"/>
          </g>
          <g>
            <path class="cls-3" d="M273.7,406.95h52.01"/>
            <polygon class="cls-25" points="318.67 413.13 324.85 406.95 318.67 400.76 323.92 400.76 330.1 406.95 323.92 413.13 318.67 413.13"/>
          </g>
          <g>
            <path class="cls-32" d="M50.4,434.33c-12.36,0-22.42-10.06-22.42-22.42s10.06-22.43,22.42-22.43,22.42,10.06,22.42,22.43-10.06,22.42-22.42,22.42ZM50.4,400.24c-6.43,0-11.66,5.23-11.66,11.66s5.23,11.66,11.66,11.66,11.66-5.23,11.66-11.66-5.23-11.66-11.66-11.66Z"/>
            <g>
              <rect class="cls-32" x="45.01" y="382.75" width="10.76" height="12.55"/>
              <rect class="cls-32" x="45.01" y="428.49" width="10.76" height="12.56"/>
              <rect class="cls-32" x="21.24" y="406.52" width="12.56" height="10.76"/>
              <rect class="cls-32" x="66.99" y="406.52" width="12.56" height="10.76"/>
              <rect class="cls-32" x="28.84" y="389.44" width="10.76" height="12.56" transform="translate(-269.87 140.19) rotate(-45.02)"/>
              <rect class="cls-32" x="61.19" y="421.79" width="10.76" height="12.56" transform="translate(-283.22 172.48) rotate(-45.01)"/>
              <rect class="cls-32" x="27.94" y="422.69" width="12.56" height="10.76" transform="translate(-292.64 149.54) rotate(-44.99)"/>
              <rect class="cls-32" x="60.29" y="390.34" width="12.56" height="10.76" transform="translate(-260.37 163.05) rotate(-45.01)"/>
            </g>
          </g>
          <g>
            <path class="cls-32" d="M689.91,228.57c-12.37,0-22.42-10.06-22.42-22.42s10.06-22.43,22.42-22.43,22.42,10.06,22.42,22.43-10.06,22.42-22.42,22.42ZM689.91,194.49c-6.43,0-11.66,5.23-11.66,11.66s5.23,11.66,11.66,11.66,11.66-5.23,11.66-11.66-5.23-11.66-11.66-11.66Z"/>
            <g>
              <rect class="cls-32" x="684.53" y="176.99" width="10.76" height="12.56"/>
              <rect class="cls-32" x="684.53" y="222.74" width="10.76" height="12.56"/>
              <rect class="cls-32" x="660.76" y="200.76" width="12.56" height="10.77"/>
              <rect class="cls-32" x="706.51" y="200.76" width="12.56" height="10.77"/>
              <rect class="cls-32" x="668.35" y="183.69" width="10.77" height="12.56" transform="translate(63.07 532.17) rotate(-45.01)"/>
              <rect class="cls-32" x="700.71" y="216.04" width="10.76" height="12.56" transform="translate(49.64 564.46) rotate(-45.01)"/>
              <rect class="cls-32" x="667.46" y="216.94" width="12.56" height="10.76" transform="translate(40.17 541.6) rotate(-45.01)"/>
              <rect class="cls-32" x="699.81" y="184.59" width="12.56" height="10.77" transform="translate(72.39 554.77) rotate(-44.99)"/>
            </g>
          </g>
          <g>
            <path class="cls-61" d="M133.21,231.02c-9.28,0-16.82-7.54-16.82-16.82s7.54-16.82,16.82-16.82,16.82,7.55,16.82,16.82-7.55,16.82-16.82,16.82ZM133.21,205.46c-4.82,0-8.75,3.92-8.75,8.74s3.93,8.75,8.75,8.75,8.74-3.92,8.74-8.75-3.92-8.74-8.74-8.74Z"/>
            <g>
              <rect class="cls-61" x="129.17" y="192.34" width="8.08" height="9.42"/>
              <rect class="cls-61" x="129.17" y="226.65" width="8.08" height="9.42"/>
              <rect class="cls-61" x="111.34" y="210.17" width="9.42" height="8.07"/>
              <rect class="cls-61" x="145.65" y="210.17" width="9.42" height="8.07"/>
              <rect class="cls-61" x="117.04" y="197.36" width="8.08" height="9.42" transform="translate(-107.44 144.86) rotate(-45.02)"/>
              <rect class="cls-61" x="141.3" y="221.62" width="8.07" height="9.42" transform="translate(-117.49 169.13) rotate(-45.02)"/>
              <rect class="cls-61" x="116.36" y="222.3" width="9.42" height="8.08" transform="translate(-124.6 151.98) rotate(-45.02)"/>
              <rect class="cls-61" x="140.62" y="198.03" width="9.42" height="8.08" transform="translate(-100.33 162.03) rotate(-45.02)"/>
            </g>
          </g>
          <g>
            <path class="cls-12" d="M643.9,630.11c0,10.71-8.68,19.39-19.39,19.39H161.36c-10.71,0-19.39-8.68-19.39-19.39h0c0-10.7,8.68-19.39,19.39-19.39h463.14c10.71,0,19.39,8.68,19.39,19.39h0Z"/>
            <path class="cls-11" d="M643.9,630.11c0,10.71-8.68,19.39-19.39,19.39H161.36c-10.71,0-19.39-8.68-19.39-19.39h0c0-10.7,8.68-19.39,19.39-19.39h463.14c10.71,0,19.39,8.68,19.39,19.39h0Z"/>
            <path class="cls-10" d="M464.35,630.11c0,10.71-8.68,19.39-19.39,19.39H161.36c-10.71,0-19.39-8.68-19.39-19.39h0c0-10.7,8.68-19.39,19.39-19.39h283.6c10.71,0,19.39,8.68,19.39,19.39h0Z"/>
            <g>
              <path class="cls-9" d="M464.35,630.11c0,10.71-8.68,19.39-19.39,19.39H161.36c-10.71,0-19.39-8.68-19.39-19.39h0c0-10.7,8.68-19.39,19.39-19.39h283.6c10.71,0,19.39,8.68,19.39,19.39h0Z"/>
              <g class="cls-60">
                <g>
                  <line class="cls-7" x1="329.09" y1="600.33" x2="290.66" y2="659.9"/>
                  <line class="cls-7" x1="342.51" y1="600.33" x2="304.09" y2="659.9"/>
                  <line class="cls-7" x1="355.94" y1="600.33" x2="317.51" y2="659.9"/>
                  <line class="cls-7" x1="369.36" y1="600.33" x2="330.93" y2="659.9"/>
                  <line class="cls-7" x1="382.78" y1="600.33" x2="344.35" y2="659.9"/>
                  <line class="cls-7" x1="396.21" y1="600.33" x2="357.78" y2="659.9"/>
                  <line class="cls-7" x1="409.63" y1="600.33" x2="371.2" y2="659.9"/>
                  <line class="cls-7" x1="423.05" y1="600.33" x2="384.63" y2="659.9"/>
                  <line class="cls-7" x1="436.48" y1="600.33" x2="398.05" y2="659.9"/>
                  <line class="cls-7" x1="449.9" y1="600.33" x2="411.47" y2="659.9"/>
                  <line class="cls-7" x1="463.33" y1="600.33" x2="424.9" y2="659.9"/>
                  <line class="cls-7" x1="476.75" y1="600.33" x2="438.32" y2="659.9"/>
                  <line class="cls-7" x1="168" y1="600.33" x2="129.58" y2="659.9"/>
                  <line class="cls-7" x1="181.43" y1="600.33" x2="143" y2="659.9"/>
                  <line class="cls-7" x1="194.85" y1="600.33" x2="156.42" y2="659.9"/>
                  <line class="cls-7" x1="208.28" y1="600.33" x2="169.85" y2="659.9"/>
                  <line class="cls-7" x1="221.7" y1="600.33" x2="183.27" y2="659.9"/>
                  <line class="cls-7" x1="235.12" y1="600.33" x2="196.7" y2="659.9"/>
                  <line class="cls-7" x1="248.55" y1="600.33" x2="210.12" y2="659.9"/>
                  <line class="cls-7" x1="261.97" y1="600.33" x2="223.54" y2="659.9"/>
                  <line class="cls-7" x1="275.4" y1="600.33" x2="236.97" y2="659.9"/>
                  <line class="cls-7" x1="288.82" y1="600.33" x2="250.39" y2="659.9"/>
                  <line class="cls-7" x1="302.24" y1="600.33" x2="263.81" y2="659.9"/>
                  <line class="cls-7" x1="315.66" y1="600.33" x2="277.24" y2="659.9"/>
                </g>
              </g>
            </g>
          </g>
          <g>
            <g>
              <path class="cls-30" d="M88.17,363.12c0,1.48,1.2,2.69,2.69,2.69h0c1.48,0,2.69-1.2,2.69-2.69v-43.91c0-1.48-1.2-2.69-2.69-2.69h0c-1.48,0-2.69,1.21-2.69,2.69v43.91Z"/>
              <path class="cls-23" d="M90.84,543.74c0,8.84,7.17,16.01,16.01,16.01h133.4c8.84,0,16.01-7.16,16.01-16.01v-253.46c0-8.84-7.17-16.01-16.01-16.01H106.85c-8.84,0-16.01,7.17-16.01,16.01v253.46Z"/>
              <path class="cls-62" d="M206.9,287.81h-66.7c-1.47,0-1.47,2.28,0,2.28h66.7c1.47,0,1.47-2.28,0-2.28h0Z"/>
              <path class="cls-20" d="M121.11,291.37c3.11,0,3.11-4.83,0-4.83s-3.11,4.83,0,4.83h0Z"/>
              <path class="cls-20" d="M173.55,543.77c4.04,0,4.05-6.28,0-6.28s-4.05,6.28,0,6.28h0Z"/>
              <path class="cls-62" d="M208.23,542.91c2.93,0,2.94-4.56,0-4.56s-2.94,4.56,0,4.56h0Z"/>
              <path class="cls-62" d="M138.86,542.91c2.93,0,2.94-4.56,0-4.56s-2.94,4.56,0,4.56h0Z"/>
              <g>
                <rect class="cls-20" x="101.51" y="316.52" width="144.07" height="211.21"/>
                <g class="cls-28">
                  <g class="cls-34">
                    <g>
                      <path class="cls-58" d="M261.51,518.05h14.71c4.02,0,7.29-3.26,7.29-7.29v-186.6c0-4.03-3.27-7.29-7.29-7.29H71.39"/>
                      <polygon class="cls-58" points="227.12 531.67 247.97 531.67 43.71 316.88 24.92 316.46 227.12 531.67"/>
                    </g>
                  </g>
                </g>
              </g>
            </g>
            <g>
              <g>
                <g>
                  <polygon class="cls-22" points="170.78 412.4 227.12 412.4 227.12 373.85 187.32 373.85 170.78 412.4"/>
                  <rect class="cls-21" x="120.33" y="384.77" width="106.79" height="69"/>
                </g>
                <rect class="cls-20" x="125.89" y="391.24" width="95.66" height="56.32"/>
                <rect class="cls-24" x="120.33" y="397.44" width="106.79" height="56.33"/>
              </g>
              <path class="cls-10" d="M153.76,425.48c0,11.02,8.94,19.97,19.97,19.97s19.97-8.94,19.97-19.97-8.94-19.97-19.97-19.97-19.97,8.94-19.97,19.97Z"/>
            </g>
          </g>
          <g>
            <g>
              <path class="cls-35" d="M335.64,520.62c0,4.68,3.79,8.48,8.47,8.48h332.6c4.68,0,8.47-3.8,8.47-8.48v-216.99c0-4.68-3.79-8.47-8.47-8.47h-332.6c-4.68,0-8.47,3.8-8.47,8.47v216.99Z"/>
              <path class="cls-20" d="M510.41,304.88c2.47,0,2.47-3.84,0-3.84s-2.47,3.84,0,3.84h0Z"/>
              <g>
                <path class="cls-20" d="M360.11,505.43c0,4.03,3.26,7.28,7.28,7.28h286.04c4.02,0,7.29-3.26,7.29-7.28v-186.6c0-4.03-3.27-7.29-7.29-7.29h-286.04c-4.02,0-7.28,3.26-7.28,7.29v186.6Z"/>
                <g class="cls-28">
                  <path class="cls-58" d="M638.72,512.72h14.71c4.02,0,7.29-3.26,7.29-7.28v-186.6c0-4.03-3.27-7.29-7.29-7.29h-204.83"/>
                  <polygon class="cls-58" points="592.35 512.72 611.03 512.72 420.92 311.54 402.13 311.13 592.35 512.72"/>
                </g>
              </g>
              <g>
                <g>
                  <path class="cls-33" d="M680.84,524.54h19.07c1.02,0,1.85.83,1.85,1.85v5.84c0,1.02-.83,1.84-1.84,1.84h-19.08c-1.02,0-1.84-.83-1.84-1.84v-5.85c0-1.02.83-1.84,1.84-1.84Z"/>
                  <path class="cls-33" d="M653.16,524.54h19.07c1.02,0,1.85.83,1.85,1.85v5.85c0,1.02-.83,1.84-1.84,1.84h-19.07c-1.02,0-1.84-.83-1.84-1.84v-5.84c0-1.02.83-1.85,1.85-1.85Z"/>
                  <path class="cls-33" d="M625.47,524.54h19.07c1.02,0,1.85.83,1.85,1.85v5.84c0,1.02-.83,1.84-1.84,1.84h-19.08c-1.02,0-1.84-.83-1.84-1.84v-5.85c0-1.02.83-1.84,1.84-1.84Z"/>
                  <path class="cls-33" d="M597.78,524.54h19.07c1.02,0,1.84.83,1.84,1.84v5.85c0,1.02-.83,1.84-1.84,1.84h-19.07c-1.02,0-1.85-.83-1.85-1.85v-5.84c0-1.02.83-1.85,1.85-1.85Z"/>
                  <path class="cls-33" d="M570.1,524.54h19.07c1.02,0,1.85.83,1.85,1.85v5.84c0,1.02-.83,1.84-1.84,1.84h-19.07c-1.02,0-1.85-.83-1.85-1.85v-5.84c0-1.02.83-1.85,1.85-1.85Z"/>
                  <path class="cls-33" d="M542.41,524.54h19.07c1.02,0,1.85.83,1.85,1.85v5.85c0,1.02-.83,1.84-1.84,1.84h-19.07c-1.02,0-1.85-.83-1.85-1.85v-5.84c0-1.02.83-1.85,1.85-1.85Z"/>
                  <path class="cls-33" d="M514.72,524.54h19.07c1.02,0,1.85.83,1.85,1.85v5.84c0,1.02-.83,1.84-1.84,1.84h-19.07c-1.02,0-1.85-.83-1.85-1.85v-5.84c0-1.02.83-1.85,1.85-1.85Z"/>
                  <path class="cls-33" d="M487.04,524.54h19.07c1.02,0,1.85.83,1.85,1.85v5.84c0,1.02-.83,1.84-1.84,1.84h-19.08c-1.02,0-1.84-.83-1.84-1.84v-5.84c0-1.02.83-1.85,1.85-1.85Z"/>
                  <path class="cls-33" d="M459.35,524.54h19.07c1.02,0,1.85.83,1.85,1.85v5.84c0,1.02-.83,1.84-1.84,1.84h-19.08c-1.02,0-1.84-.83-1.84-1.84v-5.84c0-1.02.83-1.85,1.85-1.85Z"/>
                  <path class="cls-33" d="M431.67,524.54h19.07c1.02,0,1.85.83,1.85,1.85v5.85c0,1.02-.83,1.84-1.84,1.84h-19.07c-1.02,0-1.84-.83-1.84-1.84v-5.84c0-1.02.83-1.85,1.85-1.85Z"/>
                  <path class="cls-33" d="M403.98,524.54h19.07c1.02,0,1.85.83,1.85,1.85v5.85c0,1.02-.83,1.84-1.84,1.84h-19.07c-1.02,0-1.84-.83-1.84-1.84v-5.84c0-1.02.83-1.85,1.85-1.85Z"/>
                  <path class="cls-33" d="M376.29,524.54h19.07c1.02,0,1.85.83,1.85,1.85v5.85c0,1.02-.83,1.84-1.84,1.84h-19.07c-1.02,0-1.85-.83-1.85-1.85v-5.84c0-1.02.83-1.85,1.85-1.85Z"/>
                  <path class="cls-33" d="M348.61,524.54h19.07c1.02,0,1.85.83,1.85,1.85v5.85c0,1.02-.83,1.84-1.84,1.84h-19.07c-1.02,0-1.85-.83-1.85-1.85v-5.84c0-1.02.83-1.85,1.85-1.85Z"/>
                  <path class="cls-33" d="M320.92,524.54h19.07c1.02,0,1.85.83,1.85,1.85v5.85c0,1.02-.83,1.84-1.84,1.84h-19.07c-1.02,0-1.85-.83-1.85-1.85v-5.84c0-1.02.83-1.85,1.85-1.85Z"/>
                </g>
                <path class="cls-36" d="M298.13,544.25c0,4.68.97,8.47,5.64,8.47h413.27c4.68,0,5.65-3.79,5.65-8.47v-7.25c0-4.68-.97-8.47-5.65-8.47h-413.27c-4.67,0-5.64,3.79-5.64,8.47v7.25Z"/>
                <path class="cls-37" d="M298.13,537v13.87c0,4.67.97,8.46,5.64,8.46h413.27c4.68,0,5.65-3.79,5.65-8.46v-13.87"/>
              </g>
            </g>
            <g>
              <g>
                <g>
                  <polygon class="cls-38" points="506.35 411.9 582.48 411.9 582.48 359.81 528.69 359.81 506.35 411.9"/>
                  <rect class="cls-40" x="438.17" y="374.57" width="144.3" height="93.24"/>
                </g>
                <rect class="cls-20" x="445.69" y="383.3" width="129.28" height="76.11"/>
                <rect class="cls-48" x="438.17" y="391.69" width="144.3" height="76.11"/>
              </g>
              <g>
                <circle class="cls-20" cx="510.32" cy="430.97" r="23.49"/>
                <g>
                  <line class="cls-8" x1="510.32" y1="416.28" x2="510.32" y2="439.43"/>
                  <polygon class="cls-30" points="506.32 420.98 510.32 416.98 514.32 420.98 514.32 417.59 510.32 413.59 506.32 417.59 506.32 420.98"/>
                </g>
                <line class="cls-2" x1="520.05" y1="443.66" x2="500.59" y2="443.66"/>
              </g>
            </g>
          </g>
          <g>
            <rect class="cls-20" x="346.78" y="115.97" width="92.29" height="122.49"/>
            <rect class="cls-49" x="356.63" y="130.02" width="23.49" height="28.53"/>
            <g>
              <path class="cls-33" d="M387.26,133.03h41.95c1.17,0,1.18-1.82,0-1.82h-41.95c-1.17,0-1.18,1.82,0,1.82h0Z"/>
              <path class="cls-33" d="M387.26,141.42h41.95c1.17,0,1.18-1.82,0-1.82h-41.95c-1.17,0-1.18,1.82,0,1.82h0Z"/>
              <path class="cls-33" d="M387.26,149.81h41.95c1.17,0,1.18-1.82,0-1.82h-41.95c-1.17,0-1.18,1.82,0,1.82h0Z"/>
              <path class="cls-33" d="M387.26,158.2h41.95c1.17,0,1.18-1.82,0-1.82h-41.95c-1.17,0-1.18,1.82,0,1.82h0Z"/>
              <path class="cls-33" d="M356.63,166.59h72.58c1.17,0,1.18-1.82,0-1.82h-72.58c-1.17,0-1.18,1.82,0,1.82h0Z"/>
              <path class="cls-33" d="M356.63,174.98h72.58c1.17,0,1.18-1.82,0-1.82-18.76,0-37.51,0-56.27,0h-16.31c-1.17,0-1.18,1.82,0,1.82h0Z"/>
              <path class="cls-33" d="M356.63,183.37h72.58c1.17,0,1.18-1.82,0-1.82h-72.58c-1.17,0-1.18,1.82,0,1.82h0Z"/>
              <path class="cls-33" d="M356.63,191.76h72.58c1.17,0,1.18-1.82,0-1.82-18.76,0-37.51,0-56.27,0h-16.31c-1.17,0-1.18,1.82,0,1.82h0Z"/>
              <path class="cls-33" d="M356.63,200.15c19.11,0,38.21,0,57.32,0h15.27c1.17,0,1.18-1.82,0-1.82h-72.58c-1.17,0-1.18,1.82,0,1.82h0Z"/>
              <path class="cls-33" d="M356.63,208.54c19.11,0,38.21,0,57.32,0h15.27c1.17,0,1.18-1.82,0-1.82h-72.58c-1.17,0-1.18,1.82,0,1.82h0Z"/>
              <path class="cls-33" d="M356.63,216.93c19.11,0,38.21,0,57.32,0h15.27c1.17,0,1.18-1.82,0-1.82h-72.58c-1.17,0-1.18,1.82,0,1.82h0Z"/>
              <path class="cls-33" d="M356.63,225.32h72.58c1.17,0,1.18-1.82,0-1.82h-72.58c-1.17,0-1.18,1.82,0,1.82h0Z"/>
            </g>
          </g>
          <g>
            <g>
              <polygon class="cls-20" points="274.73 128.93 205 147.62 236.7 265.93 325.84 242.05 299.58 144.05 274.73 128.93"/>
              <polygon class="cls-50" points="274.91 128.88 280.3 148.99 299.53 143.85 274.91 128.88"/>
            </g>
            <rect class="cls-51" x="226.1" y="170.32" width="40.2" height="29.15" transform="translate(-39.45 70) rotate(-14.99)"/>
            <g>
              <path class="cls-33" d="M233,213.3c18.14-4.86,36.29-9.72,54.43-14.58,5.09-1.36,10.18-2.73,15.26-4.09,1.13-.3.65-2.06-.48-1.76-18.21,4.88-36.43,9.76-54.64,14.64-5.02,1.34-10.03,2.69-15.05,4.03-1.13.3-.65,2.06.48,1.76h0Z"/>
              <path class="cls-33" d="M235.18,221.4c18.14-4.86,36.28-9.72,54.43-14.59,5.09-1.36,10.17-2.73,15.26-4.09,1.13-.3.65-2.06-.48-1.76-18.21,4.88-36.43,9.76-54.64,14.64-5.02,1.34-10.03,2.69-15.05,4.03-1.13.3-.65,2.06.48,1.76h0Z"/>
              <path class="cls-33" d="M237.35,229.51c18.14-4.86,36.29-9.72,54.43-14.58,5.09-1.36,10.18-2.73,15.26-4.09,1.13-.3.65-2.06-.48-1.76-18.21,4.88-36.43,9.76-54.64,14.64-5.02,1.34-10.03,2.69-15.05,4.03-1.13.3-.65,2.06.48,1.76h0Z"/>
              <path class="cls-33" d="M239.52,237.61c18.14-4.86,36.29-9.72,54.43-14.58,5.09-1.36,10.18-2.73,15.26-4.09,1.13-.3.65-2.06-.48-1.76-18.21,4.88-36.43,9.76-54.64,14.64-5.02,1.34-10.03,2.69-15.05,4.03-1.13.3-.65,2.06.48,1.76h0Z"/>
              <path class="cls-33" d="M241.69,245.71c15.94-4.27,31.88-8.54,47.81-12.81,1.13-.3.65-2.06-.48-1.76-15.94,4.27-31.88,8.54-47.81,12.81-1.13.3-.65,2.06.48,1.76h0Z"/>
              <path class="cls-33" d="M269.27,167.99c8.18-2.19,16.35-4.38,24.53-6.57,1.13-.3.65-2.06-.48-1.76-8.18,2.19-16.35,4.38-24.53,6.57-1.13.3-.65,2.06.48,1.76h0Z"/>
              <path class="cls-33" d="M271.44,176.09c8.18-2.19,16.35-4.38,24.53-6.57,1.13-.3.65-2.06-.48-1.76-8.18,2.19-16.35,4.38-24.53,6.57-1.13.3-.65,2.06.48,1.76h0Z"/>
              <path class="cls-33" d="M273.61,184.19c8.18-2.19,16.35-4.38,24.53-6.57,1.13-.3.65-2.06-.48-1.76-8.18,2.19-16.35,4.38-24.53,6.57-1.13.3-.65,2.06.48,1.76h0Z"/>
            </g>
          </g>
          <g>
            <g>
              <polygon class="cls-20" points="561.62 142.41 491.9 123.73 460.19 242.05 549.34 265.93 575.6 167.93 561.62 142.41"/>
              <polygon class="cls-39" points="561.82 142.46 556.43 162.58 575.65 167.73 561.82 142.46"/>
            </g>
            <g>
              <path class="cls-33" d="M491.59,163.76c18.1,4.85,36.21,9.7,54.31,14.55,5.13,1.37,10.25,2.75,15.38,4.12,1.13.3,1.62-1.45.48-1.76-18.1-4.85-36.21-9.7-54.31-14.55-5.13-1.37-10.25-2.75-15.38-4.12-1.13-.3-1.62,1.45-.48,1.76h0Z"/>
              <path class="cls-33" d="M489.42,171.87c18.1,4.85,36.21,9.7,54.31,14.55,5.13,1.37,10.25,2.75,15.38,4.12,1.13.3,1.62-1.45.48-1.76-18.1-4.85-36.21-9.7-54.32-14.55-5.13-1.37-10.25-2.75-15.38-4.12-1.13-.3-1.62,1.45-.48,1.76h0Z"/>
              <path class="cls-33" d="M487.25,179.97c18.1,4.85,36.21,9.7,54.31,14.55,5.13,1.37,10.25,2.75,15.38,4.12,1.13.3,1.62-1.45.48-1.76-18.1-4.85-36.21-9.7-54.31-14.55-5.13-1.37-10.25-2.75-15.38-4.12-1.13-.3-1.62,1.45-.48,1.76h0Z"/>
              <path class="cls-33" d="M485.07,188.08c18.1,4.85,36.21,9.7,54.31,14.55,5.13,1.37,10.25,2.75,15.38,4.12,1.13.3,1.62-1.45.48-1.76-18.1-4.85-36.21-9.7-54.31-14.56-5.13-1.37-10.25-2.75-15.38-4.12-1.13-.3-1.62,1.45-.48,1.76h0Z"/>
              <path class="cls-33" d="M482.9,196.18c18.1,4.85,36.21,9.7,54.31,14.55,5.13,1.37,10.25,2.75,15.38,4.12,1.13.3,1.62-1.45.48-1.76-18.1-4.85-36.21-9.7-54.31-14.55-5.13-1.37-10.25-2.75-15.38-4.12-1.13-.3-1.62,1.45-.48,1.76h0Z"/>
              <path class="cls-33" d="M480.73,204.28c18.1,4.85,36.21,9.7,54.31,14.55,5.13,1.37,10.25,2.75,15.38,4.12,1.13.3,1.62-1.45.48-1.76-18.1-4.85-36.21-9.7-54.31-14.55-5.13-1.37-10.25-2.75-15.38-4.12-1.13-.3-1.62,1.45-.48,1.76h0Z"/>
              <path class="cls-33" d="M478.56,212.39c18.1,4.85,36.21,9.7,54.31,14.55,5.13,1.37,10.25,2.75,15.38,4.12,1.13.3,1.62-1.45.48-1.76-18.11-4.85-36.21-9.7-54.32-14.55-5.13-1.37-10.25-2.75-15.38-4.12-1.13-.3-1.62,1.45-.48,1.76h0Z"/>
              <path class="cls-33" d="M476.39,220.49c15.76,4.22,31.52,8.44,47.27,12.67,1.13.3,1.62-1.45.48-1.76-15.76-4.22-31.52-8.44-47.27-12.67-1.13-.3-1.62,1.45-.48,1.76h0Z"/>
            </g>
            <rect class="cls-42" x="500.16" y="139.22" width="14.8" height="24.47" transform="translate(229.95 602.56) rotate(-75.01)"/>
          </g>
          <g class="cls-15">
            <path class="cls-41" d="M668.38,438.81c27.07,7.41,33.46,5.34,38.29,12.6.55.83,3.38,5.09,2.82,10.55-.45,4.35-2.88,7.71-4.4,9.19-9.27,8.98-34.79-2.01-49.4-14.02-3.19-2.62-11.73-9.64-10.01-14.63.71-2.04,2.9-3.06,4.47-3.76,6.95-3.11,14.16-1.04,18.24.07Z"/>
            <rect class="cls-43" x="746.2" y="256.87" width="5.76" height="37.81"/>
            <rect class="cls-44" x="723.87" y="290.71" width="50.41" height="24.84" rx="4.52" ry="4.52"/>
            <path class="cls-53" d="M721.8,302.6h54.55c34.73,0,62.92,28.19,62.92,62.92v38.9c0,19.52-15.85,35.36-35.36,35.36h-109.66c-19.52,0-35.36-15.85-35.36-35.36v-38.9c0-34.73,28.19-62.92,62.92-62.92Z"/>
            <path class="cls-46" d="M810.9,394.25h0c-2.36,1.17-5.01,1.78-7.7,1.78h-108.25c-2.69,0-5.33-.61-7.7-1.78h0c-5.8-2.87-9.07-8.65-8.25-14.59l.06-.43c2.77-20.11,20.99-35.57,43.31-36.73,9.45-.49,19.36-.75,29.7-.69,8.1.05,15.93.28,23.47.67,22.41,1.16,40.76,16.55,43.54,36.74.02.15.04.29.06.44.82,5.94-2.45,11.72-8.25,14.59Z"/>
            <g>
              <circle class="cls-17" cx="720.55" cy="371.19" r="20.41"/>
              <circle class="cls-56" cx="720.55" cy="371.19" r="14.65"/>
              <circle class="cls-63" cx="720.55" cy="371.19" r="12.31"/>
              <path class="cls-56" d="M728.43,368c0,2.52-2.04,4.56-4.56,4.56s-4.56-2.04-4.56-4.56,2.04-4.56,4.56-4.56,4.56,2.04,4.56,4.56Z"/>
              <circle class="cls-56" cx="718.73" cy="380.62" r="1.82"/>
              <path class="cls-56" d="M714.22,377.9c0,.5-.41.91-.91.91s-.91-.41-.91-.91.41-.91.91-.91.91.41.91.91Z"/>
            </g>
            <g>
              <circle class="cls-16" cx="775.69" cy="371.19" r="20.41"/>
              <circle class="cls-56" cx="775.69" cy="371.19" r="14.65"/>
              <circle class="cls-59" cx="775.69" cy="371.19" r="12.31"/>
              <path class="cls-56" d="M783.57,368c0,2.52-2.04,4.56-4.56,4.56s-4.56-2.04-4.56-4.56,2.04-4.56,4.56-4.56,4.56,2.04,4.56,4.56Z"/>
              <circle class="cls-56" cx="773.87" cy="380.62" r="1.82"/>
              <path class="cls-56" d="M769.36,377.9c0,.5-.41.91-.91.91s-.91-.41-.91-.91.41-.91.91-.91.91.41.91.91Z"/>
            </g>
            <path class="cls-54" d="M756.46,254.35c0,4.08-3.3,7.38-7.38,7.38s-7.38-3.3-7.38-7.38,3.3-7.38,7.38-7.38,7.38,3.3,7.38,7.38Z"/>
            <path class="cls-18" d="M754.21,251.47c0,1.24-1.01,2.25-2.25,2.25s-2.25-1.01-2.25-2.25,1.01-2.25,2.25-2.25,2.25,1.01,2.25,2.25Z"/>
            <path class="cls-18" d="M812.63,326.26c.1,3.45-2.71,7.57-5.94,7.92-3.02.33-5.43-2.76-7.92-5.94-2.45-3.14-7.81-11.19-5.68-13.47,2.82-3.01,19.3,3.36,19.54,11.49Z"/>
            <circle class="cls-18" cx="785.04" cy="310.56" r="2.57"/>
            <path class="cls-19" d="M812.27,374.07c-.82.58-6.56-11.11-21.96-21.24-5.41-3.56-10.76-6.1-10.44-6.84.32-.75,6.34.64,11.16,2.88,15.36,7.12,22.22,24.51,21.24,25.2Z"/>
            <path class="cls-18" d="M772.82,298.07c-.18.03-.3-1.05-1.2-2.72,0,0-.42-.78-.9-1.44-1.55-2.13-6.79-2.08-7.2-2.08-8.17.07-13.41-.45-13.41-.4,0,.04,3.83-.04,6.64-.09,7.92-.16,12.63-.59,14.65,1.53.84.88,1.26,2.03,1.26,2.03.57,1.55.38,3.14.16,3.17Z"/>
            <path class="cls-56" d="M771.13,404.79c-.2,1.96-1.83,3.46-3.78,3.65l-27.04,2.61c-1.96.19-3.84-.98-4.41-2.86-.25-.84-.45-1.7-.58-2.58-.04-.25.03-.49.18-.69.15-.2.38-.32.63-.34l34.11-3.29c.24-.02.49.05.67.21.18.16.29.39.3.63.04.9.01,1.79-.08,2.66Z"/>
            <path class="cls-52" d="M771.13,404.79c-.86,8.38-7.53,15.27-16.24,16.11-8.59.83-16.34-4.49-18.89-12.38.68,1.69,2.45,2.71,4.3,2.53l27.05-2.6c1.96-.19,3.58-1.7,3.78-3.65Z"/>
            <path class="cls-45" d="M813.73,465.53c0,.25,0,.49-.01.71-.09,2.27-.62,3.98-.88,4.74-7.44,22.74-11.9,34.73-18.16,44.43-1.08,1.67-2.21,3.28-3.44,4.86-1.6,2.11-3.35,4.16-5.29,6.28-4.32,4.7-10.86,6.83-12.96,7.56-7.7,2.72-14.51,2.23-19.03,2.27h-.79c-4.54-.04-11.33.45-19.03-2.27-2.11-.73-8.65-2.86-12.96-7.56-11.88-12.93-16.45-23.68-26.89-55.56-.25-.73-.75-2.32-.86-4.45-.03-.62-.04-1.23-.01-1.85.23-3.81,1.77-7.55,4.52-10.96,4.7-5.85,11.96-9.06,19.46-9.1l36.18-.15,35.52-.14c7.67-.03,15.1,3.19,19.97,9.12,2.35,2.87,3.86,5.97,4.41,9.17.08.45.14.92.18,1.37.04.51.08,1.02.08,1.53Z"/>
            <path class="cls-29" d="M753.57,444.48l-36.18.15c-7.51.03-14.77,3.24-19.46,9.1-2.74,3.41-4.29,7.15-4.52,10.96.18-3.91,1.79-7.74,4.66-11.23,4.86-5.93,12.3-9.15,19.97-9.12l35.53.14Z"/>
            <path class="cls-55" d="M789.52,497.77c-.53-28.06-4.32-33.61,1.27-40.29.64-.77,3.93-4.68,9.33-5.68,4.3-.8,8.21.58,10.06,1.63,11.23,6.36,7.9,33.94.5,51.35-1.61,3.8-5.94,13.98-11.21,13.74-2.16-.1-3.75-1.92-4.87-3.22-4.95-5.79-5-13.29-5.08-17.52Z"/>
            <path class="cls-47" d="M794.69,515.41c-1.08,1.67-2.21,3.28-3.44,4.86-.39-.4-.73-.8-1.05-1.17-4.95-5.79-5-13.29-5.08-17.52-.53-28.06-4.33-33.6,1.27-40.28.41-.5,1.91-2.28,4.35-3.76-5.53,6.65-1.76,12.25-1.23,40.23.08,4.23.14,11.73,5.08,17.53.03.03.06.06.09.11Z"/>
            <path class="cls-18" d="M810.52,474.41c-.16-3.01-.72-5.23-1.86-9.67-1.48-5.8-3.34-8.63-2.13-9.75.78-.73,2.33-.24,2.68-.12,5.3,1.69,6.95,11.64,6.72,17.87-.14,3.81-1.07,8.08-2.47,8.26-.22.03-.77,0-1.16-.35-1.56-1.38-1.66-3.95-1.78-6.25Z"/>
            <path class="cls-18" d="M814.16,485.05c0,.61-.49,1.1-1.1,1.1s-1.1-.49-1.1-1.1.49-1.1,1.1-1.1,1.1.49,1.1,1.1Z"/>
          </g>
        </g>
      </g>
    </g>
  </g>
</svg>