<?xml version="1.0" encoding="UTF-8"?>
<svg xmlns="http://www.w3.org/2000/svg" xmlns:xlink="http://www.w3.org/1999/xlink" viewBox="0 0 863.3 660.39">
  <defs>
    <style>
      .cls-1, .cls-2, .cls-3, .cls-4, .cls-5, .cls-6, .cls-7, .cls-8 {
        fill: none;
      }

      .cls-9, .cls-10, .cls-11, .cls-12, .cls-13 {
        fill-rule: evenodd;
      }

      .cls-9, .cls-14 {
        fill: url(#linear-gradient-5);
      }

      .cls-15 {
        fill: url(#radial-gradient-2);
      }

      .cls-15, .cls-16 {
        mix-blend-mode: screen;
      }

      .cls-17 {
        fill: url(#radial-gradient-3);
      }

      .cls-17, .cls-18 {
        opacity: .2;
      }

      .cls-10, .cls-19, .cls-20, .cls-21 {
        fill: #fff;
      }

      .cls-2 {
        stroke-width: 2.51px;
      }

      .cls-2, .cls-3, .cls-6, .cls-7, .cls-8 {
        stroke-miterlimit: 10;
      }

      .cls-2, .cls-8 {
        stroke: #804b1e;
      }

      .cls-22 {
        fill: url(#linear-gradient-8);
      }

      .cls-23 {
        fill: url(#linear-gradient-7);
      }

      .cls-24 {
        fill: url(#linear-gradient-6);
      }

      .cls-25 {
        fill: url(#linear-gradient-9);
      }

      .cls-26 {
        fill: url(#linear-gradient-4);
      }

      .cls-27 {
        fill: url(#linear-gradient-2);
      }

      .cls-28, .cls-11 {
        fill: #002a39;
      }

      .cls-19, .cls-20 {
        mix-blend-mode: overlay;
      }

      .cls-19, .cls-29 {
        opacity: .4;
      }

      .cls-20 {
        opacity: .73;
      }

      .cls-30 {
        fill: url(#_ÂÁ_Ï_ÌÌ_È_ËÂÌÚ_6);
      }

      .cls-31 {
        fill: #804b1e;
      }

      .cls-32 {
        isolation: isolate;
      }

      .cls-3 {
        stroke: url(#linear-gradient-3);
      }

      .cls-3, .cls-6 {
        stroke-width: 3.65px;
      }

      .cls-33 {
        fill: #005373;
      }

      .cls-34, .cls-12 {
        fill: #00a6e5;
      }

      .cls-16 {
        fill: url(#radial-gradient);
      }

      .cls-35 {
        clip-path: url(#clippath-1);
      }

      .cls-14 {
        clip-rule: evenodd;
      }

      .cls-4 {
        stroke-dasharray: 0 5.47;
      }

      .cls-4, .cls-5 {
        stroke: #005373;
        stroke-linecap: round;
        stroke-linejoin: round;
        stroke-width: 2.74px;
      }

      .cls-36 {
        fill: url(#linear-gradient-10);
      }

      .cls-37 {
        fill: url(#linear-gradient-11);
      }

      .cls-38 {
        fill: url(#linear-gradient-12);
      }

      .cls-39 {
        fill: url(#linear-gradient-13);
      }

      .cls-40 {
        fill: url(#linear-gradient-19);
      }

      .cls-41 {
        fill: url(#linear-gradient-14);
      }

      .cls-42 {
        fill: url(#linear-gradient-21);
      }

      .cls-43 {
        fill: url(#linear-gradient-20);
      }

      .cls-44 {
        fill: url(#linear-gradient-22);
      }

      .cls-45 {
        fill: url(#linear-gradient-23);
      }

      .cls-46 {
        fill: url(#linear-gradient-28);
      }

      .cls-47 {
        fill: url(#linear-gradient-25);
      }

      .cls-48 {
        fill: url(#linear-gradient-30);
      }

      .cls-49 {
        fill: url(#linear-gradient-15);
      }

      .cls-50 {
        fill: url(#linear-gradient-16);
      }

      .cls-51 {
        fill: url(#linear-gradient-17);
      }

      .cls-52 {
        fill: url(#linear-gradient-18);
      }

      .cls-53 {
        fill: url(#linear-gradient-27);
      }

      .cls-54 {
        fill: url(#linear-gradient-24);
      }

      .cls-55 {
        fill: url(#linear-gradient-26);
      }

      .cls-56 {
        fill: url(#linear-gradient-29);
      }

      .cls-57 {
        fill: #eefdff;
      }

      .cls-58 {
        fill: #dde6f2;
      }

      .cls-6 {
        stroke: url(#linear-gradient);
      }

      .cls-7 {
        stroke: #fff;
        stroke-width: 1.82px;
      }

      .cls-8 {
        stroke-width: 2.36px;
      }

      .cls-59 {
        fill: url(#_ÂÁ_Ï_ÌÌ_È_ËÂÌÚ_12-2);
      }

      .cls-60 {
        clip-path: url(#clippath);
      }

      .cls-61 {
        fill: #ff953c;
      }

      .cls-62 {
        fill: #40250f;
      }

      .cls-63 {
        fill: url(#_ÂÁ_Ï_ÌÌ_È_ËÂÌÚ_12);
      }

      .cls-13 {
        fill: #c0dee2;
      }
    </style>
    <linearGradient id="linear-gradient" x1="325.71" y1="378.42" x2="273.7" y2="378.42" gradientUnits="userSpaceOnUse">
      <stop offset=".07" stop-color="#be5331" stop-opacity="0"/>
      <stop offset=".14" stop-color="#be5830" stop-opacity=".18"/>
      <stop offset=".24" stop-color="#bf5f2f" stop-opacity=".4"/>
      <stop offset=".34" stop-color="#c0652f" stop-opacity=".58"/>
      <stop offset=".45" stop-color="#c16a2e" stop-opacity=".74"/>
      <stop offset=".56" stop-color="#c26e2e" stop-opacity=".85"/>
      <stop offset=".68" stop-color="#c2702e" stop-opacity=".94"/>
      <stop offset=".82" stop-color="#c2722e" stop-opacity=".98"/>
      <stop offset="1" stop-color="#c3732e"/>
    </linearGradient>
    <linearGradient id="linear-gradient-2" x1="325.71" y1="378.42" x2="273.7" y2="378.42" xlink:href="#linear-gradient"/>
    <linearGradient id="linear-gradient-3" x1="325.71" y1="406.95" x2="273.7" y2="406.95" gradientUnits="userSpaceOnUse">
      <stop offset="0" stop-color="#286536"/>
      <stop offset=".23" stop-color="#266437" stop-opacity=".97"/>
      <stop offset=".41" stop-color="#23623d" stop-opacity=".88"/>
      <stop offset=".57" stop-color="#1c5f47" stop-opacity=".72"/>
      <stop offset=".71" stop-color="#135b55" stop-opacity=".49"/>
      <stop offset=".85" stop-color="#075666" stop-opacity=".2"/>
      <stop offset=".93" stop-color="#005373" stop-opacity="0"/>
    </linearGradient>
    <linearGradient id="linear-gradient-4" x1="325.71" y1="406.95" x2="273.7" y2="406.95" xlink:href="#linear-gradient-3"/>
    <linearGradient id="linear-gradient-5" x1="141.97" y1="630.12" x2="464.35" y2="630.12" gradientUnits="userSpaceOnUse">
      <stop offset="0" stop-color="#328045"/>
      <stop offset="1" stop-color="#00a6e5"/>
    </linearGradient>
    <clipPath id="clippath">
      <path class="cls-14" d="M464.35,630.11c0,10.71-8.68,19.39-19.39,19.39H161.36c-10.71,0-19.39-8.68-19.39-19.39h0c0-10.7,8.68-19.39,19.39-19.39h283.6c10.71,0,19.39,8.68,19.39,19.39h0Z"/>
    </clipPath>
    <linearGradient id="linear-gradient-6" x1="737.87" y1="554.81" x2="578.77" y2="279.22" gradientTransform="translate(831.87) rotate(-180) scale(1 -1)" gradientUnits="userSpaceOnUse">
      <stop offset="0" stop-color="#194023"/>
      <stop offset=".93" stop-color="#005373"/>
    </linearGradient>
    <clipPath id="clippath-1">
      <rect class="cls-1" x="101.51" y="316.52" width="144.07" height="211.21"/>
    </clipPath>
    <linearGradient id="linear-gradient-7" x1="604.75" y1="393.12" x2="661.09" y2="393.12" gradientTransform="translate(831.87) rotate(-180) scale(1 -1)" gradientUnits="userSpaceOnUse">
      <stop offset="0" stop-color="#005373"/>
      <stop offset=".93" stop-color="#002a39"/>
    </linearGradient>
    <linearGradient id="linear-gradient-8" y1="419.27" x2="711.54" y2="419.27" xlink:href="#linear-gradient-7"/>
    <linearGradient id="linear-gradient-9" x1="604.75" y1="425.61" x2="711.54" y2="425.61" gradientTransform="translate(831.87) rotate(-180) scale(1 -1)" gradientUnits="userSpaceOnUse">
      <stop offset="0" stop-color="#007dac"/>
      <stop offset=".93" stop-color="#00a6e5"/>
    </linearGradient>
    <linearGradient id="linear-gradient-10" x1="414.25" y1="572.85" x2="228.66" y2="251.41" gradientTransform="translate(831.87) rotate(-180) scale(1 -1)" gradientUnits="userSpaceOnUse">
      <stop offset="0" stop-color="#005373"/>
      <stop offset=".93" stop-color="#00a6e5"/>
    </linearGradient>
    <linearGradient id="linear-gradient-11" x1="321.45" y1="547.74" x2="321.45" y2="523.55" gradientTransform="translate(831.87) rotate(-180) scale(1 -1)" gradientUnits="userSpaceOnUse">
      <stop offset=".34" stop-color="#00a6e5"/>
      <stop offset=".78" stop-color="#005373"/>
    </linearGradient>
    <linearGradient id="linear-gradient-12" x1="321.45" y1="559.34" x2="321.45" y2="537" xlink:href="#linear-gradient-7"/>
    <linearGradient id="linear-gradient-13" x1="249.39" y1="385.86" x2="325.52" y2="385.86" gradientTransform="translate(831.87) rotate(-180) scale(1 -1)" gradientUnits="userSpaceOnUse">
      <stop offset="0" stop-color="#ff953c"/>
      <stop offset=".11" stop-color="#f08c38"/>
      <stop offset=".31" stop-color="#cb762f"/>
      <stop offset=".6" stop-color="#8f5321"/>
      <stop offset=".93" stop-color="#40250f"/>
    </linearGradient>
    <linearGradient id="linear-gradient-14" x1="249.39" y1="421.19" x2="393.7" y2="421.19" gradientTransform="translate(831.87) rotate(-180) scale(1 -1)" gradientUnits="userSpaceOnUse">
      <stop offset="0" stop-color="#ff953c"/>
      <stop offset=".59" stop-color="#40250f"/>
    </linearGradient>
    <linearGradient id="linear-gradient-15" x1="249.39" y1="429.75" x2="393.7" y2="429.75" gradientTransform="translate(831.87) rotate(-180) scale(1 -1)" gradientUnits="userSpaceOnUse">
      <stop offset="0" stop-color="#bf702d"/>
      <stop offset=".93" stop-color="#ff953c"/>
    </linearGradient>
    <linearGradient id="linear-gradient-16" x1="356.63" y1="144.28" x2="380.12" y2="144.28" gradientTransform="matrix(1,0,0,1,0,0)" xlink:href="#linear-gradient-15"/>
    <linearGradient id="linear-gradient-17" x1="274.91" y1="138.94" x2="299.53" y2="138.94" gradientTransform="matrix(1,0,0,1,0,0)" xlink:href="#linear-gradient-10"/>
    <linearGradient id="linear-gradient-18" x1="223.01" y1="184.89" x2="269.39" y2="184.89" gradientTransform="translate(56.22 -57.4) rotate(14.99)" xlink:href="#linear-gradient-9"/>
    <linearGradient id="linear-gradient-19" x1="556.43" y1="155.1" x2="575.65" y2="155.1" gradientTransform="matrix(1,0,0,1,0,0)" xlink:href="#linear-gradient-10"/>
    <linearGradient id="linear-gradient-20" x1="493.82" y1="151.46" x2="521.29" y2="151.46" gradientTransform="translate(522.55 -378) rotate(75.01)" gradientUnits="userSpaceOnUse">
      <stop offset="0" stop-color="#328045"/>
      <stop offset=".93" stop-color="#266034"/>
    </linearGradient>
    <linearGradient id="linear-gradient-21" x1="3936.71" y1="2834.31" x2="4029.1" y2="2739.51" gradientTransform="translate(3041.32 -3810.94) rotate(83.59)" gradientUnits="userSpaceOnUse">
      <stop offset=".22" stop-color="#47c7f8"/>
      <stop offset=".65" stop-color="#8dd09d"/>
    </linearGradient>
    <linearGradient id="linear-gradient-22" x1="1889.07" y1="274.01" x2="1906.28" y2="271.5" gradientTransform="translate(-1127.28)" xlink:href="#linear-gradient-6"/>
    <linearGradient id="linear-gradient-23" x1="1884.46" y1="317.95" x2="1915.42" y2="283" gradientTransform="translate(-1127.28)" gradientUnits="userSpaceOnUse">
      <stop offset="0" stop-color="#328045"/>
      <stop offset=".93" stop-color="#00a6e5"/>
    </linearGradient>
    <linearGradient id="linear-gradient-24" x1="1835.74" y1="440.46" x2="1966.18" y2="310.01" gradientTransform="translate(-1127.28)" gradientUnits="userSpaceOnUse">
      <stop offset=".07" stop-color="#47c7f8"/>
      <stop offset="1" stop-color="#8dd09d"/>
    </linearGradient>
    <linearGradient id="linear-gradient-25" x1="1900.44" y1="391.89" x2="1901.52" y2="343.48" gradientTransform="translate(-1127.28)" xlink:href="#linear-gradient-7"/>
    <radialGradient id="radial-gradient" cx="1873.11" cy="367.09" fx="1873.11" fy="367.09" r="91.07" gradientTransform="translate(-1127.28)" gradientUnits="userSpaceOnUse">
      <stop offset="0" stop-color="#00a6e5"/>
      <stop offset=".2" stop-color="#000"/>
    </radialGradient>
    <linearGradient id="_ÂÁ_Ï_ÌÌ_È_ËÂÌÚ_12" data-name="¡ÂÁ˚ÏˇÌÌ˚È „‡‰ËÂÌÚ 12" x1="1860.09" y1="367.32" x2="1884.6" y2="367.32" gradientTransform="translate(-1127.28)" gradientUnits="userSpaceOnUse">
      <stop offset="0" stop-color="#030d14"/>
      <stop offset="1" stop-color="#0b2f45"/>
    </linearGradient>
    <radialGradient id="radial-gradient-2" cx="1927.26" cy="367.58" fx="1927.26" fy="367.58" r="102.08" gradientTransform="translate(-1127.28)" gradientUnits="userSpaceOnUse">
      <stop offset="0" stop-color="#00a6e5"/>
      <stop offset=".19" stop-color="#000"/>
    </radialGradient>
    <linearGradient id="_ÂÁ_Ï_ÌÌ_È_ËÂÌÚ_12-2" data-name="¡ÂÁ˚ÏˇÌÌ˚È „‡‰ËÂÌÚ 12" x1="1915.01" x2="1939.52" xlink:href="#_ÂÁ_Ï_ÌÌ_È_ËÂÌÚ_12"/>
    <linearGradient id="linear-gradient-26" x1="1885.29" y1="253.22" x2="1908.06" y2="249.9" xlink:href="#linear-gradient-24"/>
    <linearGradient id="linear-gradient-27" x1="1891.76" y1="418.95" x2="1926.81" y2="383.91" xlink:href="#linear-gradient-23"/>
    <linearGradient id="linear-gradient-28" x1="1866.93" y1="517.03" x2="1959.77" y2="408.61" xlink:href="#linear-gradient-24"/>
    <linearGradient id="_ÂÁ_Ï_ÌÌ_È_ËÂÌÚ_6" data-name="¡ÂÁ˚ÏˇÌÌ˚È „‡‰ËÂÌÚ 6" x1="1862.01" y1="462.98" x2="1917.84" y2="397.78" gradientTransform="translate(-1127.28)" gradientUnits="userSpaceOnUse">
      <stop offset=".04" stop-color="#06cff1"/>
      <stop offset="1" stop-color="#defa8e"/>
    </linearGradient>
    <linearGradient id="linear-gradient-29" x1="6754.77" y1="874.73" x2="6831.15" y2="834.93" gradientTransform="translate(7664.11 652.68) rotate(-171.34) scale(1 -1)" xlink:href="#linear-gradient-21"/>
    <linearGradient id="linear-gradient-30" x1="1920.72" y1="495.91" x2="1969.98" y2="470.24" xlink:href="#linear-gradient-23"/>
    <radialGradient id="radial-gradient-3" cx="902.22" cy="561.45" fx="902.22" fy="561.45" r="51" gradientTransform="translate(1690.36 471.51) rotate(-180) scale(1 -.16)" gradientUnits="userSpaceOnUse">
      <stop offset=".22" stop-color="#000"/>
      <stop offset="1" stop-color="#000" stop-opacity="0"/>
    </radialGradient>
  </defs>
  <g class="cls-32">
    <g id="Layer_2" data-name="Layer 2">
      <g id="Layer_2-2" data-name="Layer 2">
        <g>
          <g class="cls-18">
            <path class="cls-13" d="M665.91,209.93c-95.98-12.92-113.95-102.24-172.71-159.07-67.4-65.19-191.47-70.37-262.66-.11-71.23,70.28-7.58,173.44-67.62,246.03C110.84,357.23-7.97,336.37.42,453.67c6.2,86.67,75.37,106.25,153.66,107.34,123.32,1.72,247.89,3.93,371.25.58,189.42-5.14,81.39-93.3,175.98-135.11,108.85-48.12,99.74-224.2-35.4-216.55"/>
          </g>
          <g>
            <line class="cls-5" x1="177.96" y1="378.61" x2="177.96" y2="378.61"/>
            <path class="cls-4" d="M178.06,373.14c3.36-99.51,98.28-179.3,214.88-179.3s213.25,81.26,214.95,182.03"/>
            <line class="cls-5" x1="607.91" y1="378.61" x2="607.91" y2="378.61"/>
          </g>
          <path class="cls-28" d="M77.73,568.39h647c2.62,0,5.12-2.3,5-5s-2.2-5-5-5H77.73c-2.62,0-5.12,2.3-5,5s2.2,5,5,5h0Z"/>
          <g>
            <path class="cls-6" d="M325.71,378.42h-52.01"/>
            <polygon class="cls-27" points="280.74 372.24 274.56 378.42 280.74 384.6 275.49 384.6 269.31 378.42 275.49 372.24 280.74 372.24"/>
          </g>
          <g>
            <path class="cls-3" d="M273.7,406.95h52.01"/>
            <polygon class="cls-26" points="318.67 413.13 324.85 406.95 318.67 400.76 323.92 400.76 330.1 406.95 323.92 413.13 318.67 413.13"/>
          </g>
          <g>
            <path class="cls-33" d="M50.4,434.33c-12.36,0-22.42-10.06-22.42-22.42s10.06-22.43,22.42-22.43,22.42,10.06,22.42,22.43-10.06,22.42-22.42,22.42ZM50.4,400.24c-6.43,0-11.66,5.23-11.66,11.66s5.23,11.66,11.66,11.66,11.66-5.23,11.66-11.66-5.23-11.66-11.66-11.66Z"/>
            <g>
              <rect class="cls-33" x="45.01" y="382.75" width="10.76" height="12.55"/>
              <rect class="cls-33" x="45.01" y="428.49" width="10.76" height="12.56"/>
              <rect class="cls-33" x="21.24" y="406.52" width="12.56" height="10.76"/>
              <rect class="cls-33" x="66.99" y="406.52" width="12.56" height="10.76"/>
              <rect class="cls-33" x="28.84" y="389.44" width="10.76" height="12.56" transform="translate(-269.87 140.19) rotate(-45.02)"/>
              <rect class="cls-33" x="61.19" y="421.79" width="10.76" height="12.56" transform="translate(-283.22 172.48) rotate(-45.01)"/>
              <rect class="cls-33" x="27.94" y="422.69" width="12.56" height="10.76" transform="translate(-292.64 149.54) rotate(-44.99)"/>
              <rect class="cls-33" x="60.29" y="390.34" width="12.56" height="10.76" transform="translate(-260.37 163.05) rotate(-45.01)"/>
            </g>
          </g>
          <g>
            <path class="cls-33" d="M689.91,228.57c-12.37,0-22.42-10.06-22.42-22.42s10.06-22.43,22.42-22.43,22.42,10.06,22.42,22.43-10.06,22.42-22.42,22.42ZM689.91,194.49c-6.43,0-11.66,5.23-11.66,11.66s5.23,11.66,11.66,11.66,11.66-5.23,11.66-11.66-5.23-11.66-11.66-11.66Z"/>
            <g>
              <rect class="cls-33" x="684.53" y="176.99" width="10.76" height="12.56"/>
              <rect class="cls-33" x="684.53" y="222.74" width="10.76" height="12.56"/>
              <rect class="cls-33" x="660.76" y="200.76" width="12.56" height="10.77"/>
              <rect class="cls-33" x="706.51" y="200.76" width="12.56" height="10.77"/>
              <rect class="cls-33" x="668.35" y="183.69" width="10.77" height="12.56" transform="translate(63.07 532.17) rotate(-45.01)"/>
              <rect class="cls-33" x="700.71" y="216.04" width="10.76" height="12.56" transform="translate(49.64 564.46) rotate(-45.01)"/>
              <rect class="cls-33" x="667.46" y="216.94" width="12.56" height="10.76" transform="translate(40.17 541.6) rotate(-45.01)"/>
              <rect class="cls-33" x="699.81" y="184.59" width="12.56" height="10.77" transform="translate(72.39 554.77) rotate(-44.99)"/>
            </g>
          </g>
          <g>
            <path class="cls-61" d="M133.21,231.02c-9.28,0-16.82-7.54-16.82-16.82s7.54-16.82,16.82-16.82,16.82,7.55,16.82,16.82-7.55,16.82-16.82,16.82ZM133.21,205.46c-4.82,0-8.75,3.92-8.75,8.74s3.93,8.75,8.75,8.75,8.74-3.92,8.74-8.75-3.92-8.74-8.74-8.74Z"/>
            <g>
              <rect class="cls-61" x="129.17" y="192.34" width="8.08" height="9.42"/>
              <rect class="cls-61" x="129.17" y="226.65" width="8.08" height="9.42"/>
              <rect class="cls-61" x="111.34" y="210.17" width="9.42" height="8.07"/>
              <rect class="cls-61" x="145.65" y="210.17" width="9.42" height="8.07"/>
              <rect class="cls-61" x="117.04" y="197.36" width="8.08" height="9.42" transform="translate(-107.44 144.86) rotate(-45.02)"/>
              <rect class="cls-61" x="141.3" y="221.62" width="8.07" height="9.42" transform="translate(-117.49 169.13) rotate(-45.02)"/>
              <rect class="cls-61" x="116.36" y="222.3" width="9.42" height="8.08" transform="translate(-124.6 151.98) rotate(-45.02)"/>
              <rect class="cls-61" x="140.62" y="198.03" width="9.42" height="8.08" transform="translate(-100.33 162.03) rotate(-45.02)"/>
            </g>
          </g>
          <g>
            <path class="cls-12" d="M643.9,630.11c0,10.71-8.68,19.39-19.39,19.39H161.36c-10.71,0-19.39-8.68-19.39-19.39h0c0-10.7,8.68-19.39,19.39-19.39h463.14c10.71,0,19.39,8.68,19.39,19.39h0Z"/>
            <path class="cls-11" d="M643.9,630.11c0,10.71-8.68,19.39-19.39,19.39H161.36c-10.71,0-19.39-8.68-19.39-19.39h0c0-10.7,8.68-19.39,19.39-19.39h463.14c10.71,0,19.39,8.68,19.39,19.39h0Z"/>
            <path class="cls-10" d="M464.35,630.11c0,10.71-8.68,19.39-19.39,19.39H161.36c-10.71,0-19.39-8.68-19.39-19.39h0c0-10.7,8.68-19.39,19.39-19.39h283.6c10.71,0,19.39,8.68,19.39,19.39h0Z"/>
            <g>
              <path class="cls-9" d="M464.35,630.11c0,10.71-8.68,19.39-19.39,19.39H161.36c-10.71,0-19.39-8.68-19.39-19.39h0c0-10.7,8.68-19.39,19.39-19.39h283.6c10.71,0,19.39,8.68,19.39,19.39h0Z"/>
              <g class="cls-60">
                <g>
                  <line class="cls-7" x1="329.09" y1="600.33" x2="290.66" y2="659.9"/>
                  <line class="cls-7" x1="342.51" y1="600.33" x2="304.09" y2="659.9"/>
                  <line class="cls-7" x1="355.94" y1="600.33" x2="317.51" y2="659.9"/>
                  <line class="cls-7" x1="369.36" y1="600.33" x2="330.93" y2="659.9"/>
                  <line class="cls-7" x1="382.78" y1="600.33" x2="344.35" y2="659.9"/>
                  <line class="cls-7" x1="396.21" y1="600.33" x2="357.78" y2="659.9"/>
                  <line class="cls-7" x1="409.63" y1="600.33" x2="371.2" y2="659.9"/>
                  <line class="cls-7" x1="423.05" y1="600.33" x2="384.63" y2="659.9"/>
                  <line class="cls-7" x1="436.48" y1="600.33" x2="398.05" y2="659.9"/>
                  <line class="cls-7" x1="449.9" y1="600.33" x2="411.47" y2="659.9"/>
                  <line class="cls-7" x1="463.33" y1="600.33" x2="424.9" y2="659.9"/>
                  <line class="cls-7" x1="476.75" y1="600.33" x2="438.32" y2="659.9"/>
                  <line class="cls-7" x1="168" y1="600.33" x2="129.58" y2="659.9"/>
                  <line class="cls-7" x1="181.43" y1="600.33" x2="143" y2="659.9"/>
                  <line class="cls-7" x1="194.85" y1="600.33" x2="156.42" y2="659.9"/>
                  <line class="cls-7" x1="208.28" y1="600.33" x2="169.85" y2="659.9"/>
                  <line class="cls-7" x1="221.7" y1="600.33" x2="183.27" y2="659.9"/>
                  <line class="cls-7" x1="235.12" y1="600.33" x2="196.7" y2="659.9"/>
                  <line class="cls-7" x1="248.55" y1="600.33" x2="210.12" y2="659.9"/>
                  <line class="cls-7" x1="261.97" y1="600.33" x2="223.54" y2="659.9"/>
                  <line class="cls-7" x1="275.4" y1="600.33" x2="236.97" y2="659.9"/>
                  <line class="cls-7" x1="288.82" y1="600.33" x2="250.39" y2="659.9"/>
                  <line class="cls-7" x1="302.24" y1="600.33" x2="263.81" y2="659.9"/>
                  <line class="cls-7" x1="315.66" y1="600.33" x2="277.24" y2="659.9"/>
                </g>
              </g>
            </g>
          </g>
          <g>
            <g>
              <path class="cls-31" d="M88.17,363.12c0,1.48,1.2,2.69,2.69,2.69h0c1.48,0,2.69-1.2,2.69-2.69v-43.91c0-1.48-1.2-2.69-2.69-2.69h0c-1.48,0-2.69,1.21-2.69,2.69v43.91Z"/>
              <path class="cls-24" d="M90.84,543.74c0,8.84,7.17,16.01,16.01,16.01h133.4c8.84,0,16.01-7.16,16.01-16.01v-253.46c0-8.84-7.17-16.01-16.01-16.01H106.85c-8.84,0-16.01,7.17-16.01,16.01v253.46Z"/>
              <path class="cls-62" d="M206.9,287.81h-66.7c-1.47,0-1.47,2.28,0,2.28h66.7c1.47,0,1.47-2.28,0-2.28h0Z"/>
              <path class="cls-21" d="M121.11,291.37c3.11,0,3.11-4.83,0-4.83s-3.11,4.83,0,4.83h0Z"/>
              <path class="cls-21" d="M173.55,543.77c4.04,0,4.05-6.28,0-6.28s-4.05,6.28,0,6.28h0Z"/>
              <path class="cls-62" d="M208.23,542.91c2.93,0,2.94-4.56,0-4.56s-2.94,4.56,0,4.56h0Z"/>
              <path class="cls-62" d="M138.86,542.91c2.93,0,2.94-4.56,0-4.56s-2.94,4.56,0,4.56h0Z"/>
              <g>
                <rect class="cls-21" x="101.51" y="316.52" width="144.07" height="211.21"/>
                <g class="cls-29">
                  <g class="cls-35">
                    <g>
                      <path class="cls-58" d="M261.51,518.05h14.71c4.02,0,7.29-3.26,7.29-7.29v-186.6c0-4.03-3.27-7.29-7.29-7.29H71.39"/>
                      <polygon class="cls-58" points="227.12 531.67 247.97 531.67 43.71 316.88 24.92 316.46 227.12 531.67"/>
                    </g>
                  </g>
                </g>
              </g>
            </g>
            <g>
              <g>
                <g>
                  <polygon class="cls-23" points="170.78 412.4 227.12 412.4 227.12 373.85 187.32 373.85 170.78 412.4"/>
                  <rect class="cls-22" x="120.33" y="384.77" width="106.79" height="69"/>
                </g>
                <rect class="cls-21" x="125.89" y="391.24" width="95.66" height="56.32"/>
                <rect class="cls-25" x="120.33" y="397.44" width="106.79" height="56.33"/>
              </g>
              <path class="cls-10" d="M153.76,425.48c0,11.02,8.94,19.97,19.97,19.97s19.97-8.94,19.97-19.97-8.94-19.97-19.97-19.97-19.97,8.94-19.97,19.97Z"/>
            </g>
          </g>
          <g>
            <g>
              <path class="cls-36" d="M344.11,295.17h332.6c4.67,0,8.47,3.8,8.47,8.47v216.99c0,4.68-3.8,8.47-8.47,8.47h-332.6c-4.68,0-8.47-3.8-8.47-8.47v-216.99c0-4.68,3.8-8.47,8.47-8.47Z"/>
              <path class="cls-21" d="M510.41,304.88c2.47,0,2.47-3.84,0-3.84s-2.47,3.84,0,3.84h0Z"/>
              <g>
                <path class="cls-21" d="M360.11,505.43c0,4.03,3.26,7.28,7.28,7.28h286.04c4.02,0,7.29-3.26,7.29-7.28v-186.6c0-4.03-3.27-7.29-7.29-7.29h-286.04c-4.02,0-7.28,3.26-7.28,7.29v186.6Z"/>
                <g class="cls-29">
                  <path class="cls-58" d="M638.72,512.72h14.71c4.02,0,7.29-3.26,7.29-7.28v-186.6c0-4.03-3.27-7.29-7.29-7.29h-204.83"/>
                  <polygon class="cls-58" points="592.35 512.72 611.03 512.72 420.92 311.54 402.13 311.13 592.35 512.72"/>
                </g>
              </g>
              <g>
                <g>
                  <path class="cls-34" d="M680.84,524.54h19.07c1.02,0,1.85.83,1.85,1.85v5.84c0,1.02-.83,1.85-1.85,1.85h-19.07c-1.02,0-1.84-.83-1.84-1.84v-5.84c0-1.02.83-1.85,1.85-1.85Z"/>
                  <path class="cls-34" d="M653.16,524.54h19.07c1.02,0,1.85.83,1.85,1.85v5.85c0,1.02-.83,1.84-1.84,1.84h-19.07c-1.02,0-1.84-.83-1.84-1.84v-5.84c0-1.02.83-1.85,1.85-1.85Z"/>
                  <path class="cls-34" d="M625.47,524.54h19.07c1.02,0,1.85.83,1.85,1.85v5.84c0,1.02-.83,1.84-1.84,1.84h-19.08c-1.02,0-1.84-.83-1.84-1.84v-5.84c0-1.02.83-1.85,1.85-1.85Z"/>
                  <path class="cls-34" d="M597.78,524.54h19.07c1.02,0,1.84.83,1.84,1.84v5.85c0,1.02-.83,1.84-1.84,1.84h-19.07c-1.02,0-1.85-.83-1.85-1.85v-5.84c0-1.02.83-1.85,1.85-1.85Z"/>
                  <path class="cls-34" d="M570.1,524.54h19.07c1.02,0,1.85.83,1.85,1.85v5.84c0,1.02-.83,1.84-1.84,1.84h-19.07c-1.02,0-1.85-.83-1.85-1.85v-5.84c0-1.02.83-1.85,1.85-1.85Z"/>
                  <path class="cls-34" d="M542.41,524.54h19.07c1.02,0,1.85.83,1.85,1.85v5.85c0,1.02-.83,1.84-1.84,1.84h-19.07c-1.02,0-1.85-.83-1.85-1.85v-5.84c0-1.02.83-1.85,1.85-1.85Z"/>
                  <path class="cls-34" d="M514.72,524.54h19.07c1.02,0,1.85.83,1.85,1.85v5.84c0,1.02-.83,1.84-1.84,1.84h-19.07c-1.02,0-1.85-.83-1.85-1.85v-5.84c0-1.02.83-1.85,1.85-1.85Z"/>
                  <path class="cls-34" d="M487.04,524.54h19.07c1.02,0,1.85.83,1.85,1.85v5.84c0,1.02-.83,1.84-1.84,1.84h-19.08c-1.02,0-1.84-.83-1.84-1.84v-5.84c0-1.02.83-1.85,1.85-1.85Z"/>
                  <path class="cls-34" d="M459.35,524.54h19.07c1.02,0,1.85.83,1.85,1.85v5.84c0,1.02-.83,1.84-1.84,1.84h-19.08c-1.02,0-1.84-.83-1.84-1.84v-5.84c0-1.02.83-1.85,1.85-1.85Z"/>
                  <path class="cls-34" d="M431.67,524.54h19.07c1.02,0,1.85.83,1.85,1.85v5.84c0,1.02-.83,1.84-1.84,1.84h-19.07c-1.02,0-1.84-.83-1.84-1.84v-5.84c0-1.02.83-1.85,1.85-1.85Z"/>
                  <path class="cls-34" d="M403.98,524.54h19.07c1.02,0,1.85.83,1.85,1.85v5.84c0,1.02-.83,1.85-1.85,1.85h-19.07c-1.02,0-1.84-.83-1.84-1.84v-5.84c0-1.02.83-1.85,1.85-1.85Z"/>
                  <path class="cls-34" d="M376.29,524.54h19.07c1.02,0,1.85.83,1.85,1.85v5.85c0,1.02-.83,1.84-1.84,1.84h-19.08c-1.02,0-1.84-.83-1.84-1.84v-5.84c0-1.02.83-1.85,1.85-1.85Z"/>
                  <path class="cls-34" d="M348.61,524.54h19.07c1.02,0,1.85.83,1.85,1.85v5.85c0,1.02-.83,1.84-1.84,1.84h-19.07c-1.02,0-1.85-.83-1.85-1.85v-5.84c0-1.02.83-1.85,1.85-1.85Z"/>
                  <path class="cls-34" d="M320.92,524.54h19.07c1.02,0,1.85.83,1.85,1.85v5.85c0,1.02-.83,1.84-1.84,1.84h-19.08c-1.02,0-1.84-.83-1.84-1.84v-5.85c0-1.02.83-1.85,1.85-1.85Z"/>
                </g>
                <path class="cls-37" d="M298.13,544.25c0,4.68.97,8.47,5.64,8.47h413.27c4.68,0,5.65-3.79,5.65-8.47v-7.25c0-4.68-.97-8.47-5.65-8.47h-413.27c-4.67,0-5.64,3.79-5.64,8.47v7.25Z"/>
                <path class="cls-38" d="M298.13,537v13.87c0,4.67.97,8.46,5.64,8.46h413.27c4.68,0,5.65-3.79,5.65-8.46v-13.87"/>
              </g>
            </g>
            <g>
              <g>
                <g>
                  <polygon class="cls-39" points="506.35 411.9 582.48 411.9 582.48 359.81 528.69 359.81 506.35 411.9"/>
                  <rect class="cls-41" x="438.17" y="374.57" width="144.3" height="93.24"/>
                </g>
                <rect class="cls-21" x="445.69" y="383.3" width="129.28" height="76.11"/>
                <rect class="cls-49" x="438.17" y="391.69" width="144.3" height="76.11"/>
              </g>
              <g>
                <circle class="cls-21" cx="510.32" cy="430.97" r="23.49"/>
                <g>
                  <line class="cls-8" x1="510.32" y1="416.28" x2="510.32" y2="439.43"/>
                  <polygon class="cls-31" points="506.32 420.98 510.32 416.98 514.32 420.98 514.32 417.59 510.32 413.59 506.32 417.59 506.32 420.98"/>
                </g>
                <line class="cls-2" x1="520.05" y1="443.66" x2="500.59" y2="443.66"/>
              </g>
            </g>
          </g>
          <g>
            <rect class="cls-21" x="346.78" y="115.97" width="92.29" height="122.49"/>
            <rect class="cls-50" x="356.63" y="130.02" width="23.49" height="28.53"/>
            <g>
              <path class="cls-34" d="M387.26,133.03h41.95c1.17,0,1.18-1.82,0-1.82h-41.95c-1.17,0-1.18,1.82,0,1.82h0Z"/>
              <path class="cls-34" d="M387.26,141.42h41.95c1.17,0,1.18-1.82,0-1.82h-41.95c-1.17,0-1.18,1.82,0,1.82h0Z"/>
              <path class="cls-34" d="M387.26,149.81h41.95c1.17,0,1.18-1.82,0-1.82h-41.95c-1.17,0-1.18,1.82,0,1.82h0Z"/>
              <path class="cls-34" d="M387.26,158.2h41.95c1.17,0,1.18-1.82,0-1.82h-41.95c-1.17,0-1.18,1.82,0,1.82h0Z"/>
              <path class="cls-34" d="M356.63,166.59h72.58c1.17,0,1.18-1.82,0-1.82h-72.58c-1.17,0-1.18,1.82,0,1.82h0Z"/>
              <path class="cls-34" d="M356.63,174.98h72.58c1.17,0,1.18-1.82,0-1.82-18.76,0-37.51,0-56.27,0h-16.31c-1.17,0-1.18,1.82,0,1.82h0Z"/>
              <path class="cls-34" d="M356.63,183.37h72.58c1.17,0,1.18-1.82,0-1.82h-72.58c-1.17,0-1.18,1.82,0,1.82h0Z"/>
              <path class="cls-34" d="M356.63,191.76h72.58c1.17,0,1.18-1.82,0-1.82-18.76,0-37.51,0-56.27,0h-16.31c-1.17,0-1.18,1.82,0,1.82h0Z"/>
              <path class="cls-34" d="M356.63,200.15c19.11,0,38.21,0,57.32,0h15.27c1.17,0,1.18-1.82,0-1.82h-72.58c-1.17,0-1.18,1.82,0,1.82h0Z"/>
              <path class="cls-34" d="M356.63,208.54c19.11,0,38.21,0,57.32,0h15.27c1.17,0,1.18-1.82,0-1.82h-72.58c-1.17,0-1.18,1.82,0,1.82h0Z"/>
              <path class="cls-34" d="M356.63,216.93c19.11,0,38.21,0,57.32,0h15.27c1.17,0,1.18-1.82,0-1.82h-72.58c-1.17,0-1.18,1.82,0,1.82h0Z"/>
              <path class="cls-34" d="M356.63,225.32h72.58c1.17,0,1.18-1.82,0-1.82h-72.58c-1.17,0-1.18,1.82,0,1.82h0Z"/>
            </g>
          </g>
          <g>
            <g>
              <polygon class="cls-21" points="274.73 128.93 205 147.62 236.7 265.93 325.84 242.05 299.58 144.05 274.73 128.93"/>
              <polygon class="cls-51" points="274.91 128.88 280.3 148.99 299.53 143.85 274.91 128.88"/>
            </g>
            <rect class="cls-52" x="226.1" y="170.32" width="40.2" height="29.15" transform="translate(-39.45 70) rotate(-14.99)"/>
            <g>
              <path class="cls-34" d="M233,213.3c18.14-4.86,36.29-9.72,54.43-14.58,5.09-1.36,10.18-2.73,15.26-4.09,1.13-.3.65-2.06-.48-1.76-18.21,4.88-36.43,9.76-54.64,14.64-5.02,1.34-10.03,2.69-15.05,4.03-1.13.3-.65,2.06.48,1.76h0Z"/>
              <path class="cls-34" d="M235.18,221.4c18.14-4.86,36.28-9.72,54.43-14.59,5.09-1.36,10.17-2.73,15.26-4.09,1.13-.3.65-2.06-.48-1.76-18.21,4.88-36.43,9.76-54.64,14.64-5.02,1.34-10.03,2.69-15.05,4.03-1.13.3-.65,2.06.48,1.76h0Z"/>
              <path class="cls-34" d="M237.35,229.51c18.14-4.86,36.29-9.72,54.43-14.58,5.09-1.36,10.18-2.73,15.26-4.09,1.13-.3.65-2.06-.48-1.76-18.21,4.88-36.43,9.76-54.64,14.64-5.02,1.34-10.03,2.69-15.05,4.03-1.13.3-.65,2.06.48,1.76h0Z"/>
              <path class="cls-34" d="M239.52,237.61c18.14-4.86,36.29-9.72,54.43-14.58,5.09-1.36,10.18-2.73,15.26-4.09,1.13-.3.65-2.06-.48-1.76-18.21,4.88-36.43,9.76-54.64,14.64-5.02,1.34-10.03,2.69-15.05,4.03-1.13.3-.65,2.06.48,1.76h0Z"/>
              <path class="cls-34" d="M241.69,245.71c15.94-4.27,31.88-8.54,47.81-12.81,1.13-.3.65-2.06-.48-1.76-15.94,4.27-31.88,8.54-47.81,12.81-1.13.3-.65,2.06.48,1.76h0Z"/>
              <path class="cls-34" d="M269.27,167.99c8.18-2.19,16.35-4.38,24.53-6.57,1.13-.3.65-2.06-.48-1.76-8.18,2.19-16.35,4.38-24.53,6.57-1.13.3-.65,2.06.48,1.76h0Z"/>
              <path class="cls-34" d="M271.44,176.09c8.18-2.19,16.35-4.38,24.53-6.57,1.13-.3.65-2.06-.48-1.76-8.18,2.19-16.35,4.38-24.53,6.57-1.13.3-.65,2.06.48,1.76h0Z"/>
              <path class="cls-34" d="M273.61,184.19c8.18-2.19,16.35-4.38,24.53-6.57,1.13-.3.65-2.06-.48-1.76-8.18,2.19-16.35,4.38-24.53,6.57-1.13.3-.65,2.06.48,1.76h0Z"/>
            </g>
          </g>
          <g>
            <g>
              <polygon class="cls-21" points="561.62 142.41 491.9 123.73 460.19 242.05 549.34 265.93 575.6 167.93 561.62 142.41"/>
              <polygon class="cls-40" points="561.82 142.46 556.43 162.58 575.65 167.73 561.82 142.46"/>
            </g>
            <g>
              <path class="cls-34" d="M491.59,163.76c18.1,4.85,36.21,9.7,54.31,14.55,5.13,1.37,10.25,2.75,15.38,4.12,1.13.3,1.62-1.45.48-1.76-18.1-4.85-36.21-9.7-54.31-14.55-5.13-1.37-10.25-2.75-15.38-4.12-1.13-.3-1.62,1.45-.48,1.76h0Z"/>
              <path class="cls-34" d="M489.42,171.87c18.1,4.85,36.21,9.7,54.31,14.55,5.13,1.37,10.25,2.75,15.38,4.12,1.13.3,1.62-1.45.48-1.76-18.1-4.85-36.21-9.7-54.32-14.55-5.13-1.37-10.25-2.75-15.38-4.12-1.13-.3-1.62,1.45-.48,1.76h0Z"/>
              <path class="cls-34" d="M487.25,179.97c18.1,4.85,36.21,9.7,54.31,14.55,5.13,1.37,10.25,2.75,15.38,4.12,1.13.3,1.62-1.45.48-1.76-18.1-4.85-36.21-9.7-54.31-14.55-5.13-1.37-10.25-2.75-15.38-4.12-1.13-.3-1.62,1.45-.48,1.76h0Z"/>
              <path class="cls-34" d="M485.07,188.08c18.1,4.85,36.21,9.7,54.31,14.55,5.13,1.37,10.25,2.75,15.38,4.12,1.13.3,1.62-1.45.48-1.76-18.1-4.85-36.21-9.7-54.31-14.56-5.13-1.37-10.25-2.75-15.38-4.12-1.13-.3-1.62,1.45-.48,1.76h0Z"/>
              <path class="cls-34" d="M482.9,196.18c18.1,4.85,36.21,9.7,54.31,14.55,5.13,1.37,10.25,2.75,15.38,4.12,1.13.3,1.62-1.45.48-1.76-18.1-4.85-36.21-9.7-54.31-14.55-5.13-1.37-10.25-2.75-15.38-4.12-1.13-.3-1.62,1.45-.48,1.76h0Z"/>
              <path class="cls-34" d="M480.73,204.28c18.1,4.85,36.21,9.7,54.31,14.55,5.13,1.37,10.25,2.75,15.38,4.12,1.13.3,1.62-1.45.48-1.76-18.1-4.85-36.21-9.7-54.31-14.55-5.13-1.37-10.25-2.75-15.38-4.12-1.13-.3-1.62,1.45-.48,1.76h0Z"/>
              <path class="cls-34" d="M478.56,212.39c18.1,4.85,36.21,9.7,54.31,14.55,5.13,1.37,10.25,2.75,15.38,4.12,1.13.3,1.62-1.45.48-1.76-18.11-4.85-36.21-9.7-54.32-14.55-5.13-1.37-10.25-2.75-15.38-4.12-1.13-.3-1.62,1.45-.48,1.76h0Z"/>
              <path class="cls-34" d="M476.39,220.49c15.76,4.22,31.52,8.44,47.27,12.67,1.13.3,1.62-1.45.48-1.76-15.76-4.22-31.52-8.44-47.27-12.67-1.13-.3-1.62,1.45-.48,1.76h0Z"/>
            </g>
            <rect class="cls-43" x="500.16" y="139.22" width="14.8" height="24.47" transform="translate(229.95 602.56) rotate(-75.01)"/>
          </g>
          <g>
            <g class="cls-18">
              <path d="M661.28,431.77c.69-2.02,2.82-3.02,4.35-3.72,6.77-3.07,13.78-1.03,17.76.07,21.72,6.04,29.76,5.71,34.55,9.43,4.07-2.61,8.88-3.98,13.79-3.96l34.06.14h.52s34.57-.14,34.57-.14c7.09-.03,13.97,2.84,18.7,8.15.73.27,1.35.57,1.83.84,10.93,6.29,7.69,33.54.49,50.74-1.57,3.75-5.78,13.81-10.91,13.57-2.05-.1-3.57-1.8-4.65-3.09,0,0,0,0,0,.01-1.05,1.65-2.16,3.24-3.34,4.8-1.56,2.08-3.26,4.11-5.15,6.2-4.21,4.64-10.57,6.75-12.62,7.47-7.5,2.69-14.12,2.2-18.52,2.24h-.77c-4.42-.04-11.03.45-18.52-2.24-2.05-.73-8.42-2.83-12.62-7.47-11.14-12.3-15.67-22.62-25.06-51.5-11.46.1-28.04-8.21-38.69-17.1-3.1-2.59-11.42-9.53-9.74-14.46Z"/>
              <path d="M708.56,429.08c-18.93,0-34.42-15.73-34.42-34.95v-38.44c0-34.2,27.56-62.18,61.24-62.18h53.1c33.68,0,61.24,27.98,61.24,62.18v38.44c0,19.3-15.41,34.95-34.42,34.95h-106.74Z"/>
            </g>
            <g>
              <path class="cls-42" d="M693.12,434.66c26.96,7.38,33.32,5.32,38.13,12.54.55.83,3.37,5.07,2.8,10.51-.45,4.34-2.86,7.68-4.38,9.15-9.23,8.94-34.64-2-49.2-13.96-3.17-2.61-11.69-9.6-9.97-14.57.7-2.04,2.88-3.05,4.45-3.75,6.92-3.1,14.1-1.04,18.17.07Z"/>
              <rect class="cls-44" x="770.61" y="253.48" width="5.74" height="37.65"/>
              <rect class="cls-45" x="748.38" y="287.18" width="50.2" height="24.74" rx="4.52" ry="4.52"/>
              <path class="cls-54" d="M738.53,299.01h69.89c30.29,0,54.87,24.59,54.87,54.87v54.42c0,15.08-12.24,27.32-27.32,27.32h-125.01c-15.08,0-27.32-12.24-27.32-27.32v-54.42c0-30.29,24.59-54.87,54.87-54.87Z"/>
              <path class="cls-47" d="M835.04,390.29h0c-2.35,1.16-4.99,1.77-7.66,1.77h-107.8c-2.68,0-5.31-.61-7.66-1.77h0c-5.77-2.85-9.03-8.62-8.22-14.53l.06-.43c2.76-20.02,20.9-35.42,43.13-36.58,9.41-.49,19.28-.74,29.58-.68,8.07.05,15.86.28,23.37.67,22.32,1.15,40.59,16.49,43.36,36.59.02.14.04.29.06.43.82,5.91-2.44,11.68-8.22,14.53Z"/>
              <circle class="cls-16" cx="745.07" cy="367.32" r="20.33"/>
              <circle class="cls-57" cx="745.07" cy="367.32" r="14.59"/>
              <circle class="cls-63" cx="745.07" cy="367.32" r="12.26"/>
              <path class="cls-57" d="M752.92,364.15c0,2.51-2.03,4.54-4.54,4.54s-4.54-2.03-4.54-4.54,2.03-4.54,4.54-4.54,4.54,2.03,4.54,4.54Z"/>
              <circle class="cls-57" cx="743.25" cy="376.72" r="1.81"/>
              <path class="cls-57" d="M738.76,374c0,.5-.41.91-.91.91s-.91-.41-.91-.91.41-.91.91-.91.91.41.91.91Z"/>
              <circle class="cls-15" cx="799.98" cy="367.32" r="20.33"/>
              <circle class="cls-57" cx="799.98" cy="367.32" r="14.59"/>
              <circle class="cls-59" cx="799.98" cy="367.32" r="12.26"/>
              <path class="cls-57" d="M807.83,364.15c0,2.51-2.03,4.54-4.54,4.54s-4.54-2.03-4.54-4.54,2.03-4.54,4.54-4.54,4.54,2.03,4.54,4.54Z"/>
              <circle class="cls-57" cx="798.17" cy="376.72" r="1.81"/>
              <path class="cls-57" d="M793.68,374c0,.5-.41.91-.91.91s-.91-.41-.91-.91.41-.91.91-.91.91.41.91.91Z"/>
              <path class="cls-55" d="M780.83,250.97c0,4.06-3.29,7.35-7.35,7.35s-7.35-3.29-7.35-7.35,3.29-7.35,7.35-7.35,7.35,3.29,7.35,7.35Z"/>
              <path class="cls-19" d="M778.59,248.1c0,1.24-1,2.24-2.24,2.24s-2.24-1-2.24-2.24,1-2.24,2.24-2.24,2.24,1,2.24,2.24Z"/>
              <path class="cls-19" d="M836.77,322.58c.1,3.43-2.7,7.54-5.91,7.89-3.01.33-5.41-2.74-7.89-5.91-2.44-3.12-7.78-11.15-5.65-13.42,2.8-2.99,19.22,3.35,19.45,11.44Z"/>
              <circle class="cls-19" cx="809.29" cy="306.95" r="2.55"/>
              <path class="cls-20" d="M836.41,370.19c-.82.58-6.53-11.06-21.87-21.16-5.39-3.55-10.71-6.08-10.4-6.81.32-.75,6.32.64,11.12,2.87,15.29,7.09,22.13,24.41,21.16,25.1Z"/>
              <path class="cls-19" d="M797.13,294.51c-.18.03-.3-1.05-1.19-2.71,0,0-.42-.78-.9-1.43-1.54-2.12-6.76-2.07-7.17-2.07-8.13.07-13.36-.44-13.36-.4,0,.04,3.81-.04,6.61-.09,7.88-.16,12.58-.58,14.59,1.53.84.88,1.25,2.02,1.25,2.02.57,1.55.38,3.12.16,3.16Z"/>
              <path class="cls-57" d="M795.44,400.79c-.2,1.95-1.82,3.45-3.77,3.64l-26.93,2.6c-1.95.19-3.83-.97-4.39-2.85-.25-.83-.45-1.69-.58-2.57-.04-.24.03-.49.18-.69.15-.19.38-.32.62-.34l33.97-3.28c.24-.02.48.05.67.21.18.16.29.39.3.63.04.89.01,1.78-.08,2.65Z"/>
              <path class="cls-53" d="M795.44,400.79c-.86,8.35-7.5,15.21-16.17,16.04-8.55.83-16.28-4.47-18.81-12.33.68,1.68,2.44,2.7,4.28,2.52l26.94-2.59c1.95-.19,3.56-1.69,3.76-3.64Z"/>
              <path class="cls-46" d="M837.86,461.27c0,.25,0,.48-.01.71-.09,2.26-.61,3.96-.87,4.72-7.41,22.64-11.85,34.58-18.08,44.24-1.08,1.67-2.21,3.27-3.42,4.84-1.59,2.1-3.33,4.14-5.27,6.25-4.3,4.68-10.81,6.8-12.91,7.53-7.67,2.71-14.45,2.22-18.95,2.26h-.79c-4.52-.04-11.28.45-18.95-2.26-2.1-.73-8.62-2.85-12.91-7.53-11.83-12.88-16.38-23.58-26.77-55.33-.25-.73-.74-2.31-.86-4.43-.03-.61-.04-1.23-.01-1.84.23-3.8,1.76-7.52,4.5-10.92,4.68-5.83,11.91-9.03,19.38-9.06l36.03-.15,35.37-.14c7.64-.03,15.04,3.17,19.89,9.08,2.35,2.86,3.84,5.95,4.39,9.13.08.45.14.91.18,1.37.04.51.08,1.01.08,1.53Z"/>
              <path class="cls-30" d="M777.95,440.31l-36.03.15c-7.48.03-14.7,3.23-19.38,9.06-2.73,3.4-4.27,7.12-4.5,10.92.18-3.89,1.79-7.71,4.64-11.19,4.84-5.91,12.25-9.11,19.89-9.08l35.38.14Z"/>
              <path class="cls-56" d="M813.76,493.38c-.53-27.94-4.31-33.47,1.27-40.12.64-.76,3.91-4.66,9.29-5.66,4.29-.79,8.18.58,10.02,1.62,11.18,6.34,7.86,33.8.5,51.14-1.61,3.78-5.91,13.92-11.17,13.68-2.15-.1-3.74-1.91-4.85-3.21-4.93-5.77-4.98-13.24-5.06-17.45Z"/>
              <path class="cls-48" d="M818.9,510.94c-1.08,1.67-2.21,3.27-3.42,4.84-.39-.4-.73-.8-1.04-1.16-4.93-5.77-4.98-13.23-5.06-17.45-.53-27.95-4.31-33.47,1.27-40.11.41-.49,1.9-2.27,4.34-3.74-5.51,6.63-1.75,12.2-1.23,40.06.08,4.22.14,11.68,5.06,17.46.03.03.06.06.09.11Z"/>
              <path class="cls-19" d="M834.67,470.11c-.16-3-.72-5.21-1.85-9.63-1.47-5.78-3.32-8.59-2.12-9.71.78-.73,2.32-.24,2.67-.12,5.28,1.68,6.92,11.59,6.69,17.8-.14,3.8-1.07,8.04-2.46,8.23-.22.03-.77,0-1.16-.34-1.55-1.37-1.66-3.94-1.78-6.22Z"/>
              <path class="cls-19" d="M838.3,480.71c0,.61-.49,1.1-1.1,1.1s-1.1-.49-1.1-1.1.49-1.1,1.1-1.1,1.1.49,1.1,1.1Z"/>
            </g>
            <ellipse class="cls-17" cx="788.13" cy="561.45" rx="53.47" ry="8.17"/>
          </g>
        </g>
      </g>
    </g>
  </g>
</svg>