<svg xmlns="http://www.w3.org/2000/svg" version="1.1" xmlns:xlink="http://www.w3.org/1999/xlink" xmlns:svgjs="http://svgjs.dev/svgjs" width="1440" height="560" preserveAspectRatio="none" viewBox="0 0 1440 560"><g mask="url(&quot;#SvgjsMask1709&quot;)" fill="none"><rect width="1440" height="560" x="0" y="0" fill="url(&quot;#SvgjsLinearGradient1710&quot;)"></rect><path d="M1194 118L1193 261" stroke-width="8" stroke="url(&quot;#SvgjsLinearGradient1711&quot;)" stroke-linecap="round" class="Down"></path><path d="M576 467L575 695" stroke-width="10" stroke="url(&quot;#SvgjsLinearGradient1711&quot;)" stroke-linecap="round" class="Down"></path><path d="M825 43L824 -226" stroke-width="8" stroke="url(&quot;#SvgjsLinearGradient1712&quot;)" stroke-linecap="round" class="Up"></path><path d="M996 494L995 865" stroke-width="6" stroke="url(&quot;#SvgjsLinearGradient1712&quot;)" stroke-linecap="round" class="Up"></path><path d="M152 12L151 216" stroke-width="10" stroke="url(&quot;#SvgjsLinearGradient1711&quot;)" stroke-linecap="round" class="Down"></path><path d="M1024 280L1023 -69" stroke-width="6" stroke="url(&quot;#SvgjsLinearGradient1711&quot;)" stroke-linecap="round" class="Down"></path><path d="M784 450L783 644" stroke-width="6" stroke="url(&quot;#SvgjsLinearGradient1711&quot;)" stroke-linecap="round" class="Down"></path><path d="M1030 180L1029 -148" stroke-width="6" stroke="url(&quot;#SvgjsLinearGradient1712&quot;)" stroke-linecap="round" class="Up"></path><path d="M396 120L395 -127" stroke-width="10" stroke="url(&quot;#SvgjsLinearGradient1712&quot;)" stroke-linecap="round" class="Up"></path><path d="M452 8L451 -347" stroke-width="8" stroke="url(&quot;#SvgjsLinearGradient1712&quot;)" stroke-linecap="round" class="Up"></path><path d="M784 351L783 698" stroke-width="6" stroke="url(&quot;#SvgjsLinearGradient1712&quot;)" stroke-linecap="round" class="Up"></path><path d="M232 413L231 111" stroke-width="6" stroke="url(&quot;#SvgjsLinearGradient1711&quot;)" stroke-linecap="round" class="Down"></path><path d="M492 446L491 763" stroke-width="8" stroke="url(&quot;#SvgjsLinearGradient1711&quot;)" stroke-linecap="round" class="Down"></path><path d="M473 506L472 797" stroke-width="8" stroke="url(&quot;#SvgjsLinearGradient1711&quot;)" stroke-linecap="round" class="Down"></path><path d="M410 398L409 740" stroke-width="10" stroke="url(&quot;#SvgjsLinearGradient1712&quot;)" stroke-linecap="round" class="Up"></path><path d="M1246 147L1245 422" stroke-width="10" stroke="url(&quot;#SvgjsLinearGradient1712&quot;)" stroke-linecap="round" class="Up"></path><path d="M601 78L600 457" stroke-width="8" stroke="url(&quot;#SvgjsLinearGradient1711&quot;)" stroke-linecap="round" class="Down"></path><path d="M1421 335L1420 685" stroke-width="8" stroke="url(&quot;#SvgjsLinearGradient1712&quot;)" stroke-linecap="round" class="Up"></path><path d="M1008 527L1007 705" stroke-width="8" stroke="url(&quot;#SvgjsLinearGradient1712&quot;)" stroke-linecap="round" class="Up"></path><path d="M836 300L835 447" stroke-width="10" stroke="url(&quot;#SvgjsLinearGradient1712&quot;)" stroke-linecap="round" class="Up"></path><path d="M1373 241L1372 -46" stroke-width="8" stroke="url(&quot;#SvgjsLinearGradient1712&quot;)" stroke-linecap="round" class="Up"></path><path d="M238 117L237 -260" stroke-width="6" stroke="url(&quot;#SvgjsLinearGradient1711&quot;)" stroke-linecap="round" class="Down"></path><path d="M435 415L434 709" stroke-width="10" stroke="url(&quot;#SvgjsLinearGradient1712&quot;)" stroke-linecap="round" class="Up"></path><path d="M744 93L743 287" stroke-width="10" stroke="url(&quot;#SvgjsLinearGradient1711&quot;)" stroke-linecap="round" class="Down"></path><path d="M198 50L197 -165" stroke-width="10" stroke="url(&quot;#SvgjsLinearGradient1712&quot;)" stroke-linecap="round" class="Up"></path><path d="M1426 434L1425 637" stroke-width="10" stroke="url(&quot;#SvgjsLinearGradient1712&quot;)" stroke-linecap="round" class="Up"></path><path d="M26 504L25 153" stroke-width="8" stroke="url(&quot;#SvgjsLinearGradient1711&quot;)" stroke-linecap="round" class="Down"></path><path d="M420 102L419 -78" stroke-width="8" stroke="url(&quot;#SvgjsLinearGradient1712&quot;)" stroke-linecap="round" class="Up"></path><path d="M38 149L37 -194" stroke-width="10" stroke="url(&quot;#SvgjsLinearGradient1712&quot;)" stroke-linecap="round" class="Up"></path><path d="M782 7L781 165" stroke-width="10" stroke="url(&quot;#SvgjsLinearGradient1711&quot;)" stroke-linecap="round" class="Down"></path><path d="M313 120L312 -36" stroke-width="6" stroke="url(&quot;#SvgjsLinearGradient1712&quot;)" stroke-linecap="round" class="Up"></path><path d="M309 232L308 20" stroke-width="6" stroke="url(&quot;#SvgjsLinearGradient1711&quot;)" stroke-linecap="round" class="Down"></path><path d="M576 168L575 390" stroke-width="8" stroke="url(&quot;#SvgjsLinearGradient1711&quot;)" stroke-linecap="round" class="Down"></path><path d="M1302 113L1301 -146" stroke-width="8" stroke="url(&quot;#SvgjsLinearGradient1712&quot;)" stroke-linecap="round" class="Up"></path><path d="M883 439L882 686" stroke-width="8" stroke="url(&quot;#SvgjsLinearGradient1711&quot;)" stroke-linecap="round" class="Down"></path><path d="M1347 2L1346 -413" stroke-width="6" stroke="url(&quot;#SvgjsLinearGradient1711&quot;)" stroke-linecap="round" class="Down"></path></g><defs><mask id="SvgjsMask1709"><rect width="1440" height="560" fill="#ffffff"></rect></mask><linearGradient x1="15.28%" y1="-39.29%" x2="84.72%" y2="139.29%" gradientUnits="userSpaceOnUse" id="SvgjsLinearGradient1710"><stop stop-color="#0e2a47" offset="0"></stop><stop stop-color="rgba(3, 139, 163, 0.998)" offset="1"></stop><stop stop-color="rgba(0, 134, 158, 0.998)" offset="1"></stop></linearGradient><linearGradient x1="0%" y1="0%" x2="0%" y2="100%" id="SvgjsLinearGradient1711"><stop stop-color="rgba(0, 176, 156, 0)" offset="0"></stop><stop stop-color="rgba(0, 176, 156, 1)" offset="1"></stop></linearGradient><linearGradient x1="0%" y1="100%" x2="0%" y2="0%" id="SvgjsLinearGradient1712"><stop stop-color="rgba(0, 176, 156, 0)" offset="0"></stop><stop stop-color="rgba(0, 176, 156, 1)" offset="1"></stop></linearGradient></defs></svg>