<?xml version="1.0" encoding="UTF-8"?>
<svg xmlns="http://www.w3.org/2000/svg" xmlns:xlink="http://www.w3.org/1999/xlink" viewBox="0 0 801.66 604.68">
  <defs>
    <style>
      .cls-1 {
        filter: url(#drop-shadow-1);
      }

      .cls-2 {
        fill: url(#radial-gradient-2);
      }

      .cls-2, .cls-3 {
        mix-blend-mode: screen;
      }

      .cls-4 {
        fill: url(#linear-gradient-8);
      }

      .cls-5 {
        fill: url(#linear-gradient-7);
      }

      .cls-6 {
        fill: url(#linear-gradient-5);
      }

      .cls-7 {
        fill: url(#linear-gradient-6);
      }

      .cls-8 {
        fill: url(#linear-gradient-9);
      }

      .cls-9 {
        fill: url(#linear-gradient-4);
      }

      .cls-10 {
        fill: url(#linear-gradient-3);
      }

      .cls-11 {
        fill: url(#linear-gradient-2);
      }

      .cls-12 {
        opacity: .4;
      }

      .cls-12, .cls-13 {
        mix-blend-mode: overlay;
      }

      .cls-12, .cls-13, .cls-14 {
        fill: #fff;
      }

      .cls-13 {
        opacity: .73;
      }

      .cls-15 {
        fill: url(#linear-gradient);
      }

      .cls-16 {
        fill: url(#_ÂÁ_Ï_ÌÌ_È_ËÂÌÚ_6);
      }

      .cls-17, .cls-18 {
        fill: #edf3f9;
      }

      .cls-19 {
        isolation: isolate;
      }

      .cls-20 {
        fill: #00a6e5;
      }

      .cls-3 {
        fill: url(#radial-gradient);
      }

      .cls-18 {
        opacity: .52;
      }

      .cls-21 {
        fill: url(#linear-gradient-43);
      }

      .cls-22 {
        fill: url(#linear-gradient-40);
      }

      .cls-23 {
        fill: url(#linear-gradient-41);
      }

      .cls-24 {
        fill: url(#linear-gradient-42);
      }

      .cls-25 {
        fill: url(#linear-gradient-49);
      }

      .cls-26 {
        fill: url(#linear-gradient-48);
      }

      .cls-27 {
        fill: url(#linear-gradient-45);
      }

      .cls-28 {
        fill: url(#linear-gradient-47);
      }

      .cls-29 {
        fill: url(#linear-gradient-44);
      }

      .cls-30 {
        fill: url(#linear-gradient-46);
      }

      .cls-31 {
        fill: url(#linear-gradient-10);
      }

      .cls-32 {
        fill: url(#linear-gradient-11);
      }

      .cls-33 {
        fill: url(#linear-gradient-12);
      }

      .cls-34 {
        fill: url(#linear-gradient-13);
      }

      .cls-35 {
        fill: url(#linear-gradient-19);
      }

      .cls-36 {
        fill: url(#linear-gradient-14);
      }

      .cls-37 {
        fill: url(#linear-gradient-21);
      }

      .cls-38 {
        fill: url(#linear-gradient-20);
      }

      .cls-39 {
        fill: url(#linear-gradient-22);
      }

      .cls-40 {
        fill: url(#linear-gradient-23);
      }

      .cls-41 {
        fill: url(#linear-gradient-28);
      }

      .cls-42 {
        fill: url(#linear-gradient-25);
      }

      .cls-43 {
        fill: url(#linear-gradient-32);
      }

      .cls-44 {
        fill: url(#linear-gradient-31);
      }

      .cls-45 {
        fill: url(#linear-gradient-33);
      }

      .cls-46 {
        fill: url(#linear-gradient-30);
      }

      .cls-47 {
        fill: url(#linear-gradient-15);
      }

      .cls-48 {
        fill: url(#linear-gradient-16);
      }

      .cls-49 {
        fill: url(#linear-gradient-17);
      }

      .cls-50 {
        fill: url(#linear-gradient-18);
      }

      .cls-51 {
        fill: url(#linear-gradient-35);
      }

      .cls-52 {
        fill: url(#linear-gradient-34);
      }

      .cls-53 {
        fill: url(#linear-gradient-36);
      }

      .cls-54 {
        fill: url(#linear-gradient-38);
      }

      .cls-55 {
        fill: url(#linear-gradient-27);
      }

      .cls-56 {
        fill: url(#linear-gradient-24);
      }

      .cls-57 {
        fill: url(#linear-gradient-26);
      }

      .cls-58 {
        fill: url(#linear-gradient-29);
      }

      .cls-59 {
        fill: url(#linear-gradient-37);
      }

      .cls-60 {
        fill: url(#linear-gradient-39);
      }

      .cls-61 {
        fill: url(#linear-gradient-57);
      }

      .cls-62 {
        fill: url(#linear-gradient-58);
      }

      .cls-63 {
        fill: url(#linear-gradient-59);
      }

      .cls-64 {
        fill: url(#linear-gradient-53);
      }

      .cls-65 {
        fill: url(#linear-gradient-54);
      }

      .cls-66 {
        fill: url(#linear-gradient-55);
      }

      .cls-67 {
        fill: url(#linear-gradient-56);
      }

      .cls-68 {
        fill: url(#linear-gradient-50);
      }

      .cls-69 {
        fill: url(#linear-gradient-51);
      }

      .cls-70 {
        fill: url(#linear-gradient-52);
      }

      .cls-71 {
        fill: url(#linear-gradient-60);
      }

      .cls-72 {
        fill: #eefdff;
      }

      .cls-73 {
        opacity: .2;
      }

      .cls-74 {
        opacity: .24;
      }

      .cls-75 {
        fill: #f3f3f3;
      }

      .cls-76 {
        fill: url(#_ÂÁ_Ï_ÌÌ_È_ËÂÌÚ_12-2);
      }

      .cls-77 {
        fill: url(#_ÂÁ_Ï_ÌÌ_È_ËÂÌÚ_12);
      }

      .cls-78 {
        fill: #b3dcff;
      }

      .cls-79 {
        fill: #c0dee2;
        fill-rule: evenodd;
      }
    </style>
    <linearGradient id="linear-gradient" x1="303.38" y1="443.3" x2="304.93" y2="443.3" gradientUnits="userSpaceOnUse">
      <stop offset="0" stop-color="#328045"/>
      <stop offset=".93" stop-color="#00a6e5"/>
    </linearGradient>
    <linearGradient id="linear-gradient-2" x1="319.03" y1="380.04" x2="527.09" y2="380.04" xlink:href="#linear-gradient"/>
    <linearGradient id="linear-gradient-3" x1="134.55" y1="123.27" x2="526.7" y2="123.27" gradientUnits="userSpaceOnUse">
      <stop offset=".22" stop-color="#005373"/>
      <stop offset=".66" stop-color="#00a6e5"/>
    </linearGradient>
    <linearGradient id="linear-gradient-4" x1="194.53" y1="514.46" x2="322.92" y2="514.46" xlink:href="#linear-gradient"/>
    <linearGradient id="linear-gradient-5" x1="342.24" y1="389.31" x2="562.55" y2="389.31" xlink:href="#linear-gradient"/>
    <linearGradient id="linear-gradient-6" x1="359.72" y1="409.09" x2="433.49" y2="409.09" gradientUnits="userSpaceOnUse">
      <stop offset="0" stop-color="#adccb5"/>
      <stop offset=".93" stop-color="#c2eaf9"/>
    </linearGradient>
    <linearGradient id="linear-gradient-7" x1="211.28" y1="244.13" x2="263.77" y2="244.13" xlink:href="#linear-gradient"/>
    <linearGradient id="linear-gradient-8" x1="211.28" y1="263.14" x2="263.77" y2="263.14" xlink:href="#linear-gradient"/>
    <linearGradient id="linear-gradient-9" x1="447.82" y1="390.58" x2="551.63" y2="390.58" xlink:href="#linear-gradient-6"/>
    <linearGradient id="linear-gradient-10" x1="310.38" y1="531.99" x2="335.47" y2="531.99" gradientUnits="userSpaceOnUse">
      <stop offset="0" stop-color="#bf702d"/>
      <stop offset=".93" stop-color="#ff953c"/>
    </linearGradient>
    <linearGradient id="linear-gradient-11" x1="405.37" y1="220" x2="725.94" y2="220" gradientUnits="userSpaceOnUse">
      <stop offset=".34" stop-color="#00a6e5"/>
      <stop offset=".78" stop-color="#005373"/>
    </linearGradient>
    <linearGradient id="linear-gradient-12" x1="512.62" y1="165.01" x2="695.11" y2="165.01" xlink:href="#linear-gradient"/>
    <linearGradient id="linear-gradient-13" x1="576.45" y1="275.17" x2="527.06" y2="189.63" gradientUnits="userSpaceOnUse">
      <stop offset=".07" stop-color="#fff" stop-opacity=".4"/>
      <stop offset=".53" stop-color="#fff" stop-opacity=".98"/>
      <stop offset="1" stop-color="#fff" stop-opacity=".2"/>
    </linearGradient>
    <linearGradient id="linear-gradient-14" x1="596.11" y1="276.1" x2="596.11" y2="235.28" gradientUnits="userSpaceOnUse">
      <stop offset=".07" stop-color="#fff" stop-opacity="0"/>
      <stop offset="1" stop-color="#fff"/>
    </linearGradient>
    <linearGradient id="linear-gradient-15" x1="611.9" x2="611.9" y2="231.17" xlink:href="#linear-gradient-14"/>
    <linearGradient id="linear-gradient-16" x1="644.32" x2="644.32" y2="222.47" xlink:href="#linear-gradient-14"/>
    <linearGradient id="linear-gradient-17" x1="627.9" x2="627.9" y2="239.72" xlink:href="#linear-gradient-14"/>
    <linearGradient id="linear-gradient-18" x1="659.74" x2="659.74" y2="236.57" xlink:href="#linear-gradient-14"/>
    <linearGradient id="linear-gradient-19" x1="675.07" x2="675.07" y2="215.78" xlink:href="#linear-gradient-14"/>
    <linearGradient id="linear-gradient-20" x1="576.87" y1="515.99" x2="707.93" y2="515.99" gradientUnits="userSpaceOnUse">
      <stop offset="0" stop-color="#194023"/>
      <stop offset=".93" stop-color="#005373"/>
    </linearGradient>
    <linearGradient id="linear-gradient-21" x1="582.55" x2="713.61" xlink:href="#linear-gradient-20"/>
    <linearGradient id="linear-gradient-22" x1="702.54" y1="553.43" x2="593.64" y2="364.8" xlink:href="#linear-gradient"/>
    <linearGradient id="linear-gradient-23" x1="595.91" y1="404.85" x2="635.65" y2="404.85" xlink:href="#linear-gradient-10"/>
    <linearGradient id="linear-gradient-24" x1="596.82" y1="392.7" x2="615.34" y2="392.7" xlink:href="#linear-gradient-11"/>
    <linearGradient id="linear-gradient-25" x1="602.02" y1="410.85" x2="595.56" y2="399.66" gradientUnits="userSpaceOnUse">
      <stop offset=".07" stop-color="#00a6e5"/>
      <stop offset="1" stop-color="#328045"/>
    </linearGradient>
    <linearGradient id="linear-gradient-26" x1="597.56" y1="414.26" x2="604.43" y2="414.26" xlink:href="#linear-gradient-6"/>
    <linearGradient id="linear-gradient-27" x1="649.54" y1="389.95" x2="683.96" y2="389.95" xlink:href="#linear-gradient"/>
    <linearGradient id="linear-gradient-28" x1="649.54" y1="404.16" x2="683.96" y2="404.16" xlink:href="#linear-gradient"/>
    <linearGradient id="linear-gradient-29" x1="649.54" y1="418.37" x2="683.96" y2="418.37" xlink:href="#linear-gradient"/>
    <linearGradient id="linear-gradient-30" x1="598.94" y1="532.54" x2="598.94" y2="467.49" gradientUnits="userSpaceOnUse">
      <stop offset="0" stop-color="#804b1e"/>
      <stop offset=".93" stop-color="#ff953c"/>
    </linearGradient>
    <linearGradient id="linear-gradient-31" x1="610.85" y1="496.74" x2="623.77" y2="496.74" gradientUnits="userSpaceOnUse">
      <stop offset=".07" stop-color="#194023"/>
      <stop offset="1" stop-color="#328045"/>
    </linearGradient>
    <linearGradient id="linear-gradient-32" x1="635.93" x2="635.93" y2="474.56" xlink:href="#linear-gradient-30"/>
    <linearGradient id="linear-gradient-33" x1="654.55" y1="532.54" x2="654.55" y2="447.69" xlink:href="#linear-gradient-31"/>
    <linearGradient id="linear-gradient-34" x1="674.08" x2="674.08" y2="456.14" xlink:href="#linear-gradient-30"/>
    <linearGradient id="linear-gradient-35" x1="282.35" y1="226.6" x2="500.55" y2="226.6" xlink:href="#linear-gradient"/>
    <linearGradient id="linear-gradient-36" x1="363.48" y1="251.31" x2="386.39" y2="251.31" gradientUnits="userSpaceOnUse">
      <stop offset="0" stop-color="#328045"/>
      <stop offset=".93" stop-color="#194023"/>
    </linearGradient>
    <linearGradient id="linear-gradient-37" x1="419.1" y1="213.42" x2="434.73" y2="213.42" xlink:href="#linear-gradient"/>
    <linearGradient id="linear-gradient-38" x1="454.61" y1="222.61" x2="470.23" y2="222.61" gradientUnits="userSpaceOnUse">
      <stop offset="0" stop-color="#005373"/>
      <stop offset=".93" stop-color="#00a6e5"/>
    </linearGradient>
    <linearGradient id="linear-gradient-39" x1="326" y1="233.11" x2="341.62" y2="233.11" xlink:href="#linear-gradient-10"/>
    <linearGradient id="linear-gradient-40" x1="210.82" y1="309.82" x2="253.41" y2="309.82" gradientUnits="userSpaceOnUse">
      <stop offset="0" stop-color="#328045"/>
      <stop offset=".93" stop-color="#266034"/>
    </linearGradient>
    <linearGradient id="linear-gradient-41" y1="366.36" y2="366.36" xlink:href="#linear-gradient-40"/>
    <linearGradient id="linear-gradient-42" x1="211.7" y1="422.89" x2="252.53" y2="422.89" xlink:href="#linear-gradient-10"/>
    <linearGradient id="linear-gradient-43" x1="86.85" y1="179.68" x2="725.49" y2="179.68" gradientUnits="userSpaceOnUse">
      <stop offset="0" stop-color="#194023"/>
      <stop offset=".93" stop-color="#804b1e"/>
    </linearGradient>
    <linearGradient id="linear-gradient-44" x1="102.69" y1="198.28" x2="164.86" y2="198.28" gradientUnits="userSpaceOnUse">
      <stop offset=".07" stop-color="#ff953c"/>
      <stop offset="1" stop-color="#804b1e"/>
    </linearGradient>
    <linearGradient id="linear-gradient-45" x1="140.05" y1="210.3" x2="160.65" y2="184.32" gradientUnits="userSpaceOnUse">
      <stop offset=".2" stop-color="#804b1e"/>
      <stop offset=".27" stop-color="#8d5221"/>
      <stop offset=".39" stop-color="#af6629"/>
      <stop offset=".56" stop-color="#e78736"/>
      <stop offset=".62" stop-color="#ff953c"/>
    </linearGradient>
    <linearGradient id="linear-gradient-46" x1="115.42" y1="202.95" x2="164.86" y2="202.95" xlink:href="#linear-gradient-30"/>
    <linearGradient id="linear-gradient-47" x1="541.68" y1="87.39" x2="626.68" y2="87.39" xlink:href="#linear-gradient-44"/>
    <linearGradient id="linear-gradient-48" x1="552.64" y1="87.39" x2="597.68" y2="87.39" xlink:href="#linear-gradient-30"/>
    <linearGradient id="linear-gradient-49" x1="411.31" y1="511.77" x2="469.56" y2="511.77" gradientUnits="userSpaceOnUse">
      <stop offset=".07" stop-color="#266034"/>
      <stop offset="1" stop-color="#328045"/>
    </linearGradient>
    <linearGradient id="linear-gradient-50" x1="418.83" y1="511.77" x2="449.7" y2="511.77" xlink:href="#linear-gradient-36"/>
    <filter id="drop-shadow-1" x="-12.15" y="232.89" width="297" height="393" filterUnits="userSpaceOnUse">
      <feOffset dx="20" dy="-10"/>
      <feGaussianBlur result="blur" stdDeviation="17"/>
      <feFlood flood-color="#000" flood-opacity=".3"/>
      <feComposite in2="blur" operator="in"/>
      <feComposite in="SourceGraphic"/>
    </filter>
    <linearGradient id="linear-gradient-51" x1="1837.19" y1="4041.61" x2="1929.98" y2="3946.43" gradientTransform="translate(-3591.99 -1807.78) rotate(96.41) scale(1 -1)" gradientUnits="userSpaceOnUse">
      <stop offset=".22" stop-color="#47c7f8"/>
      <stop offset=".65" stop-color="#8dd09d"/>
    </linearGradient>
    <linearGradient id="linear-gradient-52" x1="-1443.49" y1="325.14" x2="-1426.2" y2="322.62" gradientTransform="translate(1541.36 646.85) scale(1 -1)" xlink:href="#linear-gradient-20"/>
    <linearGradient id="linear-gradient-53" x1="-1448.12" y1="369.27" x2="-1417.02" y2="334.17" gradientTransform="translate(1541.36 701.58) scale(1 -1)" xlink:href="#linear-gradient"/>
    <linearGradient id="linear-gradient-54" x1="-1494.79" y1="490.01" x2="-1368.3" y2="363.52" gradientTransform="translate(1541.36 837.68) scale(1 -1)" gradientUnits="userSpaceOnUse">
      <stop offset=".07" stop-color="#47c7f8"/>
      <stop offset="1" stop-color="#8dd09d"/>
    </linearGradient>
    <linearGradient id="linear-gradient-55" x1="-1432.07" y1="443.51" x2="-1430.99" y2="394.9" gradientTransform="translate(-1322.14) rotate(-180) scale(1 -1)" gradientUnits="userSpaceOnUse">
      <stop offset="0" stop-color="#005373"/>
      <stop offset=".93" stop-color="#002a39"/>
    </linearGradient>
    <radialGradient id="radial-gradient" cx="-1459.51" cy="418.61" fx="-1459.51" fy="418.61" r="91.44" gradientTransform="translate(-1322.14) rotate(-180) scale(1 -1)" gradientUnits="userSpaceOnUse">
      <stop offset="0" stop-color="#00a6e5"/>
      <stop offset=".2" stop-color="#000"/>
    </radialGradient>
    <linearGradient id="_ÂÁ_Ï_ÌÌ_È_ËÂÌÚ_12" data-name="¡ÂÁ˚ÏˇÌÌ˚È „‡‰ËÂÌÚ 12" x1="-1472.58" y1="418.84" x2="-1447.97" y2="418.84" gradientTransform="translate(-1322.14) rotate(-180) scale(1 -1)" gradientUnits="userSpaceOnUse">
      <stop offset="0" stop-color="#030d14"/>
      <stop offset="1" stop-color="#0b2f45"/>
    </linearGradient>
    <radialGradient id="radial-gradient-2" cx="-1405.13" cy="419.1" fx="-1405.13" fy="419.1" r="102.5" gradientTransform="translate(-1322.14) rotate(-180) scale(1 -1)" gradientUnits="userSpaceOnUse">
      <stop offset="0" stop-color="#00a6e5"/>
      <stop offset=".19" stop-color="#000"/>
    </radialGradient>
    <linearGradient id="_ÂÁ_Ï_ÌÌ_È_ËÂÌÚ_12-2" data-name="¡ÂÁ˚ÏˇÌÌ˚È „‡‰ËÂÌÚ 12" x1="-1417.44" x2="-1392.83" xlink:href="#_ÂÁ_Ï_ÌÌ_È_ËÂÌÚ_12"/>
    <linearGradient id="linear-gradient-56" x1="-1447.28" y1="304.27" x2="-1424.41" y2="300.93" gradientTransform="translate(-1322.14) rotate(-180) scale(1 -1)" xlink:href="#linear-gradient-54"/>
    <linearGradient id="linear-gradient-57" x1="-1440.78" y1="470.68" x2="-1405.59" y2="435.49" gradientTransform="translate(-1322.14) rotate(-180) scale(1 -1)" xlink:href="#linear-gradient"/>
    <linearGradient id="linear-gradient-58" x1="-1465.72" y1="569.18" x2="-1372.49" y2="460.3" gradientTransform="translate(-1322.14) rotate(-180) scale(1 -1)" xlink:href="#linear-gradient-54"/>
    <linearGradient id="_ÂÁ_Ï_ÌÌ_È_ËÂÌÚ_6" data-name="¡ÂÁ˚ÏˇÌÌ˚È „‡‰ËÂÌÚ 6" x1="-1470.66" y1="514.9" x2="-1414.59" y2="449.42" gradientTransform="translate(-1322.14) rotate(-180) scale(1 -1)" gradientUnits="userSpaceOnUse">
      <stop offset=".04" stop-color="#06cff1"/>
      <stop offset="1" stop-color="#defa8e"/>
    </linearGradient>
    <linearGradient id="linear-gradient-59" x1="5915.86" y1="1115.5" x2="5992.56" y2="1075.53" gradientTransform="translate(-5988.25 340.47) rotate(-8.66)" xlink:href="#linear-gradient-51"/>
    <linearGradient id="linear-gradient-60" x1="-1411.71" y1="547.97" x2="-1362.24" y2="522.19" gradientTransform="translate(-1322.14) rotate(-180) scale(1 -1)" xlink:href="#linear-gradient"/>
  </defs>
  <g class="cls-19">
    <g id="Layer_2" data-name="Layer 2">
      <g id="Layer_2-2" data-name="Layer 2">
        <g>
          <g class="cls-73">
            <path class="cls-79" d="M669.18,184.11c-99.43-12.86-136.11-84.67-205.22-141.08-77.12-62.95-180.24-52.35-235.86,2.82-57.16,56.7-26.82,132.51-87.5,203.43C90.78,310.67-15.35,311.48,1.87,429.35c13.32,91.14,84.42,111.61,166.94,110.88,129.79-1.15,274.21,11.77,408.46,13.78,206,3.08,70.5-97.53,166.67-146.04,108.07-54.52,53.71-226.86-74.77-223.85"/>
          </g>
          <g>
            <g>
              <path class="cls-78" d="M583.91,344.74h-145.68c-10.55,0-19.13-8.58-19.13-19.13v-101.86c0-10.55,8.58-19.13,19.13-19.13h145.68c10.55,0,19.13,8.58,19.13,19.13v101.86c0,10.55-8.58,19.13-19.13,19.13ZM438.23,206.37c-9.58,0-17.37,7.79-17.37,17.37v101.86c0,9.58,7.79,17.37,17.37,17.37h145.68c9.58,0,17.37-7.79,17.37-17.37v-101.86c0-9.58-7.79-17.37-17.37-17.37h-145.68Z"/>
              <rect class="cls-15" x="303.38" y="350.31" width="1.55" height="185.97"/>
              <path class="cls-17" d="M527.09,159.63v-15.09c0-2.09-.13-4.13-.38-6.12-2.18-17.21-13.37-30.31-26.85-30.31H161.4c-13.48,0-24.68,13.1-26.85,30.31-.25,1.99-.38,4.03-.38,6.12v304.43s0,.05,0,.08v15.08c0,20.12,12.2,36.43,27.24,36.43h338.44c15.04,0,27.24-16.31,27.24-36.43V159.69s0-.04,0-.07Z"/>
              <path class="cls-20" d="M484.45,448.83h-189.76c-8.91,0-16.15-7.24-16.15-16.15v-127.63c0-8.91,7.25-16.15,16.15-16.15h189.76c8.91,0,16.16,7.25,16.16,16.15v127.63c0,8.91-7.25,16.15-16.16,16.15ZM294.69,290.65c-7.94,0-14.39,6.46-14.39,14.39v127.63c0,7.93,6.46,14.39,14.39,14.39h189.76c7.94,0,14.39-6.46,14.39-14.39v-127.63c0-7.93-6.46-14.39-14.39-14.39h-189.76Z"/>
              <g class="cls-74">
                <path class="cls-11" d="M527.09,301.25v147.72c0,3.48-.37,6.85-1.05,10.03-.65.08-1.31.12-1.98.12h-189.76c-8.44,0-15.27-6.84-15.27-15.28v-127.63c0-8.44,6.84-15.27,15.27-15.27h189.76c1.03,0,2.05.1,3.02.3Z"/>
              </g>
              <path class="cls-10" d="M526.7,138.42H134.55c2.17-17.21,13.37-30.31,26.85-30.31h338.44c13.49,0,24.68,13.1,26.85,30.31Z"/>
              <rect class="cls-9" x="194.53" y="513.69" width="128.39" height="1.55"/>
              <path class="cls-6" d="M357.51,310.22h189.76c8.43,0,15.27,6.84,15.27,15.27v127.63c0,8.43-6.84,15.27-15.27,15.27h-189.77c-8.43,0-15.27-6.84-15.27-15.27v-127.63c0-8.43,6.84-15.27,15.27-15.27Z"/>
              <path class="cls-14" d="M360.67,326.64h71.88c.52,0,.94.42.94.94v6.15c0,.52-.42.94-.94.94h-71.88c-.52,0-.94-.42-.94-.94v-6.15c0-.52.42-.94.94-.94Z"/>
              <path class="cls-14" d="M360.66,343.88h71.88c.52,0,.94.42.94.94v6.15c0,.52-.42.94-.94.94h-71.88c-.52,0-.94-.42-.94-.94v-6.15c0-.52.42-.94.94-.94Z"/>
              <rect class="cls-7" x="359.72" y="363.65" width="73.77" height="90.89" rx="3.17" ry="3.17"/>
              <rect class="cls-5" x="211.28" y="238.69" width="52.49" height="10.87"/>
              <rect class="cls-4" x="211.28" y="257.7" width="52.49" height="10.87"/>
              <rect class="cls-8" x="447.82" y="326.64" width="103.81" height="127.9" rx="4.47" ry="4.47"/>
              <path class="cls-31" d="M322.92,544.54c-6.92,0-12.55-5.63-12.55-12.55s5.63-12.55,12.55-12.55,12.55,5.63,12.55,12.55-5.63,12.55-12.55,12.55ZM322.92,521.31c-5.89,0-10.68,4.79-10.68,10.68s4.79,10.68,10.68,10.68,10.68-4.79,10.68-10.68-4.79-10.68-10.68-10.68Z"/>
              <path class="cls-32" d="M531.19,150.82h145.68c10.07,0,18.25,8.18,18.25,18.25v101.86c0,10.07-8.18,18.25-18.25,18.25h-145.68c-10.07,0-18.25-8.18-18.25-18.25v-101.86c0-10.07,8.18-18.25,18.25-18.25Z"/>
              <path class="cls-33" d="M695.11,169.07l-.32,10.13h-182.17l.32-10.13c0-10.08,8.17-18.25,18.25-18.25h145.68c10.08,0,18.25,8.17,18.25,18.25Z"/>
              <path class="cls-34" d="M570.08,277.52h-36.65c-4.74,0-8.59-3.85-8.59-8.59v-73.07c0-4.74,3.85-8.59,8.59-8.59h36.65c4.74,0,8.59,3.85,8.59,8.59v73.07c0,4.74-3.85,8.59-8.59,8.59ZM533.43,190.12c-3.16,0-5.74,2.58-5.74,5.74v73.07c0,3.16,2.58,5.74,5.74,5.74h36.65c3.17,0,5.74-2.57,5.74-5.74v-73.07c0-3.16-2.57-5.74-5.74-5.74h-36.65Z"/>
              <path class="cls-18" d="M539.85,166.22c0,3.13-2.54,5.67-5.67,5.67s-5.67-2.54-5.67-5.67,2.54-5.66,5.67-5.66,5.67,2.54,5.67,5.66Z"/>
              <rect class="cls-36" x="590.56" y="235.28" width="11.1" height="40.82"/>
              <rect class="cls-47" x="606.35" y="231.17" width="11.1" height="44.93"/>
              <rect class="cls-48" x="638.78" y="222.47" width="11.1" height="53.62"/>
              <rect class="cls-49" x="622.36" y="239.72" width="11.1" height="36.38"/>
              <rect class="cls-50" x="654.19" y="236.57" width="11.1" height="39.53"/>
              <rect class="cls-35" x="669.52" y="215.78" width="11.1" height="60.32"/>
              <g>
                <polygon class="cls-38" points="700.86 604.68 699.47 604.63 706.48 428.69 585.27 428.69 578.26 604.68 576.87 604.63 583.93 427.3 707.93 427.3 700.86 604.68"/>
                <polygon class="cls-37" points="712.22 604.68 705.21 428.69 584 428.69 591 604.63 589.61 604.68 582.55 427.3 706.54 427.3 713.61 604.63 712.22 604.68"/>
                <polygon class="cls-39" points="590.31 547.44 712.91 547.44 705.87 370.78 583.27 370.78 590.31 547.44"/>
                <polygon class="cls-17" points="696.71 547.44 574.11 547.44 581.14 370.78 703.75 370.78 696.71 547.44"/>
                <g>
                  <path class="cls-40" d="M634.49,398.16c-2.97-8.31-10.92-13.42-19.3-13.17-2.03.06-4.08.44-6.1,1.16-6.1,2.18-10.48,7.04-12.27,12.78-1.24,3.98-1.25,8.38.26,12.61.15.42.31.83.49,1.24.8,1.83,1.84,3.49,3.08,4.95,5.2,6.11,13.83,8.69,21.83,5.83,10.33-3.69,15.71-15.06,12.02-25.4ZM620.8,418.87c-6,2.15-12.47.21-16.36-4.37-.93-1.09-1.71-2.33-2.31-3.71-.13-.31-.25-.61-.36-.93-1.13-3.17-1.13-6.47-.19-9.45,1.35-4.31,4.63-7.95,9.2-9.59,1.51-.54,3.05-.82,4.57-.87,6.28-.19,12.24,3.64,14.47,9.88,2.77,7.75-1.26,16.27-9.01,19.04Z"/>
                  <path class="cls-56" d="M601.56,400.41l-4.75-1.48c1.8-5.74,6.17-10.6,12.27-12.78,2.02-.72,4.07-1.1,6.1-1.16l.15,4.97c-1.52.05-3.06.33-4.57.87-4.57,1.64-7.85,5.28-9.2,9.59Z"/>
                  <path class="cls-42" d="M602.12,410.79l-4.56,1.98c-.18-.4-.34-.82-.49-1.24-1.51-4.23-1.5-8.63-.26-12.61l4.75,1.48c-.93,2.98-.94,6.28.19,9.45.11.32.23.62.36.93Z"/>
                  <path class="cls-57" d="M600.64,417.72c-1.24-1.46-2.28-3.11-3.08-4.95l4.56-1.98c.6,1.37,1.38,2.62,2.31,3.71l-3.79,3.22Z"/>
                </g>
                <path class="cls-55" d="M650.62,385.36h32.26c.6,0,1.08.48,1.08,1.08v7.01c0,.6-.49,1.08-1.08,1.08h-32.25c-.6,0-1.08-.49-1.08-1.08v-7.01c0-.6.48-1.08,1.08-1.08Z"/>
                <path class="cls-41" d="M650.62,399.57h32.26c.6,0,1.08.48,1.08,1.08v7.01c0,.6-.48,1.08-1.08,1.08h-32.25c-.6,0-1.08-.49-1.08-1.08v-7.01c0-.6.48-1.08,1.08-1.08Z"/>
                <path class="cls-58" d="M650.62,413.78h32.26c.6,0,1.08.48,1.08,1.08v7.01c0,.6-.48,1.08-1.08,1.08h-32.25c-.6,0-1.08-.49-1.08-1.08v-7.01c0-.6.48-1.08,1.08-1.08Z"/>
                <g>
                  <rect class="cls-46" x="592.48" y="467.49" width="12.91" height="65.05"/>
                  <rect class="cls-44" x="610.85" y="460.93" width="12.91" height="71.61"/>
                  <rect class="cls-43" x="629.47" y="474.56" width="12.91" height="57.98"/>
                  <rect class="cls-45" x="648.09" y="447.69" width="12.91" height="84.85"/>
                  <rect class="cls-52" x="667.63" y="456.14" width="12.91" height="76.4"/>
                </g>
              </g>
              <polygon class="cls-51" points="283.63 264.35 282.35 262.24 333.89 231.13 375.17 249.89 426.76 211.67 462.41 221.52 498.9 188.84 500.55 190.68 463.05 224.25 427.26 214.37 375.48 252.74 334.06 233.91 283.63 264.35"/>
              <g>
                <path class="cls-75" d="M381.9,251.31c0,3.63-2.94,6.58-6.58,6.58s-6.58-2.95-6.58-6.58,2.95-6.58,6.58-6.58,6.58,2.95,6.58,6.58Z"/>
                <path class="cls-53" d="M375.33,259.13c-4.31,0-7.81-3.5-7.81-7.81s3.5-7.81,7.81-7.81,7.81,3.5,7.81,7.81-3.5,7.81-7.81,7.81ZM375.33,245.97c-2.95,0-5.34,2.4-5.34,5.35s2.4,5.34,5.34,5.34,5.34-2.4,5.34-5.34-2.4-5.35-5.34-5.35Z"/>
              </g>
              <g>
                <path class="cls-75" d="M433.49,213.42c0,3.63-2.95,6.58-6.58,6.58s-6.58-2.94-6.58-6.58,2.95-6.58,6.58-6.58,6.58,2.95,6.58,6.58Z"/>
                <path class="cls-59" d="M426.91,221.23c-4.31,0-7.81-3.5-7.81-7.81s3.5-7.81,7.81-7.81,7.81,3.5,7.81,7.81-3.5,7.81-7.81,7.81ZM426.91,208.08c-2.95,0-5.34,2.4-5.34,5.34s2.4,5.35,5.34,5.35,5.35-2.4,5.35-5.35-2.4-5.34-5.35-5.34Z"/>
              </g>
              <g>
                <path class="cls-75" d="M469,222.61c0,3.63-2.94,6.58-6.58,6.58s-6.58-2.95-6.58-6.58,2.95-6.58,6.58-6.58,6.58,2.95,6.58,6.58Z"/>
                <path class="cls-54" d="M462.42,230.42c-4.31,0-7.81-3.5-7.81-7.81s3.51-7.81,7.81-7.81,7.81,3.5,7.81,7.81-3.5,7.81-7.81,7.81ZM462.42,217.27c-2.95,0-5.34,2.4-5.34,5.34s2.4,5.35,5.34,5.35,5.34-2.4,5.34-5.35-2.4-5.34-5.34-5.34Z"/>
              </g>
              <g>
                <path class="cls-75" d="M340.39,233.11c0,3.63-2.95,6.58-6.58,6.58s-6.58-2.95-6.58-6.58,2.95-6.58,6.58-6.58,6.58,2.95,6.58,6.58Z"/>
                <path class="cls-60" d="M333.81,240.92c-4.31,0-7.81-3.51-7.81-7.81s3.5-7.81,7.81-7.81,7.81,3.51,7.81,7.81-3.5,7.81-7.81,7.81ZM333.81,227.76c-2.95,0-5.34,2.4-5.34,5.34s2.4,5.35,5.34,5.35,5.35-2.4,5.35-5.35-2.4-5.34-5.35-5.34Z"/>
              </g>
              <path class="cls-22" d="M243.99,331.12h-23.74c-5.2,0-9.43-4.23-9.43-9.43v-23.75c0-5.2,4.23-9.43,9.43-9.43h23.74c5.2,0,9.43,4.23,9.43,9.43v23.75c0,5.2-4.23,9.43-9.43,9.43ZM220.24,290.28c-4.23,0-7.66,3.44-7.66,7.66v23.75c0,4.23,3.44,7.66,7.66,7.66h23.74c4.23,0,7.66-3.44,7.66-7.66v-23.75c0-4.23-3.44-7.66-7.66-7.66h-23.74Z"/>
              <path class="cls-23" d="M243.99,387.65h-23.74c-5.2,0-9.43-4.23-9.43-9.43v-23.74c0-5.2,4.23-9.43,9.43-9.43h23.74c5.2,0,9.43,4.23,9.43,9.43v23.74c0,5.2-4.23,9.43-9.43,9.43ZM220.24,346.82c-4.23,0-7.66,3.44-7.66,7.66v23.74c0,4.23,3.44,7.67,7.66,7.67h23.74c4.23,0,7.66-3.44,7.66-7.67v-23.74c0-4.23-3.44-7.66-7.66-7.66h-23.74Z"/>
              <rect class="cls-24" x="211.7" y="402.47" width="40.83" height="40.83" rx="4.05" ry="4.05"/>
              <path class="cls-75" d="M230.82,431.89l-10.32-9c-.85-.74-.93-2.02-.2-2.87.74-.85,2.02-.93,2.87-.2l7.3,6.36,10.41-11.61c.75-.84,2.04-.91,2.87-.16.84.75.91,2.04.16,2.87l-13.09,14.6Z"/>
              <path class="cls-21" d="M590.38,343.44l-.06-1.95s2.79-.09,7.42-.63l.23,1.93c-4.73.56-7.48.64-7.59.64ZM605.44,341.74l-.32-1.92c2.42-.4,4.88-.87,7.32-1.39l.41,1.91c-2.46.52-4.95,1-7.4,1.41ZM620.16,338.59l-.49-1.89c2.4-.62,4.81-1.3,7.16-2.02l.57,1.86c-2.38.73-4.82,1.42-7.24,2.05ZM634.54,334.18l-.65-1.84c2.34-.83,4.67-1.73,6.94-2.66l.74,1.8c-2.3.94-4.66,1.85-7.02,2.69ZM648.46,328.48l-.82-1.76c2.24-1.05,4.48-2.16,6.64-3.31l.91,1.72c-2.19,1.16-4.46,2.29-6.73,3.35ZM661.74,321.43l-1-1.67c2.12-1.27,4.23-2.61,6.25-3.98l1.09,1.61c-2.05,1.39-4.19,2.75-6.34,4.04ZM674.19,313l-1.18-1.55c1.96-1.5,3.9-3.07,5.75-4.66l1.27,1.48c-1.88,1.62-3.85,3.21-5.84,4.73ZM685.59,303.2l-1.36-1.4c1.77-1.71,3.5-3.5,5.15-5.31l1.44,1.31c-1.68,1.84-3.44,3.66-5.23,5.4ZM695.71,292.1l-1.52-1.22c1.54-1.91,3.04-3.9,4.45-5.9l1.59,1.12c-1.44,2.04-2.96,4.06-4.53,6ZM704.39,279.83l-1.66-1.03c1.29-2.08,2.53-4.23,3.7-6.4l1.71.92c-1.18,2.2-2.45,4.39-3.76,6.5ZM711.51,266.62l-1.77-.82c1.03-2.21,2.01-4.5,2.93-6.79l1.81.72c-.93,2.33-1.93,4.65-2.97,6.9ZM717.06,252.67l-1.85-.62c.78-2.31,1.51-4.69,2.18-7.08l1.87.52c-.68,2.42-1.42,4.83-2.21,7.17ZM721.11,238.23l-1.9-.43c.54-2.37,1.04-4.82,1.48-7.26l1.92.34c-.44,2.47-.95,4.95-1.49,7.35ZM723.77,223.48l-1.93-.26c.33-2.41.61-4.89.84-7.37l1.94.18c-.24,2.5-.52,5.01-.85,7.45ZM725.18,208.56l-1.94-.11c.13-2.43.23-4.93.28-7.42l1.95.04c-.05,2.51-.15,5.04-.28,7.49ZM723.54,193.59c-.03-2.44-.1-4.94-.21-7.43l1.95-.09c.11,2.51.18,5.03.22,7.49l-1.95.03ZM722.88,178.74c-.19-2.48-.41-4.97-.67-7.4l1.94-.21c.26,2.45.49,4.96.68,7.46l-1.94.15ZM107.61,175.42c-1.16-1.46-2.28-2.96-3.35-4.45l1.59-1.13c1.05,1.47,2.15,2.94,3.29,4.37l-1.53,1.21ZM100.1,164.68c-1.31-2.16-2.55-4.37-3.67-6.58l1.74-.88c1.1,2.17,2.31,4.34,3.6,6.45l-1.66,1.01ZM721.28,163.97c-.35-2.46-.75-4.92-1.18-7.33l1.92-.35c.44,2.43.84,4.92,1.19,7.4l-1.93.28ZM93.29,151.24c-.96-2.34-1.82-4.72-2.57-7.09l1.86-.59c.73,2.32,1.58,4.66,2.52,6.94l-1.8.74ZM718.65,149.36c-.53-2.42-1.11-4.85-1.73-7.22l1.89-.49c.62,2.39,1.21,4.84,1.75,7.29l-1.9.42ZM88.76,136.86c-.54-2.47-.98-4.97-1.29-7.44l1.93-.24c.3,2.41.73,4.86,1.26,7.27l-1.9.42ZM714.9,135c-.72-2.37-1.5-4.74-2.31-7.05l1.84-.65c.82,2.33,1.61,4.73,2.34,7.13l-1.86.57ZM86.88,121.88c-.02-.78-.04-1.57-.04-2.34,0-1.74.06-3.49.18-5.21l1.94.13c-.11,1.68-.17,3.39-.17,5.08,0,.76.01,1.53.04,2.28l-1.95.06ZM709.97,121.02c-.92-2.29-1.91-4.59-2.92-6.81l1.77-.81c1.03,2.25,2.03,4.57,2.96,6.89l-1.81.73ZM703.81,107.53c-1.13-2.2-2.32-4.39-3.55-6.51l1.69-.97c1.24,2.15,2.45,4.37,3.59,6.59l-1.73.89ZM89.84,107.15l-1.92-.33c.43-2.49.99-4.97,1.67-7.38l1.87.53c-.66,2.34-1.2,4.76-1.62,7.18ZM696.41,94.69c-1.33-2.07-2.73-4.14-4.16-6.14l1.59-1.13c1.44,2.03,2.86,4.12,4.21,6.22l-1.64,1.05ZM93.83,93.01l-1.81-.73c.94-2.34,2.01-4.64,3.19-6.86l1.72.92c-1.15,2.15-2.19,4.4-3.1,6.67ZM687.81,82.62c-1.52-1.93-3.12-3.85-4.74-5.7l1.47-1.28c1.64,1.88,3.25,3.82,4.8,5.78l-1.53,1.21ZM328.83,81.04c-1.55,0-3.14-.02-4.71-.05l.04-1.95c2.5.06,4.99.07,7.43.03l.03,1.95c-.92.01-1.85.02-2.79.02ZM339.12,80.78l-.1-1.95c2.47-.12,4.96-.29,7.41-.51l.17,1.94c-2.47.22-4.99.39-7.48.51ZM316.63,80.69c-2.46-.14-4.98-.32-7.48-.54l.17-1.94c2.48.22,4.97.4,7.42.53l-.11,1.94ZM100.73,80.05l-1.61-1.1c1.42-2.08,2.96-4.1,4.6-6.01l1.48,1.27c-1.59,1.86-3.09,3.82-4.47,5.84ZM354.05,79.47l-.24-1.93c2.45-.31,4.92-.67,7.34-1.07l.32,1.92c-2.45.41-4.95.77-7.42,1.09ZM301.7,79.38c-2.45-.29-4.95-.62-7.43-.99l.29-1.93c2.46.36,4.94.69,7.37.98l-.23,1.93ZM286.88,77.2c-2.43-.43-4.9-.89-7.36-1.39l.39-1.91c2.44.49,4.9.96,7.31,1.38l-.34,1.92ZM368.85,77.01l-.39-1.91c2.4-.5,4.84-1.05,7.24-1.64l.47,1.89c-2.42.6-4.89,1.16-7.31,1.66ZM272.19,74.24c-2.39-.54-4.84-1.13-7.28-1.74l.47-1.89c2.43.61,4.86,1.19,7.24,1.73l-.43,1.9ZM383.4,73.42l-.54-1.87c2.35-.67,4.74-1.4,7.1-2.17l.6,1.85c-2.39.78-4.8,1.52-7.17,2.2ZM678.06,71.45c-1.7-1.77-3.48-3.52-5.27-5.22l1.34-1.42c1.82,1.71,3.61,3.49,5.34,5.28l-1.41,1.35ZM257.67,70.6c-2.37-.65-4.79-1.34-7.2-2.05l.55-1.87c2.4.71,4.81,1.39,7.16,2.04l-.51,1.88ZM110.28,68.89l-1.33-1.42c1.82-1.71,3.77-3.36,5.78-4.88l1.18,1.55c-1.96,1.48-3.85,3.08-5.62,4.75ZM397.66,68.78l-.66-1.83c2.28-.83,4.62-1.72,6.95-2.64l.72,1.81c-2.35.93-4.7,1.83-7,2.67ZM243.31,66.37c-2.34-.74-4.74-1.52-7.12-2.31l.62-1.85c2.37.79,4.76,1.57,7.08,2.3l-.59,1.86ZM411.58,63.25l-.77-1.79c2.21-.95,4.5-1.97,6.8-3.02l.81,1.77c-2.31,1.06-4.62,2.09-6.84,3.04ZM229.12,61.63c-2.32-.82-4.69-1.68-7.03-2.55l.68-1.83c2.34.87,4.69,1.72,7.01,2.54l-.65,1.84ZM667.28,61.28c-1.86-1.6-3.8-3.18-5.75-4.69l1.2-1.54c1.97,1.54,3.93,3.13,5.82,4.75l-1.27,1.48ZM121.99,60.01l-1.01-1.66c2.13-1.29,4.36-2.5,6.65-3.6l.84,1.76c-2.22,1.07-4.4,2.25-6.48,3.5ZM425.19,57.02l-.85-1.75c2.15-1.04,4.33-2.11,6.68-3.29l.87,1.74c-2.36,1.18-4.55,2.26-6.7,3.3ZM215.09,56.55c-2.36-.8-4.74-1.56-7.08-2.26l.55-1.87c2.36.7,4.77,1.47,7.15,2.28l-.63,1.84ZM135.25,53.63l-.68-1.83c2.33-.86,4.74-1.63,7.19-2.3l.51,1.88c-2.39.65-4.75,1.4-7.02,2.24ZM200.85,52.35c-2.42-.6-4.86-1.15-7.24-1.62l.38-1.91c2.41.48,4.88,1.03,7.33,1.65l-.47,1.89ZM655.57,52.17c-2-1.42-4.07-2.81-6.15-4.15l1.05-1.64c2.1,1.35,4.2,2.76,6.22,4.2l-1.13,1.59ZM438.55,50.32l-.89-1.73c1.98-1.02,4.08-2.12,6.61-3.44l.9,1.73c-2.53,1.33-4.64,2.42-6.62,3.45ZM149.47,49.75l-.36-1.91c2.43-.45,4.94-.82,7.46-1.09l.21,1.94c-2.47.26-4.93.62-7.31,1.06ZM186.31,49.46c-2.47-.36-4.94-.65-7.36-.87l.17-1.94c2.45.22,4.96.52,7.47.88l-.28,1.93ZM164.16,48.16l-.07-1.95c2.46-.09,4.99-.1,7.53-.02l-.06,1.95c-2.5-.07-4.99-.07-7.4.02ZM643.07,44.14c-2.12-1.24-4.31-2.45-6.51-3.61l.91-1.72c2.22,1.17,4.43,2.4,6.58,3.65l-.98,1.68ZM451.78,43.4l-.91-1.72c2.2-1.16,4.41-2.32,6.61-3.47l.9,1.73c-2.2,1.15-4.4,2.31-6.61,3.47ZM629.91,37.2c-2.22-1.06-4.51-2.08-6.79-3.06l.76-1.79c2.31.98,4.62,2.02,6.86,3.09l-.84,1.76ZM465.01,36.5l-.89-1.73c2.38-1.22,4.56-2.32,6.68-3.37l.87,1.74c-2.11,1.05-4.28,2.14-6.65,3.36ZM616.23,31.36c-2.29-.87-4.65-1.72-6.99-2.51l.62-1.84c2.37.8,4.74,1.65,7.06,2.54l-.7,1.82ZM478.36,29.89l-.83-1.76c2.19-1.03,4.53-2.01,6.95-2.93l.69,1.82c-2.37.9-4.66,1.86-6.81,2.87ZM602.15,26.6c-2.36-.7-4.77-1.37-7.16-1.99l.49-1.89c2.42.62,4.85,1.3,7.23,2.01l-.56,1.87ZM492.18,24.64l-.57-1.86c2.34-.71,4.78-1.39,7.25-1.99l.47,1.89c-2.44.6-4.85,1.26-7.15,1.96ZM587.76,22.88c-2.41-.53-4.86-1.03-7.29-1.47l.35-1.92c2.45.45,4.93.95,7.36,1.49l-.42,1.9ZM506.57,21.09l-.37-1.91c2.41-.47,4.9-.89,7.4-1.26l.28,1.93c-2.47.36-4.94.78-7.32,1.24ZM573.14,20.19c-2.44-.36-4.92-.69-7.37-.96l.22-1.94c2.48.28,4.98.61,7.44.97l-.28,1.93ZM521.26,18.92l-.2-1.94c2.45-.26,4.97-.47,7.48-.64l.13,1.94c-2.48.16-4.97.37-7.4.63ZM558.36,18.51c-2.47-.19-4.96-.35-7.42-.45l.08-1.95c2.48.11,5,.26,7.49.46l-.15,1.94ZM536.08,17.94l-.06-1.95c1.92-.05,3.88-.07,5.83-.08.56,0,1.11,0,1.67,0l-.02,1.95c-.57,0-1.14,0-1.71,0-1.91,0-3.83.03-5.71.08Z"/>
              <g>
                <polygon class="cls-29" points="164.86 217.5 102.69 179.71 124.55 179.06 164.86 217.5"/>
                <polygon class="cls-27" points="164.86 217.5 146.47 185.38 130.1 184.35 164.86 217.5"/>
                <polygon class="cls-30" points="116.98 188.4 115.42 196.35 164.86 217.5 116.98 188.4"/>
              </g>
              <g>
                <path class="cls-28" d="M617.66,91.83v-8.88h-10.77c-.37-2.65-1.04-5.19-2.01-7.59l9.31-5.37-4.44-7.69-9.32,5.38c-1.62-2.07-3.48-3.93-5.55-5.55l5.38-9.32-7.69-4.44-5.37,9.31c-2.4-.97-4.94-1.64-7.59-2.01v-10.77h-8.88v10.77c-2.65.37-5.19,1.04-7.59,2.01l-5.37-9.31-7.69,4.44,5.38,9.32c-2.07,1.62-3.93,3.48-5.55,5.55l-9.32-5.38-4.44,7.69,9.31,5.37c-.97,2.4-1.64,4.94-2.01,7.59h-10.77v8.88h10.77c.37,2.65,1.04,5.19,2.01,7.59l-9.31,5.37,4.44,7.69,9.32-5.38c1.62,2.07,3.48,3.93,5.55,5.55l-5.38,9.32,7.69,4.44,5.37-9.31c2.4.97,4.94,1.64,7.59,2.01v10.77h8.88v-10.77c2.65-.37,5.19-1.04,7.59-2.01l5.37,9.31,7.69-4.44-5.38-9.32c2.07-1.62,3.93-3.48,5.55-5.55l9.32,5.38,4.44-7.69-9.31-5.37c.97-2.4,1.64-4.94,2.01-7.59h10.77ZM575.16,101.54c-7.82,0-14.15-6.34-14.15-14.15s6.34-14.15,14.15-14.15,14.15,6.34,14.15,14.15-6.34,14.15-14.15,14.15Z"/>
                <path class="cls-26" d="M597.68,87.39c0-12.44-10.08-22.52-22.52-22.52s-22.52,10.08-22.52,22.52,10.08,22.52,22.52,22.52,22.52-10.08,22.52-22.52ZM575.16,101.54c-7.82,0-14.15-6.34-14.15-14.15s6.34-14.15,14.15-14.15,14.15,6.34,14.15,14.15-6.34,14.15-14.15,14.15Z"/>
              </g>
              <g>
                <path class="cls-25" d="M463.39,514.81v-6.09h-7.38c-.25-1.81-.71-3.56-1.38-5.2l6.38-3.68-3.04-5.27-6.39,3.69c-1.11-1.42-2.38-2.69-3.8-3.8l3.69-6.39-5.27-3.04-3.68,6.38c-1.64-.67-3.39-1.13-5.2-1.38v-7.38h-6.09v7.38c-1.81.25-3.56.71-5.2,1.38l-3.68-6.38-5.27,3.04,3.69,6.39c-1.42,1.11-2.69,2.38-3.8,3.8l-6.39-3.69-3.04,5.27,6.38,3.68c-.67,1.64-1.13,3.39-1.38,5.2h-7.38v6.09h7.38c.25,1.81.71,3.56,1.38,5.2l-6.38,3.68,3.04,5.27,6.39-3.69c1.11,1.42,2.38,2.69,3.8,3.8l-3.69,6.39,5.27,3.04,3.68-6.38c1.64.67,3.39,1.13,5.2,1.38v7.38h6.09v-7.38c1.81-.25,3.56-.71,5.2-1.38l3.68,6.38,5.27-3.04-3.69-6.39c1.42-1.11,2.69-2.38,3.8-3.8l6.39,3.69,3.04-5.27-6.38-3.68c.67-1.64,1.13-3.39,1.38-5.2h7.38ZM434.26,521.47c-5.36,0-9.7-4.34-9.7-9.7s4.34-9.7,9.7-9.7,9.7,4.34,9.7,9.7-4.34,9.7-9.7,9.7Z"/>
                <path class="cls-68" d="M449.7,511.77c0-8.52-6.91-15.43-15.43-15.43s-15.43,6.91-15.43,15.43,6.91,15.43,15.43,15.43,15.43-6.91,15.43-15.43ZM434.26,521.47c-5.36,0-9.7-4.34-9.7-9.7s4.34-9.7,9.7-9.7,9.7,4.34,9.7,9.7-4.34,9.7-9.7,9.7Z"/>
              </g>
            </g>
            <g class="cls-1">
              <path class="cls-69" d="M190.3,486.46c-27.07,7.41-33.46,5.34-38.29,12.6-.55.83-3.38,5.09-2.82,10.55.45,4.35,2.88,7.71,4.4,9.19,9.27,8.98,34.79-2.01,49.4-14.02,3.19-2.62,11.73-9.64,10.01-14.63-.71-2.04-2.9-3.06-4.47-3.76-6.95-3.11-14.16-1.04-18.24.07Z"/>
              <rect class="cls-70" x="106.73" y="304.52" width="5.76" height="37.81" transform="translate(219.22 646.85) rotate(180)"/>
              <rect class="cls-64" x="84.4" y="338.37" width="50.41" height="24.84" rx="4.52" ry="4.52" transform="translate(219.22 701.58) rotate(180)"/>
              <path class="cls-65" d="M54.78,350.25h109.66c19.52,0,35.36,15.85,35.36,35.36v38.9c0,34.73-28.19,62.92-62.92,62.92h-54.55c-34.73,0-62.92-28.19-62.92-62.92v-38.9c0-19.52,15.85-35.36,35.36-35.36Z" transform="translate(219.22 837.68) rotate(180)"/>
              <path class="cls-66" d="M47.79,441.91h0c2.36,1.17,5.01,1.78,7.7,1.78h108.25c2.69,0,5.33-.61,7.7-1.78h0c5.8-2.87,9.07-8.65,8.25-14.59l-.06-.43c-2.77-20.11-20.99-35.57-43.31-36.73-9.45-.49-19.36-.75-29.7-.69-8.1.05-15.93.28-23.47.67-22.41,1.16-40.76,16.55-43.54,36.74-.02.15-.04.29-.06.44-.82,5.94,2.45,11.72,8.25,14.59Z"/>
              <g>
                <circle class="cls-3" cx="138.14" cy="418.84" r="20.41"/>
                <circle class="cls-72" cx="138.14" cy="418.84" r="14.65"/>
                <circle class="cls-77" cx="138.14" cy="418.84" r="12.31"/>
                <path class="cls-72" d="M130.26,415.65c0,2.52,2.04,4.56,4.56,4.56s4.56-2.04,4.56-4.56-2.04-4.56-4.56-4.56-4.56,2.04-4.56,4.56Z"/>
                <circle class="cls-72" cx="139.96" cy="428.28" r="1.82"/>
                <path class="cls-72" d="M144.47,425.55c0,.5.41.91.91.91s.91-.41.91-.91-.41-.91-.91-.91-.91.41-.91.91Z"/>
              </g>
              <g>
                <circle class="cls-2" cx="83" cy="418.84" r="20.41"/>
                <circle class="cls-72" cx="83" cy="418.84" r="14.65"/>
                <circle class="cls-76" cx="83" cy="418.84" r="12.31"/>
                <path class="cls-72" d="M75.11,415.65c0,2.52,2.04,4.56,4.56,4.56s4.56-2.04,4.56-4.56-2.04-4.56-4.56-4.56-4.56,2.04-4.56,4.56Z"/>
                <circle class="cls-72" cx="84.82" cy="428.28" r="1.82"/>
                <path class="cls-72" d="M89.33,425.55c0,.5.41.91.91.91s.91-.41.91-.91-.41-.91-.91-.91-.91.41-.91.91Z"/>
              </g>
              <path class="cls-67" d="M102.23,302c0,4.08,3.3,7.38,7.38,7.38s7.38-3.3,7.38-7.38-3.3-7.38-7.38-7.38-7.38,3.3-7.38,7.38Z"/>
              <path class="cls-12" d="M104.48,299.12c0,1.24,1.01,2.25,2.25,2.25s2.25-1.01,2.25-2.25-1.01-2.25-2.25-2.25-2.25,1.01-2.25,2.25Z"/>
              <path class="cls-12" d="M46.05,373.92c-.1,3.45,2.71,7.57,5.94,7.92,3.02.33,5.43-2.76,7.92-5.94,2.45-3.14,7.81-11.19,5.68-13.47-2.82-3.01-19.3,3.36-19.54,11.49Z"/>
              <circle class="cls-12" cx="73.65" cy="358.21" r="2.57"/>
              <path class="cls-13" d="M46.42,421.72c.82.58,6.56-11.11,21.96-21.24,5.41-3.56,10.76-6.1,10.44-6.84-.32-.75-6.34.64-11.16,2.88-15.36,7.12-22.22,24.51-21.24,25.2Z"/>
              <path class="cls-12" d="M85.86,345.72c.18.03.3-1.05,1.2-2.72,0,0,.42-.78.9-1.44,1.55-2.13,6.79-2.08,7.2-2.08,8.17.07,13.41-.45,13.41-.4,0,.04-3.83-.04-6.64-.09-7.92-.16-12.63-.59-14.65,1.53-.84.88-1.26,2.03-1.26,2.03-.57,1.55-.38,3.14-.16,3.17Z"/>
              <path class="cls-72" d="M87.56,452.44c.2,1.96,1.83,3.46,3.78,3.65l27.04,2.61c1.96.19,3.84-.98,4.41-2.86.25-.84.45-1.7.58-2.58.04-.25-.03-.49-.18-.69-.15-.2-.38-.32-.63-.34l-34.11-3.29c-.24-.02-.49.05-.67.21-.18.16-.29.39-.3.63-.04.9-.01,1.79.08,2.66Z"/>
              <path class="cls-61" d="M87.56,452.45c.86,8.38,7.53,15.27,16.24,16.11,8.59.83,16.34-4.49,18.89-12.38-.68,1.69-2.45,2.71-4.3,2.53l-27.05-2.6c-1.96-.19-3.58-1.7-3.78-3.65Z"/>
              <path class="cls-62" d="M44.96,513.18c0,.25,0,.49.01.71.09,2.27.62,3.98.88,4.74,7.44,22.74,11.9,34.73,18.16,44.43,1.08,1.67,2.21,3.28,3.44,4.86,1.6,2.11,3.35,4.16,5.29,6.28,4.32,4.7,10.86,6.83,12.96,7.56,7.7,2.72,14.51,2.23,19.03,2.27h.79c4.54-.04,11.33.45,19.03-2.27,2.11-.73,8.65-2.86,12.96-7.56,11.88-12.93,16.45-23.68,26.89-55.56.25-.73.75-2.32.86-4.45.03-.62.04-1.23.01-1.85-.23-3.81-1.77-7.55-4.52-10.96-4.7-5.85-11.96-9.06-19.46-9.1l-36.18-.15-35.52-.14c-7.67-.03-15.1,3.19-19.97,9.12-2.35,2.87-3.86,5.97-4.41,9.17-.08.45-.14.92-.18,1.37-.04.51-.08,1.02-.08,1.53Z"/>
              <path class="cls-16" d="M105.12,492.13l36.18.15c7.51.03,14.77,3.24,19.46,9.1,2.74,3.41,4.29,7.15,4.52,10.96-.18-3.91-1.79-7.74-4.66-11.23-4.86-5.93-12.3-9.15-19.97-9.12l-35.53.14Z"/>
              <path class="cls-63" d="M69.16,545.43c.53-28.06,4.32-33.61-1.27-40.29-.64-.77-3.93-4.68-9.33-5.68-4.3-.8-8.21.58-10.06,1.63-11.23,6.36-7.9,33.94-.5,51.35,1.61,3.8,5.94,13.98,11.21,13.74,2.16-.1,3.75-1.92,4.87-3.22,4.95-5.79,5-13.29,5.08-17.52Z"/>
              <path class="cls-71" d="M64,563.06c1.08,1.67,2.21,3.28,3.44,4.86.39-.4.73-.8,1.05-1.17,4.95-5.79,5-13.29,5.08-17.52.53-28.06,4.33-33.6-1.27-40.28-.41-.5-1.91-2.28-4.35-3.76,5.53,6.65,1.76,12.25,1.23,40.23-.08,4.23-.14,11.73-5.08,17.53-.03.03-.06.06-.09.11Z"/>
              <path class="cls-12" d="M48.17,522.06c.16-3.01.72-5.23,1.86-9.67,1.48-5.8,3.34-8.63,2.13-9.75-.78-.73-2.33-.24-2.68-.12-5.3,1.69-6.95,11.64-6.72,17.87.14,3.81,1.07,8.08,2.47,8.26.22.03.77,0,1.16-.35,1.56-1.38,1.66-3.95,1.78-6.25Z"/>
              <path class="cls-12" d="M44.52,532.7c0,.61.49,1.1,1.1,1.1s1.1-.49,1.1-1.1-.49-1.1-1.1-1.1-1.1.49-1.1,1.1Z"/>
            </g>
          </g>
        </g>
      </g>
    </g>
  </g>
</svg>