<?xml version="1.0"?>
<svg xmlns="http://www.w3.org/2000/svg" width="70" height="68" viewBox="0 0 70 68" fill="none">
<g id="Layer_1" clip-path="url(#clip0_774_7261)">
<path id="Vector" d="M68.154 22.8135C69.3348 26.0363 69.9897 29.4421 69.9999 32.8773C70.0314 43.7612 62.488 52.5588 54.3337 58.7414C46.818 64.4402 37.6743 68.8418 28.2887 67.8633C21.8212 67.1886 15.719 63.9386 11.1122 59.2752C6.50532 54.6119 3.34695 48.6043 1.58358 42.273C-0.19835 35.87 -0.584892 29.0176 0.982704 22.5828C2.55029 16.1479 6.14249 10.162 11.3822 6.19787C16.6511 2.21005 23.3088 0.421229 29.9033 0.0656103C40.1662 -0.486697 50.8202 2.43899 58.6897 9.18396C62.9015 12.7935 66.2286 17.559 68.154 22.8135Z" fill="#000D39"/>
<path id="Vector_2" d="M33.1603 13.5843C39.1277 13.5843 44.1691 22.9336 44.1691 34C44.1691 45.0664 39.1277 54.4157 33.1603 54.4157C27.193 54.4157 22.1516 45.0665 22.1516 34C22.1516 22.9335 27.193 13.5843 33.1603 13.5843ZM33.1603 11.7469C26.0641 11.7469 20.3115 21.7099 20.3115 34C20.3115 46.2901 26.0641 56.2531 33.1603 56.2531C40.2565 56.2531 46.0092 46.2901 46.0092 34C46.0092 21.7099 40.2565 11.7469 33.1603 11.7469Z" fill="url(#paint0_linear_774_7261)"/>
<path id="Vector_3" d="M33.1603 55.545C32.6522 55.545 32.2402 55.1341 32.2402 54.6263V13.3736C32.2402 12.8658 32.6522 12.4548 33.1603 12.4548C33.6684 12.4548 34.0803 12.8658 34.0803 13.3736V54.6263C34.0803 55.1341 33.6684 55.545 33.1603 55.545Z" fill="white"/>
<path id="Vector_4" d="M55.445 34.9186H10.8751C10.367 34.9186 9.95508 34.5077 9.95508 33.9999C9.95508 33.4921 10.367 33.0812 10.8751 33.0812H55.445C55.9535 33.0812 56.365 33.4921 56.365 33.9999C56.365 34.5077 55.9535 34.9186 55.445 34.9186Z" fill="white"/>
<path id="Vector_5" d="M33.1598 57.1716C20.3647 57.1716 9.95508 46.7767 9.95508 33.9999C9.95508 21.223 20.3647 10.8282 33.1598 10.8282C45.9549 10.8282 56.3646 21.223 56.3646 33.9999C56.3646 46.7767 45.9549 57.1716 33.1598 57.1716ZM33.1598 12.6656C21.3791 12.6656 11.7951 22.2359 11.7951 33.9999C11.7951 45.7638 21.3791 55.3341 33.1598 55.3341C44.9405 55.3341 54.5245 45.7638 54.5245 33.9999C54.5245 22.2359 44.9405 12.6656 33.1598 12.6656Z" fill="white"/>
<path id="Vector_6" d="M33.1598 29.7696C32.5678 29.7696 32.0305 29.4673 31.7232 28.9613C29.0296 24.5202 24.5107 16.5433 24.5107 13.0128C24.5107 8.25057 28.3908 4.37561 33.1598 4.37561C37.9289 4.37561 41.8094 8.25056 41.8094 13.0128C41.8094 16.5433 37.2901 24.5202 34.5969 28.9613C34.2892 29.4673 33.7519 29.7696 33.1598 29.7696Z" fill="url(#paint1_linear_774_7261)"/>
<path id="Vector_7" d="M33.16 5.29478C37.4286 5.29478 40.889 8.75027 40.889 13.0128C40.889 16.5153 35.6708 25.4168 33.8096 28.485C33.6616 28.729 33.4108 28.8511 33.16 28.8511C32.9091 28.8511 32.6583 28.729 32.5103 28.485C30.6491 25.4168 25.4309 16.5153 25.4309 13.0128C25.4309 8.75027 28.8913 5.29478 33.16 5.29478ZM33.16 3.45734C27.8835 3.45734 23.5908 7.74391 23.5908 13.0128C23.5908 16.5788 27.5854 23.9126 30.9364 29.437C31.4119 30.2207 32.2431 30.6885 33.16 30.6885C34.0769 30.6885 34.9081 30.2206 35.3835 29.437C38.7345 23.9126 42.7291 16.5789 42.7291 13.0128C42.7291 7.74391 38.4364 3.45734 33.16 3.45734Z" fill="#000D39"/>
<path id="Vector_8" d="M33.1602 16.5819C35.1397 16.5819 36.7443 14.9795 36.7443 13.0029C36.7443 11.0263 35.1397 9.42395 33.1602 9.42395C31.1808 9.42395 29.5762 11.0263 29.5762 13.0029C29.5762 14.9795 31.1808 16.5819 33.1602 16.5819Z" fill="#000D39"/>
</g>
<defs>
<linearGradient id="paint0_linear_774_7261" x1="20.3115" y1="34" x2="46.0092" y2="34" gradientUnits="userSpaceOnUse">
<stop stop-color="#99DFD7"/>
<stop offset="1" stop-color="#BAAFFF"/>
</linearGradient>
<linearGradient id="paint1_linear_774_7261" x1="79.1228" y1="50.5297" x2="50.7613" y2="66.2319" gradientUnits="userSpaceOnUse">
<stop stop-color="#C000F2"/>
<stop offset="0.629434" stop-color="#A66EFC"/>
<stop offset="1" stop-color="#00B09C"/>
</linearGradient>
<clipPath id="clip0_774_7261">
<rect width="70" height="68" fill="white"/>
</clipPath>
</defs>
</svg>
