<?xml version="1.0"?>
<svg xmlns="http://www.w3.org/2000/svg" width="70" height="68" viewBox="0 0 70 68" fill="none">
<g id="Layer_1" clip-path="url(#clip0_774_7300)">
<path id="Vector" d="M68.154 22.8135C69.3348 26.0363 69.9897 29.4421 69.9999 32.8773C70.0314 43.7612 62.488 52.5588 54.3337 58.7414C46.818 64.4402 37.6743 68.8418 28.2887 67.8633C21.8212 67.1886 15.719 63.9386 11.1122 59.2752C6.50532 54.6119 3.34695 48.6043 1.58358 42.273C-0.19835 35.87 -0.584892 29.0176 0.982704 22.5828C2.55029 16.1479 6.14249 10.162 11.3822 6.19787C16.6511 2.21005 23.3088 0.421229 29.9033 0.0656103C40.1662 -0.486697 50.8202 2.43899 58.6897 9.18396C62.9015 12.7935 66.2286 17.559 68.154 22.8135Z" fill="#000D39"/>
<path id="Vector_2" d="M33.2877 57.557H31.1914C28.5899 57.557 26.3327 55.7968 25.7019 53.2761L25.4119 52.1198C25.3463 51.8577 25.4055 51.5793 25.5719 51.3669C25.7383 51.1536 25.9935 51.0294 26.2641 51.0294H38.2146C38.4848 51.0294 38.7404 51.1536 38.9068 51.3669C39.0732 51.5793 39.1324 51.8568 39.0672 52.1189L38.7782 53.2761C38.146 55.7968 35.8884 57.557 33.2877 57.557ZM27.3895 52.7836L27.4062 52.8504C27.8411 54.5891 29.3974 55.8028 31.1914 55.8028H33.2877C35.0813 55.8028 36.6381 54.5891 37.0738 52.8504L37.0901 52.7836H27.3895Z" fill="url(#paint0_linear_774_7300)"/>
<path id="Vector_3" d="M38.2149 48.0102H26.2644C25.7793 48.0102 25.3861 47.618 25.3861 47.1332C25.3861 44.7623 24.2671 42.4403 22.3158 40.7615C18.9504 37.8665 17.0205 33.6644 17.0205 29.2319C17.0205 25.0521 18.6832 21.1566 21.7025 18.2641C24.7196 15.3725 28.6914 13.8702 32.884 14.0483C40.7873 14.373 47.325 21.0692 47.4571 28.9732C47.5334 33.5522 45.5718 37.8759 42.0747 40.8369C40.18 42.442 39.0932 44.7341 39.0932 47.1263C39.0932 47.6111 38.7004 48.0102 38.2149 48.0102ZM27.1016 46.2561H37.376C37.6111 43.666 38.8805 41.2429 40.9391 39.499C44.0321 36.8798 45.7682 33.0537 45.7004 29.0023C45.5846 22.0106 39.8026 16.0877 32.8115 15.8008C29.11 15.6509 25.5881 16.9716 22.9188 19.5301C20.2482 22.0885 18.7772 25.5343 18.7772 29.2319C18.7772 33.153 20.4849 36.8712 23.4626 39.4322C25.5632 41.2394 26.8593 43.6882 27.1016 46.2561Z" fill="white"/>
<path id="Vector_4" d="M38.214 52.7836H26.2635C24.4614 52.7836 22.9951 51.3189 22.9951 49.5194C22.9951 47.7198 24.4614 46.256 26.2635 46.256H38.214C40.0162 46.256 41.4829 47.7198 41.4829 49.5194C41.4829 51.3189 40.0162 52.7836 38.214 52.7836ZM26.2635 48.0102C25.4298 48.0102 24.7518 48.6868 24.7518 49.5194C24.7518 50.3519 25.4298 51.0294 26.2635 51.0294H38.214C39.0478 51.0294 39.7262 50.3519 39.7262 49.5194C39.7262 48.6868 39.0478 48.0102 38.214 48.0102H26.2635Z" fill="white"/>
<path id="Vector_5" d="M40.2745 26.8338C39.8829 26.7363 39.5627 26.4588 39.4072 26.0869C39.4056 26.083 39.404 26.0791 39.4023 26.0752C39.3239 25.8884 39.2917 25.689 39.3049 25.4927C39.3185 25.2958 39.378 25.1022 39.4828 24.928L39.9472 24.1563C40.1548 23.8113 40.1006 23.3695 39.8158 23.0847L38.206 21.4752C37.9205 21.1897 37.4767 21.1356 37.1308 21.344L36.3593 21.8089C36.01 22.0185 35.5828 22.0467 35.2071 21.8892C35.2032 21.8876 35.1993 21.886 35.1954 21.8844C34.8229 21.7291 34.5451 21.4093 34.4474 21.0183L34.2294 20.1457C34.1318 19.755 33.7804 19.4809 33.3772 19.4809H31.102C30.6988 19.4809 30.3473 19.755 30.2498 20.1457L30.0318 21.0183C29.9341 21.4093 29.6562 21.7291 29.2838 21.8844C29.2798 21.886 29.276 21.8876 29.2721 21.8892C28.9273 22.0337 28.542 22.0144 28.2106 21.8496C28.1804 21.8346 28.149 21.8231 28.1199 21.8056L27.3475 21.3421C27.0018 21.1347 26.5592 21.1889 26.274 21.4737L24.664 23.0814C24.3788 23.3662 24.3245 23.8082 24.5322 24.1534L24.9964 24.9246C25.2063 25.2734 25.2345 25.7 25.0768 26.0752C25.0752 26.0791 25.0735 26.083 25.0719 26.0869C24.9164 26.4588 24.5962 26.7363 24.2046 26.8338L23.3308 27.0515C22.9396 27.1489 22.665 27.4999 22.665 27.9025V30.1745C22.665 30.5771 22.9396 30.928 23.3307 31.0254L24.2046 31.2431C24.5962 31.3407 24.9164 31.6182 25.0719 31.9901C25.0735 31.994 25.0752 31.9978 25.0768 32.0017C25.2345 32.377 25.2062 32.8035 24.9963 33.1523L24.5322 33.9236C24.3245 34.2687 24.3788 34.7108 24.664 34.9955L26.274 36.6033C26.5592 36.888 27.0018 36.9423 27.3475 36.7349L28.1199 36.2714C28.4692 36.0618 28.8963 36.0336 29.2721 36.191C29.276 36.1927 29.2798 36.1943 29.2838 36.1959C29.6562 36.3512 29.9341 36.671 30.0318 37.062L30.2498 37.9346C30.3473 38.3252 30.6988 38.5994 31.102 38.5994H33.3772C33.7804 38.5994 34.1318 38.3252 34.2294 37.9346L34.4474 37.062C34.5451 36.671 34.8229 36.3512 35.1954 36.1959C35.1993 36.1943 35.2032 36.1927 35.2071 36.1911C35.5516 36.0467 35.9368 36.0659 36.2681 36.2305C36.2984 36.2455 36.33 36.2571 36.3593 36.2747L37.1316 36.7382C37.4773 36.9456 37.92 36.8913 38.2051 36.6066L39.8157 34.9983C40.1006 34.7138 40.1551 34.2722 39.9479 33.9272L39.4828 33.1523C39.378 32.9781 39.3185 32.7845 39.3049 32.5876C39.2917 32.3913 39.3239 32.1918 39.4023 32.0051C39.404 32.0012 39.4056 31.9973 39.4072 31.9934C39.5627 31.6215 39.8829 31.344 40.2745 31.2465L41.1501 31.0264C41.5405 30.9284 41.8141 30.5778 41.8141 30.1759V27.9025C41.8141 27.4999 41.5396 27.1489 41.1484 27.0515L40.2745 26.8338ZM32.2396 32.1286C30.5314 32.1286 29.1467 30.7459 29.1467 29.0402C29.1467 27.3344 30.5314 25.9517 32.2396 25.9517C33.9477 25.9517 35.3324 27.3344 35.3324 29.0402C35.3324 30.7459 33.9477 32.1286 32.2396 32.1286Z" fill="url(#paint1_linear_774_7300)"/>
<path id="Vector_6" d="M32.2406 12.4252C31.7556 12.4252 31.3623 12.0329 31.3623 11.5481V7.87708C31.3623 7.39229 31.7556 7 32.2406 7C32.7257 7 33.119 7.39229 33.119 7.87708V11.5481C33.119 12.0329 32.7257 12.4252 32.2406 12.4252Z" fill="url(#paint2_linear_774_7300)"/>
<path id="Vector_7" d="M44.4877 17.3776C44.263 17.3776 44.0382 17.2919 43.8667 17.1206C43.5236 16.778 43.5236 16.223 43.8667 15.8804L46.3859 13.3648C46.729 13.0222 47.2848 13.0222 47.6279 13.3648C47.971 13.7074 47.971 14.2624 47.6279 14.605L45.1087 17.1206C44.9372 17.2919 44.7124 17.3776 44.4877 17.3776Z" fill="url(#paint3_linear_774_7300)"/>
<path id="Vector_8" d="M53.1224 29.6079H49.2094C48.7239 29.6079 48.3311 29.2156 48.3311 28.7308C48.3311 28.246 48.7239 27.8537 49.2094 27.8537H53.1224C53.6079 27.8537 54.0007 28.246 54.0007 28.7308C54.0007 29.2156 53.6079 29.6079 53.1224 29.6079Z" fill="url(#paint4_linear_774_7300)"/>
<path id="Vector_9" d="M19.9932 17.3776C19.7685 17.3776 19.5438 17.2919 19.3722 17.1206L16.853 14.605C16.5099 14.2624 16.5099 13.7074 16.853 13.3648C17.1961 13.0222 17.7519 13.0222 18.095 13.3648L20.6142 15.8804C20.9573 16.223 20.9573 16.778 20.6142 17.1206C20.4427 17.2919 20.2179 17.3776 19.9932 17.3776Z" fill="url(#paint5_linear_774_7300)"/>
<path id="Vector_10" d="M15.2703 29.6079H11.3568C10.8718 29.6079 10.4785 29.2156 10.4785 28.7308C10.4785 28.246 10.8718 27.8537 11.3568 27.8537H15.2703C15.7554 27.8537 16.1486 28.246 16.1486 28.7308C16.1486 29.2156 15.7554 29.6079 15.2703 29.6079Z" fill="url(#paint6_linear_774_7300)"/>
<path id="Vector_11" d="M16.7378 22.7086C16.6181 22.7086 16.4968 22.6846 16.3805 22.6324L12.808 21.0427C12.365 20.8457 12.166 20.3275 12.3633 19.8847C12.561 19.4418 13.0808 19.2414 13.5234 19.441L17.0959 21.0307C17.5389 21.2277 17.7379 21.7459 17.5406 22.1887C17.3948 22.515 17.074 22.7086 16.7378 22.7086Z" fill="url(#paint7_linear_774_7300)"/>
<path id="Vector_12" d="M25.6557 13.9867C25.3126 13.9867 24.9871 13.7854 24.8455 13.4496L23.3286 9.85053C23.1408 9.40428 23.3505 8.89036 23.7978 8.70193C24.243 8.51607 24.7593 8.72334 24.948 9.17045L26.4649 12.7696C26.6528 13.2158 26.4431 13.7297 25.9958 13.9181C25.8847 13.9644 25.7693 13.9867 25.6557 13.9867Z" fill="url(#paint8_linear_774_7300)"/>
<path id="Vector_13" d="M47.7798 22.7086C47.4436 22.7086 47.1228 22.515 46.977 22.1887C46.7788 21.7459 46.9787 21.2277 47.4213 21.0307L50.9929 19.441C51.4389 19.2414 51.9553 19.4427 52.1526 19.8846C52.3507 20.3275 52.1509 20.8457 51.7083 21.0427L48.1366 22.6324C48.02 22.6846 47.899 22.7086 47.7798 22.7086Z" fill="url(#paint9_linear_774_7300)"/>
<path id="Vector_14" d="M38.8562 13.9995C38.7421 13.9995 38.6263 13.9772 38.5156 13.931C38.0679 13.7426 37.8586 13.2286 38.0464 12.7824L39.5689 9.17045C39.7576 8.72249 40.2766 8.51607 40.7192 8.70193C41.1669 8.89036 41.3762 9.40427 41.1884 9.85052L39.6659 13.4625C39.5243 13.7982 39.1984 13.9995 38.8562 13.9995Z" fill="url(#paint10_linear_774_7300)"/>
</g>
<defs>
<linearGradient id="paint0_linear_774_7300" x1="25.3857" y1="54.2932" x2="39.0932" y2="54.2932" gradientUnits="userSpaceOnUse">
<stop stop-color="#99DFD7"/>
<stop offset="1" stop-color="#BAAFFF"/>
</linearGradient>
<linearGradient id="paint1_linear_774_7300" x1="64.2613" y1="65.1621" x2="26.3371" y2="73.1968" gradientUnits="userSpaceOnUse">
<stop stop-color="#C000F2"/>
<stop offset="1" stop-color="#00B09C"/>
</linearGradient>
<linearGradient id="paint2_linear_774_7300" x1="31.3623" y1="9.71261" x2="33.119" y2="9.71261" gradientUnits="userSpaceOnUse">
<stop stop-color="#99DFD7"/>
<stop offset="1" stop-color="#BAAFFF"/>
</linearGradient>
<linearGradient id="paint3_linear_774_7300" x1="43.6094" y1="15.2427" x2="47.8852" y2="15.2427" gradientUnits="userSpaceOnUse">
<stop stop-color="#99DFD7"/>
<stop offset="1" stop-color="#BAAFFF"/>
</linearGradient>
<linearGradient id="paint4_linear_774_7300" x1="48.3311" y1="28.7308" x2="54.0007" y2="28.7308" gradientUnits="userSpaceOnUse">
<stop stop-color="#99DFD7"/>
<stop offset="1" stop-color="#BAAFFF"/>
</linearGradient>
<linearGradient id="paint5_linear_774_7300" x1="16.5957" y1="15.2427" x2="20.8715" y2="15.2427" gradientUnits="userSpaceOnUse">
<stop stop-color="#99DFD7"/>
<stop offset="1" stop-color="#BAAFFF"/>
</linearGradient>
<linearGradient id="paint6_linear_774_7300" x1="10.4785" y1="28.7308" x2="16.1486" y2="28.7308" gradientUnits="userSpaceOnUse">
<stop stop-color="#99DFD7"/>
<stop offset="1" stop-color="#BAAFFF"/>
</linearGradient>
<linearGradient id="paint7_linear_774_7300" x1="12.2871" y1="21.0361" x2="17.6168" y2="21.0361" gradientUnits="userSpaceOnUse">
<stop stop-color="#99DFD7"/>
<stop offset="1" stop-color="#BAAFFF"/>
</linearGradient>
<linearGradient id="paint8_linear_774_7300" x1="23.2598" y1="11.3103" x2="26.5338" y2="11.3103" gradientUnits="userSpaceOnUse">
<stop stop-color="#99DFD7"/>
<stop offset="1" stop-color="#BAAFFF"/>
</linearGradient>
<linearGradient id="paint9_linear_774_7300" x1="46.9004" y1="21.0362" x2="52.2291" y2="21.0362" gradientUnits="userSpaceOnUse">
<stop stop-color="#99DFD7"/>
<stop offset="1" stop-color="#BAAFFF"/>
</linearGradient>
<linearGradient id="paint10_linear_774_7300" x1="37.9775" y1="11.3166" x2="41.2573" y2="11.3166" gradientUnits="userSpaceOnUse">
<stop stop-color="#99DFD7"/>
<stop offset="1" stop-color="#BAAFFF"/>
</linearGradient>
<clipPath id="clip0_774_7300">
<rect width="70" height="68" fill="white"/>
</clipPath>
</defs>
</svg>
