<?xml version="1.0"?>
<svg xmlns="http://www.w3.org/2000/svg" width="70" height="68" viewBox="0 0 70 68" fill="none">
<g id="Group 6699">
<path id="Vector" d="M68.154 22.8135C69.3348 26.0363 69.9897 29.4421 69.9999 32.8773C70.0314 43.7612 62.488 52.5588 54.3337 58.7414C46.818 64.4402 37.6743 68.8418 28.2887 67.8633C21.8212 67.1886 15.719 63.9386 11.1122 59.2752C6.50532 54.6119 3.34695 48.6043 1.58358 42.273C-0.19835 35.87 -0.584892 29.0176 0.982704 22.5828C2.55029 16.1479 6.14249 10.162 11.3822 6.19787C16.6511 2.21005 23.3088 0.421229 29.9033 0.0656103C40.1662 -0.486697 50.8202 2.43899 58.6897 9.18396C62.9015 12.7935 66.2286 17.559 68.154 22.8135Z" fill="#000D39"/>
<g id="Group 6698">
<path id="Vector_2" d="M52.4459 34.0218H44.8541C44.4203 34.0218 44.0693 33.6713 44.0693 33.2381C44.0693 32.805 44.4203 32.4545 44.8541 32.4545H52.4459C52.8797 32.4545 53.2307 32.805 53.2307 33.2381C53.2307 33.6713 52.8797 34.0218 52.4459 34.0218Z" fill="white"/>
<path id="Vector_3" d="M55.0074 37.2253C57.2126 37.2253 59.0002 35.4402 59.0002 33.2382C59.0002 31.0362 57.2126 29.2511 55.0074 29.2511C52.8023 29.2511 51.0146 31.0362 51.0146 33.2382C51.0146 35.4402 52.8023 37.2253 55.0074 37.2253Z" fill="url(#paint0_linear_774_7315)"/>
<path id="Vector_4" d="M23.3086 34.0218H16.3629C15.9291 34.0218 15.5781 33.6713 15.5781 33.2381C15.5781 32.805 15.9291 32.4545 16.3629 32.4545H23.3086C23.7424 32.4545 24.0934 32.805 24.0934 33.2381C24.0934 33.6713 23.7424 34.0218 23.3086 34.0218Z" fill="white"/>
<path id="Vector_5" d="M13.1539 30.8184C14.4901 30.8184 15.5771 31.9039 15.5771 33.2382C15.5771 34.5724 14.4901 35.658 13.1539 35.658C11.8177 35.658 10.7307 34.5725 10.7307 33.2382C10.7307 31.9039 11.8177 30.8184 13.1539 30.8184ZM13.1539 29.2511C10.9487 29.2511 9.16113 31.0362 9.16113 33.2382C9.16113 35.4402 10.9488 37.2253 13.1539 37.2253C15.359 37.2253 17.1467 35.4402 17.1467 33.2382C17.1467 31.0361 15.359 29.2511 13.1539 29.2511Z" fill="white"/>
<path id="Vector_6" d="M34.0807 52.3612C33.6469 52.3612 33.2959 52.0107 33.2959 51.5775V43.9958C33.2959 43.5627 33.6469 43.2122 34.0807 43.2122C34.5144 43.2122 34.8654 43.5627 34.8654 43.9958V51.5775C34.8654 52.0107 34.5144 52.3612 34.0807 52.3612Z" fill="white"/>
<path id="Vector_7" d="M34.0816 58.1223C36.2868 58.1223 38.0744 56.3373 38.0744 54.1353C38.0744 51.9333 36.2868 50.1482 34.0816 50.1482C31.8765 50.1482 30.0889 51.9333 30.0889 54.1353C30.0889 56.3373 31.8765 58.1223 34.0816 58.1223Z" fill="white"/>
<path id="Vector_8" d="M34.0807 23.2641C33.6469 23.2641 33.2959 22.9136 33.2959 22.4804V14.8994C33.2959 14.4663 33.6469 14.1158 34.0807 14.1158C34.5144 14.1158 34.8654 14.4663 34.8654 14.8994V22.4804C34.8654 22.9136 34.5144 23.2641 34.0807 23.2641Z" fill="white"/>
<path id="Vector_9" d="M34.0816 16.3282C36.2868 16.3282 38.0744 14.5431 38.0744 12.3411C38.0744 10.1391 36.2868 8.35406 34.0816 8.35406C31.8765 8.35406 30.0889 10.1391 30.0889 12.3411C30.0889 14.5431 31.8765 16.3282 34.0816 16.3282Z" fill="url(#paint1_linear_774_7315)"/>
<path id="Vector_10" d="M21.5523 46.5335C21.3516 46.5335 21.1508 46.457 20.9975 46.3039C20.6909 45.9978 20.6909 45.5019 20.9975 45.1958L25.9085 40.291C26.215 39.9849 26.7116 39.9849 27.0182 40.291C27.3247 40.5972 27.3247 41.0931 27.0182 41.3992L22.1072 46.3039C21.9539 46.457 21.7531 46.5335 21.5523 46.5335Z" fill="white"/>
<path id="Vector_11" d="M19.1285 45.7497C19.7758 45.7497 20.3843 46.0015 20.842 46.4585C21.2997 46.9155 21.5517 47.5232 21.5517 48.1695C21.5517 48.8158 21.2997 49.4235 20.842 49.8805C20.3843 50.3376 19.7758 50.5893 19.1285 50.5893C18.4812 50.5893 17.8727 50.3376 17.415 49.8805C16.9573 49.4235 16.7053 48.8158 16.7053 48.1695C16.7053 47.5232 16.9573 46.9155 17.415 46.4585C17.8727 46.0015 18.4812 45.7497 19.1285 45.7497ZM19.1285 44.1824C18.1067 44.1824 17.0848 44.5717 16.3052 45.3502C14.7459 46.9072 14.7459 49.4317 16.3052 50.9888C17.0848 51.7673 18.1067 52.1566 19.1285 52.1566C20.1503 52.1566 21.1722 51.7673 21.9518 50.9888C23.5111 49.4317 23.5111 46.9072 21.9518 45.3502C21.1722 44.5717 20.1503 44.1824 19.1285 44.1824Z" fill="url(#paint2_linear_774_7315)"/>
<path id="Vector_12" d="M41.6988 26.4148C41.498 26.4148 41.2972 26.3382 41.144 26.1852C40.8374 25.8791 40.8374 25.3832 41.144 25.077L46.0549 20.1731C46.3615 19.867 46.8581 19.867 47.1647 20.1731C47.4712 20.4792 47.4712 20.9751 47.1647 21.2812L42.2537 26.1852C42.1004 26.3382 41.8996 26.4148 41.6988 26.4148Z" fill="white"/>
<path id="Vector_13" d="M49.2047 15.7166C49.8519 15.7166 50.4605 15.9683 50.9182 16.4253C51.863 17.3688 51.863 18.9039 50.9182 19.8474C50.4605 20.3044 49.8519 20.5562 49.2047 20.5562C48.5574 20.5562 47.9489 20.3044 47.4912 19.8475C46.5464 18.9039 46.5464 17.3688 47.4912 16.4254C47.9489 15.9683 48.5574 15.7166 49.2047 15.7166ZM49.2047 14.1493C48.1828 14.1493 47.161 14.5385 46.3814 15.3171C44.8221 16.8742 44.8221 19.3986 46.3814 20.9557C47.161 21.7342 48.1828 22.1235 49.2047 22.1235C50.2265 22.1235 51.2484 21.7342 52.028 20.9557C53.5873 19.3986 53.5873 16.8742 52.028 15.3171C51.2484 14.5385 50.2265 14.1493 49.2047 14.1493Z" fill="white"/>
<path id="Vector_14" d="M26.4638 26.4148C26.263 26.4148 26.0622 26.3383 25.909 26.1852L20.5405 20.8244C20.2339 20.5182 20.2339 20.0223 20.5405 19.7162C20.847 19.4101 21.3436 19.4101 21.6502 19.7162L27.0187 25.0771C27.3252 25.3832 27.3252 25.8791 27.0187 26.1852C26.8654 26.3383 26.6646 26.4148 26.4638 26.4148Z" fill="white"/>
<path id="Vector_15" d="M18.9693 22.135C21.1745 22.135 22.9621 20.3499 22.9621 18.1479C22.9621 15.9459 21.1745 14.1608 18.9693 14.1608C16.7642 14.1608 14.9766 15.9459 14.9766 18.1479C14.9766 20.3499 16.7642 22.135 18.9693 22.135Z" fill="url(#paint3_linear_774_7315)"/>
<path id="Vector_16" d="M46.6098 46.5335C46.409 46.5335 46.2082 46.457 46.0549 46.3039L41.144 41.3992C40.8374 41.0931 40.8374 40.5972 41.144 40.291C41.4505 39.9849 41.9471 39.9849 42.2537 40.291L47.1647 45.1958C47.4712 45.5019 47.4712 45.9978 47.1647 46.3039C47.0114 46.457 46.8106 46.5335 46.6098 46.5335Z" fill="white"/>
<path id="Vector_17" d="M49.0953 45.8112C49.7426 45.8112 50.3511 46.0629 50.8088 46.52C51.2665 46.977 51.5185 47.5846 51.5185 48.231C51.5185 48.8773 51.2665 49.4849 50.8088 49.942C50.3511 50.399 49.7426 50.6507 49.0953 50.6507C48.4481 50.6507 47.8395 50.399 47.3818 49.942C46.9241 49.4849 46.6721 48.8773 46.6721 48.231C46.6721 47.5846 46.9241 46.977 47.3818 46.52C47.8395 46.0629 48.448 45.8112 49.0953 45.8112ZM49.0953 44.2439C48.0735 44.2439 47.0516 44.6331 46.272 45.4117C44.7127 46.9687 44.7127 49.4932 46.272 51.0502C47.0516 51.8288 48.0735 52.218 49.0953 52.218C50.1172 52.218 51.139 51.8288 51.9186 51.0502C53.4779 49.4932 53.4779 46.9687 51.9186 45.4117C51.139 44.6331 50.1171 44.2439 49.0953 44.2439Z" fill="white"/>
<path id="Vector_18" d="M34.0812 44.7795C27.708 44.7795 22.5234 39.6023 22.5234 33.2381C22.5234 26.874 27.708 21.6968 34.0812 21.6968C40.4545 21.6968 45.639 26.874 45.639 33.2381C45.639 39.6023 40.4545 44.7795 34.0812 44.7795ZM34.0812 23.2641C28.574 23.2641 24.093 27.7387 24.093 33.2381C24.093 38.7375 28.574 43.2122 34.0812 43.2122C39.5885 43.2122 44.0695 38.7375 44.0695 33.2381C44.0695 27.7387 39.5885 23.2641 34.0812 23.2641Z" fill="url(#paint4_linear_774_7315)"/>
</g>
</g>
<defs>
<linearGradient id="paint0_linear_774_7315" x1="67.4007" y1="47.2039" x2="52.3129" y2="50.4171" gradientUnits="userSpaceOnUse">
<stop stop-color="#C000F2"/>
<stop offset="1" stop-color="#00B09C"/>
</linearGradient>
<linearGradient id="paint1_linear_774_7315" x1="48.1747" y1="29.1798" x2="31.396" y2="32.3984" gradientUnits="userSpaceOnUse">
<stop stop-color="#C000F2"/>
<stop offset="1" stop-color="#00B09C"/>
</linearGradient>
<linearGradient id="paint2_linear_774_7315" x1="15.1357" y1="48.1695" x2="23.1213" y2="48.1695" gradientUnits="userSpaceOnUse">
<stop stop-color="#99DFD7"/>
<stop offset="1" stop-color="#BAAFFF"/>
</linearGradient>
<linearGradient id="paint3_linear_774_7315" x1="27.7698" y1="35.4491" x2="12.1422" y2="36.2361" gradientUnits="userSpaceOnUse">
<stop stop-color="#C000F2"/>
<stop offset="1" stop-color="#00B09C"/>
</linearGradient>
<linearGradient id="paint4_linear_774_7315" x1="22.5234" y1="33.2381" x2="45.639" y2="33.2381" gradientUnits="userSpaceOnUse">
<stop stop-color="#99DFD7"/>
<stop offset="1" stop-color="#BAAFFF"/>
</linearGradient>
</defs>
</svg>
