<?xml version="1.0" encoding="UTF-8" standalone="no"?>
<svg xmlns:inkscape="http://www.inkscape.org/namespaces/inkscape" xmlns:sodipodi="http://sodipodi.sourceforge.net/DTD/sodipodi-0.dtd" xmlns="http://www.w3.org/2000/svg" xmlns:svg="http://www.w3.org/2000/svg" width="69.485428" height="67.596306" viewBox="0 0 69.485428 67.596306" fill="none" version="1.1" id="svg25" sodipodi:docname="icon-training.svg" inkscape:version="1.1.2 (b8e25be833, 2022-02-05)">
  <sodipodi:namedview id="namedview27" pagecolor="#505050" bordercolor="#eeeeee" borderopacity="1" inkscape:pageshadow="0" inkscape:pageopacity="0" inkscape:pagecheckerboard="0" showgrid="false" inkscape:zoom="9.8089888" inkscape:cx="33.693585" inkscape:cy="34.356243" inkscape:window-width="2560" inkscape:window-height="1377" inkscape:window-x="-8" inkscape:window-y="-8" inkscape:window-maximized="1" inkscape:current-layer="svg25"/>
  <g id="P 3" transform="translate(-10.290768,-10.072377)">
    <g id="Group 33">
      <path id="Vector" d="m 77.9437,32.7505 c 1.1721,3.2036 1.8222,6.5892 1.8324,10.0039 C 79.8072,53.5737 72.3194,62.3191 64.225,68.465 56.7645,74.13 47.6881,78.5054 38.3715,77.5328 31.9515,76.8621 25.8942,73.6313 21.3212,68.9957 16.7483,64.3601 13.6131,58.3881 11.8627,52.0944 10.0939,45.7294 9.71018,38.9177 11.2662,32.5211 12.8223,26.1244 16.3881,20.174 21.5893,16.2334 c 5.2302,-3.9641 11.8389,-5.7423 18.3849,-6.0958 10.1874,-0.54904 20.763,2.3593 28.5748,9.0642 4.1808,3.5881 7.4834,8.3253 9.3947,13.5487 z" fill="#000d39"/>
      <g id="Group 32">
        <path id="Vector_2" d="m 34.5344,60.2311 -1.1867,0.7235 c -1.1375,0.6936 -2.6028,0.5129 -3.5379,-0.4362 L 27.0291,57.696 c -0.914,-0.9277 -1.0886,-2.3546 -0.4254,-3.4753 l 0.754,-1.2742 c 0.477,-0.8069 0.5489,-1.7944 0.1863,-2.6732 -0.0042,-0.0102 -0.0056,-0.0163 -0.0077,-0.027 v 0 c -0.0021,-0.0105 -0.0108,-0.0239 -0.0149,-0.0338 -0.362,-0.8648 -1.0885,-1.498 -1.9829,-1.7301 L 24.1676,48.1365 C 22.8931,47.815 22.0001,46.6686 22.0001,45.3542 V 41.323 c 0,-1.3144 0.893,-2.4607 2.1675,-2.7823 l 1.3709,-0.3459 c 0.8944,-0.222 1.6307,-0.8651 1.983,-1.73 0.004,-0.0099 0.0052,-0.0158 0.0073,-0.0264 v 0 c 0.0021,-0.0106 0.0109,-0.0243 0.015,-0.0344 0.3529,-0.8688 0.2909,-1.8563 -0.1861,-2.6733 l -0.754,-1.2741 c -0.6632,-1.1208 -0.4886,-2.5477 0.4254,-3.4754 l 2.7807,-2.8224 c 0.9351,-0.9491 2.4004,-1.1297 3.5379,-0.4362 l 1.1867,0.7235 c 0.795,0.4842 1.7677,0.5572 2.6335,0.1892 0.01,-0.0043 0.0162,-0.0057 0.0269,-0.0079 v 0 c 0.0102,-0.0022 0.0233,-0.0109 0.0329,-0.0151 0.8521,-0.3673 1.476,-1.1048 1.7046,-2.0127 l 0.3441,-1.4047 c 0.3144,-1.2839 1.4653,-2.1868 2.7871,-2.1868 h 3.8731 c 1.3218,0 2.4727,0.9029 2.7872,2.1868 l 0.344,1.4047 c 0.2186,0.9078 0.8522,1.6552 1.7042,2.0128 0.0099,0.0041 0.0158,0.0053 0.0263,0.0075 v 0 c 0.0105,0.0021 0.0238,0.011 0.0337,0.0151 0.856,0.3583 1.8288,0.2953 2.6337,-0.1889 l 1.1869,-0.7236 c 1.1376,-0.6935 2.6029,-0.5128 3.5379,0.4363 l 2.7807,2.8225 c 0.9139,0.9276 1.0886,2.3544 0.4254,3.4752 l -0.754,1.2742 c -0.477,0.8069 -0.5491,1.7944 -0.1864,2.6733 0.0041,0.0101 0.0055,0.0162 0.0076,0.0269 v 0 c 0.0021,0.0105 0.0108,0.0239 0.015,0.0338 0.3619,0.8648 1.0884,1.498 1.9828,1.7301 l 1.3709,0.3459 c 1.2745,0.3216 2.1676,1.4679 2.1676,2.7823 v 4.0312 c 0,1.3144 -0.8931,2.4608 -2.1676,2.7823 l -1.3709,0.3459 c -0.8944,0.222 -1.6307,0.8651 -1.983,1.73 -0.004,0.01 -0.0052,0.0158 -0.0073,0.0264 v 0 c -0.0021,0.0107 -0.0109,0.0243 -0.015,0.0344 -0.3529,0.8689 -0.2906,1.8563 0.1863,2.6733 l 0.754,1.2743 c 0.6632,1.1207 0.4885,2.5475 -0.4254,3.4751 l -2.4471,2.4839 c -1.0788,1.0951 -2.8289,1.1455 -3.969,0.1145 l -0.0698,-0.0632" stroke="#ffffff" stroke-width="1.91304" stroke-linecap="round" stroke-linejoin="round"/>
        <path id="Vector_3" d="m 56.4114,40.2775 c 0.4071,4.1087 -1.3292,7.8385 -4.2152,10.2422 -1.0777,0.8999 -1.7123,2.226 -1.7123,3.6232 v 2.2564 H 38.5092 v -2.2564 c 0,-1.3854 -0.5987,-2.7115 -1.6764,-3.5877 -2.6344,-2.1668 -4.311,-5.4349 -4.311,-9.0936 0,-6.986 6.1312,-12.5629 13.352,-11.7696 5.5324,0.6158 9.9987,5.1033 10.5376,10.5855 z" fill="url(#paint0_linear_834_4217)" style="fill:url(#paint0_linear_834_4217)"/>
        <path id="Vector_4" d="m 49.7391,43.9646 c -2.6304,0 -2.6304,-1.9131 -5.2609,-1.9131 -2.6304,0 -2.6304,1.9131 -5.2609,1.9131" stroke="#ffffff" stroke-width="1.91304" stroke-linecap="round" stroke-linejoin="round"/>
        <path id="Line 1" d="M 40.1739,40.9766 43.0435,55.443" stroke="#000d39" stroke-width="1.91304" stroke-linecap="round"/>
        <path id="Line 2" d="M 48.7901,40.9766 45.9131,55.443" stroke="#000d39" stroke-width="1.91304" stroke-linecap="round"/>
        <path id="Vector_5" d="m 45.3739,65.3682 h -1.8385 c -2.2816,0 -4.2612,-1.5459 -4.8145,-3.7598 l -0.2543,-1.0155 c -0.0575,-0.2302 -0.0056,-0.4747 0.1403,-0.6613 0.146,-0.1873 0.3698,-0.2963 0.6071,-0.2963 h 10.4809 c 0.2369,0 0.4611,0.109 0.607,0.2963 0.146,0.1866 0.1979,0.4303 0.1407,0.6605 l -0.2535,1.0163 c -0.5544,2.2139 -2.5344,3.7598 -4.8152,3.7598 z m -5.1729,-4.1923 0.0146,0.0587 c 0.3814,1.527 1.7464,2.593 3.3198,2.593 h 1.8385 c 1.5729,0 2.9383,-1.066 3.3204,-2.593 l 0.0143,-0.0587 z" fill="url(#paint1_linear_834_4217)" style="fill:url(#paint1_linear_834_4217)"/>
        <path id="Vector_6" d="M 49.6953,61.1758 H 39.2144 c -1.5805,0 -2.8664,-1.2863 -2.8664,-2.8668 0,-1.5805 1.2859,-2.8661 2.8664,-2.8661 h 10.4809 c 1.5805,0 2.8668,1.2856 2.8668,2.8661 0,1.5805 -1.2863,2.8668 -2.8668,2.8668 z M 39.2144,56.9835 c -0.7312,0 -1.3258,0.5943 -1.3258,1.3255 0,0.7312 0.5946,1.3262 1.3258,1.3262 h 10.4809 c 0.7312,0 1.3262,-0.595 1.3262,-1.3262 0,-0.7312 -0.595,-1.3255 -1.3262,-1.3255 z" fill="#ffffff"/>
      </g>
    </g>
  </g>
  <defs id="defs23">
    <linearGradient id="paint0_linear_834_4217" x1="80.3479" y1="61.1819" x2="44.632198" y2="77.393303" gradientUnits="userSpaceOnUse">
      <stop stop-color="#C000F2" id="stop13"/>
      <stop offset="1" stop-color="#00B09C" id="stop15"/>
    </linearGradient>
    <linearGradient id="paint1_linear_834_4217" x1="38.443699" y1="62.501701" x2="50.465401" y2="62.501701" gradientUnits="userSpaceOnUse">
      <stop stop-color="#99DFD7" id="stop18"/>
      <stop offset="1" stop-color="#BAAFFF" id="stop20"/>
    </linearGradient>
  </defs>
</svg>
