<?xml version="1.0"?>
<svg xmlns="http://www.w3.org/2000/svg" width="70" height="68" viewBox="0 0 70 68" fill="none">
<g id="Layer_1" clip-path="url(#clip0_774_7271)">
<path id="Vector" d="M68.154 22.8135C69.3348 26.0363 69.9897 29.4421 69.9999 32.8773C70.0314 43.7612 62.488 52.5588 54.3337 58.7414C46.818 64.4402 37.6743 68.8418 28.2887 67.8633C21.8212 67.1886 15.719 63.9386 11.1122 59.2752C6.50532 54.6119 3.34695 48.6043 1.58358 42.273C-0.19835 35.87 -0.584892 29.0176 0.982704 22.5828C2.55029 16.1479 6.14249 10.162 11.3822 6.19787C16.6511 2.21005 23.3088 0.421229 29.9033 0.0656103C40.1662 -0.486697 50.8202 2.43899 58.6897 9.18396C62.9015 12.7935 66.2286 17.559 68.154 22.8135Z" fill="#000D39"/>
<g id="Group 6700">
<path id="Vector_2" d="M23.048 16.9371C22.5394 16.9371 22.1279 16.5262 22.1279 16.0184V11.8366C22.1279 11.3288 22.5394 10.9178 23.048 10.9178C23.5565 10.9178 23.968 11.3288 23.968 11.8366V16.0184C23.968 16.5262 23.5565 16.9371 23.048 16.9371Z" fill="url(#paint0_linear_774_7271)"/>
<path id="Vector_3" d="M29.1466 16.9371C28.6381 16.9371 28.2266 16.5262 28.2266 16.0184V11.8366C28.2266 11.3288 28.6381 10.9178 29.1466 10.9178C29.6551 10.9178 30.0666 11.3288 30.0666 11.8366V16.0184C30.0666 16.5262 29.6551 16.9371 29.1466 16.9371Z" fill="url(#paint1_linear_774_7271)"/>
<path id="Vector_4" d="M41.3439 16.9371C40.8353 16.9371 40.4238 16.5262 40.4238 16.0184V11.8366C40.4238 11.3288 40.8353 10.9178 41.3439 10.9178C41.8524 10.9178 42.2639 11.3288 42.2639 11.8366V16.0184C42.2639 16.5262 41.8524 16.9371 41.3439 16.9371Z" fill="url(#paint2_linear_774_7271)"/>
<path id="Vector_5" d="M35.2452 16.9371C34.7367 16.9371 34.3252 16.5262 34.3252 16.0184V11.8366C34.3252 11.3288 34.7367 10.9178 35.2452 10.9178C35.7538 10.9178 36.1653 11.3288 36.1653 11.8366V16.0184C36.1653 16.5262 35.7538 16.9371 35.2452 16.9371Z" fill="url(#paint3_linear_774_7271)"/>
<path id="Vector_6" d="M23.048 55.2452C22.5394 55.2452 22.1279 54.8343 22.1279 54.3265V50.1438C22.1279 49.636 22.5394 49.2251 23.048 49.2251C23.5565 49.2251 23.968 49.636 23.968 50.1438V54.3265C23.968 54.8343 23.5565 55.2452 23.048 55.2452Z" fill="url(#paint4_linear_774_7271)"/>
<path id="Vector_7" d="M29.1466 55.2452C28.6381 55.2452 28.2266 54.8343 28.2266 54.3265V50.1438C28.2266 49.636 28.6381 49.2251 29.1466 49.2251C29.6551 49.2251 30.0666 49.636 30.0666 50.1438V54.3265C30.0666 54.8343 29.6551 55.2452 29.1466 55.2452Z" fill="url(#paint5_linear_774_7271)"/>
<path id="Vector_8" d="M41.3439 55.2452C40.8353 55.2452 40.4238 54.8343 40.4238 54.3265V50.1438C40.4238 49.636 40.8353 49.2251 41.3439 49.2251C41.8524 49.2251 42.2639 49.636 42.2639 50.1438V54.3265C42.2639 54.8343 41.8524 55.2452 41.3439 55.2452Z" fill="url(#paint6_linear_774_7271)"/>
<path id="Vector_9" d="M35.2452 55.2452C34.7367 55.2452 34.3252 54.8343 34.3252 54.3265V50.1438C34.3252 49.636 34.7367 49.2251 35.2452 49.2251C35.7538 49.2251 36.1653 49.636 36.1653 50.1438V54.3265C36.1653 54.8343 35.7538 55.2452 35.2452 55.2452Z" fill="url(#paint7_linear_774_7271)"/>
<path id="Vector_10" d="M53.472 24.8646H49.2833C48.7748 24.8646 48.3633 24.4537 48.3633 23.9459C48.3633 23.4381 48.7748 23.0272 49.2833 23.0272H53.472C53.9805 23.0272 54.392 23.4381 54.392 23.9459C54.392 24.4537 53.9805 24.8646 53.472 24.8646Z" fill="url(#paint8_linear_774_7271)"/>
<path id="Vector_11" d="M53.472 30.9548H49.2833C48.7748 30.9548 48.3633 30.5438 48.3633 30.036C48.3633 29.5282 48.7748 29.1173 49.2833 29.1173H53.472C53.9805 29.1173 54.392 29.5282 54.392 30.036C54.392 30.5438 53.9805 30.9548 53.472 30.9548Z" fill="url(#paint9_linear_774_7271)"/>
<path id="Vector_12" d="M53.472 43.135H49.2833C48.7748 43.135 48.3633 42.7241 48.3633 42.2163C48.3633 41.7085 48.7748 41.2975 49.2833 41.2975H53.472C53.9805 41.2975 54.392 41.7085 54.392 42.2163C54.392 42.7241 53.9805 43.135 53.472 43.135Z" fill="url(#paint10_linear_774_7271)"/>
<path id="Vector_13" d="M53.472 37.0448H49.2833C48.7748 37.0448 48.3633 36.6339 48.3633 36.1261C48.3633 35.6183 48.7748 35.2074 49.2833 35.2074H53.472C53.9805 35.2074 54.392 35.6183 54.392 36.1261C54.392 36.6339 53.9805 37.0448 53.472 37.0448Z" fill="url(#paint11_linear_774_7271)"/>
<path id="Vector_14" d="M15.1087 24.8646H10.92C10.4115 24.8646 10 24.4537 10 23.9459C10 23.4381 10.4115 23.0272 10.92 23.0272H15.1087C15.6172 23.0272 16.0287 23.4381 16.0287 23.9459C16.0287 24.4537 15.6172 24.8646 15.1087 24.8646Z" fill="url(#paint12_linear_774_7271)"/>
<path id="Vector_15" d="M15.1087 30.9548H10.92C10.4115 30.9548 10 30.5438 10 30.036C10 29.5282 10.4115 29.1173 10.92 29.1173H15.1087C15.6172 29.1173 16.0287 29.5282 16.0287 30.036C16.0287 30.5438 15.6172 30.9548 15.1087 30.9548Z" fill="url(#paint13_linear_774_7271)"/>
<path id="Vector_16" d="M15.1087 43.135H10.92C10.4115 43.135 10 42.7241 10 42.2163C10 41.7085 10.4115 41.2975 10.92 41.2975H15.1087C15.6172 41.2975 16.0287 41.7085 16.0287 42.2163C16.0287 42.7241 15.6172 43.135 15.1087 43.135Z" fill="url(#paint14_linear_774_7271)"/>
<path id="Vector_17" d="M15.1087 37.0448H10.92C10.4115 37.0448 10 36.6339 10 36.1261C10 35.6183 10.4115 35.2074 10.92 35.2074H15.1087C15.6172 35.2074 16.0287 35.6183 16.0287 36.1261C16.0287 36.6339 15.6172 37.0448 15.1087 37.0448Z" fill="url(#paint15_linear_774_7271)"/>
<path id="Vector_18" d="M39.9001 26.5658H32.6827L32.5264 25.9144C32.4267 25.5017 32.0574 25.2101 31.6315 25.2101H28.1383C27.7133 25.2101 27.3431 25.5017 27.2434 25.9144L27.0871 26.5658H24.4923C23.9838 26.5658 23.5723 26.9767 23.5723 27.4845V38.7873C23.5723 39.2951 23.9838 39.706 24.4923 39.706H39.9001C40.4087 39.706 40.8202 39.2951 40.8202 38.7873V27.4845C40.8202 26.9767 40.4087 26.5658 39.9001 26.5658Z" fill="url(#paint16_linear_774_7271)"/>
<path id="Vector_19" d="M43.1965 51.0625H21.1966C20.4599 51.0625 19.7662 50.7754 19.2451 50.2551L14.9981 46.014C14.477 45.4937 14.1895 44.801 14.1895 44.0653V22.0968C14.1895 21.3611 14.477 20.6685 14.9981 20.1481L19.2451 15.9071C19.7663 15.3867 20.4599 15.0996 21.1966 15.0996H43.1965C43.9332 15.0996 44.6269 15.3867 45.148 15.9071L49.395 20.1481C49.9161 20.6685 50.2037 21.3611 50.2037 22.0968V44.0653C50.2037 44.801 49.9161 45.4937 49.395 46.014L45.148 50.2551C44.6269 50.7754 43.9332 51.0625 43.1965 51.0625ZM21.1966 16.9371C20.9549 16.9371 20.7177 17.0349 20.5461 17.2062L16.2991 21.4472C16.1275 21.6186 16.0295 21.8554 16.0295 22.0968V44.0653C16.0295 44.3067 16.1275 44.5436 16.2991 44.7149L20.5461 48.9559C20.7177 49.1273 20.9549 49.2251 21.1966 49.2251H43.1965C43.4382 49.2251 43.6754 49.1273 43.847 48.9559L48.094 44.7149C48.2657 44.5436 48.3636 44.3067 48.3636 44.0653V22.0968C48.3636 21.8554 48.2657 21.6186 48.094 21.4472L43.847 17.2062C43.6754 17.0349 43.4382 16.9371 43.1965 16.9371H21.1966Z" fill="white"/>
</g>
</g>
<defs>
<linearGradient id="paint0_linear_774_7271" x1="22.1279" y1="13.9275" x2="23.968" y2="13.9275" gradientUnits="userSpaceOnUse">
<stop stop-color="#99DFD7"/>
<stop offset="1" stop-color="#BAAFFF"/>
</linearGradient>
<linearGradient id="paint1_linear_774_7271" x1="28.2266" y1="1.22964e-05" x2="30.0666" y2="1.22964e-05" gradientUnits="userSpaceOnUse">
<stop stop-color="#99DFD7"/>
<stop offset="1" stop-color="#BAAFFF"/>
</linearGradient>
<linearGradient id="paint2_linear_774_7271" x1="40.4238" y1="1.22964e-05" x2="42.2639" y2="1.22964e-05" gradientUnits="userSpaceOnUse">
<stop stop-color="#99DFD7"/>
<stop offset="1" stop-color="#BAAFFF"/>
</linearGradient>
<linearGradient id="paint3_linear_774_7271" x1="34.3252" y1="1.22964e-05" x2="36.1653" y2="1.22964e-05" gradientUnits="userSpaceOnUse">
<stop stop-color="#99DFD7"/>
<stop offset="1" stop-color="#BAAFFF"/>
</linearGradient>
<linearGradient id="paint4_linear_774_7271" x1="-1.88375" y1="52.2352" x2="-0.963719" y2="52.2352" gradientUnits="userSpaceOnUse">
<stop stop-color="#99DFD7"/>
<stop offset="1" stop-color="#BAAFFF"/>
</linearGradient>
<linearGradient id="paint5_linear_774_7271" x1="28.2266" y1="52.2352" x2="30.0666" y2="52.2352" gradientUnits="userSpaceOnUse">
<stop stop-color="#99DFD7"/>
<stop offset="1" stop-color="#BAAFFF"/>
</linearGradient>
<linearGradient id="paint6_linear_774_7271" x1="40.4238" y1="52.2352" x2="42.2639" y2="52.2352" gradientUnits="userSpaceOnUse">
<stop stop-color="#99DFD7"/>
<stop offset="1" stop-color="#BAAFFF"/>
</linearGradient>
<linearGradient id="paint7_linear_774_7271" x1="34.3252" y1="52.2352" x2="36.1653" y2="52.2352" gradientUnits="userSpaceOnUse">
<stop stop-color="#99DFD7"/>
<stop offset="1" stop-color="#BAAFFF"/>
</linearGradient>
<linearGradient id="paint8_linear_774_7271" x1="48.3633" y1="23.9459" x2="54.392" y2="23.9459" gradientUnits="userSpaceOnUse">
<stop stop-color="#99DFD7"/>
<stop offset="1" stop-color="#BAAFFF"/>
</linearGradient>
<linearGradient id="paint9_linear_774_7271" x1="48.3633" y1="30.036" x2="54.392" y2="30.036" gradientUnits="userSpaceOnUse">
<stop stop-color="#99DFD7"/>
<stop offset="1" stop-color="#BAAFFF"/>
</linearGradient>
<linearGradient id="paint10_linear_774_7271" x1="48.3633" y1="42.2163" x2="54.392" y2="42.2163" gradientUnits="userSpaceOnUse">
<stop stop-color="#99DFD7"/>
<stop offset="1" stop-color="#BAAFFF"/>
</linearGradient>
<linearGradient id="paint11_linear_774_7271" x1="48.3633" y1="36.1261" x2="54.392" y2="36.1261" gradientUnits="userSpaceOnUse">
<stop stop-color="#99DFD7"/>
<stop offset="1" stop-color="#BAAFFF"/>
</linearGradient>
<linearGradient id="paint12_linear_774_7271" x1="10" y1="23.9459" x2="16.0287" y2="23.9459" gradientUnits="userSpaceOnUse">
<stop stop-color="#99DFD7"/>
<stop offset="1" stop-color="#BAAFFF"/>
</linearGradient>
<linearGradient id="paint13_linear_774_7271" x1="10" y1="30.036" x2="16.0287" y2="30.036" gradientUnits="userSpaceOnUse">
<stop stop-color="#99DFD7"/>
<stop offset="1" stop-color="#BAAFFF"/>
</linearGradient>
<linearGradient id="paint14_linear_774_7271" x1="10" y1="42.2163" x2="16.0287" y2="42.2163" gradientUnits="userSpaceOnUse">
<stop stop-color="#99DFD7"/>
<stop offset="1" stop-color="#BAAFFF"/>
</linearGradient>
<linearGradient id="paint15_linear_774_7271" x1="10" y1="36.1261" x2="16.0287" y2="36.1261" gradientUnits="userSpaceOnUse">
<stop stop-color="#99DFD7"/>
<stop offset="1" stop-color="#BAAFFF"/>
</linearGradient>
<linearGradient id="paint16_linear_774_7271" x1="61.5981" y1="40.4237" x2="42.9085" y2="56.0363" gradientUnits="userSpaceOnUse">
<stop stop-color="#C000F2"/>
<stop offset="1" stop-color="#00B09C"/>
</linearGradient>
<clipPath id="clip0_774_7271">
<rect width="70" height="68" fill="white"/>
</clipPath>
</defs>
</svg>
