<?xml version="1.0" encoding="UTF-8" standalone="no"?>
<svg xmlns:inkscape="http://www.inkscape.org/namespaces/inkscape" xmlns:sodipodi="http://sodipodi.sourceforge.net/DTD/sodipodi-0.dtd" xmlns="http://www.w3.org/2000/svg" xmlns:svg="http://www.w3.org/2000/svg" width="69.48539" height="67.596306" viewBox="0 0 69.48539 67.596306" fill="none" version="1.1" id="svg23" sodipodi:docname="icon-consulting.svg" inkscape:version="1.1.2 (b8e25be833, 2022-02-05)">
  <sodipodi:namedview id="namedview25" pagecolor="#505050" bordercolor="#eeeeee" borderopacity="1" inkscape:pageshadow="0" inkscape:pageopacity="0" inkscape:pagecheckerboard="0" showgrid="false" inkscape:zoom="9.8089888" inkscape:cx="33.693585" inkscape:cy="34.356243" inkscape:window-width="2560" inkscape:window-height="1377" inkscape:window-x="-8" inkscape:window-y="-8" inkscape:window-maximized="1" inkscape:current-layer="svg23"/>
  <g id="P 1" transform="translate(-10.290708,-10.072377)">
    <g id="Group 35">
      <g id="Group 31">
        <path id="Vector" d="m 77.9436,32.7505 c 1.1722,3.2036 1.8222,6.5892 1.8324,10.0039 C 79.8071,53.5737 72.3193,62.3191 64.2249,68.465 56.7645,74.13 47.688,78.5054 38.3715,77.5328 31.9514,76.8621 25.8942,73.6313 21.3212,68.9957 16.7482,64.3601 13.6131,58.3881 11.8626,52.0944 10.0938,45.7294 9.71013,38.9177 11.2662,32.5211 12.8222,26.1244 16.388,20.174 21.5893,16.2334 c 5.2301,-3.9641 11.8388,-5.7423 18.3848,-6.0958 10.1875,-0.54904 20.7631,2.3593 28.5748,9.0642 4.1808,3.5881 7.4834,8.3253 9.3947,13.5487 z" fill="#000d39"/>
        <g id="Group 30">
          <path id="Vector_2" d="M 46.2886,33.5 C 45.2501,33.1751 44.1455,33 43,33 c -6.0751,0 -11,4.9249 -11,11 0,6.0751 4.9249,11 11,11 6.0751,0 11,-4.9249 11,-11 0,-1.3518 -0.2438,-2.6466 -0.6899,-3.8429" stroke="url(#paint0_linear_834_4215)" stroke-width="1.82585" stroke-linecap="round" stroke-linejoin="round" style="stroke:url(#paint0_linear_834_4215)"/>
          <path id="Vector_3" d="m 57.2883,36.5718 c -0.0548,0.4473 -10e-5,0.9038 0.1825,1.3237 0,0 0,0.0183 0.0092,0.0274 0.3104,0.7486 0.9495,1.3055 1.7346,1.4972 l 3.0856,0.7669 v 7.3033 l -3.0856,0.7669 c -0.7851,0.1917 -1.4242,0.7486 -1.7346,1.4972 0,0 0,0.0183 -0.0092,0.0274 -0.3195,0.7486 -0.2554,1.6067 0.1645,2.3097 l 1.634,2.7205 -5.1671,5.1672 -2.7205,-1.6342 c -0.703,-0.4199 -1.552,-0.4747 -2.3097,-0.1643 0,0 -0.0183,0 -0.0275,0.0091 -0.7486,0.3104 -1.3053,0.9495 -1.4971,1.7346 l -0.7669,3.0857 h -7.3034 l -0.7669,-3.0857 c -0.1917,-0.7851 -0.7485,-1.4242 -1.4971,-1.7346 0,0 -0.0183,0 -0.0274,-0.0091 -0.7486,-0.3195 -1.6068,-0.2556 -2.3098,0.1643 l -2.7205,1.6342 -5.167,-5.1672 1.6341,-2.7205 c 0.42,-0.703 0.4747,-1.552 0.1643,-2.3097 0,0 0,-0.0183 -0.0091,-0.0274 -0.3104,-0.7486 -0.9494,-1.3055 -1.7345,-1.4972 L 23.9574,47.4903 V 40.187 l 3.0858,-0.7669 c 0.7851,-0.1917 1.4241,-0.7486 1.7345,-1.4972 0,0 0,-0.0183 0.0091,-0.0274 0.3195,-0.7486 0.2557,-1.6067 -0.1643,-2.3097 l -1.6341,-2.7205 5.167,-5.1672 2.7205,1.6342 c 0.703,0.4199 1.552,0.4747 2.3098,0.1643 0,0 0.0183,0 0.0274,-0.0091 0.7486,-0.3104 1.3054,-0.9495 1.4971,-1.7346 l 0.7669,-3.0857 h 7.3034 l 0.7669,3.0857 c 0.1918,0.7851 0.7485,1.4242 1.4971,1.7346 0,0 0.0183,0 0.0275,0.0091 0.4564,0.1917 0.9586,0.2465 1.4333,0.1643" stroke="#ffffff" stroke-width="1.82585" stroke-linecap="round" stroke-linejoin="round"/>
          <path id="Vector_4" d="m 48.4047,42.4238 9.7134,-9.7135 c 1.8168,0.493 3.8526,0.0274 5.2768,-1.4059 1.6889,-1.6889 2.0451,-4.1994 1.0682,-6.2261 l -3.6517,3.6517 -1.9355,-0.6482 -0.6481,-1.9354 3.6517,-3.6517 c -2.0267,-0.9768 -4.5464,-0.6208 -6.2262,1.0681 -1.4333,1.4333 -1.8989,3.46 -1.406,5.2767 l -9.7134,9.7135 c -1.8258,-0.4838 -3.8526,-0.0182 -5.2858,1.4151 -2.1363,2.1362 -2.1363,5.6053 0,7.7507 2.1362,2.1362 5.6053,2.1362 7.7507,0 1.4333,-1.4333 1.8989,-3.46 1.4151,-5.2858 z" fill="url(#paint1_linear_834_4215)" style="fill:url(#paint1_linear_834_4215)"/>
          <path id="Vector_5" d="m 43.8313,46.4864 1.9355,-1.9446 -0.7121,-2.6383 -2.6385,-0.7121 -1.9352,1.9354 0.7029,2.6475 z" fill="#000d39"/>
        </g>
      </g>
    </g>
  </g>
  <defs id="defs21">
    <linearGradient id="paint0_linear_834_4215" x1="32" y1="44" x2="54" y2="44" gradientUnits="userSpaceOnUse">
      <stop stop-color="#99DFD7" id="stop11"/>
      <stop offset="1" stop-color="#BAAFFF" id="stop13"/>
    </linearGradient>
    <linearGradient id="paint1_linear_834_4215" x1="88.5" y1="33" x2="30.5" y2="34" gradientUnits="userSpaceOnUse">
      <stop stop-color="#C000F2" id="stop16"/>
      <stop offset="1" stop-color="#00B09C" id="stop18"/>
    </linearGradient>
  </defs>
</svg>
