<?xml version="1.0"?>
<svg xmlns="http://www.w3.org/2000/svg" width="70" height="68" viewBox="0 0 70 68" fill="none">
<g id="Layer_1" clip-path="url(#clip0_774_7248)">
<path id="Vector" d="M68.154 22.8135C69.3348 26.0363 69.9897 29.4421 69.9999 32.8773C70.0314 43.7612 62.488 52.5588 54.3337 58.7414C46.818 64.4402 37.6743 68.8418 28.2887 67.8633C21.8212 67.1886 15.719 63.9386 11.1122 59.2752C6.50532 54.6119 3.34695 48.6043 1.58358 42.273C-0.19835 35.87 -0.584892 29.0176 0.982704 22.5828C2.55029 16.1479 6.14249 10.162 11.3822 6.19787C16.6511 2.21005 23.3088 0.421229 29.9033 0.0656103C40.1662 -0.486697 50.8202 2.43899 58.6897 9.18396C62.9015 12.7935 66.2286 17.559 68.154 22.8135Z" fill="#000D39"/>
<path id="Vector_2" d="M49.8029 53.2678H20.1966C18.6746 53.2678 17.4365 52.0315 17.4365 50.5117V12.0151C17.4365 10.4953 18.6746 9.25897 20.1966 9.25897H40.9489C41.6861 9.25897 42.3793 9.54607 42.9004 10.0664L51.7544 18.9082C52.2755 19.4277 52.563 20.1203 52.563 20.8569V50.5117C52.563 52.0315 51.3249 53.2678 49.8029 53.2678ZM20.1966 11.0964C19.6894 11.0964 19.2766 11.5082 19.2766 12.0151V50.5117C19.2766 51.0186 19.6894 51.4304 20.1966 51.4304H49.8029C50.3101 51.4304 50.7229 51.0186 50.7229 50.5117V20.8569C50.7229 20.6111 50.6272 20.3814 50.4538 20.2083L41.5994 11.3656C41.4278 11.1942 41.1911 11.0964 40.9489 11.0964H20.1966Z" fill="white"/>
<path id="Vector_3" d="M40.3456 10.0628C40.4089 10.0628 40.4735 10.0863 40.5259 10.1387L51.6831 21.28C51.8454 21.442 51.7304 21.7191 51.5009 21.7191H41.9262C40.91 21.7191 40.0862 20.8965 40.0862 19.8817V10.3206C40.0862 10.1655 40.2132 10.0628 40.3456 10.0628ZM40.3456 8.2254C39.1879 8.2254 38.2461 9.16532 38.2461 10.3206V19.8817C38.2461 21.908 39.897 23.5566 41.9262 23.5566H51.5009C52.3524 23.5566 53.1131 23.049 53.4389 22.2635C53.7648 21.478 53.5863 20.5819 52.9842 19.9807L41.8271 8.83945C41.4305 8.44348 40.9044 8.2254 40.3456 8.2254Z" fill="#000D39"/>
<g id="Group 6697">
<path id="Vector_4" d="M36.8748 25.1733H25.2491C24.741 25.1733 24.3291 24.7624 24.3291 24.2546C24.3291 23.7468 24.741 23.3359 25.2491 23.3359H36.8748C37.3829 23.3359 37.7948 23.7468 37.7948 24.2546C37.7948 24.7624 37.3829 25.1733 36.8748 25.1733Z" fill="url(#paint0_linear_774_7248)"/>
<path id="Vector_5" d="M36.8748 38.5863H25.2491C24.741 38.5863 24.3291 38.1754 24.3291 37.6676C24.3291 37.1598 24.741 36.7488 25.2491 36.7488H36.8748C37.3829 36.7488 37.7948 37.1598 37.7948 37.6676C37.7948 38.1754 37.3829 38.5863 36.8748 38.5863Z" fill="url(#paint1_linear_774_7248)"/>
<path id="Vector_6" d="M35.8384 44.8531H25.2491C24.741 44.8531 24.3291 44.4422 24.3291 43.9344C24.3291 43.4266 24.741 43.0157 25.2491 43.0157H35.8384C36.3465 43.0157 36.7584 43.4266 36.7584 43.9344C36.7584 44.4422 36.3465 44.8531 35.8384 44.8531Z" fill="url(#paint2_linear_774_7248)"/>
<path id="Vector_7" d="M29.5253 31.7326H25.2491C24.741 31.7326 24.3291 31.3217 24.3291 30.8139C24.3291 30.3061 24.741 29.8952 25.2491 29.8952H29.5253C30.0334 29.8952 30.4454 30.3061 30.4454 30.8139C30.4454 31.3217 30.0334 31.7326 29.5253 31.7326Z" fill="url(#paint3_linear_774_7248)"/>
<path id="Vector_8" d="M42.9562 31.7326H32.9737C32.4657 31.7326 32.0537 31.3217 32.0537 30.8139C32.0537 30.3061 32.4657 29.8952 32.9737 29.8952H42.9562C43.4643 29.8952 43.8762 30.3061 43.8762 30.8139C43.8762 31.3217 43.4643 31.7326 42.9562 31.7326Z" fill="url(#paint4_linear_774_7248)"/>
<path id="Vector_9" d="M41.9251 22.6379C40.4031 22.6379 39.165 21.4016 39.165 19.8817V10.3204C39.165 9.67171 39.6942 9.14417 40.3443 9.14417C40.6578 9.14417 40.9534 9.26708 41.1763 9.49048L52.3325 20.63C52.6708 20.9691 52.7705 21.4715 52.5873 21.9129C52.4044 22.3535 51.9772 22.6379 51.4997 22.6379L41.9251 22.6379Z" fill="url(#paint5_linear_774_7248)"/>
<path id="Vector_10" d="M42.9567 44.8531H38.8175C38.3094 44.8531 37.8975 44.4422 37.8975 43.9344C37.8975 43.4266 38.3094 43.0157 38.8175 43.0157H42.9567C43.4648 43.0157 43.8768 43.4266 43.8768 43.9344C43.8768 44.4422 43.4648 44.8531 42.9567 44.8531Z" fill="url(#paint6_linear_774_7248)"/>
</g>
</g>
<defs>
<linearGradient id="paint0_linear_774_7248" x1="24.3291" y1="24.2546" x2="37.7948" y2="24.2546" gradientUnits="userSpaceOnUse">
<stop stop-color="#99DFD7"/>
<stop offset="1" stop-color="#BAAFFF"/>
</linearGradient>
<linearGradient id="paint1_linear_774_7248" x1="24.3291" y1="37.6676" x2="37.7948" y2="37.6676" gradientUnits="userSpaceOnUse">
<stop stop-color="#99DFD7"/>
<stop offset="1" stop-color="#BAAFFF"/>
</linearGradient>
<linearGradient id="paint2_linear_774_7248" x1="24.3291" y1="43.9344" x2="36.7584" y2="43.9344" gradientUnits="userSpaceOnUse">
<stop stop-color="#99DFD7"/>
<stop offset="1" stop-color="#BAAFFF"/>
</linearGradient>
<linearGradient id="paint3_linear_774_7248" x1="24.3291" y1="30.8139" x2="30.4454" y2="30.8139" gradientUnits="userSpaceOnUse">
<stop stop-color="#99DFD7"/>
<stop offset="1" stop-color="#BAAFFF"/>
</linearGradient>
<linearGradient id="paint4_linear_774_7248" x1="32.0537" y1="30.8139" x2="43.8762" y2="30.8139" gradientUnits="userSpaceOnUse">
<stop stop-color="#99DFD7"/>
<stop offset="1" stop-color="#BAAFFF"/>
</linearGradient>
<linearGradient id="paint5_linear_774_7248" x1="115.003" y1="27.1023" x2="87.9915" y2="63.5615" gradientUnits="userSpaceOnUse">
<stop stop-color="#C000F2"/>
<stop offset="0.66634" stop-color="#A66EFC"/>
<stop offset="0.87844" stop-color="#00B09C"/>
</linearGradient>
<linearGradient id="paint6_linear_774_7248" x1="37.8975" y1="43.9344" x2="43.8768" y2="43.9344" gradientUnits="userSpaceOnUse">
<stop stop-color="#99DFD7"/>
<stop offset="1" stop-color="#BAAFFF"/>
</linearGradient>
<clipPath id="clip0_774_7248">
<rect width="70" height="68" fill="white"/>
</clipPath>
</defs>
</svg>
