<svg xmlns="http://www.w3.org/2000/svg" version="1.1" xmlns:xlink="http://www.w3.org/1999/xlink" xmlns:svgjs="http://svgjs.dev/svgjs" width="1440" height="560" preserveAspectRatio="none" viewBox="0 0 1440 560"><g mask="url(&quot;#SvgjsMask1081&quot;)" fill="none"><rect width="1440" height="560" x="0" y="0" fill="url(&quot;#SvgjsLinearGradient1082&quot;)"></rect><path d="M59.92 8.36 a166.82 166.82 0 1 0 333.64 0 a166.82 166.82 0 1 0 -333.64 0z" fill="rgba(0, 176, 156, 0.4)" class="triangle-float3"></path><path d="M1134.097,401.886C1162.351,400.186,1189.027,388.96,1204.27,365.11C1220.834,339.193,1227.399,306.241,1212.381,279.399C1197.069,252.03,1165.456,239.315,1134.097,239.688C1103.43,240.052,1075.53,255.408,1058.971,281.222C1040.837,309.492,1029.843,346.026,1047.594,374.538C1064.725,402.053,1101.744,403.833,1134.097,401.886" fill="rgba(0, 176, 156, 0.4)" class="triangle-float1"></path><path d="M596.385,566.704C645.402,569.776,698.656,561.021,725.681,520.012C755.007,475.512,752.416,416.815,725.462,370.84C698.811,325.381,649.044,297.532,596.385,299.471C546.716,301.299,505.184,335.406,482.781,379.774C462.493,419.954,469.032,466.929,492.408,505.394C514.804,542.246,553.345,564.007,596.385,566.704" fill="rgba(0, 176, 156, 0.4)" class="triangle-float3"></path><path d="M1347.362,408.587C1378.225,407.442,1408.704,395.852,1424.312,369.202C1440.073,342.292,1437.095,308.977,1421.525,281.956C1405.93,254.891,1378.594,236.184,1347.362,235.654C1315.219,235.109,1285.779,252.122,1268.708,279.363C1250.43,308.53,1241.951,345.898,1259.847,375.301C1277.239,403.875,1313.934,409.827,1347.362,408.587" fill="rgba(0, 176, 156, 0.4)" class="triangle-float3"></path><path d="M-86.57 440.47 a106.26 106.26 0 1 0 212.52 0 a106.26 106.26 0 1 0 -212.52 0z" fill="rgba(0, 176, 156, 0.4)" class="triangle-float3"></path><path d="M584.64,208.98C625.462,209.539,664.167,187.715,683.579,151.799C702.154,117.431,694.675,76.249,674.44,42.831C655.009,10.739,622.156,-11.481,584.64,-11.603C546.919,-11.726,512.913,9.71,493.819,42.241C474.475,75.199,472.008,115.591,490.288,149.151C509.381,184.204,544.729,208.433,584.64,208.98" fill="rgba(0, 176, 156, 0.4)" class="triangle-float2"></path></g><defs><mask id="SvgjsMask1081"><rect width="1440" height="560" fill="#ffffff"></rect></mask><linearGradient x1="0%" y1="50%" x2="100%" y2="50%" gradientUnits="userSpaceOnUse" id="SvgjsLinearGradient1082"><stop stop-color="#0e2a47" offset="0"></stop><stop stop-color="rgba(0, 219, 249, 1)" offset="1"></stop></linearGradient><style>
                @keyframes float1 {
                    0%{transform: translate(0, 0)}
                    50%{transform: translate(-10px, 0)}
                    100%{transform: translate(0, 0)}
                }

                .triangle-float1 {
                    animation: float1 5s infinite;
                }

                @keyframes float2 {
                    0%{transform: translate(0, 0)}
                    50%{transform: translate(-5px, -5px)}
                    100%{transform: translate(0, 0)}
                }

                .triangle-float2 {
                    animation: float2 4s infinite;
                }

                @keyframes float3 {
                    0%{transform: translate(0, 0)}
                    50%{transform: translate(0, -10px)}
                    100%{transform: translate(0, 0)}
                }

                .triangle-float3 {
                    animation: float3 6s infinite;
                }
            </style></defs></svg>