<svg xmlns="http://www.w3.org/2000/svg" version="1.1" xmlns:xlink="http://www.w3.org/1999/xlink" xmlns:svgjs="http://svgjs.dev/svgjs" width="1440" height="250" preserveAspectRatio="none" viewBox="0 0 1440 250"><g mask="url(&quot;#SvgjsMask1027&quot;)" fill="none"><rect width="1440" height="250" x="0" y="0" fill="url(&quot;#SvgjsLinearGradient1028&quot;)"></rect><path d="M39 250L289 0L383.5 0L133.5 250z" fill="url(&quot;#SvgjsLinearGradient1029&quot;)"></path><path d="M277.6 250L527.6 0L574.1 0L324.1 250z" fill="url(&quot;#SvgjsLinearGradient1029&quot;)"></path><path d="M476.20000000000005 250L726.2 0L852.2 0L602.2 250z" fill="url(&quot;#SvgjsLinearGradient1029&quot;)"></path><path d="M736.8000000000001 250L986.8000000000001 0L1316.8000000000002 0L1066.8000000000002 250z" fill="url(&quot;#SvgjsLinearGradient1029&quot;)"></path><path d="M1409 250L1159 0L1094.5 0L1344.5 250z" fill="url(&quot;#SvgjsLinearGradient1030&quot;)"></path><path d="M1174.4 250L924.4000000000001 0L825.4000000000001 0L1075.4 250z" fill="url(&quot;#SvgjsLinearGradient1030&quot;)"></path><path d="M929.8 250L679.8 0L525.3 0L775.3 250z" fill="url(&quot;#SvgjsLinearGradient1030&quot;)"></path><path d="M709.1999999999999 250L459.19999999999993 0L249.19999999999993 0L499.19999999999993 250z" fill="url(&quot;#SvgjsLinearGradient1030&quot;)"></path><path d="M1283.5589882541901 250L1440 93.55898825419018L1440 250z" fill="url(&quot;#SvgjsLinearGradient1029&quot;)"></path><path d="M0 250L156.44101174580982 250L 0 93.55898825419018z" fill="url(&quot;#SvgjsLinearGradient1030&quot;)"></path></g><defs><mask id="SvgjsMask1027"><rect width="1440" height="250" fill="#ffffff"></rect></mask><linearGradient x1="50%" y1="100%" x2="50%" y2="0%" gradientUnits="userSpaceOnUse" id="SvgjsLinearGradient1028"><stop stop-color="#0e2a47" offset="0"></stop><stop stop-color="#00459e" offset="1"></stop></linearGradient><linearGradient x1="0%" y1="100%" x2="100%" y2="0%" id="SvgjsLinearGradient1029"><stop stop-color="rgba(15, 70, 185, 0.2)" offset="0"></stop><stop stop-opacity="0" stop-color="rgba(15, 70, 185, 0.2)" offset="0.66"></stop></linearGradient><linearGradient x1="100%" y1="100%" x2="0%" y2="0%" id="SvgjsLinearGradient1030"><stop stop-color="rgba(15, 70, 185, 0.2)" offset="0"></stop><stop stop-opacity="0" stop-color="rgba(15, 70, 185, 0.2)" offset="0.66"></stop></linearGradient></defs></svg>