<?xml version="1.0" encoding="utf-8" standalone="yes"?>
<!DOCTYPE svg PUBLIC "-//W3C//DTD SVG 1.1//EN" "http://www.w3.org/Graphics/SVG/1.1/DTD/svg11.dtd">
<svg width="314" height="674" viewBox="0 0 314 674" style="fill:none;stroke:none;fill-rule:evenodd;clip-rule:evenodd;stroke-linecap:round;stroke-linejoin:round;stroke-miterlimit:1.5;" version="1.1" xmlns="http://www.w3.org/2000/svg" xmlns:xlink="http://www.w3.org/1999/xlink"><style id="fontImports">@import url("https://fonts.googleapis.com/css2?family=Roboto:wght@400;700&amp;display=block");</style><rect id="" x="0" y="0" width="313.076" height="673.262" style="fill: #ffffff;"></rect><g id="items" style="isolation: isolate"><g id="blend" style="mix-blend-mode:normal"><g id="g-root-0.cr-0_cr_v6q3o61s58avj-fill" data-item-order="999841095" data-item-id="0.cr-0_cr_v6q3o61s58avj" data-item-class="Shape Stroke Fill Part Indexed_0 ColorFillBlack" data-item-index="0" data-renderer-id="0" transform="translate(13.15966796875, 3)"><g id="0.cr-0_cr_v6q3o61s58avj-fill" stroke="none" fill="#666666"><g><path d="M 9.997881 65.8C 9.997884 96.617491 34.980394 121.600001 65.797883 121.600001C 96.615371 121.600001 121.597882 96.617491 121.597882 65.800002C 121.597882 34.982513 96.615371 10.000003 65.797883 10.000003C 34.980394 10.000003 9.997884 34.982513 9.997884 65.800002"></path></g></g></g><g id="g-root-1.cr-1_cr_qrj2mu1s588i0-fill" data-item-order="999841099" data-item-id="1.cr-1_cr_qrj2mu1s588i0" data-item-class="Shape Stroke Fill Part Indexed Indexed_1" data-item-index="1" data-renderer-id="0" transform="translate(13.159698486328125, 136.91632080078125)"><g id="1.cr-1_cr_qrj2mu1s588i0-fill" stroke="none" fill="#dd8433"><g><path d="M 9.997896 65.794753C 9.997899 96.612243 34.980409 121.594754 65.797898 121.594754C 96.615387 121.594754 121.597897 96.612243 121.597897 65.794754C 121.597897 34.977266 96.615387 9.994755 65.797898 9.994755C 34.980409 9.994755 9.997899 34.977266 9.997899 65.794754"></path></g></g></g><g id="g-root-2.cr-2_cr_mbpkie1s589a9-fill" data-item-order="999841103" data-item-id="2.cr-2_cr_mbpkie1s589a9" data-item-class="Shape Stroke Fill Part Indexed" data-item-index="2" data-renderer-id="0" transform="translate(13.15966796875, 270.83270263671875)"><g id="2.cr-2_cr_mbpkie1s589a9-fill" stroke="none" fill="#da5da8"><g><path d="M 9.997881 65.799492C 9.997884 96.61698 34.980394 121.599491 65.797883 121.599491C 96.615371 121.599491 121.597882 96.61698 121.597882 65.799491C 121.597882 34.982003 96.615371 9.999492 65.797883 9.999492C 34.980394 9.999492 9.997884 34.982003 9.997884 65.799491"></path></g></g></g><g id="g-root-3.cr-3_cr_dg2k9i1s58a2y-fill" data-item-order="999841107" data-item-id="3.cr-3_cr_dg2k9i1s58a2y" data-item-class="Shape Stroke Fill Part Indexed" data-item-index="3" data-renderer-id="0" transform="translate(13.159698486328125, 404.74896240234375)"><g id="3.cr-3_cr_dg2k9i1s58a2y-fill" stroke="none" fill="#b65edf"><g><path d="M 9.997896 65.794237C 9.997899 96.611725 34.980409 121.594235 65.797898 121.594235C 96.615387 121.594235 121.597897 96.611725 121.597897 65.794236C 121.597897 34.976747 96.615387 9.994237 65.797898 9.994237C 34.980409 9.994237 9.997899 34.976747 9.997899 65.794236"></path></g></g></g><g id="g-root-4.cr-4_cr_9092521s58av7-fill" data-item-order="999841111" data-item-id="4.cr-4_cr_9092521s58av7" data-item-class="Shape Stroke Fill Part Indexed" data-item-index="4" data-renderer-id="0" transform="translate(13.15966796875, 538.6653442382812)"><g id="4.cr-4_cr_9092521s58av7-fill" stroke="none" fill="#795ee3"><g><path d="M 9.997881 65.798983C 9.997884 96.616469 34.980394 121.59898 65.797883 121.59898C 96.615371 121.59898 121.597882 96.616469 121.597882 65.798981C 121.597882 34.981492 96.615371 9.998981 65.797883 9.998981C 34.980394 9.998981 9.997884 34.981492 9.997884 65.798981"></path></g></g></g><g id="g-root-code_dj70uu1s4pzwp-fill" data-item-order="1000000000" data-item-id="code_dj70uu1s4pzwp" data-item-class="Icon Stroke Indexed Indexed_1 InsideFill InsideColorFill" data-item-index="1" data-renderer-id="0" transform="translate(35.479095458984375, 25.3193359375)"></g><g id="g-root-tx_software_mdkzrq1s588aq-fill" data-item-order="1000000000" data-item-id="tx_software_mdkzrq1s588aq" data-item-class="Label Stroke Indexed Indexed_1 ColorStrokeBlack" data-item-index="1" data-renderer-id="0" transform="translate(147.0760498046875, 34.7984619140625)"><g id="tx_software_mdkzrq1s588aq-fill" stroke="none" fill="#484848"><g><text style="font: 20px Roboto, sans-serif; white-space: pre;" font-size="20px" font-family="Roboto, sans-serif"><tspan x="12" y="34" dominant-baseline="ideographic">Software </tspan><tspan x="12" y="58" dominant-baseline="ideographic">Reseller</tspan></text></g></g></g><g id="g-root-capt_mfgi6u1s51895-fill" data-item-order="1000000000" data-item-id="capt_mfgi6u1s51895" data-item-class="Icon Stroke Indexed InsideFill InsideColorFill" data-item-index="2" data-renderer-id="0" transform="translate(35.479095458984375, 159.23565673828125)"></g><g id="g-root-tx_valueadd_dhxziu1s5893f-fill" data-item-order="1000000000" data-item-id="tx_valueadd_dhxziu1s5893f" data-item-class="Label Stroke Indexed ColorStrokeBlack" data-item-index="2" data-renderer-id="0" transform="translate(147.0760498046875, 168.71478271484375)"><g id="tx_valueadd_dhxziu1s5893f-fill" stroke="none" fill="#484848"><g><text style="font: 20px Roboto, sans-serif; white-space: pre;" font-size="20px" font-family="Roboto, sans-serif"><tspan x="12" y="34" dominant-baseline="ideographic">Value Added </tspan><tspan x="12" y="58" dominant-baseline="ideographic">Reseller</tspan></text></g></g></g><g id="g-root-serv_zlaqs61s541zc-fill" data-item-order="1000000000" data-item-id="serv_zlaqs61s541zc" data-item-class="Icon Stroke Indexed InsideFill InsideColorFill" data-item-index="3" data-renderer-id="0" transform="translate(27.74542236328125, 285.41839599609375)"></g><g id="g-root-tx_cloudsol_924hee1s589vo-fill" data-item-order="1000000000" data-item-id="tx_cloudsol_924hee1s589vo" data-item-class="Label Stroke Indexed ColorStrokeBlack" data-item-index="3" data-renderer-id="0" transform="translate(147.0760498046875, 290.63116455078125)"><g id="tx_cloudsol_924hee1s589vo-fill" stroke="none" fill="#484848"><g><text style="font: 20px Roboto, sans-serif; white-space: pre;" font-size="20px" font-family="Roboto, sans-serif"><tspan x="12" y="34" dominant-baseline="ideographic">Cloud </tspan><tspan x="12" y="58" dominant-baseline="ideographic">Solution </tspan><tspan x="12" y="82" dominant-baseline="ideographic">Provider</tspan></text></g></g></g><g id="g-root-hand_zmjoye1s5893h-fill" data-item-order="1000000000" data-item-id="hand_zmjoye1s5893h" data-item-class="Icon Stroke Indexed InsideFill InsideColorFill" data-item-index="4" data-renderer-id="0" transform="translate(27.74542236328125, 419.33477783203125)"></g><g id="g-root-tx_globalso_6hh5i1s58aod-fill" data-item-order="1000000000" data-item-id="tx_globalso_6hh5i1s58aod" data-item-class="Label Stroke Indexed ColorStrokeBlack" data-item-index="4" data-renderer-id="0" transform="translate(147.0760498046875, 424.54742431640625)"><g id="tx_globalso_6hh5i1s58aod-fill" stroke="none" fill="#484848"><g><text style="font: 20px Roboto, sans-serif; white-space: pre;" font-size="20px" font-family="Roboto, sans-serif"><tspan x="12" y="34" dominant-baseline="ideographic">Global </tspan><tspan x="12" y="58" dominant-baseline="ideographic">Solution </tspan><tspan x="12" y="82" dominant-baseline="ideographic">Integrator</tspan></text></g></g></g><g id="g-root-1_v2zfh21s4reo1-fill" data-item-order="1000000000" data-item-id="1_v2zfh21s4reo1" data-item-class="Icon Stroke Indexed InsideFill InsideColorFill" data-item-index="5" data-renderer-id="0" transform="translate(27.74542236328125, 553.2510375976562)"></g><g id="g-root-tx_original_1usei3a1s5883q-fill" data-item-order="1000000000" data-item-id="tx_original_1usei3a1s5883q" data-item-class="Label Stroke Indexed ColorStrokeBlack" data-item-index="5" data-renderer-id="0" transform="translate(147.0760498046875, 558.4638061523438)"><g id="tx_original_1usei3a1s5883q-fill" stroke="none" fill="#484848"><g><text style="font: 20px Roboto, sans-serif; white-space: pre;" font-size="20px" font-family="Roboto, sans-serif"><tspan x="12" y="34" dominant-baseline="ideographic">Original </tspan><tspan x="12" y="58" dominant-baseline="ideographic">Equipment </tspan><tspan x="12" y="82" dominant-baseline="ideographic">Manufacturers</tspan></text></g></g></g><g id="g-root-0.cr-0_cr_v6q3o61s58avj-stroke" data-item-order="999841095" data-item-id="0.cr-0_cr_v6q3o61s58avj" data-item-class="Shape Stroke Fill Part Indexed_0 ColorFillBlack" data-item-index="0" data-renderer-id="0" transform="translate(13.15966796875, 3)"><g id="0.cr-0_cr_v6q3o61s58avj-stroke" fill="none" stroke-linecap="round" stroke-linejoin="round" stroke-miterlimit="4" stroke="#ffffff" stroke-width="2"><g><path d="M 9.997881 65.8C 9.997884 96.617491 34.980394 121.600001 65.797883 121.600001C 96.615371 121.600001 121.597882 96.617491 121.597882 65.800002C 121.597882 34.982513 96.615371 10.000003 65.797883 10.000003C 34.980394 10.000003 9.997884 34.982513 9.997884 65.800002"></path></g></g></g><g id="g-root-1.cr-1_cr_qrj2mu1s588i0-stroke" data-item-order="999841099" data-item-id="1.cr-1_cr_qrj2mu1s588i0" data-item-class="Shape Stroke Fill Part Indexed Indexed_1" data-item-index="1" data-renderer-id="0" transform="translate(13.159698486328125, 136.91632080078125)"><g id="1.cr-1_cr_qrj2mu1s588i0-stroke" fill="none" stroke-linecap="round" stroke-linejoin="round" stroke-miterlimit="4" stroke="#ffffff" stroke-width="2"><g><path d="M 9.997896 65.794753C 9.997899 96.612243 34.980409 121.594754 65.797898 121.594754C 96.615387 121.594754 121.597897 96.612243 121.597897 65.794754C 121.597897 34.977266 96.615387 9.994755 65.797898 9.994755C 34.980409 9.994755 9.997899 34.977266 9.997899 65.794754"></path></g></g></g><g id="g-root-2.cr-2_cr_mbpkie1s589a9-stroke" data-item-order="999841103" data-item-id="2.cr-2_cr_mbpkie1s589a9" data-item-class="Shape Stroke Fill Part Indexed" data-item-index="2" data-renderer-id="0" transform="translate(13.15966796875, 270.83270263671875)"><g id="2.cr-2_cr_mbpkie1s589a9-stroke" fill="none" stroke-linecap="round" stroke-linejoin="round" stroke-miterlimit="4" stroke="#ffffff" stroke-width="2"><g><path d="M 9.997881 65.799492C 9.997884 96.61698 34.980394 121.599491 65.797883 121.599491C 96.615371 121.599491 121.597882 96.61698 121.597882 65.799491C 121.597882 34.982003 96.615371 9.999492 65.797883 9.999492C 34.980394 9.999492 9.997884 34.982003 9.997884 65.799491"></path></g></g></g><g id="g-root-3.cr-3_cr_dg2k9i1s58a2y-stroke" data-item-order="999841107" data-item-id="3.cr-3_cr_dg2k9i1s58a2y" data-item-class="Shape Stroke Fill Part Indexed" data-item-index="3" data-renderer-id="0" transform="translate(13.159698486328125, 404.74896240234375)"><g id="3.cr-3_cr_dg2k9i1s58a2y-stroke" fill="none" stroke-linecap="round" stroke-linejoin="round" stroke-miterlimit="4" stroke="#ffffff" stroke-width="2"><g><path d="M 9.997896 65.794237C 9.997899 96.611725 34.980409 121.594235 65.797898 121.594235C 96.615387 121.594235 121.597897 96.611725 121.597897 65.794236C 121.597897 34.976747 96.615387 9.994237 65.797898 9.994237C 34.980409 9.994237 9.997899 34.976747 9.997899 65.794236"></path></g></g></g><g id="g-root-4.cr-4_cr_9092521s58av7-stroke" data-item-order="999841111" data-item-id="4.cr-4_cr_9092521s58av7" data-item-class="Shape Stroke Fill Part Indexed" data-item-index="4" data-renderer-id="0" transform="translate(13.15966796875, 538.6653442382812)"><g id="4.cr-4_cr_9092521s58av7-stroke" fill="none" stroke-linecap="round" stroke-linejoin="round" stroke-miterlimit="4" stroke="#ffffff" stroke-width="2"><g><path d="M 9.997881 65.798983C 9.997884 96.616469 34.980394 121.59898 65.797883 121.59898C 96.615371 121.59898 121.597882 96.616469 121.597882 65.798981C 121.597882 34.981492 96.615371 9.998981 65.797883 9.998981C 34.980394 9.998981 9.997884 34.981492 9.997884 65.798981"></path></g></g></g><g id="g-root-code_dj70uu1s4pzwp-stroke" data-item-order="1000000000" data-item-id="code_dj70uu1s4pzwp" data-item-class="Icon Stroke Indexed Indexed_1 InsideFill InsideColorFill" data-item-index="1" data-renderer-id="0" transform="translate(35.479095458984375, 25.3193359375)"><g id="code_dj70uu1s4pzwp-stroke" fill="none" stroke-linecap="round" stroke-linejoin="round" stroke-miterlimit="4" stroke="#ffffff" stroke-width="2"><g><path d="M 39.294201 37.899242L 33.714352 43.479088L 39.294201 49.058937M 47.663971 37.899242L 53.24382 43.479088L 47.663971 49.058937M 43.479088 69.285889L 43.479088 69.285889C 43.864296 69.285889 44.176567 69.59816 44.176567 69.983368L 44.176567 69.983368C 44.176567 70.368576 43.864296 70.680847 43.479088 70.680847L 43.479088 70.680847C 43.09388 70.680847 42.781605 70.368576 42.781605 69.983368L 42.781605 69.983368C 42.781605 69.59816 43.09388 69.285889 43.479088 69.285889M 30.924429 11.394962L 56.033745 11.394962C 56.033745 11.394962 61.613594 11.394962 61.613594 16.97481L 61.613594 69.983368C 61.613594 69.983368 61.613594 75.563217 56.033745 75.563217L 30.924429 75.563217C 30.924429 75.563217 25.344582 75.563217 25.344582 69.983368L 25.344582 16.97481C 25.344582 16.97481 25.344582 11.394962 30.924429 11.394962M 61.613594 64.403519L 25.344582 64.403519M 61.613594 22.554659L 25.344582 22.554659M 39.294201 16.97481L 47.663971 16.97481"></path></g></g></g><g id="g-root-tx_software_mdkzrq1s588aq-stroke" data-item-order="1000000000" data-item-id="tx_software_mdkzrq1s588aq" data-item-class="Label Stroke Indexed Indexed_1 ColorStrokeBlack" data-item-index="1" data-renderer-id="0" transform="translate(147.0760498046875, 34.7984619140625)"></g><g id="g-root-capt_mfgi6u1s51895-stroke" data-item-order="1000000000" data-item-id="capt_mfgi6u1s51895" data-item-class="Icon Stroke Indexed InsideFill InsideColorFill" data-item-index="2" data-renderer-id="0" transform="translate(35.479095458984375, 159.23565673828125)"><g id="capt_mfgi6u1s51895-stroke" fill="none" stroke-linecap="round" stroke-linejoin="round" stroke-miterlimit="4" stroke="#ffffff" stroke-width="2"><g><path d="M 17.730879 11.394962L 69.227295 11.394962C 69.227295 11.394962 74.79319 11.394962 74.79319 16.960861L 74.79319 23.921722C 74.79319 23.921722 74.79319 29.487621 69.227295 29.487621L 17.730879 29.487621C 17.730879 29.487621 12.164981 29.487621 12.164981 23.921722L 12.164981 16.960861C 12.164981 16.960861 12.164981 11.394962 17.730879 11.394962M 37.84623 68.144806C 37.844688 72.242332 34.52256 75.563217 30.425034 75.563217L 20.531963 75.563217C 16.490192 75.48484 13.254653 72.185951 13.254653 68.143417C 13.254653 64.100883 16.490192 60.801994 20.531963 60.72361L 30.425034 60.72361C 34.523647 60.72361 37.84623 64.046196 37.84623 68.144806ZM 20.515223 17.658342L 20.515223 23.224239M 17.730879 36.06068L 69.227295 36.06068C 69.227295 36.06068 74.79319 36.06068 74.79319 41.626579L 74.79319 48.58744C 74.79319 48.58744 74.79319 54.153339 69.227295 54.153339L 17.730879 54.153339C 17.730879 54.153339 12.164981 54.153339 12.164981 48.58744L 12.164981 41.626579C 12.164981 41.626579 12.164981 36.06068 17.730879 36.06068M 20.515223 42.324062L 20.515223 47.889961M 21.770689 68.144806L 24.242561 70.616676L 29.189096 65.670151"></path></g></g></g><g id="g-root-tx_valueadd_dhxziu1s5893f-stroke" data-item-order="1000000000" data-item-id="tx_valueadd_dhxziu1s5893f" data-item-class="Label Stroke Indexed ColorStrokeBlack" data-item-index="2" data-renderer-id="0" transform="translate(147.0760498046875, 168.71478271484375)"></g><g id="g-root-serv_zlaqs61s541zc-stroke" data-item-order="1000000000" data-item-id="serv_zlaqs61s541zc" data-item-class="Icon Stroke Indexed InsideFill InsideColorFill" data-item-index="3" data-renderer-id="0" transform="translate(27.74542236328125, 285.41839599609375)"><g id="serv_zlaqs61s541zc-stroke" fill="none" stroke-linecap="round" stroke-linejoin="round" stroke-miterlimit="4" stroke="#ffffff" stroke-width="2"><g><path d="M 80.405151 33.790077C 80.347641 30.402237 78.914032 27.183649 76.434135 24.874779C 73.954239 22.56591 70.641579 21.365561 67.25827 21.549881C 64.220467 15.482497 57.997986 11.669361 51.212769 11.717199C 41.974899 11.583746 34.221798 18.648422 33.498146 27.858871C 30.741274 27.249029 27.856161 27.905085 25.634085 29.647106C 23.41201 31.38913 22.086243 34.034245 22.020391 36.856995C 22.020391 46.205429 32.17247 46.061184 32.17247 46.061184L 68.982338 46.061184C 68.982338 46.061184 80.405151 44.615303 80.405151 33.790077ZM 33.182182 81.260338C 32.708439 81.260338 32.324219 81.644051 32.323593 82.117798C 32.32296 82.59153 32.706161 82.976273 33.179901 82.977524C 33.653645 82.97879 34.038887 82.596107 34.040783 82.122368C 34.041698 81.894363 33.951534 81.675446 33.790318 81.514229C 33.629097 81.353012 33.410175 81.262848 33.182182 81.263763L 33.182182 81.263763M 41.768177 81.260338C 41.294434 81.260338 40.910213 81.644051 40.909584 82.117798C 40.908955 82.59153 41.292156 82.976273 41.765896 82.977524C 42.239639 82.97879 42.624878 82.596107 42.626778 82.122368C 42.627693 81.894363 42.537529 81.675446 42.376312 81.514229C 42.215092 81.353012 41.99617 81.262848 41.768177 81.263763L 41.768177 81.263763M 80.405151 85.556763C 80.405151 88.401917 78.098701 90.708366 75.253555 90.708366L 27.171988 90.708366C 24.326839 90.708366 22.020391 88.401917 22.020391 85.556763L 22.020391 78.687965C 22.020391 75.842819 24.326839 73.536369 27.171988 73.536369L 75.253555 73.536369C 78.098701 73.536369 80.405151 75.842819 80.405151 78.687965ZM 33.182182 64.088341C 32.708439 64.088348 32.324219 64.472054 32.323593 64.945801C 32.32296 65.41954 32.706161 65.804276 33.179901 65.805534C 33.653645 65.806801 34.038887 65.42411 34.040783 64.950378C 34.041698 64.722382 33.951534 64.503456 33.790318 64.342239C 33.629097 64.181023 33.410175 64.090851 33.182182 64.091774L 33.182182 64.091774M 41.768177 64.088341C 41.294434 64.088348 40.910213 64.472054 40.909584 64.945801C 40.908955 65.41954 41.292156 65.804276 41.765896 65.805534C 42.239639 65.806801 42.624878 65.42411 42.626778 64.950378C 42.627693 64.722382 42.537529 64.503456 42.376312 64.342239C 42.215092 64.181023 41.99617 64.090851 41.768177 64.091774L 41.768177 64.091774M 80.405151 68.384773C 80.405151 71.229927 78.098701 73.536369 75.253555 73.536369L 27.171988 73.536369C 24.326839 73.536369 22.020391 71.229927 22.020391 68.384773L 22.020391 61.515976C 22.020391 58.67083 24.326839 56.36438 27.171988 56.36438L 75.253555 56.36438C 78.098701 56.36438 80.405151 58.67083 80.405151 61.515976Z"></path></g></g></g><g id="g-root-tx_cloudsol_924hee1s589vo-stroke" data-item-order="1000000000" data-item-id="tx_cloudsol_924hee1s589vo" data-item-class="Label Stroke Indexed ColorStrokeBlack" data-item-index="3" data-renderer-id="0" transform="translate(147.0760498046875, 290.63116455078125)"></g><g id="g-root-hand_zmjoye1s5893h-stroke" data-item-order="1000000000" data-item-id="hand_zmjoye1s5893h" data-item-class="Icon Stroke Indexed InsideFill InsideColorFill" data-item-index="4" data-renderer-id="0" transform="translate(27.74542236328125, 419.33477783203125)"><g id="hand_zmjoye1s5893h-stroke" fill="none" stroke-linecap="round" stroke-linejoin="round" stroke-miterlimit="4" stroke="#ffffff" stroke-width="2"><g><path d="M 28.731203 40.257061C 26.725121 31.690092 29.946545 22.744675 36.953968 17.423658C 43.961395 12.102642 53.443317 11.401896 61.156822 15.63499C 68.870323 19.868082 73.371758 28.242756 72.646843 37.011551M 30.297289 25.629951L 34.518162 25.629951C 37.922695 25.886824 40.628662 28.592793 40.885536 31.997328L 40.885536 37.928535C 40.885536 38.807739 41.668579 39.566746 42.530613 40.253624M 55.502331 13.475612C 55.502331 13.475612 51.786312 16.40172 50.426292 17.449211C 48.133518 19.21578 47.686611 22.497187 49.423447 24.812563L 52.620872 29.078089C 53.62043 30.409033 55.187565 31.192598 56.852051 31.193678L 59.943008 31.193678C 61.345989 31.192442 62.691753 31.749779 63.683064 32.742592L 66.124924 35.181015M 79.83847 75.627937L 62.693962 77.056648M 59.55492 55.38559L 47.579178 59.345451C 45.659904 59.976151 43.572716 59.067715 42.726376 57.233295C 41.812527 55.26791 42.620571 52.931873 44.553471 51.951187L 56.154869 46.112709C 58.153343 45.105827 60.479568 44.97155 62.580624 45.741795L 79.752609 52.023312M 46.322189 51.06168L 45.085804 50.031361C 43.063557 48.54958 40.419498 48.217125 38.093372 49.152153L 22.724442 55.299725M 12.362865 49.420036L 19.272873 49.420036C 21.099312 49.34243 22.644365 50.756935 22.727877 52.583118L 22.727877 74.741859C 22.644348 76.568542 21.099894 77.984032 19.272873 77.908379L 12.362865 77.908379M 90.062675 77.908379L 83.152664 77.908379C 81.325645 77.984032 79.781189 76.568542 79.697662 74.741859L 79.697662 52.586552C 79.781174 50.760372 81.326225 49.345867 83.152664 49.42347L 90.059242 49.42347M 54.812019 58.081593L 63.741451 70.338966C 64.868011 71.885948 64.969925 73.953728 64.000938 75.603989C 63.031948 77.254242 61.176571 78.17276 59.276737 77.942726C 58.813087 80.42025 56.498505 82.106865 53.998066 81.789253C 53.532883 84.266197 51.220024 85.953056 48.719398 85.639214C 48.348282 87.50721 46.909584 88.980103 45.050816 89.394974C 43.192051 89.809853 41.263596 89.088509 40.133404 87.555611L 31.124979 76.235825C 29.792425 74.543053 27.782864 73.521942 25.629944 73.443657L 22.724442 73.34063M 48.733135 85.632339L 46.322189 82.67189M 54.011803 81.782379L 51.947731 79.041733M 59.290474 77.935852L 57.034073 74.868935"></path></g></g></g><g id="g-root-tx_globalso_6hh5i1s58aod-stroke" data-item-order="1000000000" data-item-id="tx_globalso_6hh5i1s58aod" data-item-class="Label Stroke Indexed ColorStrokeBlack" data-item-index="4" data-renderer-id="0" transform="translate(147.0760498046875, 424.54742431640625)"></g><g id="g-root-1_v2zfh21s4reo1-stroke" data-item-order="1000000000" data-item-id="1_v2zfh21s4reo1" data-item-class="Icon Stroke Indexed InsideFill InsideColorFill" data-item-index="5" data-renderer-id="0" transform="translate(27.74542236328125, 553.2510375976562)"><g id="1_v2zfh21s4reo1-stroke" fill="none" stroke-linecap="round" stroke-linejoin="round" stroke-miterlimit="4" stroke="#ffffff" stroke-width="2"><g><path d="M 43.523155 74.556351L 25.561256 61.643017M 34.198765 51.806908L 48.963242 62.752327M 12.81964 50.814365C 12.819641 56.730373 17.615515 61.526249 23.531527 61.526249C 29.447538 61.526249 34.243412 56.730373 34.243412 50.814365C 34.243412 44.898357 29.447538 40.102486 23.531527 40.102486C 17.615515 40.102486 12.819641 44.898357 12.819641 50.814365M 33.343601 46.517937L 49.37537 30.90517M 44.453876 19.647219L 22.88586 40.123089M 44.137913 22.4909C 44.137016 27.671595 48.336555 31.871853 53.51725 31.871853C 58.697948 31.871853 62.897484 27.671595 62.896591 22.490898C 62.897484 17.310202 58.697948 13.109943 53.51725 13.109943C 48.336555 13.109943 44.137016 17.310202 44.137913 22.490898M 62.202843 26.035196L 70.699547 34.727654C 72.469666 36.535568 72.508965 39.414635 70.788841 41.27018L 70.788841 41.270176C 69.905472 42.22134 68.670845 42.768864 67.372849 42.785088C 66.074844 42.801311 64.826927 42.284821 63.920048 41.356041L 54.57848 31.81185M 13.716019 89.317383L 89.272774 89.317383M 43.523155 80.985542L 43.523155 71.637108C 43.624142 66.188782 48.069706 61.824852 53.51897 61.824852C 58.968239 61.824852 63.413803 66.188782 63.514786 71.637108L 63.514786 80.841293M 21.814329 50.244255C 21.814329 51.192638 22.583145 51.961456 23.531527 51.961456C 24.47991 51.961456 25.248726 51.192638 25.248726 50.244255C 25.248726 49.295872 24.47991 48.527058 23.531527 48.527058C 22.583145 48.527058 21.814329 49.295872 21.814329 50.244255M 51.800053 71.561554C 51.800053 72.509941 52.568871 73.278748 53.51725 73.278748C 54.465637 73.278748 55.234451 72.509941 55.234451 71.561554C 55.234451 70.613167 54.465637 69.844353 53.51725 69.844353C 52.568871 69.844353 51.800053 70.613167 51.800053 71.561554M 41.524338 80.985542L 65.348747 80.985542C 67.245522 80.985542 68.78315 82.523163 68.78315 84.419937L 68.78315 89.317383L 68.78315 89.317383L 38.089939 89.317383L 38.089939 89.317383L 38.089939 84.419937C 38.089939 82.523163 39.627571 80.985542 41.524338 80.985542ZM 69.758522 33.728245C 70.409454 32.91301 71.33477 32.362461 72.361794 32.179333C 76.625053 31.399096 81.014702 32.55151 84.344933 35.325264C 87.675163 38.099018 89.602356 42.207912 89.605904 46.541977C 89.605904 48.91293 87.683868 50.834972 85.312912 50.834972C 82.941948 50.834972 81.019913 48.91293 81.019913 46.541977C 81.017433 44.750629 80.217392 43.053417 78.837166 41.91153C 77.456932 40.769638 75.6399 40.301682 73.879799 40.634815C 73.224342 40.750664 72.551025 40.714237 71.911888 40.528351M 68.803757 42.37262C 68.948723 43.182442 68.858124 44.016857 68.542747 44.776699C 67.837914 46.423954 67.903847 48.299633 68.72261 49.893333C 69.541382 51.48703 71.027779 52.632942 72.777359 53.019249C 75.0933 53.529476 76.557129 55.820549 76.046898 58.136497C 75.536674 60.45245 73.245605 61.916275 70.929649 61.40604C 66.701721 60.468452 63.107826 57.703091 61.118233 53.856544C 59.128639 50.009998 58.948502 45.478893 60.626453 41.486542C 60.86541 40.907421 61.228897 40.387989 61.69112 39.965107"></path></g></g></g><g id="g-root-tx_original_1usei3a1s5883q-stroke" data-item-order="1000000000" data-item-id="tx_original_1usei3a1s5883q" data-item-class="Label Stroke Indexed ColorStrokeBlack" data-item-index="5" data-renderer-id="0" transform="translate(147.0760498046875, 558.4638061523438)"></g></g></g></svg>