<?xml version="1.0" encoding="utf-8" standalone="yes"?>
<!DOCTYPE svg PUBLIC "-//W3C//DTD SVG 1.1//EN" "http://www.w3.org/Graphics/SVG/1.1/DTD/svg11.dtd">
<svg width="246" height="379" viewBox="0 0 246 379" style="fill:none;stroke:none;fill-rule:evenodd;clip-rule:evenodd;stroke-linecap:round;stroke-linejoin:round;stroke-miterlimit:1.5;" version="1.1" xmlns="http://www.w3.org/2000/svg" xmlns:xlink="http://www.w3.org/1999/xlink"><style id="fontImports">@import url("https://fonts.googleapis.com/css2?family=Roboto:wght@400;700&amp;display=block");</style><rect id="" x="0" y="0" width="246" height="379" style="fill: #ffffff;"></rect><g id="items" style="isolation: isolate"><g id="blend" style="mix-blend-mode:normal"><g id="g-root-0.cr-0_cr_v6q3o61s58avj-fill" data-item-order="999954070" data-item-id="0.cr-0_cr_v6q3o61s58avj" data-item-class="Shape Stroke Fill Part Indexed_0 ColorFillBlack" data-item-index="0" data-renderer-id="0" transform="translate(8, 3)"><g id="0.cr-0_cr_v6q3o61s58avj-fill" stroke="none" fill="#666666"><g><path d="M 10 40C 10.000002 56.568544 23.431459 70.000002 40.000002 70.000002C 56.568544 70.000002 70.000002 56.568544 70.000002 40.000002C 70.000002 23.431459 56.568544 10.000002 40.000002 10.000002C 23.431459 10.000002 10.000002 23.431459 10.000002 40.000002"></path></g></g></g><g id="g-root-1.cr-1_cr_qrj2mu1s588i0-fill" data-item-order="999954074" data-item-id="1.cr-1_cr_qrj2mu1s588i0" data-item-class="Shape Stroke Fill Part Indexed Indexed_1" data-item-index="1" data-renderer-id="0" transform="translate(8, 75)"><g id="1.cr-1_cr_qrj2mu1s588i0-fill" stroke="none" fill="#dd8433"><g><path d="M 10 40C 10.000002 56.568544 23.431459 70.000002 40.000002 70.000002C 56.568544 70.000002 70.000002 56.568544 70.000002 40.000002C 70.000002 23.431459 56.568544 10.000002 40.000002 10.000002C 23.431459 10.000002 10.000002 23.431459 10.000002 40.000002"></path></g></g></g><g id="g-root-2.cr-2_cr_mbpkie1s589a9-fill" data-item-order="999954078" data-item-id="2.cr-2_cr_mbpkie1s589a9" data-item-class="Shape Stroke Fill Part Indexed" data-item-index="2" data-renderer-id="0" transform="translate(8, 147)"><g id="2.cr-2_cr_mbpkie1s589a9-fill" stroke="none" fill="#da5da8"><g><path d="M 10 40C 10.000002 56.568544 23.431459 70.000002 40.000002 70.000002C 56.568544 70.000002 70.000002 56.568544 70.000002 40.000002C 70.000002 23.431459 56.568544 10.000002 40.000002 10.000002C 23.431459 10.000002 10.000002 23.431459 10.000002 40.000002"></path></g></g></g><g id="g-root-3.cr-3_cr_dg2k9i1s58a2y-fill" data-item-order="999954082" data-item-id="3.cr-3_cr_dg2k9i1s58a2y" data-item-class="Shape Stroke Fill Part Indexed" data-item-index="3" data-renderer-id="0" transform="translate(8, 219)"><g id="3.cr-3_cr_dg2k9i1s58a2y-fill" stroke="none" fill="#b65edf"><g><path d="M 10 40C 10.000002 56.568544 23.431459 70.000002 40.000002 70.000002C 56.568544 70.000002 70.000002 56.568544 70.000002 40.000002C 70.000002 23.431459 56.568544 10.000002 40.000002 10.000002C 23.431459 10.000002 10.000002 23.431459 10.000002 40.000002"></path></g></g></g><g id="g-root-4.cr-4_cr_9092521s58av7-fill" data-item-order="999954086" data-item-id="4.cr-4_cr_9092521s58av7" data-item-class="Shape Stroke Fill Part Indexed" data-item-index="4" data-renderer-id="0" transform="translate(8, 291)"><g id="4.cr-4_cr_9092521s58av7-fill" stroke="none" fill="#795ee3"><g><path d="M 10 40C 10.000002 56.568544 23.431459 70.000002 40.000002 70.000002C 56.568544 70.000002 70.000002 56.568544 70.000002 40.000002C 70.000002 23.431459 56.568544 10.000002 40.000002 10.000002C 23.431459 10.000002 10.000002 23.431459 10.000002 40.000002"></path></g></g></g><g id="g-root-code_dj70uu1s4pzwp-fill" data-item-order="1000000000" data-item-id="code_dj70uu1s4pzwp" data-item-class="Icon Stroke Indexed Indexed_1 InsideFill InsideColorFill" data-item-index="1" data-renderer-id="0" transform="translate(20, 15)"></g><g id="g-root-tx_software_mdkzrq1s588aq-fill" data-item-order="1000000000" data-item-id="tx_software_mdkzrq1s588aq" data-item-class="Label Stroke Indexed Indexed_1 ColorStrokeBlack" data-item-index="1" data-renderer-id="0" transform="translate(80, 9)"><g id="tx_software_mdkzrq1s588aq-fill" stroke="none" fill="#484848"><g><text style="font: 20px Roboto, sans-serif; white-space: pre;" font-size="20px" font-family="Roboto, sans-serif"><tspan x="12" y="34" dominant-baseline="ideographic">Software </tspan><tspan x="12" y="58" dominant-baseline="ideographic">Reseller</tspan></text></g></g></g><g id="g-root-capt_mfgi6u1s51895-fill" data-item-order="1000000000" data-item-id="capt_mfgi6u1s51895" data-item-class="Icon Stroke Indexed InsideFill InsideColorFill" data-item-index="2" data-renderer-id="0" transform="translate(20, 87)"></g><g id="g-root-tx_valueadd_dhxziu1s5893f-fill" data-item-order="1000000000" data-item-id="tx_valueadd_dhxziu1s5893f" data-item-class="Label Stroke Indexed ColorStrokeBlack" data-item-index="2" data-renderer-id="0" transform="translate(80, 81)"><g id="tx_valueadd_dhxziu1s5893f-fill" stroke="none" fill="#484848"><g><text style="font: 20px Roboto, sans-serif; white-space: pre;" font-size="20px" font-family="Roboto, sans-serif"><tspan x="12" y="34" dominant-baseline="ideographic">Value Added </tspan><tspan x="12" y="58" dominant-baseline="ideographic">Reseller</tspan></text></g></g></g><g id="g-root-tx_cloudsol_924hee1s589vo-fill" data-item-order="1000000000" data-item-id="tx_cloudsol_924hee1s589vo" data-item-class="Label Stroke Indexed ColorStrokeBlack" data-item-index="3" data-renderer-id="0" transform="translate(80, 141)"><g id="tx_cloudsol_924hee1s589vo-fill" stroke="none" fill="#484848"><g><text style="font: 20px Roboto, sans-serif; white-space: pre;" font-size="20px" font-family="Roboto, sans-serif"><tspan x="12" y="34" dominant-baseline="ideographic">Cloud </tspan><tspan x="12" y="58" dominant-baseline="ideographic">Solution </tspan><tspan x="12" y="82" dominant-baseline="ideographic">Provider</tspan></text></g></g></g><g id="g-root-serv_zlaqs61s541zc-fill" data-item-order="1000000000" data-item-id="serv_zlaqs61s541zc" data-item-class="Icon Stroke Indexed InsideFill InsideColorFill" data-item-index="3" data-renderer-id="0" transform="translate(20, 159)"></g><g id="g-root-tx_globalso_6hh5i1s58aod-fill" data-item-order="1000000000" data-item-id="tx_globalso_6hh5i1s58aod" data-item-class="Label Stroke Indexed ColorStrokeBlack" data-item-index="4" data-renderer-id="0" transform="translate(80, 213)"><g id="tx_globalso_6hh5i1s58aod-fill" stroke="none" fill="#484848"><g><text style="font: 20px Roboto, sans-serif; white-space: pre;" font-size="20px" font-family="Roboto, sans-serif"><tspan x="12" y="34" dominant-baseline="ideographic">Global </tspan><tspan x="12" y="58" dominant-baseline="ideographic">Solution </tspan><tspan x="12" y="82" dominant-baseline="ideographic">Integrator</tspan></text></g></g></g><g id="g-root-hand_zmjoye1s5893h-fill" data-item-order="1000000000" data-item-id="hand_zmjoye1s5893h" data-item-class="Icon Stroke Indexed InsideFill InsideColorFill" data-item-index="4" data-renderer-id="0" transform="translate(20, 231)"></g><g id="g-root-tx_original_1usei3a1s5883q-fill" data-item-order="1000000000" data-item-id="tx_original_1usei3a1s5883q" data-item-class="Label Stroke Indexed ColorStrokeBlack" data-item-index="5" data-renderer-id="0" transform="translate(80, 285)"><g id="tx_original_1usei3a1s5883q-fill" stroke="none" fill="#484848"><g><text style="font: 20px Roboto, sans-serif; white-space: pre;" font-size="20px" font-family="Roboto, sans-serif"><tspan x="12" y="34" dominant-baseline="ideographic">Original </tspan><tspan x="12" y="58" dominant-baseline="ideographic">Equipment </tspan><tspan x="12" y="82" dominant-baseline="ideographic">Manufacturers</tspan></text></g></g></g><g id="g-root-1_v2zfh21s4reo1-fill" data-item-order="1000000000" data-item-id="1_v2zfh21s4reo1" data-item-class="Icon Stroke Indexed InsideFill InsideColorFill" data-item-index="5" data-renderer-id="0" transform="translate(20, 303)"></g><g id="g-root-0.cr-0_cr_v6q3o61s58avj-stroke" data-item-order="999954070" data-item-id="0.cr-0_cr_v6q3o61s58avj" data-item-class="Shape Stroke Fill Part Indexed_0 ColorFillBlack" data-item-index="0" data-renderer-id="0" transform="translate(8, 3)"><g id="0.cr-0_cr_v6q3o61s58avj-stroke" fill="none" stroke-linecap="round" stroke-linejoin="round" stroke-miterlimit="4" stroke="#ffffff" stroke-width="2"><g><path d="M 10 40C 10.000002 56.568544 23.431459 70.000002 40.000002 70.000002C 56.568544 70.000002 70.000002 56.568544 70.000002 40.000002C 70.000002 23.431459 56.568544 10.000002 40.000002 10.000002C 23.431459 10.000002 10.000002 23.431459 10.000002 40.000002"></path></g></g></g><g id="g-root-1.cr-1_cr_qrj2mu1s588i0-stroke" data-item-order="999954074" data-item-id="1.cr-1_cr_qrj2mu1s588i0" data-item-class="Shape Stroke Fill Part Indexed Indexed_1" data-item-index="1" data-renderer-id="0" transform="translate(8, 75)"><g id="1.cr-1_cr_qrj2mu1s588i0-stroke" fill="none" stroke-linecap="round" stroke-linejoin="round" stroke-miterlimit="4" stroke="#ffffff" stroke-width="2"><g><path d="M 10 40C 10.000002 56.568544 23.431459 70.000002 40.000002 70.000002C 56.568544 70.000002 70.000002 56.568544 70.000002 40.000002C 70.000002 23.431459 56.568544 10.000002 40.000002 10.000002C 23.431459 10.000002 10.000002 23.431459 10.000002 40.000002"></path></g></g></g><g id="g-root-2.cr-2_cr_mbpkie1s589a9-stroke" data-item-order="999954078" data-item-id="2.cr-2_cr_mbpkie1s589a9" data-item-class="Shape Stroke Fill Part Indexed" data-item-index="2" data-renderer-id="0" transform="translate(8, 147)"><g id="2.cr-2_cr_mbpkie1s589a9-stroke" fill="none" stroke-linecap="round" stroke-linejoin="round" stroke-miterlimit="4" stroke="#ffffff" stroke-width="2"><g><path d="M 10 40C 10.000002 56.568544 23.431459 70.000002 40.000002 70.000002C 56.568544 70.000002 70.000002 56.568544 70.000002 40.000002C 70.000002 23.431459 56.568544 10.000002 40.000002 10.000002C 23.431459 10.000002 10.000002 23.431459 10.000002 40.000002"></path></g></g></g><g id="g-root-3.cr-3_cr_dg2k9i1s58a2y-stroke" data-item-order="999954082" data-item-id="3.cr-3_cr_dg2k9i1s58a2y" data-item-class="Shape Stroke Fill Part Indexed" data-item-index="3" data-renderer-id="0" transform="translate(8, 219)"><g id="3.cr-3_cr_dg2k9i1s58a2y-stroke" fill="none" stroke-linecap="round" stroke-linejoin="round" stroke-miterlimit="4" stroke="#ffffff" stroke-width="2"><g><path d="M 10 40C 10.000002 56.568544 23.431459 70.000002 40.000002 70.000002C 56.568544 70.000002 70.000002 56.568544 70.000002 40.000002C 70.000002 23.431459 56.568544 10.000002 40.000002 10.000002C 23.431459 10.000002 10.000002 23.431459 10.000002 40.000002"></path></g></g></g><g id="g-root-4.cr-4_cr_9092521s58av7-stroke" data-item-order="999954086" data-item-id="4.cr-4_cr_9092521s58av7" data-item-class="Shape Stroke Fill Part Indexed" data-item-index="4" data-renderer-id="0" transform="translate(8, 291)"><g id="4.cr-4_cr_9092521s58av7-stroke" fill="none" stroke-linecap="round" stroke-linejoin="round" stroke-miterlimit="4" stroke="#ffffff" stroke-width="2"><g><path d="M 10 40C 10.000002 56.568544 23.431459 70.000002 40.000002 70.000002C 56.568544 70.000002 70.000002 56.568544 70.000002 40.000002C 70.000002 23.431459 56.568544 10.000002 40.000002 10.000002C 23.431459 10.000002 10.000002 23.431459 10.000002 40.000002"></path></g></g></g><g id="g-root-code_dj70uu1s4pzwp-stroke" data-item-order="1000000000" data-item-id="code_dj70uu1s4pzwp" data-item-class="Icon Stroke Indexed Indexed_1 InsideFill InsideColorFill" data-item-index="1" data-renderer-id="0" transform="translate(20, 15)"><g id="code_dj70uu1s4pzwp-stroke" fill="none" stroke-linecap="round" stroke-linejoin="round" stroke-miterlimit="4" stroke="#ffffff" stroke-width="2"><g><path d="M 25.75 25L 22.75 28L 25.75 31M 30.25 25L 33.25 28L 30.25 31M 28 41.875L 28 41.875C 28.207108 41.875 28.375 42.042892 28.375 42.25L 28.375 42.25C 28.375 42.457108 28.207108 42.625 28 42.625L 28 42.625C 27.792892 42.625 27.625 42.457108 27.625 42.25L 27.625 42.25C 27.625 42.042892 27.792892 41.875 28 41.875M 21.25 10.75L 34.75 10.75C 34.75 10.75 37.75 10.75 37.75 13.75L 37.75 42.25C 37.75 42.25 37.75 45.25 34.75 45.25L 21.25 45.25C 21.25 45.25 18.25 45.25 18.25 42.25L 18.25 13.75C 18.25 13.75 18.25 10.75 21.25 10.75M 37.75 39.25L 18.25 39.25M 37.75 16.75L 18.25 16.75M 25.75 13.75L 30.25 13.75"></path></g></g></g><g id="g-root-tx_software_mdkzrq1s588aq-stroke" data-item-order="1000000000" data-item-id="tx_software_mdkzrq1s588aq" data-item-class="Label Stroke Indexed Indexed_1 ColorStrokeBlack" data-item-index="1" data-renderer-id="0" transform="translate(80, 9)"></g><g id="g-root-capt_mfgi6u1s51895-stroke" data-item-order="1000000000" data-item-id="capt_mfgi6u1s51895" data-item-class="Icon Stroke Indexed InsideFill InsideColorFill" data-item-index="2" data-renderer-id="0" transform="translate(20, 87)"><g id="capt_mfgi6u1s51895-stroke" fill="none" stroke-linecap="round" stroke-linejoin="round" stroke-miterlimit="4" stroke="#ffffff" stroke-width="2"><g><path d="M 14.1565 10.75L 41.843498 10.75C 41.843498 10.75 44.835999 10.75 44.835999 13.7425L 44.835999 17.485001C 44.835999 17.485001 44.835999 20.477501 41.843498 20.477501L 14.1565 20.477501C 14.1565 20.477501 11.164 20.477501 11.164 17.485001L 11.164 13.7425C 11.164 13.7425 11.164 10.75 14.1565 10.75M 24.9715 41.261497C 24.970673 43.464531 23.18453 45.25 20.981501 45.25L 15.6625 45.25C 13.489446 45.207859 11.749861 43.434216 11.749861 41.26075C 11.749861 39.087288 13.489446 37.313644 15.6625 37.2715L 20.981501 37.2715C 23.185116 37.2715 24.9715 39.057884 24.9715 41.261497ZM 15.6535 14.1175L 15.6535 17.110001M 14.1565 24.011499L 41.843498 24.011499C 41.843498 24.011499 44.835999 24.011499 44.835999 27.004L 44.835999 30.746498C 44.835999 30.746498 44.835999 33.738998 41.843498 33.738998L 14.1565 33.738998C 14.1565 33.738998 11.164 33.738998 11.164 30.746498L 11.164 27.004C 11.164 27.004 11.164 24.011499 14.1565 24.011499M 15.6535 27.379002L 15.6535 30.3715M 16.328499 41.261497L 17.657499 42.5905L 20.316999 39.931"></path></g></g></g><g id="g-root-tx_valueadd_dhxziu1s5893f-stroke" data-item-order="1000000000" data-item-id="tx_valueadd_dhxziu1s5893f" data-item-class="Label Stroke Indexed ColorStrokeBlack" data-item-index="2" data-renderer-id="0" transform="translate(80, 81)"></g><g id="g-root-tx_cloudsol_924hee1s589vo-stroke" data-item-order="1000000000" data-item-id="tx_cloudsol_924hee1s589vo" data-item-class="Label Stroke Indexed ColorStrokeBlack" data-item-index="3" data-renderer-id="0" transform="translate(80, 141)"></g><g id="g-root-serv_zlaqs61s541zc-stroke" data-item-order="1000000000" data-item-id="serv_zlaqs61s541zc" data-item-class="Icon Stroke Indexed InsideFill InsideColorFill" data-item-index="3" data-renderer-id="0" transform="translate(20, 159)"><g id="serv_zlaqs61s541zc-stroke" fill="none" stroke-linecap="round" stroke-linejoin="round" stroke-miterlimit="4" stroke="#ffffff" stroke-width="2"><g><path d="M 40.75 20.390499C 40.724884 18.910833 40.098743 17.505091 39.015633 16.496674C 37.932518 15.488258 36.485687 14.963996 35.007999 15.0445C 33.681213 12.394524 30.963497 10.729106 28 10.75C 23.965288 10.691713 20.57906 13.777265 20.263 17.799999C 19.058914 17.533646 17.798819 17.820183 16.828308 18.581026C 15.8578 19.341867 15.278761 20.497143 15.25 21.73C 15.25 25.813 19.684 25.75 19.684 25.75L 35.761002 25.75C 35.761002 25.75 40.75 25.1185 40.75 20.390499ZM 20.125 41.123501C 19.918089 41.123501 19.750278 41.291092 19.750004 41.498001C 19.749729 41.70491 19.917093 41.872948 20.124004 41.873497C 20.330914 41.87405 20.499172 41.706909 20.5 41.5C 20.500401 41.400421 20.46102 41.304802 20.390608 41.23439C 20.320194 41.163979 20.224579 41.124599 20.125 41.125L 20.125 41.125M 23.875 41.123501C 23.668089 41.123501 23.500278 41.291092 23.500004 41.498001C 23.499729 41.70491 23.667093 41.872948 23.874004 41.873497C 24.080915 41.87405 24.249172 41.706909 24.25 41.5C 24.250401 41.400421 24.21102 41.304802 24.140608 41.23439C 24.070194 41.163979 23.974579 41.124599 23.875 41.125L 23.875 41.125M 40.75 43C 40.75 44.242641 39.742641 45.25 38.5 45.25L 17.5 45.25C 16.25736 45.25 15.25 44.242641 15.25 43L 15.25 40C 15.25 38.757362 16.25736 37.75 17.5 37.75L 38.5 37.75C 39.742641 37.75 40.75 38.757362 40.75 40ZM 20.125 33.623501C 19.918089 33.623501 19.750278 33.791092 19.750004 33.998001C 19.749729 34.20491 19.917093 34.372948 20.124004 34.373497C 20.330914 34.37405 20.499172 34.206909 20.5 34C 20.500401 33.900421 20.46102 33.804806 20.390608 33.73439C 20.320194 33.663979 20.224579 33.624599 20.125 33.625L 20.125 33.625M 23.875 33.623501C 23.668089 33.623501 23.500278 33.791092 23.500004 33.998001C 23.499729 34.20491 23.667093 34.372948 23.874004 34.373497C 24.080915 34.37405 24.249172 34.206909 24.25 34C 24.250401 33.900421 24.21102 33.804806 24.140608 33.73439C 24.070194 33.663979 23.974579 33.624599 23.875 33.625L 23.875 33.625M 40.75 35.5C 40.75 36.742641 39.742641 37.75 38.5 37.75L 17.5 37.75C 16.25736 37.75 15.25 36.742641 15.25 35.5L 15.25 32.5C 15.25 31.25736 16.25736 30.25 17.5 30.25L 38.5 30.25C 39.742641 30.25 40.75 31.25736 40.75 32.5Z"></path></g></g></g><g id="g-root-tx_globalso_6hh5i1s58aod-stroke" data-item-order="1000000000" data-item-id="tx_globalso_6hh5i1s58aod" data-item-class="Label Stroke Indexed ColorStrokeBlack" data-item-index="4" data-renderer-id="0" transform="translate(80, 213)"></g><g id="g-root-hand_zmjoye1s5893h-stroke" data-item-order="1000000000" data-item-id="hand_zmjoye1s5893h" data-item-class="Icon Stroke Indexed InsideFill InsideColorFill" data-item-index="4" data-renderer-id="0" transform="translate(20, 231)"><g id="hand_zmjoye1s5893h-stroke" fill="none" stroke-linecap="round" stroke-linejoin="round" stroke-miterlimit="4" stroke="#ffffff" stroke-width="2"><g><path d="M 18.181 23.215C 17.304827 19.473312 18.711809 15.566334 21.772358 13.242339C 24.832905 10.918344 28.974209 10.612289 32.343143 12.461124C 35.712074 14.309959 37.678112 17.967663 37.3615 21.797501M 18.865 16.8265L 20.7085 16.8265C 22.195457 16.93869 23.377308 18.120543 23.4895 19.6075L 23.4895 22.198C 23.4895 22.581999 23.831499 22.9135 24.208 23.213501M 29.873499 11.518C 29.873499 11.518 28.2505 12.796 27.6565 13.2535C 26.655113 14.025062 26.459923 15.458241 27.218498 16.4695L 28.615 18.3325C 29.051565 18.913799 29.736023 19.256029 30.463001 19.2565L 31.813 19.2565C 32.425762 19.25596 33.013535 19.49938 33.446499 19.932999L 34.513 20.997999M 40.502499 38.663498L 33.0145 39.287498M 31.643499 29.8225L 26.413 31.552C 25.574741 31.827463 24.663147 31.430696 24.293501 30.629501C 23.894371 29.771103 24.247292 28.75082 25.091499 28.3225L 30.158501 25.772501C 31.031349 25.332737 32.047348 25.27409 32.965 25.6105L 40.465 28.354M 25.864 27.934L 25.323999 27.484001C 24.440767 26.836821 23.285954 26.69162 22.27 27.099998L 15.5575 29.785M 11.032 27.216999L 14.05 27.216999C 14.847712 27.183105 15.522526 27.800901 15.559 28.598499L 15.559 38.276501C 15.522518 39.074318 14.847965 39.692543 14.05 39.6595L 11.032 39.6595M 44.968002 39.6595L 41.949997 39.6595C 41.152035 39.692543 40.477482 39.074318 40.441002 38.276501L 40.441002 28.599998C 40.477474 27.802402 41.15229 27.184605 41.949997 27.2185L 44.966499 27.2185M 29.572001 31L 33.472 36.3535C 33.964035 37.029156 34.008545 37.932274 33.585335 38.653038C 33.162121 39.373802 32.351768 39.774971 31.522001 39.6745C 31.319498 40.756577 30.308586 41.493217 29.216499 41.3545C 29.013327 42.436325 28.003168 43.173073 26.910999 43.035999C 26.748913 43.85186 26.12055 44.495159 25.30872 44.676361C 24.496889 44.857559 23.654621 44.542507 23.160999 43.873001L 19.2265 38.929001C 18.644497 38.189667 17.766804 37.74369 16.8265 37.709499L 15.5575 37.664501M 26.917 43.032997L 25.864 41.739998M 29.2225 41.351498L 28.320999 40.154503M 31.528 39.671501L 30.5425 38.332001"></path></g></g></g><g id="g-root-tx_original_1usei3a1s5883q-stroke" data-item-order="1000000000" data-item-id="tx_original_1usei3a1s5883q" data-item-class="Label Stroke Indexed ColorStrokeBlack" data-item-index="5" data-renderer-id="0" transform="translate(80, 285)"></g><g id="g-root-1_v2zfh21s4reo1-stroke" data-item-order="1000000000" data-item-id="1_v2zfh21s4reo1" data-item-class="Icon Stroke Indexed InsideFill InsideColorFill" data-item-index="5" data-renderer-id="0" transform="translate(20, 303)"><g id="1_v2zfh21s4reo1-stroke" fill="none" stroke-linecap="round" stroke-linejoin="round" stroke-miterlimit="4" stroke="#ffffff" stroke-width="2"><g><path d="M 24.641499 38.195503L 16.796501 32.5555M 20.569 28.259501L 27.0175 33.040001M 11.2315 27.826C 11.231501 30.409864 13.326136 32.504501 15.91 32.504501C 18.493864 32.504501 20.588501 30.409864 20.588501 27.826C 20.588501 25.242136 18.493864 23.147501 15.91 23.147501C 13.326136 23.147501 11.231501 25.242136 11.231501 27.826M 20.195499 25.949501L 27.1975 19.130501M 25.048 14.2135L 15.628 23.1565M 24.91 15.4555C 24.909609 17.71821 26.74379 19.552708 29.0065 19.552708C 31.269209 19.552708 33.10339 17.71821 33.103001 15.4555C 33.10339 13.192789 31.269209 11.358293 29.0065 11.358293C 26.74379 11.358293 24.909609 13.192789 24.91 15.4555M 32.799999 17.0035L 36.511002 20.799999C 37.284115 21.589621 37.301277 22.847076 36.550003 23.657501L 36.550003 23.657499C 36.164181 24.072927 35.62495 24.312063 35.058037 24.319149C 34.491127 24.326235 33.946087 24.100653 33.550003 23.695002L 29.469999 19.526501M 11.623 44.642498L 44.623001 44.642498M 24.641499 41.003502L 24.641499 36.920502C 24.685606 34.540901 26.627241 32.634918 29.00725 32.634918C 31.38726 32.634918 33.328896 34.540901 33.373001 36.920502L 33.373001 40.940502M 15.16 27.577C 15.16 27.991215 15.495787 28.327 15.91 28.327C 16.324213 28.327 16.66 27.991215 16.66 27.577C 16.66 27.162786 16.324213 26.827 15.91 26.827C 15.495787 26.827 15.16 27.162786 15.16 27.577M 28.2565 36.887497C 28.2565 37.301716 28.592285 37.637497 29.0065 37.637497C 29.420713 37.637497 29.7565 37.301716 29.7565 36.887497C 29.7565 36.473286 29.420713 36.137497 29.0065 36.137497C 28.592285 36.137497 28.2565 36.473286 28.2565 36.887497M 23.768499 41.003502L 34.174 41.003502C 35.002426 41.003502 35.674 41.675072 35.674 42.503502L 35.674 44.642498L 35.674 44.642498L 22.268499 44.642498L 22.268499 44.642498L 22.268499 42.503502C 22.268499 41.675072 22.940073 41.003502 23.768499 41.003502ZM 36.099998 20.363501C 36.3843 20.007441 36.788437 19.766983 37.237 19.687C 39.099014 19.346226 41.016228 19.849552 42.47073 21.061012C 43.925236 22.27247 44.766953 24.067062 44.768501 25.960001C 44.768501 26.995533 43.929035 27.835001 42.893501 27.835001C 41.857964 27.835001 41.018501 26.995533 41.018501 25.960001C 41.017418 25.177616 40.667995 24.436344 40.06517 23.937614C 39.462341 23.438885 38.668739 23.234501 37.900002 23.380001C 37.613728 23.430599 37.319649 23.414688 37.040501 23.333502M 35.682999 24.139C 35.746315 24.492697 35.706745 24.857134 35.569 25.189001C 35.261162 25.908453 35.289959 26.727671 35.64756 27.423731C 36.005161 28.119791 36.654358 28.620277 37.418503 28.789C 38.430008 29.011847 39.069347 30.012491 38.846497 31.024C 38.623653 32.035511 37.623009 32.674847 36.6115 32.452C 34.764919 32.0425 33.195259 30.834705 32.326286 29.154696C 31.457315 27.474686 31.378641 25.495691 32.1115 23.751999C 32.215866 23.499063 32.374619 23.272198 32.5765 23.087502"></path></g></g></g></g></g></svg>