<?xml version="1.0" encoding="UTF-8"?>
<svg xmlns="http://www.w3.org/2000/svg" xmlns:xlink="http://www.w3.org/1999/xlink" viewBox="0 0 905.28 612.74">
  <defs>
    <style>
      .cls-1 {
        fill: url(#radial-gradient-2);
      }

      .cls-1, .cls-2 {
        mix-blend-mode: screen;
      }

      .cls-3 {
        fill: url(#radial-gradient-3);
      }

      .cls-3, .cls-4 {
        opacity: .2;
      }

      .cls-5 {
        fill: #7d9fba;
      }

      .cls-6 {
        fill: #ff606a;
      }

      .cls-7 {
        fill: url(#linear-gradient-8);
      }

      .cls-8 {
        fill: url(#linear-gradient-7);
      }

      .cls-9 {
        fill: url(#linear-gradient-5);
      }

      .cls-10 {
        fill: url(#linear-gradient-6);
      }

      .cls-11 {
        fill: url(#linear-gradient-9);
      }

      .cls-12 {
        fill: url(#linear-gradient-4);
      }

      .cls-13 {
        fill: url(#linear-gradient-3);
      }

      .cls-14 {
        fill: url(#linear-gradient-2);
      }

      .cls-15 {
        fill: #edf2f3;
      }

      .cls-16 {
        opacity: .4;
      }

      .cls-16, .cls-17 {
        mix-blend-mode: overlay;
      }

      .cls-16, .cls-17, .cls-18, .cls-19, .cls-20, .cls-21, .cls-22 {
        fill: #fff;
      }

      .cls-17 {
        opacity: .73;
      }

      .cls-23 {
        fill: url(#linear-gradient);
      }

      .cls-18 {
        font-family: Montserrat-Bold, Montserrat;
        font-size: 38.58px;
        font-weight: 700;
      }

      .cls-24 {
        fill: url(#_ÂÁ_Ï_ÌÌ_È_ËÂÌÚ_6);
      }

      .cls-19, .cls-25 {
        opacity: .24;
      }

      .cls-20 {
        opacity: .44;
      }

      .cls-21 {
        opacity: .56;
      }

      .cls-26 {
        fill: #a3dff5;
      }

      .cls-27 {
        fill: #edf3f9;
      }

      .cls-28 {
        isolation: isolate;
      }

      .cls-29 {
        fill: #00a6e5;
      }

      .cls-2 {
        fill: url(#radial-gradient);
      }

      .cls-30 {
        fill: url(#linear-gradient-43);
      }

      .cls-31 {
        fill: url(#linear-gradient-40);
      }

      .cls-32 {
        fill: url(#linear-gradient-41);
      }

      .cls-33 {
        fill: url(#linear-gradient-42);
      }

      .cls-34 {
        fill: url(#linear-gradient-49);
      }

      .cls-35 {
        fill: url(#linear-gradient-48);
      }

      .cls-36 {
        fill: url(#linear-gradient-45);
      }

      .cls-37 {
        fill: url(#linear-gradient-47);
      }

      .cls-38 {
        fill: url(#linear-gradient-44);
      }

      .cls-39 {
        fill: url(#linear-gradient-46);
      }

      .cls-40 {
        fill: url(#linear-gradient-10);
      }

      .cls-41 {
        fill: url(#linear-gradient-11);
      }

      .cls-42 {
        fill: url(#linear-gradient-12);
      }

      .cls-43 {
        fill: url(#linear-gradient-13);
      }

      .cls-44 {
        fill: url(#linear-gradient-19);
      }

      .cls-45 {
        fill: url(#linear-gradient-14);
      }

      .cls-46 {
        fill: url(#linear-gradient-21);
      }

      .cls-47 {
        fill: url(#linear-gradient-20);
      }

      .cls-48 {
        fill: url(#linear-gradient-22);
      }

      .cls-49 {
        fill: url(#linear-gradient-23);
      }

      .cls-50 {
        fill: url(#linear-gradient-28);
      }

      .cls-51 {
        fill: url(#linear-gradient-25);
      }

      .cls-52 {
        fill: url(#linear-gradient-32);
      }

      .cls-53 {
        fill: url(#linear-gradient-31);
      }

      .cls-54 {
        fill: url(#linear-gradient-33);
      }

      .cls-55 {
        fill: url(#linear-gradient-30);
      }

      .cls-56 {
        fill: url(#linear-gradient-15);
      }

      .cls-57 {
        fill: url(#linear-gradient-16);
      }

      .cls-58 {
        fill: url(#linear-gradient-17);
      }

      .cls-59 {
        fill: url(#linear-gradient-18);
      }

      .cls-60 {
        fill: url(#linear-gradient-35);
      }

      .cls-61 {
        fill: url(#linear-gradient-34);
      }

      .cls-62 {
        fill: url(#linear-gradient-36);
      }

      .cls-63 {
        fill: url(#linear-gradient-38);
      }

      .cls-64 {
        fill: url(#linear-gradient-27);
      }

      .cls-65 {
        fill: url(#linear-gradient-24);
      }

      .cls-66 {
        fill: url(#linear-gradient-26);
      }

      .cls-67 {
        fill: url(#linear-gradient-29);
      }

      .cls-68 {
        fill: url(#linear-gradient-37);
      }

      .cls-69 {
        fill: url(#linear-gradient-39);
      }

      .cls-70 {
        fill: url(#linear-gradient-57);
      }

      .cls-71 {
        fill: url(#linear-gradient-58);
      }

      .cls-72 {
        fill: url(#linear-gradient-59);
      }

      .cls-73 {
        fill: url(#linear-gradient-53);
      }

      .cls-74 {
        fill: url(#linear-gradient-54);
      }

      .cls-75 {
        fill: url(#linear-gradient-55);
      }

      .cls-76 {
        fill: url(#linear-gradient-56);
      }

      .cls-77 {
        fill: url(#linear-gradient-50);
      }

      .cls-78 {
        fill: url(#linear-gradient-51);
      }

      .cls-79 {
        fill: url(#linear-gradient-52);
      }

      .cls-80 {
        fill: url(#linear-gradient-60);
      }

      .cls-81 {
        fill: url(#linear-gradient-61);
      }

      .cls-82 {
        fill: url(#linear-gradient-62);
      }

      .cls-83 {
        fill: #eefdff;
      }

      .cls-84 {
        fill: #dde6f2;
      }

      .cls-85 {
        fill: url(#_ÂÁ_Ï_ÌÌ_È_ËÂÌÚ_12-2);
      }

      .cls-86 {
        fill: url(#_ÂÁ_Ï_ÌÌ_È_ËÂÌÚ_12);
      }

      .cls-87 {
        fill: #c0dee2;
        fill-rule: evenodd;
      }
    </style>
    <linearGradient id="linear-gradient" x1="332.92" y1="166.26" x2="523.71" y2="166.26" gradientUnits="userSpaceOnUse">
      <stop offset=".07" stop-color="#ff953c"/>
      <stop offset="1" stop-color="#804b1e"/>
    </linearGradient>
    <linearGradient id="linear-gradient-2" x1="357.53" y1="166.26" x2="458.63" y2="166.26" gradientUnits="userSpaceOnUse">
      <stop offset="0" stop-color="#804b1e"/>
      <stop offset=".93" stop-color="#ff953c"/>
    </linearGradient>
    <linearGradient id="linear-gradient-3" x1="159.28" y1="335.89" x2="745.96" y2="335.89" gradientUnits="userSpaceOnUse">
      <stop offset=".34" stop-color="#00a6e5"/>
      <stop offset=".78" stop-color="#005373"/>
    </linearGradient>
    <linearGradient id="linear-gradient-4" x1="170.6" y1="335.89" x2="734.64" y2="335.89" gradientUnits="userSpaceOnUse">
      <stop offset="0" stop-color="#005373"/>
      <stop offset=".93" stop-color="#002a39"/>
    </linearGradient>
    <linearGradient id="linear-gradient-5" x1="413.75" y1="549.12" x2="491.5" y2="549.12" xlink:href="#linear-gradient-3"/>
    <linearGradient id="linear-gradient-6" x1="413.75" y1="517.06" x2="491.5" y2="517.06" xlink:href="#linear-gradient-4"/>
    <linearGradient id="linear-gradient-7" x1="389.01" y1="593.89" x2="516.24" y2="593.89" gradientUnits="userSpaceOnUse">
      <stop offset=".07" stop-color="#002a39"/>
      <stop offset="1" stop-color="#005373"/>
    </linearGradient>
    <linearGradient id="linear-gradient-8" x1="348.07" y1="606.26" x2="557.18" y2="606.26" xlink:href="#linear-gradient-4"/>
    <linearGradient id="linear-gradient-9" x1="138.02" y1="175.21" x2="197.47" y2="175.21" gradientUnits="userSpaceOnUse">
      <stop offset=".07" stop-color="#00a6e5"/>
      <stop offset="1" stop-color="#005373"/>
    </linearGradient>
    <linearGradient id="linear-gradient-10" x1="185.5" y1="177.31" x2="235.11" y2="177.31" gradientUnits="userSpaceOnUse">
      <stop offset="0" stop-color="#328045"/>
      <stop offset=".93" stop-color="#266034"/>
    </linearGradient>
    <linearGradient id="linear-gradient-11" x1="182.41" y1="146.05" x2="202.55" y2="146.05" gradientUnits="userSpaceOnUse">
      <stop offset="0" stop-color="#bf702d"/>
      <stop offset=".93" stop-color="#ff953c"/>
    </linearGradient>
    <linearGradient id="linear-gradient-12" x1="306.09" y1="214.49" x2="471.35" y2="214.49" gradientUnits="userSpaceOnUse">
      <stop offset="0" stop-color="#005373"/>
      <stop offset=".93" stop-color="#00a6e5"/>
    </linearGradient>
    <linearGradient id="linear-gradient-13" x1="327.75" y1="322.16" x2="327.75" y2="275.87" gradientUnits="userSpaceOnUse">
      <stop offset="0" stop-color="#804b1e"/>
      <stop offset=".93" stop-color="#ff953c"/>
    </linearGradient>
    <linearGradient id="linear-gradient-14" x1="352.06" y1="322.16" x2="352.06" y2="254.21" xlink:href="#linear-gradient-12"/>
    <linearGradient id="linear-gradient-15" x1="376.36" y1="322.16" x2="376.36" y2="275.87" gradientUnits="userSpaceOnUse">
      <stop offset=".07" stop-color="#0d2011"/>
      <stop offset=".91" stop-color="#328045"/>
    </linearGradient>
    <linearGradient id="linear-gradient-16" x1="400.67" y1="322.16" x2="400.67" y2="263.58" xlink:href="#linear-gradient-12"/>
    <linearGradient id="linear-gradient-17" x1="424.97" x2="424.97" y2="249.94" xlink:href="#linear-gradient-13"/>
    <linearGradient id="linear-gradient-18" x1="359.43" y1="384.86" x2="359.43" y2="351.09" xlink:href="#linear-gradient-12"/>
    <linearGradient id="linear-gradient-19" x1="358.8" y1="385.96" x2="392.58" y2="385.96" xlink:href="#linear-gradient-13"/>
    <linearGradient id="linear-gradient-20" x1="362.41" y1="418.64" x2="362.41" y2="384.86" gradientUnits="userSpaceOnUse">
      <stop offset=".09" stop-color="#328045"/>
      <stop offset=".93" stop-color="#0d2011"/>
    </linearGradient>
    <linearGradient id="linear-gradient-21" x1="513.17" y1="249.51" x2="546.42" y2="249.51" gradientUnits="userSpaceOnUse">
      <stop offset="0" stop-color="#194023"/>
      <stop offset=".93" stop-color="#005373"/>
    </linearGradient>
    <linearGradient id="linear-gradient-22" x1="572.43" x2="605.68" xlink:href="#linear-gradient-21"/>
    <linearGradient id="linear-gradient-23" x1="525.98" y1="195.11" x2="592.87" y2="195.11" gradientUnits="userSpaceOnUse">
      <stop offset="0" stop-color="#328045"/>
      <stop offset=".93" stop-color="#00a6e5"/>
    </linearGradient>
    <linearGradient id="linear-gradient-24" x1="534.43" y1="136.01" x2="584.42" y2="136.01" xlink:href="#linear-gradient-23"/>
    <linearGradient id="linear-gradient-25" x1="532.56" y1="157.18" x2="586.29" y2="157.18" xlink:href="#linear-gradient"/>
    <linearGradient id="linear-gradient-26" x1="533.1" y1="205.34" x2="585.74" y2="205.34" xlink:href="#linear-gradient-13"/>
    <linearGradient id="linear-gradient-27" x1="540.81" y1="205.34" x2="578.04" y2="205.34" xlink:href="#linear-gradient"/>
    <linearGradient id="linear-gradient-28" x1="540.25" y1="282.05" x2="578.6" y2="282.05" xlink:href="#linear-gradient-13"/>
    <linearGradient id="linear-gradient-29" x1="543.69" y1="274.95" x2="575.16" y2="274.95" xlink:href="#linear-gradient-15"/>
    <linearGradient id="linear-gradient-30" x1="810.91" y1="392.37" x2="832.21" y2="392.37" xlink:href="#linear-gradient-21"/>
    <linearGradient id="linear-gradient-31" x1="810.91" y1="388.97" x2="832.21" y2="388.97" xlink:href="#linear-gradient-9"/>
    <linearGradient id="linear-gradient-32" x1="787.93" y1="356.04" x2="855.19" y2="356.04" xlink:href="#linear-gradient"/>
    <linearGradient id="linear-gradient-33" x1="776.61" y1="357.59" x2="783.82" y2="357.59" xlink:href="#linear-gradient-21"/>
    <linearGradient id="linear-gradient-34" x1="780.78" y1="334.69" x2="787.14" y2="334.69" gradientTransform="translate(777.33 -517.7) rotate(66.44)" xlink:href="#linear-gradient-21"/>
    <linearGradient id="linear-gradient-35" x1="798.06" y1="318.57" x2="801.16" y2="318.57" gradientTransform="translate(267.26 -357.79) rotate(30.07)" xlink:href="#linear-gradient-21"/>
    <linearGradient id="linear-gradient-36" x1="820.79" y1="313.16" x2="822.33" y2="313.16" xlink:href="#linear-gradient-21"/>
    <linearGradient id="linear-gradient-37" x1="859.31" y1="357.59" x2="866.51" y2="357.59" xlink:href="#linear-gradient-21"/>
    <linearGradient id="linear-gradient-38" x1="855.98" y1="334.69" x2="862.34" y2="334.69" gradientTransform="translate(205.7 -315.82) rotate(23.59)" xlink:href="#linear-gradient-21"/>
    <linearGradient id="linear-gradient-39" x1="841.96" y1="318.57" x2="845.06" y2="318.57" gradientTransform="translate(696.56 -571.04) rotate(59.93)" xlink:href="#linear-gradient-21"/>
    <linearGradient id="linear-gradient-40" x1="753" y1="507.93" x2="768.44" y2="507.93" xlink:href="#linear-gradient-12"/>
    <linearGradient id="linear-gradient-41" x1="263.07" y1="494.71" x2="339.43" y2="494.71" xlink:href="#linear-gradient-11"/>
    <linearGradient id="linear-gradient-42" x1="271" y1="494.71" x2="331.5" y2="494.71" gradientTransform="translate(438.05 -68.12) rotate(45)" gradientUnits="userSpaceOnUse">
      <stop offset=".07" stop-color="#ff953c"/>
      <stop offset="1" stop-color="#bf702d"/>
    </linearGradient>
    <linearGradient id="linear-gradient-43" x1="275.66" y1="494.71" x2="326.84" y2="494.71" gradientTransform="translate(438.05 -68.12) rotate(45)" xlink:href="#linear-gradient-11"/>
    <linearGradient id="linear-gradient-44" x1="562.85" y1="532.84" x2="611.05" y2="532.84" xlink:href="#linear-gradient-10"/>
    <linearGradient id="linear-gradient-45" x1="659.16" y1="206.31" x2="777.75" y2="206.31" xlink:href="#linear-gradient-21"/>
    <linearGradient id="linear-gradient-46" x1="683.41" y1="153.79" x2="753.21" y2="153.79" xlink:href="#linear-gradient-11"/>
    <linearGradient id="linear-gradient-47" x1="684.88" y1="291.18" x2="752.03" y2="291.18" gradientUnits="userSpaceOnUse">
      <stop offset="0" stop-color="#005373"/>
      <stop offset="1" stop-color="#00a6e5"/>
    </linearGradient>
    <linearGradient id="linear-gradient-48" x1="478.17" y1="341.26" x2="647.53" y2="341.26" xlink:href="#linear-gradient-10"/>
    <linearGradient id="linear-gradient-49" x1="261.34" y1="210.38" x2="280.97" y2="210.38" xlink:href="#linear-gradient-10"/>
    <linearGradient id="linear-gradient-50" x1="261.34" y1="257.08" x2="280.97" y2="257.08" gradientUnits="userSpaceOnUse">
      <stop offset=".22" stop-color="#005373"/>
      <stop offset=".66" stop-color="#00a6e5"/>
    </linearGradient>
    <linearGradient id="linear-gradient-51" x1="261.34" y1="265.68" x2="280.97" y2="265.68" xlink:href="#linear-gradient-9"/>
    <linearGradient id="linear-gradient-52" x1="268.25" y1="146.34" x2="274.06" y2="146.34" xlink:href="#linear-gradient-21"/>
    <linearGradient id="linear-gradient-53" x1="2989.09" y1="3024.34" x2="3081.49" y2="2929.55" gradientTransform="translate(-2424.48 -2851.36) rotate(96.41) scale(1 -1)" gradientUnits="userSpaceOnUse">
      <stop offset=".22" stop-color="#47c7f8"/>
      <stop offset=".65" stop-color="#8dd09d"/>
    </linearGradient>
    <linearGradient id="linear-gradient-54" x1="706.99" y1="313.16" x2="724.2" y2="310.65" gradientTransform="translate(-580.64 622.91) scale(1 -1)" xlink:href="#linear-gradient-21"/>
    <linearGradient id="linear-gradient-55" x1="702.38" y1="357.11" x2="733.34" y2="322.16" gradientTransform="translate(-580.64 677.41) scale(1 -1)" xlink:href="#linear-gradient-23"/>
    <linearGradient id="linear-gradient-56" x1="653.66" y1="479.61" x2="784.11" y2="349.17" gradientTransform="translate(-580.64 812.95) scale(1 -1)" gradientUnits="userSpaceOnUse">
      <stop offset=".07" stop-color="#47c7f8"/>
      <stop offset="1" stop-color="#8dd09d"/>
    </linearGradient>
    <linearGradient id="linear-gradient-57" x1="718.36" y1="431.04" x2="719.44" y2="382.64" gradientTransform="translate(856.73) rotate(-180) scale(1 -1)" xlink:href="#linear-gradient-4"/>
    <radialGradient id="radial-gradient" cx="691.04" cy="406.24" fx="691.04" fy="406.24" r="91.07" gradientTransform="translate(856.73) rotate(-180) scale(1 -1)" gradientUnits="userSpaceOnUse">
      <stop offset="0" stop-color="#00a6e5"/>
      <stop offset=".2" stop-color="#000"/>
    </radialGradient>
    <linearGradient id="_ÂÁ_Ï_ÌÌ_È_ËÂÌÚ_12" data-name="¡ÂÁ˚ÏˇÌÌ˚È „‡‰ËÂÌÚ 12" x1="678.01" y1="406.48" x2="702.52" y2="406.48" gradientTransform="translate(856.73) rotate(-180) scale(1 -1)" gradientUnits="userSpaceOnUse">
      <stop offset="0" stop-color="#030d14"/>
      <stop offset="1" stop-color="#0b2f45"/>
    </linearGradient>
    <radialGradient id="radial-gradient-2" cx="745.19" cy="406.74" fx="745.19" fy="406.74" r="102.08" gradientTransform="translate(856.73) rotate(-180) scale(1 -1)" gradientUnits="userSpaceOnUse">
      <stop offset="0" stop-color="#00a6e5"/>
      <stop offset=".19" stop-color="#000"/>
    </radialGradient>
    <linearGradient id="_ÂÁ_Ï_ÌÌ_È_ËÂÌÚ_12-2" data-name="¡ÂÁ˚ÏˇÌÌ˚È „‡‰ËÂÌÚ 12" x1="732.93" x2="757.44" xlink:href="#_ÂÁ_Ï_ÌÌ_È_ËÂÌÚ_12"/>
    <linearGradient id="linear-gradient-58" x1="703.21" y1="292.38" x2="725.99" y2="289.06" gradientTransform="translate(856.73) rotate(-180) scale(1 -1)" xlink:href="#linear-gradient-56"/>
    <linearGradient id="linear-gradient-59" x1="709.69" y1="458.1" x2="744.73" y2="423.06" gradientTransform="translate(856.73) rotate(-180) scale(1 -1)" xlink:href="#linear-gradient-23"/>
    <linearGradient id="linear-gradient-60" x1="684.85" y1="556.19" x2="777.7" y2="447.76" gradientTransform="translate(856.73) rotate(-180) scale(1 -1)" xlink:href="#linear-gradient-56"/>
    <linearGradient id="_ÂÁ_Ï_ÌÌ_È_ËÂÌÚ_6" data-name="¡ÂÁ˚ÏˇÌÌ˚È „‡‰ËÂÌÚ 6" x1="679.93" y1="502.13" x2="735.77" y2="436.93" gradientTransform="translate(856.73) rotate(-180) scale(1 -1)" gradientUnits="userSpaceOnUse">
      <stop offset=".04" stop-color="#06cff1"/>
      <stop offset="1" stop-color="#defa8e"/>
    </linearGradient>
    <linearGradient id="linear-gradient-61" x1="5965.26" y1="943.59" x2="6041.64" y2="903.79" gradientTransform="translate(-5982.44 504.93) rotate(-8.66)" xlink:href="#linear-gradient-53"/>
    <linearGradient id="linear-gradient-62" x1="738.64" y1="535.07" x2="787.91" y2="509.39" gradientTransform="translate(856.73) rotate(-180) scale(1 -1)" xlink:href="#linear-gradient-23"/>
    <radialGradient id="radial-gradient-3" cx="145.39" cy="600.6" fx="145.39" fy="600.6" r="51" gradientTransform="translate(0 504.39) scale(1 .16)" gradientUnits="userSpaceOnUse">
      <stop offset=".22" stop-color="#000"/>
      <stop offset="1" stop-color="#000" stop-opacity="0"/>
    </radialGradient>
  </defs>
  <g class="cls-28">
    <g id="Layer_2" data-name="Layer 2">
      <g id="Layer_2-2" data-name="Layer 2">
        <g>
          <g class="cls-4">
            <path class="cls-87" d="M125.11,213.61c112.7-14.42,142.14-95.94,214.13-161.93,82.58-75.7,208.8-62.77,281.73,3.31,72.93,66.07,44.27,151.77,119.45,229.16,60.07,64.98,178.74,65.64,163.53,185.59-11.24,88.63-86.13,108.25-173.98,107.79-138.38-.73-290.8,11.89-433.55,14.17-219.18,3.5-92.88-93.64-207.9-141.61-132.37-55.2-113.11-239.69,36.59-236.48"/>
          </g>
          <g>
            <g>
              <path class="cls-23" d="M503.48,176.23v-19.94h-24.17c-.83-5.94-2.33-11.65-4.51-17.03l20.89-12.06-9.97-17.27-20.92,12.08c-3.63-4.65-7.81-8.82-12.46-12.46l12.08-20.92-17.27-9.97-12.06,20.89c-5.38-2.18-11.1-3.69-17.03-4.51v-24.17h-19.94v24.17c-5.94.83-11.65,2.33-17.03,4.51l-12.06-20.89-17.27,9.97,12.08,20.92c-4.65,3.63-8.82,7.81-12.45,12.46l-20.92-12.08-9.97,17.27,20.89,12.06c-2.18,5.38-3.69,11.09-4.51,17.03h-24.17v19.94h24.17c.82,5.94,2.33,11.65,4.51,17.03l-20.89,12.06,9.97,17.27,20.92-12.08c3.63,4.65,7.81,8.82,12.45,12.46l-12.08,20.92,17.27,9.97,12.06-20.89c5.38,2.18,11.1,3.69,17.03,4.51v24.17h19.94v-24.17c5.94-.83,11.65-2.33,17.03-4.51l12.06,20.89,17.27-9.97-12.08-20.92c4.65-3.63,8.82-7.81,12.46-12.45l20.92,12.08,9.97-17.27-20.89-12.06c2.18-5.38,3.69-11.1,4.51-17.03h24.17ZM408.08,198.03c-17.55,0-31.77-14.22-31.77-31.77s14.22-31.77,31.77-31.77,31.77,14.22,31.77,31.77-14.22,31.77-31.77,31.77Z"/>
              <path class="cls-14" d="M458.63,166.26c0-27.92-22.63-50.55-50.55-50.55s-50.55,22.63-50.55,50.55,22.63,50.55,50.55,50.55,50.55-22.63,50.55-50.55ZM408.08,198.03c-17.54,0-31.77-14.22-31.77-31.77s14.22-31.77,31.77-31.77,31.77,14.22,31.77,31.77-14.22,31.77-31.77,31.77Z"/>
            </g>
            <g>
              <g>
                <rect class="cls-13" x="159.28" y="161.54" width="586.68" height="348.71"/>
                <rect class="cls-12" x="170.6" y="172.7" width="564.04" height="326.37"/>
                <rect class="cls-22" x="178.07" y="182" width="549.1" height="307.79"/>
                <rect class="cls-9" x="413.75" y="510.25" width="77.75" height="77.75"/>
                <rect class="cls-10" x="413.75" y="510.25" width="77.75" height="13.62"/>
                <rect class="cls-8" x="389.01" y="588" width="127.23" height="11.78"/>
                <rect class="cls-7" x="348.07" y="599.78" width="209.11" height="12.96"/>
              </g>
              <g>
                <rect class="cls-84" x="131.4" y="123.87" width="110.34" height="79.71"/>
                <rect class="cls-27" x="138.02" y="129.85" width="97.1" height="67.75"/>
                <polygon class="cls-11" points="138.02 197.6 138.02 178.62 166.22 152.82 197.47 197.6 138.02 197.6"/>
                <polygon class="cls-40" points="197.47 197.6 235.11 197.6 235.11 178.2 214.46 157.01 185.5 180.45 197.47 197.6"/>
                <circle class="cls-41" cx="192.48" cy="146.05" r="10.07"/>
              </g>
              <g>
                <rect class="cls-84" x="306.09" y="206.21" width="165.26" height="237.33"/>
                <rect class="cls-42" x="306.09" y="206.21" width="165.26" height="16.57"/>
                <g>
                  <path class="cls-22" d="M321.01,214.49c0,2.25-1.82,4.07-4.07,4.07s-4.07-1.82-4.07-4.07,1.82-4.07,4.07-4.07,4.07,1.82,4.07,4.07Z"/>
                  <path class="cls-26" d="M334.5,214.49c0,2.25-1.82,4.07-4.07,4.07s-4.07-1.82-4.07-4.07,1.82-4.07,4.07-4.07,4.07,1.82,4.07,4.07Z"/>
                  <path class="cls-20" d="M347.99,214.49c0,2.25-1.82,4.07-4.07,4.07s-4.07-1.82-4.07-4.07,1.82-4.07,4.07-4.07,4.07,1.82,4.07,4.07Z"/>
                </g>
                <rect class="cls-43" x="321.01" y="275.87" width="13.49" height="46.29"/>
                <rect class="cls-45" x="345.31" y="254.21" width="13.49" height="67.95"/>
                <rect class="cls-56" x="369.62" y="275.87" width="13.49" height="46.29"/>
                <rect class="cls-57" x="393.92" y="263.58" width="13.49" height="58.58"/>
                <rect class="cls-58" x="418.23" y="249.94" width="13.49" height="72.23"/>
                <rect class="cls-29" x="316.94" y="322.16" width="122.1" height="4.62"/>
                <circle class="cls-27" cx="358.8" cy="384.86" r="33.78"/>
                <path class="cls-59" d="M358.8,384.86s13.52-14.63,22.44-25.19c-5.97-5.32-13.81-8.58-22.44-8.58-8.03,0-15.39,2.81-21.19,7.49,8.44,9.95,21.19,26.28,21.19,26.28Z"/>
                <path class="cls-44" d="M381.24,359.67l-22.44,25.19,19.71,27.39c8.51-6.13,14.07-16.1,14.07-27.39,0-10.03-4.4-19.01-11.34-25.19Z"/>
                <path class="cls-47" d="M346.31,416.22c3.87,1.54,8.08,2.42,12.49,2.42,7.37,0,14.16-2.38,19.71-6.39h0l-19.71-27.39-12.49,31.36Z"/>
                <g>
                  <rect class="cls-29" x="404.1" y="362.42" width="42.22" height="3.32"/>
                  <rect class="cls-22" x="404.1" y="372.97" width="42.22" height="3.32"/>
                  <rect class="cls-29" x="404.1" y="383.53" width="42.22" height="3.32"/>
                  <rect class="cls-29" x="404.1" y="394.08" width="42.22" height="3.32"/>
                  <rect class="cls-22" x="404.1" y="404.64" width="42.22" height="3.32"/>
                </g>
              </g>
              <g>
                <g>
                  <polygon class="cls-46" points="528.52 216.98 513.17 230.33 513.17 282.05 546.42 278.07 546.42 251.93 528.52 216.98"/>
                  <polygon class="cls-48" points="590.33 216.98 605.68 230.33 605.68 282.05 572.43 278.07 572.43 251.93 590.33 216.98"/>
                </g>
                <path class="cls-49" d="M559.42,117.54s-55.71,38.64-23.32,155.13h46.64c32.39-116.49-23.32-155.13-23.32-155.13Z"/>
                <path class="cls-65" d="M534.43,154.48h49.99c-9.91-26.46-24.99-36.93-24.99-36.93,0,0-15.09,10.48-24.99,36.93Z"/>
                <path class="cls-51" d="M532.56,159.88h53.73c-.6-1.87-1.22-3.67-1.87-5.4h-49.99c-.65,1.73-1.27,3.53-1.87,5.4Z"/>
                <circle class="cls-66" cx="559.42" cy="205.34" r="26.32"/>
                <circle class="cls-64" cx="559.42" cy="205.34" r="18.61"/>
                <circle class="cls-22" cx="559.42" cy="205.34" r="13.7"/>
                <polygon class="cls-6" points="578.6 291.42 540.25 291.42 544.79 272.67 574.06 272.67 578.6 291.42"/>
                <polygon class="cls-50" points="578.6 291.42 540.25 291.42 544.79 272.67 574.06 272.67 578.6 291.42"/>
                <polygon class="cls-67" points="575.16 277.22 574.06 272.67 544.79 272.67 543.69 277.22 575.16 277.22"/>
              </g>
              <g>
                <path class="cls-55" d="M828.83,403.05h-14.54c-1.87,0-3.39-1.52-3.39-3.39v-17.99h21.31v17.99c0,1.87-1.52,3.39-3.39,3.39Z"/>
                <path class="cls-53" d="M810.91,394.28c3.38,1.26,6.95,1.97,10.65,1.97s7.28-.71,10.65-1.97v-12.6h-21.31v12.6Z"/>
                <path class="cls-52" d="M855.19,353.91c0,18.57-15.06,37.89-33.63,37.89s-33.63-19.31-33.63-37.89,15.06-33.63,33.63-33.63,33.63,15.06,33.63,33.63Z"/>
                <g>
                  <rect class="cls-54" x="776.61" y="356.82" width="7.21" height="1.53" rx=".77" ry=".77"/>
                  <rect class="cls-61" x="783.19" y="331.29" width="1.53" height="6.79" rx=".77" ry=".77" transform="translate(163.77 919.48) rotate(-66.44)"/>
                  <rect class="cls-60" x="798.85" y="316.24" width="1.53" height="4.66" rx=".77" ry=".77" transform="translate(-52 443.55) rotate(-30.07)"/>
                  <rect class="cls-62" x="820.79" y="310.51" width="1.53" height="5.3" rx=".77" ry=".77"/>
                  <rect class="cls-68" x="859.31" y="356.82" width="7.21" height="1.53" rx=".77" ry=".77"/>
                  <rect class="cls-63" x="855.76" y="333.92" width="6.79" height="1.53" rx=".77" ry=".77" transform="translate(-62.14 371.74) rotate(-23.59)"/>
                  <rect class="cls-69" x="841.18" y="317.8" width="4.66" height="1.53" rx=".77" ry=".77" transform="translate(145.17 888.93) rotate(-59.93)"/>
                </g>
                <polyline class="cls-22" points="821.48 342.85 827.53 359.33 834.71 346.03 837.12 354.38 844.67 354.38 844.67 355.91 835.97 355.91 834.28 350.06 827.26 363.05 821.64 347.73 815.69 367.85 810.3 347.42 805.49 356.87 795.48 356.87 795.48 355.34 804.55 355.34 810.76 343.15 815.77 362.17"/>
                <rect class="cls-22" x="817.37" y="403.05" width="8.17" height="4.79"/>
              </g>
              <g>
                <rect class="cls-84" x="664.64" y="365.09" width="95.99" height="135.43"/>
                <rect class="cls-27" x="676.24" y="376.88" width="84.39" height="123.64"/>
                <polygon class="cls-22" points="753 515.6 681.36 515.6 681.36 380.68 768.44 380.68 768.44 500.26 753 515.6"/>
                <polygon class="cls-31" points="768.44 500.26 753 515.6 753.22 500.43 768.44 500.26"/>
                <g>
                  <rect class="cls-29" x="706.5" y="395.06" width="49.06" height="1.91"/>
                  <rect class="cls-29" x="694.24" y="407.32" width="61.33" height="1.91"/>
                  <g>
                    <rect class="cls-29" x="694.24" y="419.59" width="36.8" height="1.91"/>
                    <rect class="cls-29" x="745.14" y="419.59" width="10.43" height="1.91"/>
                  </g>
                  <rect class="cls-29" x="694.24" y="431.85" width="61.33" height="1.91"/>
                  <rect class="cls-29" x="694.24" y="444.12" width="61.33" height="1.91"/>
                  <rect class="cls-29" x="717.85" y="456.38" width="37.72" height="1.91"/>
                  <rect class="cls-29" x="694.24" y="456.38" width="9.2" height="1.91"/>
                  <rect class="cls-29" x="694.24" y="468.65" width="61.33" height="1.91"/>
                  <rect class="cls-29" x="694.24" y="480.91" width="61.33" height="1.91"/>
                  <rect class="cls-29" x="694.24" y="493.18" width="40.17" height="1.91"/>
                </g>
              </g>
              <g>
                <circle class="cls-32" cx="301.25" cy="494.71" r="38.18"/>
                <circle class="cls-33" cx="301.25" cy="494.71" r="30.25" transform="translate(-261.58 357.91) rotate(-45)"/>
                <circle class="cls-30" cx="301.25" cy="494.71" r="25.59" transform="translate(-261.58 357.91) rotate(-45)"/>
                <text class="cls-18" transform="translate(288.94 507.4)"><tspan x="0" y="0">$</tspan></text>
              </g>
              <path class="cls-22" d="M629.15,575h-77.52c-7.57,0-13.71-6.14-13.71-13.71v-56.59h91.23v70.29Z"/>
              <path class="cls-84" d="M637.7,554.48h-60.12c-2.78,15.93-15.49,19.97-24.19,20.83l76.07.21c10.21-6.06,8.25-21.04,8.25-21.04Z"/>
              <path class="cls-38" d="M564.32,531.85l16.54,10.55s11.34-20.91,26.66-26.21l3.53,2.65s-20.91,9.42-27.39,30.63l-20.81-12.76,1.47-4.86Z"/>
              <g>
                <rect class="cls-36" x="659.16" y="99.5" width="118.59" height="213.62" rx="13.35" ry="13.35"/>
                <path class="cls-22" d="M760.54,104.92h-15.66c-1.31,0-2.5.73-3.1,1.89l-2.59,5c-.7,1.36-2.11,2.21-3.64,2.21h-34.19c-1.53,0-2.93-.85-3.64-2.21l-2.59-5c-.6-1.16-1.8-1.89-3.1-1.89h-15.66c-6.36,0-11.52,5.16-11.52,11.52v179.74c0,6.36,5.16,11.52,11.52,11.52h84.17c6.36,0,11.52-5.16,11.52-11.52V116.44c0-6.36-5.16-11.52-11.52-11.52Z"/>
                <rect class="cls-39" x="683.41" y="130.23" width="69.8" height="47.12" rx="5.3" ry="5.3"/>
                <path class="cls-15" d="M708.57,164.82v-22.07c0-1.85,1.99-3.01,3.6-2.1l19.55,11.03c1.63.92,1.63,3.28,0,4.2l-19.55,11.03c-1.61.91-3.6-.25-3.6-2.1Z"/>
                <g>
                  <rect class="cls-27" x="678.73" y="192.1" width="19" height="19"/>
                  <g>
                    <rect class="cls-29" x="705.59" y="193.5" width="53.18" height="2.11"/>
                    <rect class="cls-84" x="705.59" y="200.54" width="53.18" height="2.11"/>
                    <rect class="cls-29" x="705.59" y="207.59" width="53.18" height="2.11"/>
                  </g>
                </g>
                <g>
                  <rect class="cls-84" x="678.73" y="223.42" width="19" height="19"/>
                  <g>
                    <rect class="cls-29" x="705.59" y="224.82" width="53.18" height="2.11"/>
                    <rect class="cls-84" x="705.59" y="231.86" width="53.18" height="2.11"/>
                    <rect class="cls-84" x="705.59" y="238.9" width="53.18" height="2.11"/>
                  </g>
                </g>
                <g>
                  <rect class="cls-27" x="678.73" y="254.73" width="19" height="19"/>
                  <g>
                    <rect class="cls-29" x="705.59" y="256.13" width="53.18" height="2.11"/>
                    <rect class="cls-29" x="705.59" y="263.18" width="53.18" height="2.11"/>
                    <rect class="cls-84" x="705.59" y="270.22" width="53.18" height="2.11"/>
                  </g>
                </g>
                <rect class="cls-37" x="684.88" y="284.55" width="67.15" height="13.25"/>
              </g>
              <g>
                <rect class="cls-27" x="478.17" y="333.77" width="169.36" height="130.07"/>
                <rect class="cls-35" x="478.17" y="333.77" width="169.36" height="14.96"/>
                <g>
                  <path class="cls-22" d="M494.62,341.76c0,2.18-1.82,3.94-4.07,3.94s-4.07-1.76-4.07-3.94,1.82-3.94,4.07-3.94,4.07,1.77,4.07,3.94Z"/>
                  <path class="cls-21" d="M508.11,341.76c0,2.18-1.82,3.94-4.07,3.94s-4.07-1.76-4.07-3.94,1.82-3.94,4.07-3.94,4.07,1.77,4.07,3.94Z"/>
                  <path class="cls-19" d="M521.6,341.76c0,2.18-1.82,3.94-4.07,3.94s-4.07-1.76-4.07-3.94,1.82-3.94,4.07-3.94,4.07,1.77,4.07,3.94Z"/>
                </g>
                <g>
                  <polygon class="cls-5" points="568.47 432.46 543.27 404.71 568.58 379.49 573.19 384.12 552.3 404.94 573.3 428.07 568.47 432.46"/>
                  <polygon class="cls-5" points="611.94 432.42 607.33 427.79 628.22 406.97 607.22 383.83 612.05 379.44 637.25 407.19 611.94 432.42"/>
                  <rect class="cls-5" x="558.8" y="405.44" width="63.65" height="6.53" transform="translate(47.84 879.1) rotate(-75.6)"/>
                </g>
                <g>
                  <rect class="cls-22" x="486.48" y="366.75" width="49.2" height="2.09"/>
                  <rect class="cls-29" x="486.48" y="377.59" width="49.2" height="2.09"/>
                  <rect class="cls-29" x="486.48" y="388.42" width="49.2" height="2.09"/>
                  <rect class="cls-22" x="486.48" y="399.26" width="49.2" height="2.09"/>
                  <rect class="cls-22" x="486.48" y="410.09" width="49.2" height="2.09"/>
                  <rect class="cls-29" x="486.48" y="420.93" width="49.2" height="2.09"/>
                  <rect class="cls-22" x="486.48" y="431.76" width="49.2" height="2.09"/>
                  <rect class="cls-29" x="486.48" y="442.6" width="49.2" height="2.09"/>
                </g>
              </g>
              <g>
                <polygon class="cls-22" points="261.34 167.25 271.16 142.71 280.97 167.25 261.34 167.25"/>
                <polygon class="cls-34" points="280.97 167.25 280.97 258.82 261.34 258.82 261.34 167.25 267.32 161.93 271.16 167.05 276.07 162.73 280.97 167.25"/>
                <rect class="cls-77" x="261.34" y="255.35" width="19.63" height="3.47"/>
                <path class="cls-78" d="M280.97,258.82h-19.63v3.9c0,5.42,4.4,9.82,9.82,9.82h0c5.42,0,9.82-4.4,9.82-9.82v-3.9Z"/>
                <polygon class="cls-79" points="271.16 142.71 268.25 149.97 274.06 149.97 271.16 142.71"/>
                <g class="cls-25">
                  <rect class="cls-22" x="266.01" y="174.12" width="1.06" height="75.2"/>
                  <rect class="cls-22" x="270.63" y="174.12" width="1.06" height="75.2"/>
                  <rect class="cls-22" x="275.24" y="174.12" width="1.06" height="75.2"/>
                </g>
              </g>
            </g>
            <g>
              <g class="cls-4">
                <path d="M250.25,470.92c-.69-2.02-2.82-3.02-4.35-3.72-6.77-3.07-13.78-1.03-17.76.07-21.72,6.04-29.76,5.71-34.55,9.43-4.07-2.61-8.88-3.98-13.79-3.96l-34.06.14h-.52s-34.57-.14-34.57-.14c-7.09-.03-13.97,2.84-18.7,8.15-.73.27-1.35.57-1.83.84-10.93,6.29-7.69,33.54-.49,50.74,1.57,3.75,5.78,13.81,10.91,13.57,2.05-.1,3.57-1.8,4.65-3.09,0,0,0,0,0,.01,1.05,1.65,2.16,3.24,3.34,4.8,1.56,2.08,3.26,4.11,5.15,6.2,4.21,4.64,10.57,6.75,12.62,7.47,7.5,2.69,14.12,2.2,18.52,2.24h.77c4.42-.04,11.03.45,18.52-2.24,2.05-.73,8.42-2.83,12.62-7.47,11.14-12.3,15.67-22.62,25.06-51.5,11.46.1,28.04-8.21,38.69-17.1,3.1-2.59,11.42-9.53,9.74-14.46Z"/>
                <path d="M202.97,468.23c18.93,0,34.42-15.73,34.42-34.95v-38.44c0-34.2-27.56-62.18-61.24-62.18h-53.1c-33.68,0-61.24,27.98-61.24,62.18v38.44c0,19.3,15.41,34.95,34.42,34.95h106.74Z"/>
              </g>
              <g>
                <path class="cls-73" d="M218.4,473.82c-26.96,7.38-33.32,5.32-38.13,12.54-.55.83-3.37,5.07-2.8,10.51.45,4.34,2.86,7.68,4.38,9.15,9.23,8.94,34.64-2,49.2-13.96,3.17-2.61,11.69-9.6,9.97-14.57-.7-2.04-2.88-3.05-4.45-3.75-6.92-3.1-14.1-1.04-18.17.07Z"/>
                <rect class="cls-74" x="135.18" y="292.63" width="5.74" height="37.65" transform="translate(276.09 622.91) rotate(180)"/>
                <rect class="cls-75" x="112.94" y="326.34" width="50.2" height="24.74" rx="4.52" ry="4.52" transform="translate(276.09 677.41) rotate(180)"/>
                <path class="cls-76" d="M75.54,338.17h125.01c15.08,0,27.32,12.24,27.32,27.32v54.42c0,30.29-24.59,54.87-54.87,54.87h-69.89c-30.29,0-54.87-24.59-54.87-54.87v-54.42c0-15.08,12.24-27.32,27.32-27.32Z" transform="translate(276.09 812.95) rotate(180)"/>
                <path class="cls-70" d="M76.48,429.45h0c2.35,1.16,4.99,1.77,7.66,1.77h107.8c2.68,0,5.31-.61,7.66-1.77h0c5.77-2.85,9.03-8.62,8.22-14.53l-.06-.43c-2.76-20.02-20.9-35.42-43.13-36.58-9.41-.49-19.28-.74-29.58-.68-8.07.05-15.86.28-23.37.67-22.32,1.15-40.59,16.49-43.36,36.59-.02.14-.04.29-.06.43-.82,5.91,2.44,11.68,8.22,14.53Z"/>
                <circle class="cls-2" cx="166.46" cy="406.48" r="20.33"/>
                <circle class="cls-83" cx="166.46" cy="406.48" r="14.59"/>
                <circle class="cls-86" cx="166.46" cy="406.48" r="12.26"/>
                <path class="cls-83" d="M158.61,403.3c0,2.51,2.03,4.54,4.54,4.54s4.54-2.03,4.54-4.54-2.03-4.54-4.54-4.54-4.54,2.03-4.54,4.54Z"/>
                <circle class="cls-83" cx="168.27" cy="415.87" r="1.81"/>
                <path class="cls-83" d="M172.76,413.16c0,.5.41.91.91.91s.91-.41.91-.91-.41-.91-.91-.91-.91.41-.91.91Z"/>
                <circle class="cls-1" cx="111.54" cy="406.48" r="20.33"/>
                <circle class="cls-83" cx="111.54" cy="406.48" r="14.59"/>
                <circle class="cls-85" cx="111.54" cy="406.48" r="12.26"/>
                <path class="cls-83" d="M103.69,403.3c0,2.51,2.03,4.54,4.54,4.54s4.54-2.03,4.54-4.54-2.03-4.54-4.54-4.54-4.54,2.03-4.54,4.54Z"/>
                <circle class="cls-83" cx="113.35" cy="415.87" r="1.81"/>
                <path class="cls-83" d="M117.85,413.16c0,.5.41.91.91.91s.91-.41.91-.91-.41-.91-.91-.91-.91.41-.91.91Z"/>
                <path class="cls-71" d="M130.7,290.12c0,4.06,3.29,7.35,7.35,7.35s7.35-3.29,7.35-7.35-3.29-7.35-7.35-7.35-7.35,3.29-7.35,7.35Z"/>
                <path class="cls-16" d="M132.94,287.25c0,1.24,1,2.24,2.24,2.24s2.24-1,2.24-2.24-1-2.24-2.24-2.24-2.24,1-2.24,2.24Z"/>
                <path class="cls-16" d="M74.75,361.74c-.1,3.43,2.7,7.54,5.91,7.89,3.01.33,5.41-2.74,7.89-5.91,2.44-3.12,7.78-11.15,5.65-13.42-2.8-2.99-19.22,3.35-19.45,11.44Z"/>
                <circle class="cls-16" cx="102.23" cy="346.1" r="2.55"/>
                <path class="cls-17" d="M75.12,409.34c.82.58,6.53-11.06,21.87-21.16,5.39-3.55,10.71-6.08,10.4-6.81-.32-.75-6.32.64-11.12,2.87-15.29,7.09-22.13,24.41-21.16,25.1Z"/>
                <path class="cls-16" d="M114.4,333.66c.18.03.3-1.05,1.19-2.71,0,0,.42-.78.9-1.43,1.54-2.12,6.76-2.07,7.17-2.07,8.13.07,13.36-.44,13.36-.4,0,.04-3.81-.04-6.61-.09-7.88-.16-12.58-.58-14.59,1.53-.84.88-1.25,2.02-1.25,2.02-.57,1.55-.38,3.12-.16,3.16Z"/>
                <path class="cls-83" d="M116.09,439.94c.2,1.95,1.82,3.45,3.77,3.64l26.93,2.6c1.95.19,3.83-.97,4.39-2.85.25-.83.45-1.69.58-2.57.04-.24-.03-.49-.18-.69-.15-.19-.38-.32-.62-.34l-33.97-3.28c-.24-.02-.48.05-.67.21-.18.16-.29.39-.3.63-.04.89-.01,1.78.08,2.65Z"/>
                <path class="cls-72" d="M116.09,439.94c.86,8.35,7.5,15.21,16.17,16.04,8.55.83,16.28-4.47,18.81-12.33-.68,1.68-2.44,2.7-4.28,2.52l-26.94-2.59c-1.95-.19-3.56-1.69-3.76-3.64Z"/>
                <path class="cls-80" d="M73.66,500.42c0,.25,0,.48.01.71.09,2.26.61,3.96.87,4.72,7.41,22.64,11.85,34.58,18.08,44.24,1.08,1.67,2.21,3.27,3.42,4.84,1.59,2.1,3.33,4.14,5.27,6.25,4.3,4.68,10.81,6.8,12.91,7.53,7.67,2.71,14.45,2.22,18.95,2.26h.79c4.52-.04,11.28.45,18.95-2.26,2.1-.73,8.62-2.85,12.91-7.53,11.83-12.88,16.38-23.58,26.77-55.33.25-.73.74-2.31.86-4.43.03-.61.04-1.23.01-1.84-.23-3.8-1.76-7.52-4.5-10.92-4.68-5.83-11.91-9.03-19.38-9.06l-36.03-.15-35.37-.14c-7.64-.03-15.04,3.17-19.89,9.08-2.35,2.86-3.84,5.95-4.39,9.13-.08.45-.14.91-.18,1.37-.04.51-.08,1.01-.08,1.53Z"/>
                <path class="cls-24" d="M133.57,479.46l36.03.15c7.48.03,14.7,3.23,19.38,9.06,2.73,3.4,4.27,7.12,4.5,10.92-.18-3.89-1.79-7.71-4.64-11.19-4.84-5.91-12.25-9.11-19.89-9.08l-35.38.14Z"/>
                <path class="cls-81" d="M97.77,532.54c.53-27.94,4.31-33.47-1.27-40.12-.64-.76-3.91-4.66-9.29-5.66-4.29-.79-8.18.58-10.02,1.62-11.18,6.34-7.86,33.8-.5,51.14,1.61,3.78,5.91,13.92,11.17,13.68,2.15-.1,3.74-1.91,4.85-3.21,4.93-5.77,4.98-13.24,5.06-17.45Z"/>
                <path class="cls-82" d="M92.62,550.1c1.08,1.67,2.21,3.27,3.42,4.84.39-.4.73-.8,1.04-1.16,4.93-5.77,4.98-13.23,5.06-17.45.53-27.95,4.31-33.47-1.27-40.11-.41-.49-1.9-2.27-4.34-3.74,5.51,6.63,1.75,12.2,1.23,40.06-.08,4.22-.14,11.68-5.06,17.46-.03.03-.06.06-.09.11Z"/>
                <path class="cls-16" d="M76.86,509.27c.16-3,.72-5.21,1.85-9.63,1.47-5.78,3.32-8.59,2.12-9.71-.78-.73-2.32-.24-2.67-.12-5.28,1.68-6.92,11.59-6.69,17.8.14,3.8,1.07,8.04,2.46,8.23.22.03.77,0,1.16-.34,1.55-1.37,1.66-3.94,1.78-6.22Z"/>
                <path class="cls-16" d="M73.23,519.86c0,.61.49,1.1,1.1,1.1s1.1-.49,1.1-1.1-.49-1.1-1.1-1.1-1.1.49-1.1,1.1Z"/>
              </g>
              <ellipse class="cls-3" cx="145.39" cy="600.6" rx="53.47" ry="8.17"/>
            </g>
          </g>
        </g>
      </g>
    </g>
  </g>
</svg>